%TF.GenerationSoftware,KiCad,Pcbnew,9.0.7*%
%TF.CreationDate,2026-02-13T21:21:14+01:00*%
%TF.ProjectId,ESC_v3,4553435f-7633-42e6-9b69-6361645f7063,rev?*%
%TF.SameCoordinates,Original*%
%TF.FileFunction,Copper,L1,Top*%
%TF.FilePolarity,Positive*%
%FSLAX46Y46*%
G04 Gerber Fmt 4.6, Leading zero omitted, Abs format (unit mm)*
G04 Created by KiCad (PCBNEW 9.0.7) date 2026-02-13 21:21:14*
%MOMM*%
%LPD*%
G01*
G04 APERTURE LIST*
G04 Aperture macros list*
%AMRoundRect*
0 Rectangle with rounded corners*
0 $1 Rounding radius*
0 $2 $3 $4 $5 $6 $7 $8 $9 X,Y pos of 4 corners*
0 Add a 4 corners polygon primitive as box body*
4,1,4,$2,$3,$4,$5,$6,$7,$8,$9,$2,$3,0*
0 Add four circle primitives for the rounded corners*
1,1,$1+$1,$2,$3*
1,1,$1+$1,$4,$5*
1,1,$1+$1,$6,$7*
1,1,$1+$1,$8,$9*
0 Add four rect primitives between the rounded corners*
20,1,$1+$1,$2,$3,$4,$5,0*
20,1,$1+$1,$4,$5,$6,$7,0*
20,1,$1+$1,$6,$7,$8,$9,0*
20,1,$1+$1,$8,$9,$2,$3,0*%
%AMFreePoly0*
4,1,18,-0.697500,2.280000,2.027500,2.280000,2.502500,2.280000,2.502500,1.530000,2.027500,1.530000,2.027500,-1.530000,2.502500,-1.530000,2.502500,-2.280000,-0.697500,-2.280000,-0.697500,-2.775000,-1.602500,-2.775000,-1.602500,-2.280000,-2.027500,-2.280000,-2.027500,2.280000,-1.602500,2.280000,-1.602500,2.775000,-0.697500,2.775000,-0.697500,2.280000,-0.697500,2.280000,$1*%
G04 Aperture macros list end*
%TA.AperFunction,ComponentPad*%
%ADD10R,1.700000X1.700000*%
%TD*%
%TA.AperFunction,SMDPad,CuDef*%
%ADD11RoundRect,0.200000X-0.200000X-0.275000X0.200000X-0.275000X0.200000X0.275000X-0.200000X0.275000X0*%
%TD*%
%TA.AperFunction,SMDPad,CuDef*%
%ADD12RoundRect,0.200000X0.275000X-0.200000X0.275000X0.200000X-0.275000X0.200000X-0.275000X-0.200000X0*%
%TD*%
%TA.AperFunction,SMDPad,CuDef*%
%ADD13RoundRect,0.200000X-0.275000X0.200000X-0.275000X-0.200000X0.275000X-0.200000X0.275000X0.200000X0*%
%TD*%
%TA.AperFunction,SMDPad,CuDef*%
%ADD14RoundRect,0.250000X0.450000X0.350000X-0.450000X0.350000X-0.450000X-0.350000X0.450000X-0.350000X0*%
%TD*%
%TA.AperFunction,SMDPad,CuDef*%
%ADD15RoundRect,0.250000X-0.350000X0.275000X-0.350000X-0.275000X0.350000X-0.275000X0.350000X0.275000X0*%
%TD*%
%TA.AperFunction,SMDPad,CuDef*%
%ADD16RoundRect,0.250000X0.250000X0.475000X-0.250000X0.475000X-0.250000X-0.475000X0.250000X-0.475000X0*%
%TD*%
%TA.AperFunction,SMDPad,CuDef*%
%ADD17RoundRect,0.187500X0.187500X-0.312500X0.187500X0.312500X-0.187500X0.312500X-0.187500X-0.312500X0*%
%TD*%
%TA.AperFunction,SMDPad,CuDef*%
%ADD18FreePoly0,90.000000*%
%TD*%
%TA.AperFunction,SMDPad,CuDef*%
%ADD19RoundRect,0.125000X0.125000X-0.125000X0.125000X0.125000X-0.125000X0.125000X-0.125000X-0.125000X0*%
%TD*%
%TA.AperFunction,SMDPad,CuDef*%
%ADD20RoundRect,0.250000X-1.425000X0.362500X-1.425000X-0.362500X1.425000X-0.362500X1.425000X0.362500X0*%
%TD*%
%TA.AperFunction,SMDPad,CuDef*%
%ADD21RoundRect,0.200000X0.200000X0.275000X-0.200000X0.275000X-0.200000X-0.275000X0.200000X-0.275000X0*%
%TD*%
%TA.AperFunction,SMDPad,CuDef*%
%ADD22RoundRect,0.250000X0.475000X-0.250000X0.475000X0.250000X-0.475000X0.250000X-0.475000X-0.250000X0*%
%TD*%
%TA.AperFunction,ComponentPad*%
%ADD23C,3.200000*%
%TD*%
%TA.AperFunction,SMDPad,CuDef*%
%ADD24RoundRect,0.075000X-0.662500X-0.075000X0.662500X-0.075000X0.662500X0.075000X-0.662500X0.075000X0*%
%TD*%
%TA.AperFunction,SMDPad,CuDef*%
%ADD25RoundRect,0.075000X-0.075000X-0.662500X0.075000X-0.662500X0.075000X0.662500X-0.075000X0.662500X0*%
%TD*%
%TA.AperFunction,ComponentPad*%
%ADD26C,5.500000*%
%TD*%
%TA.AperFunction,SMDPad,CuDef*%
%ADD27RoundRect,0.250000X-0.475000X0.250000X-0.475000X-0.250000X0.475000X-0.250000X0.475000X0.250000X0*%
%TD*%
%TA.AperFunction,SMDPad,CuDef*%
%ADD28RoundRect,0.166000X-0.664000X1.483437X-0.664000X-1.483437X0.664000X-1.483437X0.664000X1.483437X0*%
%TD*%
%TA.AperFunction,SMDPad,CuDef*%
%ADD29RoundRect,0.165988X-0.663953X1.483220X-0.663953X-1.483220X0.663953X-1.483220X0.663953X1.483220X0*%
%TD*%
%TA.AperFunction,SMDPad,CuDef*%
%ADD30RoundRect,0.018200X0.421800X0.111800X-0.421800X0.111800X-0.421800X-0.111800X0.421800X-0.111800X0*%
%TD*%
%TA.AperFunction,SMDPad,CuDef*%
%ADD31RoundRect,0.018200X0.111800X0.421800X-0.111800X0.421800X-0.111800X-0.421800X0.111800X-0.421800X0*%
%TD*%
%TA.AperFunction,SMDPad,CuDef*%
%ADD32R,4.150000X4.150000*%
%TD*%
%TA.AperFunction,SMDPad,CuDef*%
%ADD33RoundRect,0.225000X-0.250000X0.225000X-0.250000X-0.225000X0.250000X-0.225000X0.250000X0.225000X0*%
%TD*%
%TA.AperFunction,SMDPad,CuDef*%
%ADD34RoundRect,0.250000X-0.650000X-2.450000X0.650000X-2.450000X0.650000X2.450000X-0.650000X2.450000X0*%
%TD*%
%TA.AperFunction,SMDPad,CuDef*%
%ADD35RoundRect,0.225000X0.225000X0.250000X-0.225000X0.250000X-0.225000X-0.250000X0.225000X-0.250000X0*%
%TD*%
%TA.AperFunction,ComponentPad*%
%ADD36RoundRect,0.250000X-0.600000X-0.725000X0.600000X-0.725000X0.600000X0.725000X-0.600000X0.725000X0*%
%TD*%
%TA.AperFunction,ComponentPad*%
%ADD37O,1.700000X1.950000*%
%TD*%
%TA.AperFunction,ViaPad*%
%ADD38C,0.700000*%
%TD*%
%TA.AperFunction,ViaPad*%
%ADD39C,0.600000*%
%TD*%
%TA.AperFunction,ViaPad*%
%ADD40C,0.650000*%
%TD*%
%TA.AperFunction,ViaPad*%
%ADD41C,1.500000*%
%TD*%
%TA.AperFunction,Conductor*%
%ADD42C,0.300000*%
%TD*%
%TA.AperFunction,Conductor*%
%ADD43C,0.250000*%
%TD*%
%TA.AperFunction,Conductor*%
%ADD44C,0.500000*%
%TD*%
%TA.AperFunction,Conductor*%
%ADD45C,1.000000*%
%TD*%
%TA.AperFunction,Conductor*%
%ADD46C,0.604000*%
%TD*%
%TA.AperFunction,Conductor*%
%ADD47C,0.350000*%
%TD*%
%TA.AperFunction,Conductor*%
%ADD48C,0.259000*%
%TD*%
%TA.AperFunction,Conductor*%
%ADD49C,0.200000*%
%TD*%
%TA.AperFunction,Conductor*%
%ADD50C,0.450000*%
%TD*%
%TA.AperFunction,Conductor*%
%ADD51C,0.256000*%
%TD*%
G04 APERTURE END LIST*
D10*
%TO.P,J6,1,Pin_1*%
%TO.N,SWDIO*%
X153465000Y-107715000D03*
%TD*%
D11*
%TO.P,R2,1*%
%TO.N,Net-(C3-Pad1)*%
X152024626Y-40675000D03*
%TO.P,R2,2*%
%TO.N,V_A_PHASE*%
X153674626Y-40675000D03*
%TD*%
%TO.P,R24,1*%
%TO.N,Net-(C13-Pad1)*%
X131025000Y-40675000D03*
%TO.P,R24,2*%
%TO.N,V_C_PHASE*%
X132675000Y-40675000D03*
%TD*%
D10*
%TO.P,J4,1,Pin_1*%
%TO.N,+3V3RAW*%
X157440000Y-110315000D03*
%TD*%
D12*
%TO.P,R10,1*%
%TO.N,G_B_L*%
X146750000Y-54375000D03*
%TO.P,R10,2*%
%TO.N,Net-(Q4-G)*%
X146750000Y-52725000D03*
%TD*%
D13*
%TO.P,R44,1*%
%TO.N,INHC*%
X150626000Y-80525000D03*
%TO.P,R44,2*%
%TO.N,TIM1_CH3*%
X150626000Y-82175000D03*
%TD*%
D11*
%TO.P,R46,1*%
%TO.N,ADC1_IN11*%
X132575000Y-63550000D03*
%TO.P,R46,2*%
%TO.N,SOC*%
X134225000Y-63550000D03*
%TD*%
D14*
%TO.P,Y2,1,1*%
%TO.N,OSC_IN*%
X134525000Y-80150000D03*
%TO.P,Y2,2,2*%
%TO.N,GND*%
X132325000Y-80150000D03*
%TO.P,Y2,3,3*%
%TO.N,OSC_OUT*%
X132325000Y-81850000D03*
%TO.P,Y2,4,4*%
%TO.N,GND*%
X134525000Y-81850000D03*
%TD*%
D15*
%TO.P,L2,1,1*%
%TO.N,VREF*%
X147025000Y-91075000D03*
%TO.P,L2,2,2*%
%TO.N,+3V3*%
X147025000Y-93375000D03*
%TD*%
D13*
%TO.P,R45,1*%
%TO.N,INLC*%
X152100000Y-80525000D03*
%TO.P,R45,2*%
%TO.N,TIM1_CH3N*%
X152100000Y-82175000D03*
%TD*%
%TO.P,R53,1*%
%TO.N,Net-(C32-Pad1)*%
X143250000Y-96475000D03*
%TO.P,R53,2*%
%TO.N,GND*%
X143250000Y-98125000D03*
%TD*%
D16*
%TO.P,C39,1*%
%TO.N,GND*%
X150725000Y-91525000D03*
%TO.P,C39,2*%
%TO.N,VREF*%
X148825000Y-91525000D03*
%TD*%
D17*
%TO.P,Q4,1,S*%
%TO.N,SPB*%
X143295000Y-47854750D03*
%TO.P,Q4,2,S*%
X144565000Y-47854750D03*
%TO.P,Q4,3,S*%
X145835000Y-47854750D03*
%TO.P,Q4,4,G*%
%TO.N,Net-(Q4-G)*%
X147105000Y-47854750D03*
D18*
%TO.P,Q4,5,D*%
%TO.N,V_B_PHASE*%
X145200000Y-44362500D03*
%TD*%
D19*
%TO.P,D8,1,K*%
%TO.N,G_A_L*%
X158924626Y-53275000D03*
%TO.P,D8,2,A*%
%TO.N,Net-(D8-A)*%
X158924626Y-51075000D03*
%TD*%
D10*
%TO.P,J9,1,Pin_1*%
%TO.N,USART2_RX*%
X136900000Y-105600000D03*
%TD*%
D16*
%TO.P,C42,1*%
%TO.N,GND*%
X150700000Y-93500000D03*
%TO.P,C42,2*%
%TO.N,+3V3*%
X148800000Y-93500000D03*
%TD*%
D20*
%TO.P,R29,1*%
%TO.N,SPB*%
X142575000Y-49912500D03*
%TO.P,R29,2*%
%TO.N,GND*%
X142575000Y-55837500D03*
%TD*%
%TO.P,R25,1*%
%TO.N,SPA*%
X153074626Y-49912500D03*
%TO.P,R25,2*%
%TO.N,GND*%
X153074626Y-55837500D03*
%TD*%
D21*
%TO.P,R37,1*%
%TO.N,SPI1_SCK*%
X137700000Y-90850000D03*
%TO.P,R37,2*%
%TO.N,SCLK*%
X136050000Y-90850000D03*
%TD*%
D22*
%TO.P,C35,1*%
%TO.N,GND*%
X145200000Y-92550000D03*
%TO.P,C35,2*%
%TO.N,VREF*%
X145200000Y-90650000D03*
%TD*%
D11*
%TO.P,R38,1*%
%TO.N,SPI1_MISO*%
X136200000Y-67000000D03*
%TO.P,R38,2*%
%TO.N,SDO*%
X137850000Y-67000000D03*
%TD*%
D23*
%TO.P,J2,1,Pin_1*%
%TO.N,GND*%
X126440000Y-98015000D03*
X126440000Y-103885000D03*
X132310000Y-98015000D03*
X132310000Y-103885000D03*
%TD*%
D13*
%TO.P,R41,1*%
%TO.N,INLA*%
X130100000Y-83150000D03*
%TO.P,R41,2*%
%TO.N,TIM15_CH1N*%
X130100000Y-84800000D03*
%TD*%
%TO.P,R43,1*%
%TO.N,INLB*%
X144300000Y-75175000D03*
%TO.P,R43,2*%
%TO.N,TIM17_CH1N*%
X144300000Y-76825000D03*
%TD*%
%TO.P,R54,1*%
%TO.N,V_BAT_MEAS*%
X139800000Y-94825000D03*
%TO.P,R54,2*%
%TO.N,Net-(C32-Pad1)*%
X139800000Y-96475000D03*
%TD*%
D24*
%TO.P,U5,1,VBAT*%
%TO.N,+3V3*%
X139037500Y-81950000D03*
%TO.P,U5,2,PC13*%
%TO.N,unconnected-(U5-PC13-Pad2)*%
X139037500Y-82450000D03*
%TO.P,U5,3,PC14*%
%TO.N,unconnected-(U5-PC14-Pad3)*%
X139037500Y-82950000D03*
%TO.P,U5,4,PC15*%
%TO.N,unconnected-(U5-PC15-Pad4)*%
X139037500Y-83450000D03*
%TO.P,U5,5,PF0*%
%TO.N,OSC_IN*%
X139037500Y-83950000D03*
%TO.P,U5,6,PF1*%
%TO.N,OSC_OUT*%
X139037500Y-84450000D03*
%TO.P,U5,7,PG10*%
%TO.N,NRST*%
X139037500Y-84950000D03*
%TO.P,U5,8,PA0*%
%TO.N,unconnected-(U5-PA0-Pad8)*%
X139037500Y-85450000D03*
%TO.P,U5,9,PA1*%
%TO.N,TIM15_CH1N*%
X139037500Y-85950000D03*
%TO.P,U5,10,PA2*%
%TO.N,TIM15_CH1*%
X139037500Y-86450000D03*
%TO.P,U5,11,PA3*%
%TO.N,unconnected-(U5-PA3-Pad11)*%
X139037500Y-86950000D03*
%TO.P,U5,12,PA4*%
%TO.N,ADC2_IN12*%
X139037500Y-87450000D03*
D25*
%TO.P,U5,13,PA5*%
%TO.N,SPI1_SCK*%
X140450000Y-88862500D03*
%TO.P,U5,14,PA6*%
%TO.N,SPI1_MISO*%
X140950000Y-88862500D03*
%TO.P,U5,15,PA7*%
%TO.N,SPI1_MOSI*%
X141450000Y-88862500D03*
%TO.P,U5,16,PB0*%
%TO.N,SPI1_NSS{slash}CS*%
X141950000Y-88862500D03*
%TO.P,U5,17,PB1*%
%TO.N,unconnected-(U5-PB1-Pad17)*%
X142450000Y-88862500D03*
%TO.P,U5,18,PB2*%
%TO.N,V_BAT_MEAS*%
X142950000Y-88862500D03*
%TO.P,U5,19,VSSA*%
%TO.N,GND*%
X143450000Y-88862500D03*
%TO.P,U5,20,VREF+*%
%TO.N,VREF*%
X143950000Y-88862500D03*
%TO.P,U5,21,VDDA*%
X144450000Y-88862500D03*
%TO.P,U5,22,PB10*%
%TO.N,unconnected-(U5-PB10-Pad22)*%
X144950000Y-88862500D03*
%TO.P,U5,23,VSS*%
%TO.N,GND*%
X145450000Y-88862500D03*
%TO.P,U5,24,VDD*%
%TO.N,+3V3*%
X145950000Y-88862500D03*
D24*
%TO.P,U5,25,PB11*%
%TO.N,ADC1_IN14*%
X147362500Y-87450000D03*
%TO.P,U5,26,PB12*%
%TO.N,ADC1_IN11*%
X147362500Y-86950000D03*
%TO.P,U5,27,PB13*%
%TO.N,CAL*%
X147362500Y-86450000D03*
%TO.P,U5,28,PB14*%
%TO.N,unconnected-(U5-PB14-Pad28)*%
X147362500Y-85950000D03*
%TO.P,U5,29,PB15*%
%TO.N,TIM1_CH3N*%
X147362500Y-85450000D03*
%TO.P,U5,30,PA8*%
%TO.N,unconnected-(U5-PA8-Pad30)*%
X147362500Y-84950000D03*
%TO.P,U5,31,PA9*%
%TO.N,unconnected-(U5-PA9-Pad31)*%
X147362500Y-84450000D03*
%TO.P,U5,32,PA10*%
%TO.N,TIM1_CH3*%
X147362500Y-83950000D03*
%TO.P,U5,33,PA11*%
%TO.N,CAN_RX*%
X147362500Y-83450000D03*
%TO.P,U5,34,PA12*%
%TO.N,CAN_TX*%
X147362500Y-82950000D03*
%TO.P,U5,35,VSS*%
%TO.N,GND*%
X147362500Y-82450000D03*
%TO.P,U5,36,VDD*%
%TO.N,+3V3*%
X147362500Y-81950000D03*
D25*
%TO.P,U5,37,PA13*%
%TO.N,SWDIO*%
X145950000Y-80537500D03*
%TO.P,U5,38,PA14*%
%TO.N,SWCLK*%
X145450000Y-80537500D03*
%TO.P,U5,39,PA15*%
%TO.N,USART2_RX*%
X144950000Y-80537500D03*
%TO.P,U5,40,PB3*%
%TO.N,USART2_TX*%
X144450000Y-80537500D03*
%TO.P,U5,41,PB4*%
%TO.N,NFAULT*%
X143950000Y-80537500D03*
%TO.P,U5,42,PB5*%
%TO.N,ENABLE*%
X143450000Y-80537500D03*
%TO.P,U5,43,PB6*%
%TO.N,unconnected-(U5-PB6-Pad43)*%
X142950000Y-80537500D03*
%TO.P,U5,44,PB7*%
%TO.N,TIM17_CH1N*%
X142450000Y-80537500D03*
%TO.P,U5,45,PB8*%
%TO.N,BOOT0*%
X141950000Y-80537500D03*
%TO.P,U5,46,PB9*%
%TO.N,TIM17_CH1*%
X141450000Y-80537500D03*
%TO.P,U5,47,VSS*%
%TO.N,GND*%
X140950000Y-80537500D03*
%TO.P,U5,48,VDD*%
%TO.N,+3V3*%
X140450000Y-80537500D03*
%TD*%
D10*
%TO.P,J7,1,Pin_1*%
%TO.N,NRST*%
X157440000Y-107690000D03*
%TD*%
D26*
%TO.P,H4,1,1*%
%TO.N,unconnected-(H4-Pad1)*%
X162700000Y-109950000D03*
%TD*%
D16*
%TO.P,C6,1*%
%TO.N,Net-(Q2-G)*%
X157649626Y-49600000D03*
%TO.P,C6,2*%
%TO.N,SPA*%
X155749626Y-49600000D03*
%TD*%
D11*
%TO.P,R16,1*%
%TO.N,Net-(C9-Pad1)*%
X141525000Y-40675000D03*
%TO.P,R16,2*%
%TO.N,V_B_PHASE*%
X143175000Y-40675000D03*
%TD*%
D27*
%TO.P,C40,1*%
%TO.N,OSC_IN*%
X136500000Y-80375000D03*
%TO.P,C40,2*%
%TO.N,GND*%
X136500000Y-82275000D03*
%TD*%
D10*
%TO.P,J8,1,Pin_1*%
%TO.N,USART2_TX*%
X136900000Y-110840000D03*
%TD*%
D19*
%TO.P,D4,1,K*%
%TO.N,G_B_L*%
X148425000Y-53275000D03*
%TO.P,D4,2,A*%
%TO.N,Net-(D4-A)*%
X148425000Y-51075000D03*
%TD*%
D27*
%TO.P,C28,1*%
%TO.N,V_BAT*%
X153400000Y-67400000D03*
%TO.P,C28,2*%
%TO.N,GND*%
X153400000Y-69300000D03*
%TD*%
D13*
%TO.P,R42,1*%
%TO.N,INHB*%
X142800000Y-75175000D03*
%TO.P,R42,2*%
%TO.N,TIM17_CH1*%
X142800000Y-76825000D03*
%TD*%
D12*
%TO.P,R12,1*%
%TO.N,Net-(D8-A)*%
X159124626Y-49925000D03*
%TO.P,R12,2*%
%TO.N,Net-(Q2-G)*%
X159124626Y-48275000D03*
%TD*%
D28*
%TO.P,D1,1,A1*%
%TO.N,V_BAT*%
X161555000Y-92500557D03*
D29*
%TO.P,D1,2,A2*%
%TO.N,GND*%
X154786061Y-92499688D03*
%TD*%
D10*
%TO.P,J10,1,Pin_1*%
%TO.N,GND*%
X136900000Y-108225000D03*
%TD*%
D30*
%TO.P,U2,1,CPL*%
%TO.N,Net-(U2-CPL)*%
X148335000Y-68850000D03*
%TO.P,U2,2,CPH*%
%TO.N,Net-(U2-CPH)*%
X148335000Y-68350000D03*
%TO.P,U2,3,VCP*%
%TO.N,Net-(U2-VCP)*%
X148335000Y-67850000D03*
%TO.P,U2,4,VM*%
%TO.N,V_BAT*%
X148335000Y-67350000D03*
%TO.P,U2,5,VDRAIN*%
X148335000Y-66850000D03*
%TO.P,U2,6,GHA*%
%TO.N,G_A_H*%
X148335000Y-66350000D03*
%TO.P,U2,7,SHA*%
%TO.N,V_A_PHASE*%
X148335000Y-65850000D03*
%TO.P,U2,8,GLA*%
%TO.N,G_A_L*%
X148335000Y-65350000D03*
%TO.P,U2,9,SPA*%
%TO.N,SPA*%
X148335000Y-64850000D03*
%TO.P,U2,10,SNA*%
%TO.N,SNA*%
X148335000Y-64350000D03*
D31*
%TO.P,U2,11,SNB*%
%TO.N,SNB*%
X147650000Y-63665000D03*
%TO.P,U2,12,SPB*%
%TO.N,SPB*%
X147150000Y-63665000D03*
%TO.P,U2,13,GLB*%
%TO.N,G_B_L*%
X146650000Y-63665000D03*
%TO.P,U2,14,SHB*%
%TO.N,V_B_PHASE*%
X146150000Y-63665000D03*
%TO.P,U2,15,GHB*%
%TO.N,G_B_H*%
X145650000Y-63665000D03*
%TO.P,U2,16,GHC*%
%TO.N,G_C_H*%
X145150000Y-63665000D03*
%TO.P,U2,17,SHC*%
%TO.N,V_C_PHASE*%
X144650000Y-63665000D03*
%TO.P,U2,18,GLC*%
%TO.N,G_C_L*%
X144150000Y-63665000D03*
%TO.P,U2,19,SPC*%
%TO.N,SPC*%
X143650000Y-63665000D03*
%TO.P,U2,20,SNC*%
%TO.N,SNC*%
X143150000Y-63665000D03*
D30*
%TO.P,U2,21,SOC*%
%TO.N,SOC*%
X142465000Y-64350000D03*
%TO.P,U2,22,SOB*%
%TO.N,SOB*%
X142465000Y-64850000D03*
%TO.P,U2,23,SOA*%
%TO.N,SOA*%
X142465000Y-65350000D03*
%TO.P,U2,24,VREF*%
%TO.N,+3V3*%
X142465000Y-65850000D03*
%TO.P,U2,25,NFAULT*%
%TO.N,NFAULT*%
X142465000Y-66350000D03*
%TO.P,U2,26,SDO*%
%TO.N,SDO*%
X142465000Y-66850000D03*
%TO.P,U2,27,SDI*%
%TO.N,SDI*%
X142465000Y-67350000D03*
%TO.P,U2,28,SCLK*%
%TO.N,SCLK*%
X142465000Y-67850000D03*
%TO.P,U2,29,NSCS*%
%TO.N,nSCS*%
X142465000Y-68350000D03*
%TO.P,U2,30,ENABLE*%
%TO.N,ENABLE*%
X142465000Y-68850000D03*
D31*
%TO.P,U2,31,CAL*%
%TO.N,CAL*%
X143150000Y-69535000D03*
%TO.P,U2,32,AGND*%
%TO.N,GND*%
X143650000Y-69535000D03*
%TO.P,U2,33,DVDD*%
%TO.N,+3V3*%
X144150000Y-69535000D03*
%TO.P,U2,34,INHA*%
%TO.N,INHA*%
X144650000Y-69535000D03*
%TO.P,U2,35,INLA*%
%TO.N,INLA*%
X145150000Y-69535000D03*
%TO.P,U2,36,INHB*%
%TO.N,INHB*%
X145650000Y-69535000D03*
%TO.P,U2,37,INLB*%
%TO.N,INLB*%
X146150000Y-69535000D03*
%TO.P,U2,38,INHC*%
%TO.N,INHC*%
X146650000Y-69535000D03*
%TO.P,U2,39,INLC*%
%TO.N,INLC*%
X147150000Y-69535000D03*
%TO.P,U2,40,PGND*%
%TO.N,GND*%
X147650000Y-69535000D03*
D32*
%TO.P,U2,41,EXP*%
X145400000Y-66600000D03*
%TD*%
D16*
%TO.P,C41,1*%
%TO.N,GND*%
X134675000Y-83725000D03*
%TO.P,C41,2*%
%TO.N,OSC_OUT*%
X132775000Y-83725000D03*
%TD*%
D12*
%TO.P,R52,1*%
%TO.N,V_BAT*%
X144725000Y-98125000D03*
%TO.P,R52,2*%
%TO.N,Net-(C32-Pad1)*%
X144725000Y-96475000D03*
%TD*%
D10*
%TO.P,J3,1,Pin_1*%
%TO.N,GND*%
X153465000Y-105090000D03*
%TD*%
D22*
%TO.P,C43,1*%
%TO.N,GND*%
X143225000Y-93125000D03*
%TO.P,C43,2*%
%TO.N,VREF*%
X143225000Y-91225000D03*
%TD*%
D12*
%TO.P,R18,1*%
%TO.N,Net-(D6-A)*%
X138125000Y-49925000D03*
%TO.P,R18,2*%
%TO.N,Net-(Q6-G)*%
X138125000Y-48275000D03*
%TD*%
D27*
%TO.P,C38,1*%
%TO.N,GND*%
X140875000Y-76225000D03*
%TO.P,C38,2*%
%TO.N,+3V3*%
X140875000Y-78125000D03*
%TD*%
%TO.P,C37,1*%
%TO.N,GND*%
X148000000Y-78650000D03*
%TO.P,C37,2*%
%TO.N,+3V3*%
X148000000Y-80550000D03*
%TD*%
D16*
%TO.P,C36,1*%
%TO.N,GND*%
X149875000Y-88850000D03*
%TO.P,C36,2*%
%TO.N,+3V3*%
X147975000Y-88850000D03*
%TD*%
D33*
%TO.P,C23,1*%
%TO.N,V_BAT*%
X151675000Y-67650000D03*
%TO.P,C23,2*%
%TO.N,GND*%
X151675000Y-69200000D03*
%TD*%
D11*
%TO.P,R48,1*%
%TO.N,ADC2_IN12*%
X132575000Y-66650000D03*
%TO.P,R48,2*%
%TO.N,SOA*%
X134225000Y-66650000D03*
%TD*%
D20*
%TO.P,R30,1*%
%TO.N,SPC*%
X132075000Y-49912500D03*
%TO.P,R30,2*%
%TO.N,GND*%
X132075000Y-55837500D03*
%TD*%
D12*
%TO.P,R8,1*%
%TO.N,Net-(D4-A)*%
X148625000Y-49925000D03*
%TO.P,R8,2*%
%TO.N,Net-(Q4-G)*%
X148625000Y-48275000D03*
%TD*%
D21*
%TO.P,R39,1*%
%TO.N,SPI1_MOSI*%
X137700000Y-92725000D03*
%TO.P,R39,2*%
%TO.N,SDI*%
X136050000Y-92725000D03*
%TD*%
D16*
%TO.P,C8,1*%
%TO.N,Net-(Q4-G)*%
X147150000Y-49600000D03*
%TO.P,C8,2*%
%TO.N,SPB*%
X145250000Y-49600000D03*
%TD*%
D34*
%TO.P,C19,1*%
%TO.N,V_BAT*%
X157825000Y-78300000D03*
%TO.P,C19,2*%
%TO.N,GND*%
X162925000Y-78300000D03*
%TD*%
D23*
%TO.P,J11,1,Pin_1*%
%TO.N,V_BAT*%
X158090000Y-97990000D03*
X158090000Y-103860000D03*
X163960000Y-97990000D03*
X163960000Y-103860000D03*
%TD*%
D26*
%TO.P,H2,1,1*%
%TO.N,unconnected-(H2-Pad1)*%
X162700000Y-37400000D03*
%TD*%
D35*
%TO.P,C20,1*%
%TO.N,Net-(U2-CPH)*%
X150425000Y-71000000D03*
%TO.P,C20,2*%
%TO.N,Net-(U2-CPL)*%
X148875000Y-71000000D03*
%TD*%
D36*
%TO.P,J1,1,Pin_1*%
%TO.N,CAN_H*%
X141450000Y-109130000D03*
D37*
%TO.P,J1,2,Pin_2*%
%TO.N,CAN_L*%
X143950000Y-109130000D03*
%TO.P,J1,3,Pin_3*%
%TO.N,GND*%
X146450000Y-109130000D03*
%TO.P,J1,4,Pin_4*%
%TO.N,+3V3RAW*%
X148950000Y-109130000D03*
%TD*%
D19*
%TO.P,D6,1,K*%
%TO.N,G_C_L*%
X137925000Y-53275000D03*
%TO.P,D6,2,A*%
%TO.N,Net-(D6-A)*%
X137925000Y-51075000D03*
%TD*%
D17*
%TO.P,Q2,1,S*%
%TO.N,SPA*%
X153794626Y-47854750D03*
%TO.P,Q2,2,S*%
X155064626Y-47854750D03*
%TO.P,Q2,3,S*%
X156334626Y-47854750D03*
%TO.P,Q2,4,G*%
%TO.N,Net-(Q2-G)*%
X157604626Y-47854750D03*
D18*
%TO.P,Q2,5,D*%
%TO.N,V_A_PHASE*%
X155699626Y-44362500D03*
%TD*%
D27*
%TO.P,C32,1*%
%TO.N,Net-(C32-Pad1)*%
X141525000Y-96500000D03*
%TO.P,C32,2*%
%TO.N,GND*%
X141525000Y-98400000D03*
%TD*%
D26*
%TO.P,H1,1,1*%
%TO.N,unconnected-(H1-Pad1)*%
X127700000Y-37400000D03*
%TD*%
D16*
%TO.P,C12,1*%
%TO.N,Net-(Q6-G)*%
X136650000Y-49600000D03*
%TO.P,C12,2*%
%TO.N,SPC*%
X134750000Y-49600000D03*
%TD*%
D27*
%TO.P,C9,1*%
%TO.N,Net-(C9-Pad1)*%
X141525000Y-42150000D03*
%TO.P,C9,2*%
%TO.N,SPB*%
X141525000Y-44050000D03*
%TD*%
%TO.P,C13,1*%
%TO.N,Net-(C13-Pad1)*%
X131025000Y-42150000D03*
%TO.P,C13,2*%
%TO.N,SPC*%
X131025000Y-44050000D03*
%TD*%
D17*
%TO.P,Q6,1,S*%
%TO.N,SPC*%
X132795000Y-47851585D03*
%TO.P,Q6,2,S*%
X134065000Y-47851585D03*
%TO.P,Q6,3,S*%
X135335000Y-47851585D03*
%TO.P,Q6,4,G*%
%TO.N,Net-(Q6-G)*%
X136605000Y-47851585D03*
D18*
%TO.P,Q6,5,D*%
%TO.N,V_C_PHASE*%
X134700000Y-44359335D03*
%TD*%
D21*
%TO.P,R22,1*%
%TO.N,Net-(Q6-G)*%
X136325000Y-51325000D03*
%TO.P,R22,2*%
%TO.N,SPC*%
X134675000Y-51325000D03*
%TD*%
D12*
%TO.P,R20,1*%
%TO.N,G_C_L*%
X136250000Y-54375000D03*
%TO.P,R20,2*%
%TO.N,Net-(Q6-G)*%
X136250000Y-52725000D03*
%TD*%
D16*
%TO.P,C48,1*%
%TO.N,ADC2_IN12*%
X137050000Y-88825000D03*
%TO.P,C48,2*%
%TO.N,GND*%
X135150000Y-88825000D03*
%TD*%
D13*
%TO.P,R40,1*%
%TO.N,INHA*%
X128625000Y-83150000D03*
%TO.P,R40,2*%
%TO.N,TIM15_CH1*%
X128625000Y-84800000D03*
%TD*%
D12*
%TO.P,R4,1*%
%TO.N,G_A_L*%
X157249626Y-54375000D03*
%TO.P,R4,2*%
%TO.N,Net-(Q2-G)*%
X157249626Y-52725000D03*
%TD*%
D10*
%TO.P,J5,1,Pin_1*%
%TO.N,SWCLK*%
X153465000Y-110340000D03*
%TD*%
D21*
%TO.P,R34,1*%
%TO.N,SPI1_NSS{slash}CS*%
X137700000Y-94200000D03*
%TO.P,R34,2*%
%TO.N,nSCS*%
X136050000Y-94200000D03*
%TD*%
%TO.P,R6,1*%
%TO.N,Net-(Q2-G)*%
X157324626Y-51325000D03*
%TO.P,R6,2*%
%TO.N,SPA*%
X155674626Y-51325000D03*
%TD*%
D11*
%TO.P,R47,1*%
%TO.N,ADC1_IN14*%
X132575000Y-65100000D03*
%TO.P,R47,2*%
%TO.N,SOB*%
X134225000Y-65100000D03*
%TD*%
D34*
%TO.P,C26,1*%
%TO.N,V_BAT*%
X157825000Y-84225000D03*
%TO.P,C26,2*%
%TO.N,GND*%
X162925000Y-84225000D03*
%TD*%
%TO.P,C1,1*%
%TO.N,V_BAT*%
X157825000Y-72375000D03*
%TO.P,C1,2*%
%TO.N,GND*%
X162925000Y-72375000D03*
%TD*%
D26*
%TO.P,H3,1,1*%
%TO.N,unconnected-(H3-Pad1)*%
X127700000Y-109950000D03*
%TD*%
D27*
%TO.P,C3,1*%
%TO.N,Net-(C3-Pad1)*%
X152024626Y-42150000D03*
%TO.P,C3,2*%
%TO.N,SPA*%
X152024626Y-44050000D03*
%TD*%
D33*
%TO.P,C22,1*%
%TO.N,V_BAT*%
X150200000Y-67650000D03*
%TO.P,C22,2*%
%TO.N,Net-(U2-VCP)*%
X150200000Y-69200000D03*
%TD*%
D21*
%TO.P,R14,1*%
%TO.N,Net-(Q4-G)*%
X146825000Y-51325000D03*
%TO.P,R14,2*%
%TO.N,SPB*%
X145175000Y-51325000D03*
%TD*%
D27*
%TO.P,C24,1*%
%TO.N,GND*%
X138875000Y-78150000D03*
%TO.P,C24,2*%
%TO.N,+3V3*%
X138875000Y-80050000D03*
%TD*%
D38*
%TO.N,V_BAT*%
X163500000Y-61500000D03*
X161500000Y-65500000D03*
X157500000Y-101500000D03*
X159500000Y-73500000D03*
X159500000Y-81500000D03*
X158500000Y-63500000D03*
X162500000Y-95500000D03*
X162500000Y-67500000D03*
X156500000Y-99500000D03*
X159500000Y-41500000D03*
X162500000Y-47500000D03*
X155500000Y-73500000D03*
X146700000Y-99025000D03*
X126000000Y-49000000D03*
X161500000Y-41500000D03*
X127000000Y-43000000D03*
X159500000Y-77500000D03*
X156500000Y-63500000D03*
X158500000Y-91500000D03*
X140000000Y-37500000D03*
X164500000Y-47500000D03*
X154500000Y-75500000D03*
X139000000Y-42000000D03*
X159500000Y-93500000D03*
X149500000Y-43500000D03*
X161500000Y-61500000D03*
X162500000Y-99500000D03*
X158500000Y-67500000D03*
X155500000Y-101500000D03*
X154500000Y-71500000D03*
X159500000Y-61500000D03*
X150500000Y-39000000D03*
X159500000Y-89500000D03*
X154500000Y-67500000D03*
X156500000Y-87500000D03*
X154500000Y-83500000D03*
X159500000Y-69500000D03*
X160500000Y-59500000D03*
X159500000Y-85500000D03*
X162500000Y-51500000D03*
X155500000Y-69500000D03*
X149500000Y-40500000D03*
X128000000Y-49000000D03*
X155500000Y-81500000D03*
X163500000Y-101500000D03*
X164500000Y-95500000D03*
X149500000Y-42000000D03*
X164500000Y-59500000D03*
X163500000Y-45500000D03*
X162500000Y-63500000D03*
X139000000Y-40500000D03*
X126000000Y-45000000D03*
X150500000Y-37500000D03*
X126000000Y-41000000D03*
X164500000Y-55500000D03*
X162500000Y-59500000D03*
X164500000Y-67500000D03*
X161500000Y-101500000D03*
X157500000Y-65500000D03*
X155500000Y-85500000D03*
X161500000Y-57500000D03*
X160500000Y-67500000D03*
X159500000Y-105500000D03*
X160500000Y-103500000D03*
X156500000Y-67500000D03*
X155500000Y-77500000D03*
X127000000Y-47000000D03*
X140000000Y-39000000D03*
X163500000Y-41500000D03*
X160500000Y-95500000D03*
X128000000Y-45000000D03*
X160500000Y-63500000D03*
X155500000Y-65500000D03*
X161500000Y-97500000D03*
X162500000Y-55500000D03*
X164500000Y-51500000D03*
X139000000Y-43500000D03*
X163500000Y-49500000D03*
X159500000Y-65500000D03*
X160500000Y-99500000D03*
X164500000Y-43500000D03*
X159500000Y-101500000D03*
X129000000Y-43000000D03*
X162500000Y-43500000D03*
X163500000Y-57500000D03*
X128000000Y-41000000D03*
X164500000Y-63500000D03*
X163500000Y-65500000D03*
X158500000Y-95500000D03*
X154500000Y-79500000D03*
X163500000Y-53500000D03*
X161500000Y-105500000D03*
%TO.N,V_A_PHASE*%
X156700000Y-33000000D03*
X157700000Y-35000000D03*
X157185000Y-45007750D03*
X156335000Y-45007750D03*
X155699870Y-31008566D03*
X154635000Y-45007750D03*
X153700000Y-35000000D03*
X158035000Y-45007750D03*
X154700000Y-33000000D03*
X157699848Y-31010206D03*
X155485000Y-45007750D03*
X153699789Y-31006927D03*
X158700000Y-33000000D03*
X155700000Y-35000000D03*
X152700000Y-33000000D03*
%TO.N,SPA*%
X151500000Y-51200000D03*
X152024626Y-45525000D03*
%TO.N,SPB*%
X141525000Y-45650000D03*
D39*
X147960000Y-59700000D03*
D38*
X143125000Y-51875000D03*
%TO.N,V_B_PHASE*%
X145835000Y-45007750D03*
X145200000Y-35000000D03*
X147199773Y-31001599D03*
X143199797Y-30998320D03*
X142200000Y-33000000D03*
X144135000Y-45007750D03*
X146200000Y-33000000D03*
X147535000Y-45007750D03*
X144200000Y-33000000D03*
X144985000Y-45007750D03*
X148200000Y-33000000D03*
X146685000Y-45007750D03*
X143200000Y-35000000D03*
X147200000Y-35000000D03*
X145199713Y-30999960D03*
%TO.N,SPC*%
X131025000Y-45650000D03*
%TO.N,V_C_PHASE*%
X131700000Y-33000000D03*
X134699782Y-30991353D03*
X136699760Y-30992992D03*
X135700000Y-33000000D03*
X132699742Y-30989714D03*
X135325000Y-45000000D03*
X132700000Y-35000000D03*
X137025000Y-45000000D03*
X136700000Y-35000000D03*
X133625000Y-45000000D03*
X136175000Y-45000000D03*
X134700000Y-35000000D03*
X133700000Y-33000000D03*
X137700000Y-33000000D03*
X134475000Y-45000000D03*
%TO.N,G_A_H*%
X153026766Y-64542293D03*
D39*
%TO.N,G_B_H*%
X142884456Y-59532772D03*
%TO.N,G_C_H*%
X140752709Y-59518948D03*
D38*
%TO.N,NFAULT*%
X147150000Y-74475000D03*
X139225000Y-66000000D03*
D39*
%TO.N,SDO*%
X137125000Y-66675000D03*
D38*
%TO.N,CAN_TX*%
X142775000Y-87125000D03*
%TO.N,CAN_RX*%
X144500000Y-87150000D03*
D39*
%TO.N,nSCS*%
X128325000Y-72525000D03*
X134325000Y-71425000D03*
%TO.N,SCLK*%
X134850000Y-70025000D03*
D38*
X134750000Y-90850000D03*
D39*
%TO.N,SDI*%
X133825000Y-68900000D03*
D38*
X134712500Y-92737500D03*
D39*
%TO.N,+3V3*%
X134575000Y-72850000D03*
D38*
X148500000Y-98425000D03*
X143175000Y-70550000D03*
X140349000Y-79126000D03*
X140934205Y-65769500D03*
X139050000Y-81150000D03*
X146775000Y-88925000D03*
X147375000Y-94625000D03*
X149175000Y-80375000D03*
D39*
%TO.N,NRST*%
X140089352Y-84950000D03*
D38*
%TO.N,ENABLE*%
X146150000Y-76725000D03*
D39*
X138701852Y-70651852D03*
%TO.N,ADC1_IN11*%
X149725000Y-86475000D03*
D38*
X129750000Y-73525000D03*
%TO.N,ADC1_IN14*%
X130875000Y-72250000D03*
D39*
X151500000Y-87025000D03*
D38*
%TO.N,SWCLK*%
X143114798Y-83914798D03*
%TO.N,SWDIO*%
X144150000Y-83500000D03*
D40*
%TO.N,USART2_TX*%
X140550000Y-86500000D03*
%TO.N,USART2_RX*%
X141400000Y-85525000D03*
D39*
%TO.N,SNA*%
X149175000Y-61175000D03*
D38*
%TO.N,CAL*%
X140118771Y-70193771D03*
D39*
X152200000Y-83975000D03*
D38*
%TO.N,BOOT0*%
X141950000Y-81675000D03*
D39*
%TO.N,SPI1_MISO*%
X135137500Y-68062500D03*
D38*
X132375000Y-91775000D03*
%TO.N,SNC*%
X134700000Y-61225000D03*
D39*
%TO.N,SNB*%
X148125000Y-62700000D03*
D38*
%TO.N,GND*%
X126000000Y-53000000D03*
X153325000Y-97800000D03*
D41*
X129300000Y-100950000D03*
D39*
X139991974Y-59766510D03*
D38*
X154325000Y-95800000D03*
X138204793Y-79023156D03*
D39*
X134500000Y-78950000D03*
X135416380Y-61697140D03*
D38*
X164950000Y-80400000D03*
D39*
X133766386Y-85350000D03*
X129700462Y-74373558D03*
D38*
X164950000Y-72400000D03*
X132000000Y-61000000D03*
D39*
X148589500Y-60246610D03*
D38*
X143449828Y-87739676D03*
D41*
X126315000Y-100950000D03*
D39*
X140089474Y-65675000D03*
X142479441Y-84479444D03*
D38*
X164950000Y-82400000D03*
D39*
X134725000Y-85350000D03*
X143575000Y-68675000D03*
D38*
X128000000Y-65000000D03*
X130390000Y-54417564D03*
X127000000Y-95000000D03*
X149025000Y-79225000D03*
D39*
X135975000Y-88830000D03*
D38*
X126000000Y-61000000D03*
D39*
X143870948Y-84303052D03*
D38*
X130000000Y-61000000D03*
D39*
X134058038Y-69911863D03*
D38*
X147125000Y-67200000D03*
D39*
X131525424Y-91801841D03*
D38*
X129000000Y-95000000D03*
X153815000Y-64107907D03*
D39*
X131675000Y-83100000D03*
D38*
X164950000Y-84400000D03*
X126000000Y-57000000D03*
D39*
X135700000Y-79150000D03*
D38*
X126000000Y-89000000D03*
X127000000Y-55000000D03*
X144800000Y-68325000D03*
X140945913Y-81663862D03*
D39*
X153400000Y-70150000D03*
D38*
X127000000Y-59000000D03*
X143675000Y-67200000D03*
X143700000Y-66000000D03*
X152075000Y-54525000D03*
X128000000Y-61000000D03*
D39*
X133900502Y-90879293D03*
D38*
X148650000Y-96575000D03*
X152475000Y-91900000D03*
X127000000Y-67000000D03*
X128000000Y-57000000D03*
X164950000Y-74400000D03*
X128000000Y-93000000D03*
D39*
X132750000Y-85225000D03*
D38*
X143500000Y-57175000D03*
X145400000Y-87699269D03*
X129000000Y-59000000D03*
D39*
X150648050Y-51132711D03*
D38*
X164950000Y-76400000D03*
D39*
X149800000Y-61846658D03*
X135918921Y-68233924D03*
D41*
X132285000Y-100950000D03*
D38*
X126000000Y-69000000D03*
D39*
X133037442Y-68759448D03*
X150750000Y-88850000D03*
X142000000Y-91448528D03*
X133425000Y-78950000D03*
D38*
X148625000Y-95125000D03*
X141600000Y-57175000D03*
X132900000Y-57147564D03*
X145475000Y-93875000D03*
D39*
X148550000Y-62022229D03*
X131100000Y-79475000D03*
D38*
X164950000Y-70400000D03*
X132325000Y-79150000D03*
X164950000Y-78400000D03*
X154700000Y-57175000D03*
X129000000Y-63000000D03*
D41*
X129300000Y-103935000D03*
D38*
X128000000Y-53000000D03*
D39*
X150471679Y-86187816D03*
D38*
X135650000Y-83175000D03*
X147125000Y-66000000D03*
X131000000Y-59000000D03*
D39*
X131100000Y-82300000D03*
X151675000Y-70000000D03*
D38*
X127000000Y-63000000D03*
X126000000Y-93000000D03*
X153375000Y-54525000D03*
X139950000Y-97650000D03*
X130000000Y-93000000D03*
X133790000Y-54412692D03*
D39*
X136800000Y-79275000D03*
D38*
X141600000Y-54525000D03*
D39*
X142000000Y-86141614D03*
X136650000Y-85050000D03*
D38*
X129976614Y-45591757D03*
D39*
X135725000Y-85350000D03*
D38*
X144825000Y-57175000D03*
D39*
X141475000Y-59175000D03*
D38*
X150750000Y-54550000D03*
D39*
X151775000Y-88950000D03*
D38*
X146000000Y-64875000D03*
X127000000Y-91000000D03*
D39*
X131875000Y-84850000D03*
X138525000Y-72475000D03*
X152215544Y-86667228D03*
D38*
X150975463Y-45483008D03*
X139775000Y-76225000D03*
X164950000Y-86400000D03*
D39*
X143125000Y-52725003D03*
D38*
X140275000Y-57175000D03*
D39*
X143600000Y-59175000D03*
D38*
X131200000Y-57150000D03*
X150750000Y-57175000D03*
X143500000Y-54525000D03*
X132090000Y-54415128D03*
X126000000Y-65000000D03*
X133000000Y-59000000D03*
D39*
X133862991Y-92766444D03*
D38*
X152325000Y-95800000D03*
D39*
X131050000Y-81300000D03*
D38*
X146000000Y-94650000D03*
D39*
X142550000Y-97600000D03*
D38*
X153375000Y-57175000D03*
X131000000Y-95000000D03*
X144800000Y-64875000D03*
X148550000Y-82450000D03*
D39*
X130770066Y-73093501D03*
D38*
X129500000Y-57150000D03*
X152075000Y-57175000D03*
X144825000Y-54525000D03*
D41*
X129300000Y-97965000D03*
D38*
X146000000Y-68325000D03*
X153325000Y-93800000D03*
X142650000Y-105825000D03*
X149022729Y-88300439D03*
D39*
X142143331Y-59834000D03*
D38*
X140717349Y-46320973D03*
D39*
X131050000Y-80400000D03*
X131675000Y-83950000D03*
%TD*%
D42*
%TO.N,V_BAT*%
X161050000Y-44875000D02*
X159500000Y-43325000D01*
X150200000Y-67650000D02*
X150200000Y-67925000D01*
D43*
X150850000Y-66800000D02*
X151475000Y-66175000D01*
D42*
X161050000Y-54825000D02*
X161050000Y-44875000D01*
D44*
X145800000Y-98125000D02*
X146700000Y-99025000D01*
D42*
X159775000Y-56100000D02*
X161050000Y-54825000D01*
X150200000Y-67350000D02*
X152025000Y-67350000D01*
X150200000Y-67650000D02*
X150200000Y-67350000D01*
D43*
X148335000Y-66850000D02*
X148950000Y-66850000D01*
D45*
X151925000Y-67400000D02*
X151675000Y-67650000D01*
D43*
X148950000Y-66850000D02*
X149000000Y-66800000D01*
D42*
X152900000Y-66175000D02*
X154975000Y-64100000D01*
D43*
X151475000Y-66175000D02*
X152000000Y-66175000D01*
D45*
X153400000Y-67400000D02*
X151925000Y-67400000D01*
D42*
X150200000Y-67925000D02*
X150260879Y-67864121D01*
X159775000Y-58100000D02*
X159775000Y-56100000D01*
X154975000Y-64100000D02*
X154975000Y-62900000D01*
X152000000Y-66175000D02*
X152900000Y-66175000D01*
X150260879Y-67864121D02*
X151414121Y-67864121D01*
X154975000Y-62900000D02*
X159775000Y-58100000D01*
X159500000Y-43325000D02*
X159500000Y-41500000D01*
D43*
X149000000Y-66800000D02*
X150850000Y-66800000D01*
D42*
X158090000Y-103860000D02*
X157505000Y-103275000D01*
D46*
X150200000Y-67650000D02*
X151675000Y-67650000D01*
D42*
X148335000Y-67350000D02*
X150200000Y-67350000D01*
X151414121Y-67864121D02*
X151475000Y-67925000D01*
D44*
X144725000Y-98125000D02*
X145800000Y-98125000D01*
D46*
X150175000Y-67675000D02*
X151650000Y-67675000D01*
D42*
%TO.N,V_A_PHASE*%
X151215000Y-64435000D02*
X151865000Y-64435000D01*
D43*
X151215000Y-64435000D02*
X151115000Y-64435000D01*
X149700000Y-65850000D02*
X148335000Y-65850000D01*
D42*
X157402500Y-44362500D02*
X155699626Y-44362500D01*
X160225000Y-54050000D02*
X160225000Y-47185000D01*
X160225000Y-47185000D02*
X157402500Y-44362500D01*
X158600000Y-55675000D02*
X160225000Y-54050000D01*
X158600000Y-57700000D02*
X158600000Y-55675000D01*
X151865000Y-64435000D02*
X158600000Y-57700000D01*
D43*
X151115000Y-64435000D02*
X149700000Y-65850000D01*
D42*
%TO.N,SPA*%
X150850000Y-59590000D02*
X150850000Y-62050000D01*
D43*
X148899880Y-64806000D02*
X148894000Y-64806000D01*
D44*
X152024626Y-45525000D02*
X152024626Y-47499626D01*
X152024626Y-44050000D02*
X152024626Y-45525000D01*
D42*
X152024626Y-45475000D02*
X152024626Y-45525000D01*
D47*
X152247500Y-49912500D02*
X153074626Y-49912500D01*
D42*
X151500000Y-51200000D02*
X149630000Y-53070000D01*
D44*
X152024626Y-47499626D02*
X152025000Y-47500000D01*
D43*
X148894000Y-64806000D02*
X148850000Y-64850000D01*
D42*
X149630000Y-53070000D02*
X149630000Y-58370000D01*
X149630000Y-58370000D02*
X150850000Y-59590000D01*
D43*
X150000000Y-62900000D02*
X150000000Y-63700000D01*
D42*
X150850000Y-62050000D02*
X150000000Y-62900000D01*
D43*
X149101000Y-64604880D02*
X148899880Y-64806000D01*
X150000000Y-63700000D02*
X149101000Y-64599000D01*
X149101000Y-64599000D02*
X149101000Y-64604880D01*
X148850000Y-64850000D02*
X148335000Y-64850000D01*
D44*
%TO.N,Net-(C3-Pad1)*%
X152024626Y-40675000D02*
X152024626Y-42150000D01*
D48*
%TO.N,SPB*%
X147960000Y-59700000D02*
X147960000Y-61340000D01*
D42*
X145250000Y-51400000D02*
X145175000Y-51325000D01*
D44*
X141525000Y-47600000D02*
X141550000Y-47625000D01*
D48*
X147150000Y-62150000D02*
X147150000Y-63665000D01*
X147960000Y-61340000D02*
X147150000Y-62150000D01*
D44*
X141525000Y-45650000D02*
X141525000Y-47600000D01*
X141525000Y-45650000D02*
X141525000Y-44050000D01*
%TO.N,Net-(C9-Pad1)*%
X141525000Y-40675000D02*
X141525000Y-42150000D01*
D42*
%TO.N,V_B_PHASE*%
X139050000Y-57675000D02*
X139050000Y-55500000D01*
X146150000Y-59825000D02*
X144850000Y-58525000D01*
X144850000Y-58525000D02*
X139900000Y-58525000D01*
X139675000Y-44800000D02*
X140175000Y-44300000D01*
X139900000Y-58525000D02*
X139050000Y-57675000D01*
D48*
X146150000Y-63665000D02*
X146150000Y-61000000D01*
D42*
X140175000Y-40300000D02*
X141025000Y-39450000D01*
X140100000Y-54450000D02*
X140100000Y-47300000D01*
X141025000Y-39450000D02*
X142075000Y-39450000D01*
X139050000Y-55500000D02*
X140100000Y-54450000D01*
X140175000Y-44300000D02*
X140175000Y-40300000D01*
X140100000Y-47300000D02*
X139675000Y-46875000D01*
X139675000Y-46875000D02*
X139675000Y-44800000D01*
X146150000Y-61000000D02*
X146150000Y-59825000D01*
D49*
%TO.N,SPC*%
X143610500Y-63098258D02*
X143137242Y-62625000D01*
D44*
X131025000Y-45650000D02*
X131025000Y-47600000D01*
D49*
X143650000Y-63665000D02*
X143650000Y-63140000D01*
D44*
X131025000Y-45650000D02*
X131025000Y-44050000D01*
D49*
X137750000Y-62625000D02*
X136418750Y-61293750D01*
D42*
X135075000Y-53500000D02*
X133150000Y-51575000D01*
D49*
X143137242Y-62625000D02*
X137750000Y-62625000D01*
D42*
X135075000Y-59950000D02*
X135075000Y-56669128D01*
X136418750Y-61293750D02*
X135075000Y-59950000D01*
X135075000Y-56669128D02*
X135075000Y-53500000D01*
D44*
%TO.N,Net-(C13-Pad1)*%
X131025000Y-40675000D02*
X131025000Y-42150000D01*
D42*
%TO.N,V_C_PHASE*%
X137525000Y-55350000D02*
X139225000Y-53650000D01*
D48*
X144650000Y-62200000D02*
X144650000Y-63665000D01*
D42*
X136459335Y-44359335D02*
X134700000Y-44359335D01*
X137525000Y-58425000D02*
X137525000Y-55350000D01*
X135884335Y-44359335D02*
X134700000Y-44359335D01*
D48*
X140162500Y-61062500D02*
X140300000Y-61200000D01*
X140300000Y-61200000D02*
X143650000Y-61200000D01*
X143650000Y-61200000D02*
X144650000Y-62200000D01*
D42*
X139225000Y-53650000D02*
X139225000Y-47700000D01*
X139225000Y-47700000D02*
X135884335Y-44359335D01*
X140162500Y-61062500D02*
X137525000Y-58425000D01*
D43*
%TO.N,Net-(U2-CPL)*%
X148875000Y-70575000D02*
X148875000Y-71000000D01*
X148335000Y-68850000D02*
X148335000Y-70035000D01*
X148335000Y-70035000D02*
X148875000Y-70575000D01*
%TO.N,Net-(U2-CPH)*%
X149175000Y-68625000D02*
X149175000Y-69900000D01*
X148335000Y-68350000D02*
X148900000Y-68350000D01*
X150275000Y-71000000D02*
X150425000Y-71000000D01*
X148900000Y-68350000D02*
X149175000Y-68625000D01*
X149175000Y-69900000D02*
X150275000Y-71000000D01*
%TO.N,Net-(U2-VCP)*%
X149050000Y-67850000D02*
X150200000Y-69000000D01*
X148335000Y-67850000D02*
X149050000Y-67850000D01*
X150200000Y-69000000D02*
X150200000Y-69200000D01*
D42*
%TO.N,G_A_H*%
X153026766Y-64542293D02*
X153026766Y-64548234D01*
D43*
X151275000Y-65250000D02*
X150175000Y-66350000D01*
X150175000Y-66350000D02*
X148335000Y-66350000D01*
X151700000Y-65250000D02*
X151275000Y-65250000D01*
D42*
X153026766Y-64548234D02*
X152325000Y-65250000D01*
X152325000Y-65250000D02*
X151700000Y-65250000D01*
D43*
%TO.N,G_B_H*%
X145350000Y-60900000D02*
X145650000Y-61200000D01*
X144825000Y-59800000D02*
X145350000Y-60325000D01*
X145650000Y-61200000D02*
X145650000Y-63665000D01*
X143151684Y-59800000D02*
X144825000Y-59800000D01*
X142884456Y-59532772D02*
X143151684Y-59800000D01*
X145350000Y-60325000D02*
X145350000Y-60900000D01*
D44*
%TO.N,Net-(D4-A)*%
X148425000Y-51075000D02*
X148425000Y-50125000D01*
X148425000Y-50125000D02*
X148625000Y-49925000D01*
D47*
%TO.N,G_B_L*%
X147100000Y-59925000D02*
X147100000Y-55875000D01*
D44*
X147325000Y-54375000D02*
X148425000Y-53275000D01*
X146750000Y-54375000D02*
X147325000Y-54375000D01*
D48*
X146650000Y-63665000D02*
X146650000Y-61060000D01*
D47*
X146750000Y-55525000D02*
X146750000Y-54375000D01*
D48*
X146650000Y-61060000D02*
X147100000Y-60610000D01*
D47*
X147100000Y-55875000D02*
X146750000Y-55525000D01*
D48*
X147100000Y-60610000D02*
X147100000Y-59925000D01*
D43*
%TO.N,G_C_H*%
X140752709Y-59518948D02*
X140752709Y-59527709D01*
X143900000Y-60475000D02*
X145150000Y-61725000D01*
X145150000Y-61725000D02*
X145150000Y-63665000D01*
X140752709Y-59527709D02*
X141700000Y-60475000D01*
X141700000Y-60475000D02*
X143900000Y-60475000D01*
D48*
%TO.N,G_C_L*%
X139200000Y-61950000D02*
X138875000Y-61625000D01*
D44*
X136825000Y-54375000D02*
X137925000Y-53275000D01*
D48*
X144150000Y-62675000D02*
X143425000Y-61950000D01*
X143425000Y-61950000D02*
X139200000Y-61950000D01*
D50*
X136250000Y-59000000D02*
X138875000Y-61625000D01*
D44*
X136825000Y-54375000D02*
X136250000Y-54375000D01*
D48*
X144150000Y-63665000D02*
X144150000Y-62675000D01*
D50*
X136250000Y-54375000D02*
X136250000Y-59000000D01*
D44*
%TO.N,Net-(D6-A)*%
X137925000Y-50125000D02*
X138125000Y-49925000D01*
X137925000Y-51075000D02*
X137925000Y-50125000D01*
%TO.N,Net-(D8-A)*%
X159124626Y-49925000D02*
X159124626Y-50875000D01*
X159124626Y-50875000D02*
X158924626Y-51075000D01*
D42*
X159119483Y-49924000D02*
X159119483Y-50874000D01*
D43*
%TO.N,G_A_L*%
X151320000Y-62980000D02*
X150850000Y-63450000D01*
X150850000Y-63800000D02*
X149300000Y-65350000D01*
D44*
X157249626Y-54375000D02*
X157824626Y-54375000D01*
D43*
X150850000Y-63450000D02*
X150850000Y-63800000D01*
D50*
X157249626Y-57050374D02*
X151320000Y-62980000D01*
D43*
X149300000Y-65350000D02*
X148335000Y-65350000D01*
D44*
X157824626Y-54375000D02*
X158924626Y-53275000D01*
D50*
X157249626Y-54375000D02*
X157249626Y-57050374D01*
D49*
%TO.N,NFAULT*%
X147150000Y-74475000D02*
X147750000Y-75075000D01*
X144337500Y-79375000D02*
X143950000Y-79762500D01*
X142396000Y-66419000D02*
X142465000Y-66350000D01*
X145350000Y-79375000D02*
X144337500Y-79375000D01*
X139225000Y-66000000D02*
X139644000Y-66419000D01*
X147750000Y-76975000D02*
X145350000Y-79375000D01*
X139644000Y-66419000D02*
X142396000Y-66419000D01*
X147750000Y-75075000D02*
X147750000Y-76975000D01*
X143950000Y-79762500D02*
X143950000Y-80537500D01*
%TO.N,SDO*%
X138000000Y-66850000D02*
X137850000Y-67000000D01*
D43*
X137154087Y-66675000D02*
X137479087Y-67000000D01*
X137125000Y-66675000D02*
X137154087Y-66675000D01*
X137479087Y-67000000D02*
X137850000Y-67000000D01*
D49*
X137832822Y-66982822D02*
X137850000Y-67000000D01*
X142465000Y-66850000D02*
X138000000Y-66850000D01*
D43*
%TO.N,CAN_TX*%
X142775000Y-87125000D02*
X142775000Y-86362500D01*
X142775000Y-86362500D02*
X146187500Y-82950000D01*
X146187500Y-82950000D02*
X147362500Y-82950000D01*
%TO.N,CAN_RX*%
X144825000Y-85350000D02*
X144500000Y-85675000D01*
X144850000Y-86375000D02*
X144850000Y-86800000D01*
X145575000Y-84400000D02*
X145575000Y-84672844D01*
X147362500Y-83450000D02*
X146525000Y-83450000D01*
X145575000Y-84672844D02*
X145875000Y-84972844D01*
X145875000Y-85250000D02*
X145575000Y-85550000D01*
X146525000Y-83450000D02*
X145575000Y-84400000D01*
X145350000Y-85550000D02*
X145150000Y-85350000D01*
X145575000Y-85550000D02*
X145350000Y-85550000D01*
X144500000Y-85675000D02*
X144500000Y-86025000D01*
X145875000Y-84972844D02*
X145875000Y-85250000D01*
X145150000Y-85350000D02*
X144825000Y-85350000D01*
X144500000Y-86025000D02*
X144850000Y-86375000D01*
X144850000Y-86800000D02*
X144500000Y-87150000D01*
D49*
%TO.N,nSCS*%
X136800000Y-71425000D02*
X134325000Y-71425000D01*
X142465000Y-68350000D02*
X139875000Y-68350000D01*
X133025000Y-94200000D02*
X136050000Y-94200000D01*
X125725000Y-86900000D02*
X133025000Y-94200000D01*
X125725000Y-77450000D02*
X125725000Y-86900000D01*
X128325000Y-72525000D02*
X128325000Y-74850000D01*
X128325000Y-74850000D02*
X125725000Y-77450000D01*
X139875000Y-68350000D02*
X136800000Y-71425000D01*
%TO.N,SCLK*%
X134850000Y-70025000D02*
X137325000Y-70025000D01*
X139500000Y-67850000D02*
X142465000Y-67850000D01*
X136050000Y-90850000D02*
X134750000Y-90850000D01*
X137325000Y-70025000D02*
X139500000Y-67850000D01*
%TO.N,SDI*%
X133825000Y-68900000D02*
X137500000Y-68900000D01*
X135037500Y-92737500D02*
X135050000Y-92725000D01*
X139050000Y-67350000D02*
X142465000Y-67350000D01*
X134712500Y-92737500D02*
X135037500Y-92737500D01*
X137500000Y-68900000D02*
X139050000Y-67350000D01*
X135050000Y-92725000D02*
X136050000Y-92725000D01*
D43*
%TO.N,INHA*%
X144609000Y-70101122D02*
X144608500Y-70101622D01*
X141875000Y-72475000D02*
X140900000Y-72475000D01*
X144650000Y-69535000D02*
X144609000Y-69576000D01*
X139325000Y-74050000D02*
X133400000Y-74050000D01*
X144608500Y-70101622D02*
X144608500Y-70616500D01*
X142650000Y-71700000D02*
X141875000Y-72475000D01*
X140900000Y-72475000D02*
X139325000Y-74050000D01*
X143525000Y-71700000D02*
X142650000Y-71700000D01*
X144609000Y-69576000D02*
X144609000Y-70101122D01*
X133400000Y-74050000D02*
X128625000Y-78825000D01*
X128625000Y-78825000D02*
X128625000Y-83150000D01*
X144608500Y-70616500D02*
X143525000Y-71700000D01*
%TO.N,INLA*%
X145150000Y-71150000D02*
X142600000Y-73700000D01*
X145150000Y-69535000D02*
X145150000Y-71150000D01*
X142600000Y-73700000D02*
X141600000Y-73700000D01*
X130100000Y-79350000D02*
X130100000Y-83150000D01*
X137750000Y-75975000D02*
X133475000Y-75975000D01*
X138525000Y-75200000D02*
X137750000Y-75975000D01*
X141600000Y-73700000D02*
X140100000Y-75200000D01*
X140100000Y-75200000D02*
X138525000Y-75200000D01*
X133475000Y-75975000D02*
X130100000Y-79350000D01*
%TO.N,INHB*%
X145650000Y-72080000D02*
X145650000Y-69535000D01*
X142800000Y-75175000D02*
X142800000Y-74930000D01*
X142800000Y-74930000D02*
X145650000Y-72080000D01*
%TO.N,INLB*%
X146150000Y-70850000D02*
X146150000Y-69535000D01*
X146300000Y-71000000D02*
X146150000Y-70850000D01*
X144700000Y-74787500D02*
X146300000Y-73187500D01*
X144687500Y-74787500D02*
X144700000Y-74787500D01*
X146300000Y-73187500D02*
X146300000Y-71000000D01*
X144300000Y-75175000D02*
X144687500Y-74787500D01*
%TO.N,INHC*%
X147025000Y-71082947D02*
X147025000Y-72875000D01*
X147025000Y-72875000D02*
X150626000Y-76476000D01*
X146650000Y-69535000D02*
X146650000Y-70707947D01*
X146650000Y-70707947D02*
X147025000Y-71082947D01*
X150626000Y-76476000D02*
X150626000Y-80525000D01*
%TO.N,INLC*%
X147650000Y-70750000D02*
X147650000Y-71962500D01*
X147150000Y-70250000D02*
X147650000Y-70750000D01*
X152100000Y-76412500D02*
X152100000Y-80525000D01*
X147150000Y-69535000D02*
X147150000Y-70250000D01*
X147650000Y-71962500D02*
X152100000Y-76412500D01*
D49*
%TO.N,SOC*%
X134550000Y-63875000D02*
X141990000Y-63875000D01*
X141990000Y-63875000D02*
X142465000Y-64350000D01*
X134225000Y-63550000D02*
X134550000Y-63875000D01*
D48*
%TO.N,SOB*%
X134800000Y-65100000D02*
X134225000Y-65100000D01*
D49*
X135425000Y-64475000D02*
X141475000Y-64475000D01*
X141850000Y-64850000D02*
X142465000Y-64850000D01*
D51*
X134312500Y-65100000D02*
X134800000Y-65100000D01*
D49*
X141475000Y-64475000D02*
X141850000Y-64850000D01*
X134800000Y-65100000D02*
X135425000Y-64475000D01*
D51*
%TO.N,SOA*%
X134650000Y-66650000D02*
X134312500Y-66650000D01*
D49*
X142465000Y-65350000D02*
X141703704Y-65350000D01*
D48*
X134650000Y-66650000D02*
X134225000Y-66650000D01*
D49*
X141428704Y-65075000D02*
X136225000Y-65075000D01*
X141703704Y-65350000D02*
X141428704Y-65075000D01*
X136225000Y-65075000D02*
X134650000Y-66650000D01*
D42*
%TO.N,Net-(C32-Pad1)*%
X143250000Y-96450000D02*
X141575000Y-96450000D01*
D44*
X143250000Y-96475000D02*
X141550000Y-96475000D01*
X144725000Y-96475000D02*
X143250000Y-96475000D01*
X139825000Y-96500000D02*
X139800000Y-96475000D01*
D42*
X143275000Y-96475000D02*
X143250000Y-96450000D01*
X141575000Y-96450000D02*
X141525000Y-96500000D01*
X144725000Y-96475000D02*
X143275000Y-96475000D01*
D44*
X141550000Y-96475000D02*
X141525000Y-96500000D01*
X141525000Y-96500000D02*
X139825000Y-96500000D01*
%TO.N,Net-(Q2-G)*%
X157649626Y-51000000D02*
X157324626Y-51325000D01*
X157604626Y-49555000D02*
X157649626Y-49600000D01*
X157324626Y-51325000D02*
X157324626Y-52650000D01*
X158704376Y-47854750D02*
X159124626Y-48275000D01*
X157649626Y-49600000D02*
X157649626Y-51000000D01*
X157324626Y-52650000D02*
X157249626Y-52725000D01*
X157604626Y-47854750D02*
X157604626Y-49555000D01*
X157604626Y-47854750D02*
X158704376Y-47854750D01*
%TO.N,Net-(Q4-G)*%
X148204750Y-47854750D02*
X148625000Y-48275000D01*
X146825000Y-51325000D02*
X146825000Y-52650000D01*
X147105000Y-47854750D02*
X148204750Y-47854750D01*
X147150000Y-49600000D02*
X147150000Y-51000000D01*
X146825000Y-52650000D02*
X146750000Y-52725000D01*
X147150000Y-51000000D02*
X146825000Y-51325000D01*
X147105000Y-47854750D02*
X147105000Y-49555000D01*
X147105000Y-49555000D02*
X147150000Y-49600000D01*
%TO.N,Net-(Q6-G)*%
X136605000Y-47851585D02*
X137701585Y-47851585D01*
X136325000Y-51325000D02*
X136325000Y-52650000D01*
X136605000Y-47851585D02*
X136605000Y-49555000D01*
X136650000Y-51000000D02*
X136325000Y-51325000D01*
X136605000Y-49555000D02*
X136650000Y-49600000D01*
X136325000Y-52650000D02*
X136250000Y-52725000D01*
X136650000Y-49600000D02*
X136650000Y-51000000D01*
X137701585Y-47851585D02*
X138125000Y-48275000D01*
D49*
%TO.N,V_BAT_MEAS*%
X142950000Y-88862500D02*
X142950000Y-89650000D01*
X142950000Y-89650000D02*
X139800000Y-92800000D01*
D42*
X139800000Y-94825000D02*
X139705000Y-94825000D01*
D49*
X139800000Y-92800000D02*
X139800000Y-94825000D01*
D44*
%TO.N,+3V3*%
X139050000Y-80225000D02*
X138875000Y-80050000D01*
X146775000Y-88925000D02*
X147675000Y-88925000D01*
D48*
X143700000Y-70550000D02*
X144150000Y-70100000D01*
D45*
X147375000Y-94625000D02*
X147375000Y-93725000D01*
D44*
X147362500Y-81187500D02*
X147362500Y-81849000D01*
D48*
X142465000Y-65850000D02*
X141014705Y-65850000D01*
D45*
X147150000Y-93500000D02*
X147025000Y-93375000D01*
D44*
X139050000Y-81150000D02*
X139050000Y-80225000D01*
D48*
X144150000Y-70100000D02*
X144150000Y-69535000D01*
D42*
X140450000Y-80537500D02*
X140450000Y-79227000D01*
D44*
X140450000Y-79025000D02*
X140450000Y-78550000D01*
X149175000Y-80375000D02*
X149000000Y-80550000D01*
X139861500Y-80050000D02*
X138875000Y-80050000D01*
D45*
X148800000Y-93500000D02*
X147150000Y-93500000D01*
D42*
X147025000Y-93375000D02*
X147025000Y-93600000D01*
D44*
X147675000Y-88925000D02*
X147725000Y-88875000D01*
X140450000Y-78550000D02*
X140875000Y-78125000D01*
X148000000Y-80550000D02*
X148000000Y-80850000D01*
D42*
X139037500Y-81162500D02*
X139050000Y-81150000D01*
X148675000Y-93375000D02*
X148800000Y-93500000D01*
D44*
X148000000Y-80550000D02*
X147362500Y-81187500D01*
X146113500Y-88925000D02*
X146051000Y-88862500D01*
X140349000Y-79126000D02*
X140349000Y-80537500D01*
X149000000Y-80550000D02*
X148000000Y-80550000D01*
D48*
X143175000Y-70550000D02*
X143700000Y-70550000D01*
D42*
X140450000Y-79227000D02*
X140349000Y-79126000D01*
X139037500Y-81950000D02*
X139037500Y-81162500D01*
X145950000Y-88862500D02*
X145950000Y-88900000D01*
D48*
X141014705Y-65850000D02*
X140934205Y-65769500D01*
D45*
X147375000Y-93725000D02*
X147025000Y-93375000D01*
D44*
X140349000Y-80537500D02*
X139861500Y-80050000D01*
X146775000Y-88925000D02*
X146113500Y-88925000D01*
D43*
%TO.N,NRST*%
X139037500Y-84950000D02*
X140089352Y-84950000D01*
D49*
%TO.N,ENABLE*%
X144171400Y-78974000D02*
X143549000Y-79596400D01*
X146150000Y-77725000D02*
X144901000Y-78974000D01*
X143549000Y-79601000D02*
X143450000Y-79700000D01*
X144901000Y-78974000D02*
X144171400Y-78974000D01*
X146150000Y-76725000D02*
X146150000Y-77725000D01*
X143450000Y-79700000D02*
X143450000Y-80537500D01*
X138701852Y-70651852D02*
X140503704Y-68850000D01*
X143549000Y-79596400D02*
X143549000Y-79601000D01*
X140503704Y-68850000D02*
X142465000Y-68850000D01*
D42*
%TO.N,VREF*%
X144450000Y-88862500D02*
X144450000Y-89900000D01*
X144450000Y-89900000D02*
X144950000Y-90400000D01*
X143950000Y-88862500D02*
X144450000Y-88862500D01*
X143225000Y-91150000D02*
X143225000Y-91225000D01*
X144950000Y-90400000D02*
X144950000Y-90650000D01*
D45*
X148375000Y-91075000D02*
X148825000Y-91525000D01*
X145200000Y-90650000D02*
X146600000Y-90650000D01*
D42*
X143950000Y-90425000D02*
X143225000Y-91150000D01*
D45*
X147025000Y-91075000D02*
X148375000Y-91075000D01*
D42*
X143950000Y-88862500D02*
X143950000Y-90425000D01*
D45*
X146600000Y-90650000D02*
X147025000Y-91075000D01*
D49*
%TO.N,OSC_IN*%
X137725000Y-83444178D02*
X137725000Y-81725000D01*
X134425000Y-80050000D02*
X136175000Y-80050000D01*
X136175000Y-80050000D02*
X136500000Y-80375000D01*
X138230822Y-83950000D02*
X137725000Y-83444178D01*
X137725000Y-81725000D02*
X136500000Y-80500000D01*
X136500000Y-80500000D02*
X136500000Y-80375000D01*
X139037500Y-83950000D02*
X138230822Y-83950000D01*
%TO.N,OSC_OUT*%
X132325000Y-81850000D02*
X132600000Y-82125000D01*
X133475000Y-84750000D02*
X132775000Y-84050000D01*
X132600000Y-82125000D02*
X132600000Y-83550000D01*
X132600000Y-83550000D02*
X132775000Y-83725000D01*
X139037500Y-84450000D02*
X136025000Y-84450000D01*
X136025000Y-84450000D02*
X135725000Y-84750000D01*
X135725000Y-84750000D02*
X133475000Y-84750000D01*
X132775000Y-84050000D02*
X132775000Y-83725000D01*
D43*
%TO.N,ADC1_IN11*%
X129750000Y-73525000D02*
X129750000Y-65800000D01*
X149150000Y-86950000D02*
X147362500Y-86950000D01*
X129750000Y-65800000D02*
X132000000Y-63550000D01*
X149725000Y-86475000D02*
X149625000Y-86475000D01*
X149625000Y-86475000D02*
X149150000Y-86950000D01*
X132000000Y-63550000D02*
X132575000Y-63550000D01*
%TO.N,ADC1_IN14*%
X132000000Y-65100000D02*
X132575000Y-65100000D01*
X151500000Y-87025000D02*
X151075000Y-87450000D01*
X130875000Y-72250000D02*
X130875000Y-66225000D01*
X151075000Y-87450000D02*
X147362500Y-87450000D01*
X130875000Y-66225000D02*
X132000000Y-65100000D01*
%TO.N,ADC2_IN12*%
X132175000Y-66975000D02*
X132175000Y-73200000D01*
X126775000Y-78600000D02*
X126775000Y-85725000D01*
X136650000Y-87775000D02*
X137050000Y-88175000D01*
X128825000Y-87775000D02*
X136650000Y-87775000D01*
X137150000Y-88525000D02*
X138225000Y-87450000D01*
X132500000Y-66650000D02*
X132175000Y-66975000D01*
X132175000Y-73200000D02*
X126775000Y-78600000D01*
X126775000Y-85725000D02*
X128825000Y-87775000D01*
X137050000Y-88175000D02*
X137050000Y-88825000D01*
X137050000Y-88525000D02*
X137150000Y-88525000D01*
X132575000Y-66650000D02*
X132500000Y-66650000D01*
X138225000Y-87450000D02*
X139037500Y-87450000D01*
D49*
%TO.N,SWCLK*%
X144375000Y-82775000D02*
X145450000Y-81700000D01*
X145450000Y-81700000D02*
X145450000Y-80537500D01*
X143500000Y-82775000D02*
X144375000Y-82775000D01*
X143114798Y-83160202D02*
X143500000Y-82775000D01*
X143114798Y-83914798D02*
X143114798Y-83160202D01*
%TO.N,SWDIO*%
X144150000Y-83500000D02*
X144375000Y-83500000D01*
X144375000Y-83500000D02*
X145950000Y-81925000D01*
X145950000Y-81925000D02*
X145950000Y-80537500D01*
%TO.N,USART2_TX*%
X144450000Y-81325000D02*
X144450000Y-80537500D01*
X140550000Y-85925000D02*
X140775000Y-85700000D01*
X140550000Y-86500000D02*
X140550000Y-85925000D01*
X140775000Y-82925000D02*
X141350000Y-82350000D01*
X142550000Y-82350000D02*
X143125000Y-81775000D01*
X140775000Y-85700000D02*
X140775000Y-82925000D01*
X144000000Y-81775000D02*
X144450000Y-81325000D01*
X141350000Y-82350000D02*
X142550000Y-82350000D01*
X143125000Y-81775000D02*
X144000000Y-81775000D01*
%TO.N,USART2_RX*%
X142250000Y-82850000D02*
X142775000Y-82850000D01*
X141400000Y-83700000D02*
X142250000Y-82850000D01*
X142775000Y-82850000D02*
X143375000Y-82250000D01*
X143375000Y-82250000D02*
X144250000Y-82250000D01*
X144950000Y-81550000D02*
X144950000Y-80537500D01*
X141400000Y-85525000D02*
X141400000Y-83700000D01*
X144250000Y-82250000D02*
X144950000Y-81550000D01*
D43*
%TO.N,SNA*%
X149175000Y-63150000D02*
X148335000Y-63990000D01*
X148335000Y-63990000D02*
X148335000Y-64350000D01*
X149175000Y-61175000D02*
X149175000Y-63150000D01*
D49*
%TO.N,CAL*%
X143035000Y-69650000D02*
X143150000Y-69535000D01*
X148825000Y-86450000D02*
X147362500Y-86450000D01*
X140118771Y-70193771D02*
X140356229Y-70193771D01*
X149700000Y-85575000D02*
X148825000Y-86450000D01*
X152200000Y-83975000D02*
X150600000Y-85575000D01*
X140356229Y-70193771D02*
X140900000Y-69650000D01*
X150600000Y-85575000D02*
X149700000Y-85575000D01*
X140900000Y-69650000D02*
X143035000Y-69650000D01*
%TO.N,SPI1_NSS{slash}CS*%
X138525000Y-93125000D02*
X138525000Y-93650000D01*
X140825000Y-90950000D02*
X140700000Y-90950000D01*
X137975000Y-94200000D02*
X137700000Y-94200000D01*
X141950000Y-89825000D02*
X140825000Y-90950000D01*
X141950000Y-88862500D02*
X141950000Y-89825000D01*
X138525000Y-93650000D02*
X137975000Y-94200000D01*
X140700000Y-90950000D02*
X138525000Y-93125000D01*
D43*
%TO.N,BOOT0*%
X141950000Y-81675000D02*
X141950000Y-80537500D01*
D49*
%TO.N,SPI1_SCK*%
X137700000Y-90850000D02*
X138200000Y-90850000D01*
X140187500Y-88862500D02*
X140450000Y-88862500D01*
X138200000Y-90850000D02*
X140187500Y-88862500D01*
%TO.N,SPI1_MISO*%
X140950000Y-88862500D02*
X140950000Y-89650000D01*
X135137500Y-68062500D02*
X136200000Y-67000000D01*
X140700000Y-89900000D02*
X140225000Y-89900000D01*
X140225000Y-89900000D02*
X138350000Y-91775000D01*
X138350000Y-91775000D02*
X132375000Y-91775000D01*
X140950000Y-89650000D02*
X140700000Y-89900000D01*
%TO.N,SPI1_MOSI*%
X141450000Y-89725000D02*
X140775000Y-90400000D01*
X138150000Y-92725000D02*
X137700000Y-92725000D01*
X141450000Y-88862500D02*
X141450000Y-89725000D01*
X140475000Y-90400000D02*
X138150000Y-92725000D01*
X140775000Y-90400000D02*
X140475000Y-90400000D01*
D48*
%TO.N,TIM15_CH1*%
X137800000Y-86850000D02*
X138200000Y-86450000D01*
X130350000Y-86850000D02*
X137800000Y-86850000D01*
D43*
X128625000Y-85050000D02*
X128625000Y-84800000D01*
D48*
X128625000Y-85125000D02*
X130350000Y-86850000D01*
D43*
X139037500Y-86450000D02*
X138200000Y-86450000D01*
D48*
X128625000Y-84800000D02*
X128625000Y-85125000D01*
D43*
%TO.N,TIM15_CH1N*%
X137775000Y-85950000D02*
X137725000Y-86000000D01*
X139037500Y-85950000D02*
X137775000Y-85950000D01*
X137725000Y-86000000D02*
X131300000Y-86000000D01*
X131300000Y-86000000D02*
X130100000Y-84800000D01*
%TO.N,TIM17_CH1*%
X141450000Y-79700000D02*
X142800000Y-78350000D01*
X141450000Y-80537500D02*
X141450000Y-79700000D01*
X142800000Y-78350000D02*
X142800000Y-76825000D01*
%TO.N,TIM17_CH1N*%
X144300000Y-77825000D02*
X144300000Y-76825000D01*
X142450000Y-79675000D02*
X144300000Y-77825000D01*
X142450000Y-80537500D02*
X142450000Y-79675000D01*
%TO.N,TIM1_CH3*%
X148851000Y-83950000D02*
X150626000Y-82175000D01*
X147362500Y-83950000D02*
X148851000Y-83950000D01*
%TO.N,TIM1_CH3N*%
X150375000Y-83800000D02*
X150850000Y-83800000D01*
X150850000Y-83800000D02*
X152100000Y-82550000D01*
X152100000Y-82550000D02*
X152100000Y-82175000D01*
X148725000Y-85450000D02*
X150375000Y-83800000D01*
X147362500Y-85450000D02*
X148725000Y-85450000D01*
D49*
%TO.N,SNC*%
X135550000Y-62750000D02*
X136019500Y-63219500D01*
X142704500Y-63219500D02*
X143150000Y-63665000D01*
X136019500Y-63219500D02*
X142704500Y-63219500D01*
D42*
X134700000Y-61900000D02*
X134700000Y-61225000D01*
X135550000Y-62750000D02*
X134700000Y-61900000D01*
D43*
%TO.N,SNB*%
X147650000Y-63665000D02*
X148125000Y-63190000D01*
X148125000Y-63190000D02*
X148125000Y-63125000D01*
X148125000Y-63125000D02*
X148125000Y-62700000D01*
D44*
%TO.N,GND*%
X139775000Y-76225000D02*
X140875000Y-76225000D01*
D49*
X136500000Y-82325000D02*
X136500000Y-82275000D01*
X134425000Y-81750000D02*
X134750000Y-82075000D01*
D45*
X150725000Y-91525000D02*
X152100000Y-91525000D01*
X149875000Y-88850000D02*
X150750000Y-88850000D01*
X150700000Y-94225000D02*
X149800000Y-95125000D01*
D48*
X143575000Y-68675000D02*
X143600000Y-68675000D01*
D44*
X148450000Y-78650000D02*
X148000000Y-78650000D01*
D42*
X143450000Y-87740178D02*
X143450000Y-88862500D01*
D48*
X143650000Y-68750000D02*
X143650000Y-69535000D01*
D49*
X147594000Y-68794000D02*
X147594000Y-69479000D01*
D46*
X153400000Y-70150000D02*
X153400000Y-69300000D01*
D49*
X132325000Y-79150000D02*
X132325000Y-80150000D01*
D44*
X141525000Y-98400000D02*
X141900000Y-98400000D01*
X138204793Y-78820207D02*
X138875000Y-78150000D01*
D49*
X134750000Y-82075000D02*
X136300000Y-82075000D01*
D45*
X150700000Y-93500000D02*
X150700000Y-94225000D01*
D42*
X143449828Y-87739676D02*
X143449828Y-87740006D01*
D45*
X152100000Y-91525000D02*
X152475000Y-91900000D01*
D42*
X149550000Y-88850000D02*
X149875000Y-88850000D01*
D44*
X143250000Y-98125000D02*
X143075000Y-98125000D01*
D43*
X135155000Y-88830000D02*
X135150000Y-88825000D01*
D42*
X145450000Y-87757183D02*
X145450000Y-88862500D01*
X148550000Y-82450000D02*
X147362500Y-82450000D01*
D43*
X135975000Y-88830000D02*
X135155000Y-88830000D01*
D49*
X136300000Y-82075000D02*
X136500000Y-82275000D01*
D42*
X145400000Y-87707183D02*
X145450000Y-87757183D01*
D49*
X135650000Y-83175000D02*
X135100000Y-83725000D01*
D42*
X143449828Y-87740006D02*
X143450000Y-87740178D01*
X149022729Y-88322729D02*
X149550000Y-88850000D01*
X149022729Y-88300439D02*
X149022729Y-88322729D01*
D46*
X151675000Y-69200000D02*
X151675000Y-70000000D01*
D44*
X143075000Y-98125000D02*
X142550000Y-97600000D01*
X142550000Y-97750000D02*
X142550000Y-97600000D01*
D43*
X143449828Y-87739676D02*
X143450502Y-87739676D01*
X143450502Y-87739676D02*
X143590178Y-87600000D01*
X140945913Y-81663862D02*
X140950000Y-81659775D01*
D48*
X143600000Y-68675000D02*
X143760000Y-68515000D01*
D42*
X141525000Y-98400000D02*
X142000000Y-98400000D01*
D44*
X141900000Y-98400000D02*
X142550000Y-97750000D01*
D45*
X149800000Y-95125000D02*
X148625000Y-95125000D01*
D43*
X140950000Y-81659775D02*
X140950000Y-80537500D01*
D42*
X145400000Y-87699269D02*
X145400000Y-87707183D01*
D44*
X138204793Y-79023156D02*
X138204793Y-78820207D01*
D49*
X147594000Y-69479000D02*
X147650000Y-69535000D01*
D48*
X143575000Y-68675000D02*
X143650000Y-68750000D01*
D49*
X135650000Y-83175000D02*
X136500000Y-82325000D01*
X146075000Y-67275000D02*
X147594000Y-68794000D01*
X135100000Y-83725000D02*
X134675000Y-83725000D01*
D44*
X149025000Y-79225000D02*
X148450000Y-78650000D01*
D48*
X143760000Y-68515000D02*
X143760000Y-68240000D01*
%TD*%
%TA.AperFunction,Conductor*%
%TO.N,SPC*%
G36*
X131357376Y-45716082D02*
G01*
X131364807Y-45721078D01*
X131366633Y-45729278D01*
X131276488Y-46333302D01*
X131271877Y-46340979D01*
X131264916Y-46343275D01*
X130785084Y-46343275D01*
X130776811Y-46339848D01*
X130773512Y-46333302D01*
X130683366Y-45729278D01*
X130685534Y-45720590D01*
X130692621Y-45716082D01*
X131022686Y-45649467D01*
X131027314Y-45649467D01*
X131357376Y-45716082D01*
G37*
%TD.AperFunction*%
%TD*%
%TA.AperFunction,Conductor*%
%TO.N,G_B_H*%
G36*
X143138659Y-59376984D02*
G01*
X143139051Y-59377616D01*
X143199497Y-59482310D01*
X143199501Y-59482315D01*
X143291736Y-59574550D01*
X143292788Y-59575756D01*
X143365627Y-59671866D01*
X143368002Y-59678933D01*
X143368002Y-59910995D01*
X143364575Y-59919268D01*
X143356302Y-59922695D01*
X143354221Y-59922508D01*
X142837608Y-59829119D01*
X142830076Y-59824275D01*
X142828176Y-59815525D01*
X142828206Y-59815361D01*
X142882519Y-59537560D01*
X142887469Y-59530101D01*
X143122440Y-59373725D01*
X143131223Y-59371995D01*
X143138659Y-59376984D01*
G37*
%TD.AperFunction*%
%TD*%
%TA.AperFunction,Conductor*%
%TO.N,V_BAT*%
G36*
X150543576Y-67219104D02*
G01*
X151116295Y-67370695D01*
X151123415Y-67376125D01*
X151125000Y-67382006D01*
X151125000Y-67967239D01*
X151121573Y-67975512D01*
X151115397Y-67978749D01*
X150458236Y-68098499D01*
X150449483Y-68096611D01*
X150445922Y-68092689D01*
X150202775Y-67656769D01*
X150201739Y-67647876D01*
X150203760Y-67643887D01*
X150531354Y-67223226D01*
X150539140Y-67218805D01*
X150543576Y-67219104D01*
G37*
%TD.AperFunction*%
%TD*%
%TA.AperFunction,Conductor*%
%TO.N,V_A_PHASE*%
G36*
X159400732Y-30512099D02*
G01*
X159467751Y-30531838D01*
X159513463Y-30584679D01*
X159524626Y-30636098D01*
X159524626Y-36479537D01*
X159519287Y-36515531D01*
X159494550Y-36597080D01*
X159494545Y-36597097D01*
X159431287Y-36915125D01*
X159431284Y-36915142D01*
X159399500Y-37237860D01*
X159399500Y-37562139D01*
X159431284Y-37884857D01*
X159431287Y-37884874D01*
X159494545Y-38202902D01*
X159494548Y-38202913D01*
X159519287Y-38284466D01*
X159524626Y-38320461D01*
X159524626Y-39087114D01*
X159513738Y-39137924D01*
X159486691Y-39198134D01*
X159486689Y-39198137D01*
X159486688Y-39198142D01*
X159467003Y-39265181D01*
X159466987Y-39265236D01*
X159465099Y-39271813D01*
X159465097Y-39271821D01*
X159444500Y-39421685D01*
X159444500Y-39801000D01*
X159424815Y-39868039D01*
X159372011Y-39913794D01*
X159320500Y-39925000D01*
X158400000Y-39925000D01*
X158400000Y-46276000D01*
X158380315Y-46343039D01*
X158327511Y-46388794D01*
X158276000Y-46400000D01*
X153123626Y-46400000D01*
X153056587Y-46380315D01*
X153010832Y-46327511D01*
X152999626Y-46276000D01*
X152999626Y-44983440D01*
X153019311Y-44916401D01*
X153035945Y-44895759D01*
X153129442Y-44802262D01*
X153225415Y-44649522D01*
X153284994Y-44479255D01*
X153300126Y-44344954D01*
X153300126Y-43755046D01*
X153284994Y-43620745D01*
X153225415Y-43450478D01*
X153129442Y-43297738D01*
X153035945Y-43204241D01*
X153021241Y-43177313D01*
X153004649Y-43151495D01*
X153003757Y-43145294D01*
X153002460Y-43142918D01*
X152999626Y-43116560D01*
X152999626Y-43083440D01*
X153019311Y-43016401D01*
X153035945Y-42995759D01*
X153129442Y-42902262D01*
X153225415Y-42749522D01*
X153284994Y-42579255D01*
X153300126Y-42444954D01*
X153300126Y-41855046D01*
X153295191Y-41811246D01*
X153284995Y-41720750D01*
X153284994Y-41720745D01*
X153225414Y-41550476D01*
X153129441Y-41397737D01*
X153035945Y-41304241D01*
X153002460Y-41242918D01*
X152999626Y-41216560D01*
X152999626Y-39950000D01*
X152887356Y-39950000D01*
X152820317Y-39930315D01*
X152799675Y-39913681D01*
X152693283Y-39807289D01*
X152693282Y-39807288D01*
X152543960Y-39715186D01*
X152377423Y-39660001D01*
X152377421Y-39660000D01*
X152274642Y-39649500D01*
X151998626Y-39649500D01*
X151931587Y-39629815D01*
X151885832Y-39577011D01*
X151874626Y-39525500D01*
X151874626Y-30630031D01*
X151894311Y-30562992D01*
X151947115Y-30517237D01*
X151998723Y-30506032D01*
X159400732Y-30512099D01*
G37*
%TD.AperFunction*%
%TD*%
%TA.AperFunction,Conductor*%
%TO.N,SPA*%
G36*
X152272815Y-44835152D02*
G01*
X152276114Y-44841698D01*
X152366259Y-45445721D01*
X152364091Y-45454409D01*
X152357002Y-45458917D01*
X152026941Y-45525532D01*
X152022311Y-45525532D01*
X151692249Y-45458917D01*
X151684818Y-45453921D01*
X151682992Y-45445721D01*
X151773138Y-44841698D01*
X151777749Y-44834021D01*
X151784710Y-44831725D01*
X152264542Y-44831725D01*
X152272815Y-44835152D01*
G37*
%TD.AperFunction*%
%TD*%
%TA.AperFunction,Conductor*%
%TO.N,G_C_L*%
G36*
X136855737Y-53985939D02*
G01*
X136863623Y-53989360D01*
X137203608Y-54329345D01*
X137207035Y-54337618D01*
X137203608Y-54345891D01*
X137201630Y-54347480D01*
X136704638Y-54664689D01*
X136695820Y-54666252D01*
X136691948Y-54664625D01*
X136259332Y-54382259D01*
X136254277Y-54374867D01*
X136255929Y-54366066D01*
X136256026Y-54365920D01*
X136521372Y-53980271D01*
X136528884Y-53975400D01*
X136531391Y-53975211D01*
X136855737Y-53985939D01*
G37*
%TD.AperFunction*%
%TD*%
%TA.AperFunction,Conductor*%
%TO.N,V_BAT*%
G36*
X150543325Y-67218731D02*
G01*
X151115839Y-67345964D01*
X151123171Y-67351103D01*
X151125000Y-67357384D01*
X151125000Y-67942615D01*
X151121573Y-67950888D01*
X151115838Y-67954036D01*
X150543327Y-68081267D01*
X150534508Y-68079717D01*
X150531558Y-68077035D01*
X150386981Y-67891386D01*
X150204597Y-67657188D01*
X150202218Y-67648556D01*
X150204597Y-67642812D01*
X150531558Y-67222963D01*
X150539345Y-67218542D01*
X150543325Y-67218731D01*
G37*
%TD.AperFunction*%
%TD*%
%TA.AperFunction,Conductor*%
%TO.N,V_BAT*%
G36*
X151340491Y-67220282D02*
G01*
X151343441Y-67222964D01*
X151670401Y-67642811D01*
X151672781Y-67651444D01*
X151670401Y-67657189D01*
X151343441Y-68077035D01*
X151335654Y-68081457D01*
X151331672Y-68081267D01*
X150759162Y-67954036D01*
X150751829Y-67948896D01*
X150750000Y-67942615D01*
X150750000Y-67357384D01*
X150753427Y-67349111D01*
X150759159Y-67345964D01*
X151331673Y-67218732D01*
X151340491Y-67220282D01*
G37*
%TD.AperFunction*%
%TD*%
%TA.AperFunction,Conductor*%
%TO.N,GND*%
G36*
X133994149Y-53100000D02*
G01*
X129400000Y-53100000D01*
X129400000Y-53097771D01*
X129452353Y-53096854D01*
X129452914Y-53097008D01*
X129454527Y-53096835D01*
X133983370Y-53096835D01*
X133994149Y-53100000D01*
G37*
%TD.AperFunction*%
%TD*%
%TA.AperFunction,Conductor*%
%TO.N,OSC_IN*%
G36*
X135289918Y-79950000D02*
G01*
X135289918Y-80150000D01*
X135790310Y-80701973D01*
X136501000Y-80375000D01*
X136025000Y-79875000D01*
X135289918Y-79950000D01*
G37*
%TD.AperFunction*%
%TD*%
%TA.AperFunction,Conductor*%
%TO.N,ENABLE*%
G36*
X139057129Y-70166754D02*
G01*
X139186949Y-70296574D01*
X139190376Y-70304847D01*
X139189274Y-70309805D01*
X138957045Y-70806225D01*
X138950435Y-70812266D01*
X138941489Y-70811865D01*
X138939979Y-70811016D01*
X138703117Y-70653867D01*
X138699836Y-70650586D01*
X138542687Y-70413724D01*
X138540968Y-70404936D01*
X138545968Y-70397507D01*
X138547473Y-70396660D01*
X139043900Y-70164428D01*
X139052844Y-70164028D01*
X139057129Y-70166754D01*
G37*
%TD.AperFunction*%
%TD*%
%TA.AperFunction,Conductor*%
%TO.N,SPA*%
G36*
X151500707Y-51199293D02*
G01*
X151694450Y-51491014D01*
X151115847Y-51796285D01*
X150903715Y-51584153D01*
X150919739Y-51553778D01*
X150955364Y-51533211D01*
X151048550Y-51440025D01*
X151114442Y-51325897D01*
X151148550Y-51198603D01*
X151148550Y-51120098D01*
X151208986Y-51005550D01*
X151500707Y-51199293D01*
G37*
%TD.AperFunction*%
%TD*%
%TA.AperFunction,Conductor*%
%TO.N,+3V3*%
G36*
X147112500Y-81487179D02*
G01*
X147612500Y-81487179D01*
X148264077Y-81050000D01*
X148000000Y-80549000D01*
X147275000Y-80726318D01*
X147112500Y-81487179D01*
G37*
%TD.AperFunction*%
%TD*%
%TA.AperFunction,Conductor*%
%TO.N,V_BAT*%
G36*
X156850000Y-67500000D02*
G01*
X160625000Y-67500000D01*
X160625000Y-87500000D01*
X165575500Y-87500000D01*
X165642539Y-87519685D01*
X165688294Y-87572489D01*
X165699500Y-87624000D01*
X165699500Y-105976000D01*
X165679815Y-106043039D01*
X165627011Y-106088794D01*
X165575500Y-106100000D01*
X155524000Y-106100000D01*
X155456961Y-106080315D01*
X155411206Y-106027511D01*
X155400000Y-105976000D01*
X155400000Y-104071583D01*
X155406896Y-104032790D01*
X155406501Y-104032675D01*
X155407568Y-104029011D01*
X155407598Y-104028844D01*
X155407681Y-104028615D01*
X155407686Y-104028606D01*
X155427228Y-103961525D01*
X155429116Y-103954890D01*
X155449397Y-103804975D01*
X155445503Y-101974111D01*
X155445475Y-101969592D01*
X155445473Y-101969483D01*
X155445473Y-101969337D01*
X155445456Y-101967719D01*
X155445455Y-101967696D01*
X155445455Y-101967643D01*
X155445230Y-101956534D01*
X155420104Y-101807353D01*
X155405665Y-101761239D01*
X155400000Y-101724186D01*
X155400000Y-101273435D01*
X155404948Y-101238755D01*
X155421317Y-101182566D01*
X155423205Y-101175931D01*
X155443486Y-101026016D01*
X155431999Y-95624262D01*
X155451541Y-95557183D01*
X155504248Y-95511315D01*
X155555999Y-95500000D01*
X157700000Y-95500000D01*
X157700000Y-95329902D01*
X157719685Y-95262863D01*
X157728792Y-95250458D01*
X157745391Y-95230564D01*
X157806322Y-95157543D01*
X157868312Y-95019546D01*
X157887997Y-94952507D01*
X157889901Y-94945872D01*
X157891982Y-94930735D01*
X157903776Y-94844922D01*
X157910500Y-94796000D01*
X157910500Y-89974000D01*
X157897804Y-89855915D01*
X157886598Y-89804404D01*
X157846190Y-89685469D01*
X157763613Y-89558714D01*
X157717858Y-89505910D01*
X157708698Y-89495600D01*
X157592543Y-89398678D01*
X157454546Y-89336688D01*
X157387507Y-89317003D01*
X157386736Y-89316781D01*
X157380874Y-89315099D01*
X157380866Y-89315097D01*
X157231002Y-89294500D01*
X157231000Y-89294500D01*
X155474000Y-89294500D01*
X155406961Y-89274815D01*
X155361206Y-89222011D01*
X155350000Y-89170500D01*
X155350000Y-86800000D01*
X153586319Y-85036319D01*
X153552834Y-84974996D01*
X153550000Y-84948638D01*
X153550000Y-71551362D01*
X153569685Y-71484323D01*
X153586319Y-71463681D01*
X154249458Y-70800541D01*
X154250519Y-70799494D01*
X155175000Y-69900000D01*
X155161268Y-68938794D01*
X155150000Y-68149999D01*
X153372369Y-68126610D01*
X153305594Y-68106045D01*
X153260538Y-68052644D01*
X153250000Y-68002621D01*
X153250000Y-66801362D01*
X153269685Y-66734323D01*
X153286319Y-66713681D01*
X155675000Y-64325000D01*
X155675000Y-63251122D01*
X155694685Y-63184083D01*
X155711030Y-63163731D01*
X156850000Y-62017214D01*
X156850000Y-67500000D01*
G37*
%TD.AperFunction*%
%TD*%
%TA.AperFunction,Conductor*%
%TO.N,GND*%
G36*
X148848223Y-79401776D02*
G01*
X149201776Y-79048223D01*
X148725000Y-78483242D01*
X147999293Y-78649293D01*
X147869826Y-79150000D01*
X148848223Y-79401776D01*
G37*
%TD.AperFunction*%
%TD*%
%TA.AperFunction,Conductor*%
%TO.N,Net-(Q6-G)*%
G36*
X136894091Y-50501034D02*
G01*
X136897518Y-50509307D01*
X136897305Y-50511531D01*
X136727213Y-51390219D01*
X136722276Y-51397690D01*
X136713552Y-51399491D01*
X136330538Y-51327047D01*
X136323045Y-51322142D01*
X136322367Y-51321016D01*
X136082220Y-50866438D01*
X136081385Y-50857522D01*
X136083819Y-50853201D01*
X136396509Y-50501532D01*
X136404568Y-50497627D01*
X136405253Y-50497607D01*
X136885818Y-50497607D01*
X136894091Y-50501034D01*
G37*
%TD.AperFunction*%
%TD*%
%TA.AperFunction,Conductor*%
%TO.N,Net-(Q2-G)*%
G36*
X157974116Y-47481983D02*
G01*
X158346519Y-47602134D01*
X158353340Y-47607936D01*
X158354626Y-47613269D01*
X158354626Y-48096230D01*
X158351199Y-48104503D01*
X158346519Y-48107365D01*
X157974120Y-48227515D01*
X157965194Y-48226794D01*
X157962127Y-48224524D01*
X157611520Y-47862892D01*
X157608222Y-47854569D01*
X157611520Y-47846607D01*
X157962129Y-47484974D01*
X157970346Y-47481420D01*
X157974116Y-47481983D01*
G37*
%TD.AperFunction*%
%TD*%
%TA.AperFunction,Conductor*%
%TO.N,Net-(Q6-G)*%
G36*
X136612997Y-47859162D02*
G01*
X136613530Y-47859695D01*
X136927845Y-48195381D01*
X136961490Y-48231313D01*
X136964643Y-48239694D01*
X136964362Y-48241885D01*
X136857059Y-48717460D01*
X136851895Y-48724776D01*
X136845646Y-48726585D01*
X136364354Y-48726585D01*
X136356081Y-48723158D01*
X136352941Y-48717460D01*
X136245637Y-48241885D01*
X136247159Y-48233061D01*
X136248504Y-48231318D01*
X136596460Y-47859705D01*
X136604616Y-47856009D01*
X136612997Y-47859162D01*
G37*
%TD.AperFunction*%
%TD*%
%TA.AperFunction,Conductor*%
%TO.N,NFAULT*%
G36*
X139520702Y-65816483D02*
G01*
X139521650Y-65818204D01*
X139604759Y-66004785D01*
X139743707Y-66316728D01*
X139744719Y-66321489D01*
X139744719Y-66503292D01*
X139741292Y-66511565D01*
X139733019Y-66514992D01*
X139729669Y-66514502D01*
X139166892Y-66346315D01*
X139159946Y-66340663D01*
X139158760Y-66332855D01*
X139223062Y-66004785D01*
X139228017Y-65997325D01*
X139228059Y-65997297D01*
X139504481Y-65813229D01*
X139513265Y-65811496D01*
X139520702Y-65816483D01*
G37*
%TD.AperFunction*%
%TD*%
%TA.AperFunction,Conductor*%
%TO.N,ADC2_IN12*%
G36*
X132187551Y-66547897D02*
G01*
X132569305Y-66647514D01*
X132576444Y-66652918D01*
X132577201Y-66654460D01*
X132762883Y-67115071D01*
X132762798Y-67124025D01*
X132757350Y-67129866D01*
X132302506Y-67361990D01*
X132297188Y-67363269D01*
X132063622Y-67363269D01*
X132055349Y-67359842D01*
X132051922Y-67351569D01*
X132052056Y-67349803D01*
X132173040Y-66557452D01*
X132177676Y-66549793D01*
X132186372Y-66547654D01*
X132187551Y-66547897D01*
G37*
%TD.AperFunction*%
%TD*%
%TA.AperFunction,Conductor*%
%TO.N,Net-(C13-Pad1)*%
G36*
X131032902Y-40681240D02*
G01*
X131404599Y-41021794D01*
X131408384Y-41029909D01*
X131408025Y-41033337D01*
X131277261Y-41541217D01*
X131271880Y-41548375D01*
X131265931Y-41550000D01*
X130784069Y-41550000D01*
X130775796Y-41546573D01*
X130772739Y-41541217D01*
X130732109Y-41383415D01*
X130641974Y-41033335D01*
X130643229Y-41024471D01*
X130645394Y-41021799D01*
X131017097Y-40681240D01*
X131025511Y-40678179D01*
X131032902Y-40681240D01*
G37*
%TD.AperFunction*%
%TD*%
%TA.AperFunction,Conductor*%
%TO.N,Net-(D6-A)*%
G36*
X138130847Y-49931321D02*
G01*
X138305210Y-50149608D01*
X138433835Y-50310637D01*
X138436320Y-50319239D01*
X138434513Y-50324298D01*
X138178458Y-50719660D01*
X138171085Y-50724741D01*
X138168638Y-50725000D01*
X137686309Y-50725000D01*
X137678036Y-50721573D01*
X137674616Y-50713697D01*
X137661380Y-50324298D01*
X137655813Y-50160519D01*
X137658957Y-50152137D01*
X137662373Y-50149611D01*
X138116578Y-49928106D01*
X138125515Y-49927561D01*
X138130847Y-49931321D01*
G37*
%TD.AperFunction*%
%TD*%
%TA.AperFunction,Conductor*%
%TO.N,VREF*%
G36*
X144602362Y-89760529D02*
G01*
X144724048Y-89817658D01*
X145421403Y-90145054D01*
X145427436Y-90151672D01*
X145427048Y-90160560D01*
X145203561Y-90643306D01*
X145196976Y-90649374D01*
X145191579Y-90650011D01*
X144483297Y-90566834D01*
X144475480Y-90562466D01*
X144473228Y-90557695D01*
X144303077Y-89773600D01*
X144304672Y-89764789D01*
X144312030Y-89759686D01*
X144314511Y-89759420D01*
X144597390Y-89759420D01*
X144602362Y-89760529D01*
G37*
%TD.AperFunction*%
%TD*%
%TA.AperFunction,Conductor*%
%TO.N,SPC*%
G36*
X131033239Y-44057173D02*
G01*
X131519013Y-44539087D01*
X131522473Y-44547346D01*
X131521258Y-44552584D01*
X131278222Y-45043491D01*
X131271481Y-45049385D01*
X131267737Y-45050000D01*
X130782263Y-45050000D01*
X130773990Y-45046573D01*
X130771778Y-45043491D01*
X130528741Y-44552584D01*
X130528141Y-44543649D01*
X130530983Y-44539091D01*
X131016760Y-44057173D01*
X131025047Y-44053780D01*
X131033239Y-44057173D01*
G37*
%TD.AperFunction*%
%TD*%
%TA.AperFunction,Conductor*%
%TO.N,V_BAT*%
G36*
X151340296Y-67220301D02*
G01*
X151343646Y-67223227D01*
X151671236Y-67643882D01*
X151673616Y-67652515D01*
X151672223Y-67656770D01*
X151429078Y-68092688D01*
X151422055Y-68098244D01*
X151416763Y-68098499D01*
X150759603Y-67978749D01*
X150752078Y-67973895D01*
X150750000Y-67967239D01*
X150750000Y-67382006D01*
X150753427Y-67373733D01*
X150758703Y-67370696D01*
X151331422Y-67219105D01*
X151340296Y-67220301D01*
G37*
%TD.AperFunction*%
%TD*%
%TA.AperFunction,Conductor*%
%TO.N,V_BAT*%
G36*
X165644653Y-38872989D02*
G01*
X165689321Y-38926715D01*
X165699500Y-38975916D01*
X165699500Y-68826000D01*
X165679815Y-68893039D01*
X165627011Y-68938794D01*
X165575500Y-68950000D01*
X160625000Y-68950000D01*
X160625000Y-67500000D01*
X156850000Y-67500000D01*
X156850000Y-62017214D01*
X158417069Y-60450144D01*
X158417256Y-60450042D01*
X158417214Y-60450000D01*
X160750000Y-58125000D01*
X160750000Y-56601362D01*
X160769685Y-56534323D01*
X160786319Y-56513681D01*
X161475000Y-55825000D01*
X161475000Y-44675000D01*
X160036319Y-43236319D01*
X160002834Y-43174996D01*
X160000000Y-43148638D01*
X160000000Y-39421688D01*
X160019685Y-39354649D01*
X160072489Y-39308894D01*
X160141647Y-39298950D01*
X160205203Y-39327975D01*
X160220947Y-39344376D01*
X160347146Y-39502626D01*
X160347152Y-39502632D01*
X160347153Y-39502633D01*
X160597367Y-39752847D01*
X160874024Y-39973473D01*
X161173642Y-40161736D01*
X161492456Y-40315269D01*
X161826456Y-40432140D01*
X162171440Y-40510881D01*
X162171449Y-40510882D01*
X162171454Y-40510883D01*
X162405861Y-40537293D01*
X162523066Y-40550499D01*
X162523069Y-40550500D01*
X162523072Y-40550500D01*
X162876931Y-40550500D01*
X162876932Y-40550499D01*
X163056635Y-40530252D01*
X163228545Y-40510883D01*
X163228548Y-40510882D01*
X163228560Y-40510881D01*
X163573544Y-40432140D01*
X163907544Y-40315269D01*
X164226358Y-40161736D01*
X164525976Y-39973473D01*
X164802633Y-39752847D01*
X165052847Y-39502633D01*
X165273473Y-39225976D01*
X165461736Y-38926358D01*
X165461739Y-38926352D01*
X165463780Y-38922115D01*
X165510602Y-38870255D01*
X165578029Y-38851942D01*
X165644653Y-38872989D01*
G37*
%TD.AperFunction*%
%TD*%
%TA.AperFunction,Conductor*%
%TO.N,Net-(Q2-G)*%
G36*
X157657158Y-49608220D02*
G01*
X157658579Y-49609641D01*
X158126289Y-50165552D01*
X158128993Y-50174088D01*
X158128369Y-50176978D01*
X157902381Y-50817194D01*
X157896396Y-50823855D01*
X157891348Y-50825000D01*
X157407904Y-50825000D01*
X157399631Y-50821573D01*
X157396871Y-50817194D01*
X157170882Y-50176978D01*
X157171360Y-50168036D01*
X157172959Y-50165556D01*
X157640673Y-49609640D01*
X157648622Y-49605516D01*
X157657158Y-49608220D01*
G37*
%TD.AperFunction*%
%TD*%
%TA.AperFunction,Conductor*%
%TO.N,GND*%
G36*
X165568039Y-69591448D02*
G01*
X165613794Y-69644252D01*
X165625000Y-69695763D01*
X165625000Y-86820500D01*
X165605315Y-86887539D01*
X165552511Y-86933294D01*
X165501000Y-86944500D01*
X161549000Y-86944500D01*
X161481961Y-86924815D01*
X161436206Y-86872011D01*
X161425000Y-86820500D01*
X161425000Y-69695763D01*
X161444685Y-69628724D01*
X161497489Y-69582969D01*
X161549000Y-69571763D01*
X165501000Y-69571763D01*
X165568039Y-69591448D01*
G37*
%TD.AperFunction*%
%TD*%
%TA.AperFunction,Conductor*%
%TO.N,Net-(D8-A)*%
G36*
X159132373Y-49930844D02*
G01*
X159518815Y-50272259D01*
X159522746Y-50280305D01*
X159522162Y-50284745D01*
X159377301Y-50717018D01*
X159371423Y-50723773D01*
X159366207Y-50725000D01*
X158883045Y-50725000D01*
X158874772Y-50721573D01*
X158871951Y-50717018D01*
X158727089Y-50284743D01*
X158727710Y-50275811D01*
X158730433Y-50272262D01*
X159116879Y-49930843D01*
X159125348Y-49927934D01*
X159132373Y-49930844D01*
G37*
%TD.AperFunction*%
%TD*%
%TA.AperFunction,Conductor*%
%TO.N,V_BAT*%
G36*
X150630194Y-67292560D02*
G01*
X151120888Y-67710618D01*
X151124963Y-67718591D01*
X151125000Y-67719523D01*
X151125000Y-68003815D01*
X151121573Y-68012088D01*
X151114777Y-68015421D01*
X150457843Y-68099002D01*
X150449203Y-68096647D01*
X150446149Y-68093096D01*
X150297621Y-67826810D01*
X150203655Y-67658345D01*
X150202618Y-67649451D01*
X150206247Y-67643773D01*
X150614985Y-67292591D01*
X150623491Y-67289800D01*
X150630194Y-67292560D01*
G37*
%TD.AperFunction*%
%TD*%
%TA.AperFunction,Conductor*%
%TO.N,SNC*%
G36*
X134703308Y-61226979D02*
G01*
X134982831Y-61413976D01*
X134987801Y-61421424D01*
X134987018Y-61428448D01*
X134965410Y-61477108D01*
X134964850Y-61478210D01*
X134949987Y-61503956D01*
X134944894Y-61522960D01*
X134944286Y-61524679D01*
X134819870Y-61804869D01*
X134817450Y-61808394D01*
X134620091Y-62005753D01*
X134611818Y-62009180D01*
X134603545Y-62005753D01*
X134600759Y-62001296D01*
X134361082Y-61305923D01*
X134361626Y-61296986D01*
X134368330Y-61291051D01*
X134369830Y-61290642D01*
X134694523Y-61225253D01*
X134703308Y-61226979D01*
G37*
%TD.AperFunction*%
%TD*%
%TA.AperFunction,Conductor*%
%TO.N,VREF*%
G36*
X144094124Y-90352691D02*
G01*
X144097551Y-90360964D01*
X144097343Y-90363161D01*
X143951594Y-91125523D01*
X143946674Y-91133006D01*
X143941577Y-91134933D01*
X143233457Y-91224925D01*
X143224818Y-91222568D01*
X143221385Y-91218278D01*
X143182371Y-91134933D01*
X142995458Y-90735630D01*
X142995056Y-90726686D01*
X143001096Y-90720074D01*
X143001130Y-90720058D01*
X143774793Y-90360964D01*
X143797658Y-90350350D01*
X143802584Y-90349264D01*
X144085851Y-90349264D01*
X144094124Y-90352691D01*
G37*
%TD.AperFunction*%
%TD*%
%TA.AperFunction,Conductor*%
%TO.N,V_BAT*%
G36*
X151742730Y-67203427D02*
G01*
X151746157Y-67211700D01*
X151746009Y-67213553D01*
X151676765Y-67645225D01*
X151672087Y-67652840D01*
X151235240Y-67969977D01*
X151226531Y-67972064D01*
X151219972Y-67968659D01*
X150768224Y-67503404D01*
X150764918Y-67495254D01*
X150764918Y-67211700D01*
X150768345Y-67203427D01*
X150776618Y-67200000D01*
X151734457Y-67200000D01*
X151742730Y-67203427D01*
G37*
%TD.AperFunction*%
%TD*%
%TA.AperFunction,Conductor*%
%TO.N,+3V3*%
G36*
X138800000Y-81050000D02*
G01*
X139300000Y-81050000D01*
X139464629Y-80518302D01*
X138875000Y-80049000D01*
X138455004Y-80550000D01*
X138800000Y-81050000D01*
G37*
%TD.AperFunction*%
%TD*%
%TA.AperFunction,Conductor*%
%TO.N,G_C_L*%
G36*
X136257747Y-54380844D02*
G01*
X136643872Y-54721979D01*
X136647803Y-54730025D01*
X136647022Y-54735007D01*
X136477909Y-55167560D01*
X136471705Y-55174018D01*
X136467012Y-55175000D01*
X136032988Y-55175000D01*
X136024715Y-55171573D01*
X136022091Y-55167560D01*
X135852977Y-54735007D01*
X135853156Y-54726054D01*
X135856125Y-54721981D01*
X136242253Y-54380843D01*
X136250722Y-54377934D01*
X136257747Y-54380844D01*
G37*
%TD.AperFunction*%
%TD*%
%TA.AperFunction,Conductor*%
%TO.N,SNB*%
G36*
X148405574Y-62755763D02*
G01*
X148413003Y-62760763D01*
X148414722Y-62769551D01*
X148414146Y-62771503D01*
X148252913Y-63182572D01*
X148246702Y-63189023D01*
X148242021Y-63190000D01*
X148007979Y-63190000D01*
X147999706Y-63186573D01*
X147997087Y-63182572D01*
X147923015Y-62993724D01*
X147835853Y-62771501D01*
X147836022Y-62762550D01*
X147842473Y-62756339D01*
X147844422Y-62755763D01*
X148122682Y-62699469D01*
X148127318Y-62699469D01*
X148405574Y-62755763D01*
G37*
%TD.AperFunction*%
%TD*%
%TA.AperFunction,Conductor*%
%TO.N,+3V3*%
G36*
X149335875Y-80567677D02*
G01*
X148982323Y-80214125D01*
X148570671Y-80069030D01*
X147999293Y-80550707D01*
X148660056Y-80964386D01*
X149335875Y-80567677D01*
G37*
%TD.AperFunction*%
%TD*%
%TA.AperFunction,Conductor*%
%TO.N,Net-(D8-A)*%
G36*
X159132338Y-49930882D02*
G01*
X159515310Y-50272624D01*
X159519201Y-50280689D01*
X159517698Y-50287124D01*
X159272844Y-50719070D01*
X159265783Y-50724577D01*
X159262666Y-50725000D01*
X158976400Y-50725000D01*
X158968127Y-50721573D01*
X158966149Y-50718940D01*
X158726896Y-50284125D01*
X158725910Y-50275225D01*
X158729443Y-50269680D01*
X159116845Y-49930805D01*
X159125328Y-49927938D01*
X159132338Y-49930882D01*
G37*
%TD.AperFunction*%
%TD*%
%TA.AperFunction,Conductor*%
%TO.N,V_BAT*%
G36*
X150267730Y-67203427D02*
G01*
X150271157Y-67211700D01*
X150271009Y-67213553D01*
X150201765Y-67645225D01*
X150197087Y-67652840D01*
X149760240Y-67969977D01*
X149751531Y-67972064D01*
X149744972Y-67968659D01*
X149293224Y-67503404D01*
X149289918Y-67495254D01*
X149289918Y-67211700D01*
X149293345Y-67203427D01*
X149301618Y-67200000D01*
X150259457Y-67200000D01*
X150267730Y-67203427D01*
G37*
%TD.AperFunction*%
%TD*%
%TA.AperFunction,Conductor*%
%TO.N,TIM17_CH1*%
G36*
X142675000Y-77625000D02*
G01*
X142925000Y-77625000D01*
X143200000Y-77177393D01*
X142800000Y-76824000D01*
X142400000Y-77177393D01*
X142675000Y-77625000D01*
G37*
%TD.AperFunction*%
%TD*%
%TA.AperFunction,Conductor*%
%TO.N,G_A_L*%
G36*
X157855363Y-53985939D02*
G01*
X157863249Y-53989360D01*
X158203234Y-54329345D01*
X158206661Y-54337618D01*
X158203234Y-54345891D01*
X158201256Y-54347480D01*
X157704264Y-54664689D01*
X157695446Y-54666252D01*
X157691574Y-54664625D01*
X157258958Y-54382259D01*
X157253903Y-54374867D01*
X157255555Y-54366066D01*
X157255652Y-54365920D01*
X157520998Y-53980271D01*
X157528510Y-53975400D01*
X157531017Y-53975211D01*
X157855363Y-53985939D01*
G37*
%TD.AperFunction*%
%TD*%
%TA.AperFunction,Conductor*%
%TO.N,Net-(Q6-G)*%
G36*
X136573882Y-51928427D02*
G01*
X136577032Y-51934169D01*
X136680030Y-52398991D01*
X136678474Y-52407809D01*
X136675569Y-52410925D01*
X136258206Y-52719924D01*
X136249518Y-52722093D01*
X136242869Y-52718691D01*
X135888998Y-52355974D01*
X135885674Y-52347660D01*
X135886705Y-52342999D01*
X136071894Y-51931895D01*
X136078417Y-51925759D01*
X136082562Y-51925000D01*
X136565609Y-51925000D01*
X136573882Y-51928427D01*
G37*
%TD.AperFunction*%
%TD*%
%TA.AperFunction,Conductor*%
%TO.N,SOA*%
G36*
X134510576Y-66193489D02*
G01*
X134842002Y-66313239D01*
X134846299Y-66315970D01*
X134978613Y-66448284D01*
X134982040Y-66456557D01*
X134979617Y-66463687D01*
X134631727Y-66916324D01*
X134623968Y-66920795D01*
X134615839Y-66918847D01*
X134233396Y-66656941D01*
X134228506Y-66649439D01*
X134229983Y-66641255D01*
X134496579Y-66198457D01*
X134503781Y-66193139D01*
X134510576Y-66193489D01*
G37*
%TD.AperFunction*%
%TD*%
%TA.AperFunction,Conductor*%
%TO.N,+3V3*%
G36*
X140200000Y-79025000D02*
G01*
X140700000Y-79025000D01*
X141191513Y-78625000D01*
X140875000Y-78124000D01*
X140165948Y-78455181D01*
X140200000Y-79025000D01*
G37*
%TD.AperFunction*%
%TD*%
%TA.AperFunction,Conductor*%
%TO.N,NFAULT*%
G36*
X147569508Y-75035930D02*
G01*
X147710930Y-74894508D01*
X147441014Y-74280550D01*
X147149293Y-74474293D01*
X146955550Y-74766014D01*
X147569508Y-75035930D01*
G37*
%TD.AperFunction*%
%TD*%
%TA.AperFunction,Conductor*%
%TO.N,Net-(Q2-G)*%
G36*
X157332528Y-51331240D02*
G01*
X157704225Y-51671794D01*
X157708010Y-51679909D01*
X157707651Y-51683337D01*
X157576887Y-52191217D01*
X157571506Y-52198375D01*
X157565557Y-52200000D01*
X157083695Y-52200000D01*
X157075422Y-52196573D01*
X157072365Y-52191217D01*
X157031735Y-52033415D01*
X156941600Y-51683335D01*
X156942855Y-51674471D01*
X156945020Y-51671799D01*
X157316723Y-51331240D01*
X157325137Y-51328179D01*
X157332528Y-51331240D01*
G37*
%TD.AperFunction*%
%TD*%
%TA.AperFunction,Conductor*%
%TO.N,SPA*%
G36*
X152032865Y-44057173D02*
G01*
X152518639Y-44539087D01*
X152522099Y-44547346D01*
X152520884Y-44552584D01*
X152277848Y-45043491D01*
X152271107Y-45049385D01*
X152267363Y-45050000D01*
X151781889Y-45050000D01*
X151773616Y-45046573D01*
X151771404Y-45043491D01*
X151528367Y-44552584D01*
X151527767Y-44543649D01*
X151530609Y-44539091D01*
X152016386Y-44057173D01*
X152024673Y-44053780D01*
X152032865Y-44057173D01*
G37*
%TD.AperFunction*%
%TD*%
%TA.AperFunction,Conductor*%
%TO.N,SPC*%
G36*
X135648767Y-47216520D02*
G01*
X135694522Y-47269324D01*
X135704466Y-47338482D01*
X135699436Y-47359830D01*
X135689884Y-47388655D01*
X135689825Y-47388835D01*
X135679500Y-47489900D01*
X135679500Y-48213254D01*
X135679501Y-48213272D01*
X135689825Y-48314336D01*
X135698268Y-48339815D01*
X135701639Y-48352055D01*
X135703409Y-48360064D01*
X135703759Y-48364149D01*
X135730897Y-48484429D01*
X135730924Y-48484549D01*
X135730698Y-48487855D01*
X135729106Y-48545269D01*
X135728981Y-48545708D01*
X135726462Y-48549992D01*
X135726172Y-48554257D01*
X135715585Y-48568497D01*
X135697403Y-48599431D01*
X135400000Y-48896835D01*
X135400000Y-50831929D01*
X135393707Y-50870931D01*
X135385001Y-50897203D01*
X135385000Y-50897209D01*
X135374500Y-50999983D01*
X135374500Y-51650001D01*
X135374501Y-51650019D01*
X135385000Y-51752796D01*
X135393706Y-51779066D01*
X135394156Y-51781859D01*
X135394977Y-51783136D01*
X135400000Y-51818071D01*
X135400000Y-51992461D01*
X135381539Y-52057557D01*
X135290189Y-52205659D01*
X135290186Y-52205666D01*
X135235001Y-52372203D01*
X135235001Y-52372204D01*
X135235000Y-52372204D01*
X135224500Y-52474983D01*
X135224340Y-52478139D01*
X135224179Y-52478130D01*
X135224179Y-52478132D01*
X135224155Y-52478129D01*
X135222963Y-52478068D01*
X135204815Y-52539874D01*
X135152011Y-52585629D01*
X135100500Y-52596835D01*
X134243636Y-52596835D01*
X134192826Y-52585947D01*
X134150651Y-52567002D01*
X134150644Y-52566999D01*
X134139870Y-52563836D01*
X134133245Y-52561935D01*
X134133247Y-52561935D01*
X134133242Y-52561934D01*
X134133238Y-52561933D01*
X134133228Y-52561931D01*
X133983372Y-52541335D01*
X133983370Y-52541335D01*
X129834500Y-52541335D01*
X129767461Y-52521650D01*
X129721706Y-52468846D01*
X129710500Y-52417335D01*
X129710500Y-50924010D01*
X129710500Y-50924000D01*
X129700711Y-50832952D01*
X129700000Y-50819697D01*
X129700000Y-47320835D01*
X129719685Y-47253796D01*
X129772489Y-47208041D01*
X129824000Y-47196835D01*
X135581728Y-47196835D01*
X135648767Y-47216520D01*
G37*
%TD.AperFunction*%
%TD*%
%TA.AperFunction,Conductor*%
%TO.N,OSC_IN*%
G36*
X137157842Y-81299264D02*
G01*
X137299264Y-81157842D01*
X137225000Y-80454294D01*
X136499293Y-80374293D01*
X136269322Y-80875000D01*
X137157842Y-81299264D01*
G37*
%TD.AperFunction*%
%TD*%
%TA.AperFunction,Conductor*%
%TO.N,GND*%
G36*
X135275000Y-81975000D02*
G01*
X135275000Y-82175000D01*
X135828232Y-82671859D01*
X136501000Y-82275000D01*
X135929329Y-81794030D01*
X135275000Y-81975000D01*
G37*
%TD.AperFunction*%
%TD*%
%TA.AperFunction,Conductor*%
%TO.N,G_C_H*%
G36*
X141006672Y-59363316D02*
G01*
X141008224Y-59366754D01*
X141008607Y-59368184D01*
X141021525Y-59390560D01*
X141021829Y-59391122D01*
X141253072Y-59847563D01*
X141253754Y-59856492D01*
X141250908Y-59861124D01*
X141086258Y-60025774D01*
X141077985Y-60029201D01*
X141072479Y-60027825D01*
X140597401Y-59774449D01*
X140591714Y-59767532D01*
X140592583Y-59758619D01*
X140593158Y-59757657D01*
X140750694Y-59520211D01*
X140753972Y-59516933D01*
X140990457Y-59360034D01*
X140999243Y-59358316D01*
X141006672Y-59363316D01*
G37*
%TD.AperFunction*%
%TD*%
%TA.AperFunction,Conductor*%
%TO.N,GND*%
G36*
X139775000Y-75975000D02*
G01*
X139775000Y-76475000D01*
X140304329Y-76705970D01*
X140876000Y-76225000D01*
X140304329Y-75744030D01*
X139775000Y-75975000D01*
G37*
%TD.AperFunction*%
%TD*%
%TA.AperFunction,Conductor*%
%TO.N,OSC_OUT*%
G36*
X132700000Y-82500000D02*
G01*
X132500000Y-82500000D01*
X132294030Y-83154329D01*
X132775000Y-83726000D01*
X133185320Y-83062227D01*
X132700000Y-82500000D01*
G37*
%TD.AperFunction*%
%TD*%
%TA.AperFunction,Conductor*%
%TO.N,SOB*%
G36*
X134511538Y-64646169D02*
G01*
X134887130Y-64869443D01*
X134889424Y-64871227D01*
X135021522Y-65003325D01*
X135024949Y-65011598D01*
X135021522Y-65019871D01*
X135021509Y-65019884D01*
X134622579Y-65417560D01*
X134614301Y-65420974D01*
X134606846Y-65418276D01*
X134605983Y-65417560D01*
X134232028Y-65107128D01*
X134227852Y-65099208D01*
X134229478Y-65092094D01*
X134495536Y-64650190D01*
X134502739Y-64644871D01*
X134511538Y-64646169D01*
G37*
%TD.AperFunction*%
%TD*%
%TA.AperFunction,Conductor*%
%TO.N,Net-(C3-Pad1)*%
G36*
X152275636Y-41153427D02*
G01*
X152277848Y-41156509D01*
X152520884Y-41647414D01*
X152521484Y-41656349D01*
X152518639Y-41660911D01*
X152032866Y-42142825D01*
X152024579Y-42146219D01*
X152016386Y-42142825D01*
X151796128Y-41924317D01*
X151530611Y-41660910D01*
X151527152Y-41652652D01*
X151528366Y-41647417D01*
X151771404Y-41156509D01*
X151778145Y-41150615D01*
X151781889Y-41150000D01*
X152267363Y-41150000D01*
X152275636Y-41153427D01*
G37*
%TD.AperFunction*%
%TD*%
%TA.AperFunction,Conductor*%
%TO.N,GND*%
G36*
X125272424Y-87144685D02*
G01*
X125312771Y-87186999D01*
X125324500Y-87207314D01*
X132717686Y-94600500D01*
X132771833Y-94631762D01*
X132805767Y-94651354D01*
X132835389Y-94675186D01*
X133200000Y-95075000D01*
X135798952Y-95075000D01*
X135807063Y-95075266D01*
X135810630Y-95075498D01*
X135810639Y-95075500D01*
X136289360Y-95075499D01*
X136289364Y-95075499D01*
X136292918Y-95075266D01*
X136301030Y-95075000D01*
X137448952Y-95075000D01*
X137457063Y-95075266D01*
X137460630Y-95075498D01*
X137460639Y-95075500D01*
X137939360Y-95075499D01*
X137939364Y-95075499D01*
X137942918Y-95075266D01*
X137951030Y-95075000D01*
X138526000Y-95075000D01*
X138593039Y-95094685D01*
X138638794Y-95147489D01*
X138650000Y-95199000D01*
X138650000Y-97450000D01*
X140389977Y-97450000D01*
X140457016Y-97469685D01*
X140502771Y-97522489D01*
X140512715Y-97591647D01*
X140483690Y-97655203D01*
X140477658Y-97661681D01*
X140457684Y-97681654D01*
X140365643Y-97830875D01*
X140365641Y-97830880D01*
X140310494Y-97997302D01*
X140310493Y-97997309D01*
X140300000Y-98100013D01*
X140300000Y-98150000D01*
X141401000Y-98150000D01*
X141468039Y-98169685D01*
X141513794Y-98222489D01*
X141525000Y-98274000D01*
X141525000Y-98400000D01*
X141651000Y-98400000D01*
X141718039Y-98419685D01*
X141763794Y-98472489D01*
X141775000Y-98524000D01*
X141775000Y-99399999D01*
X142049972Y-99399999D01*
X142049986Y-99399998D01*
X142152697Y-99389505D01*
X142319119Y-99334358D01*
X142319124Y-99334356D01*
X142468345Y-99242315D01*
X142592317Y-99118343D01*
X142634597Y-99049796D01*
X142686544Y-99003071D01*
X142755507Y-98991848D01*
X142777027Y-98996507D01*
X142847895Y-99018590D01*
X142918418Y-99024999D01*
X142999999Y-99024998D01*
X143000000Y-99024998D01*
X143000000Y-98249000D01*
X143019685Y-98181961D01*
X143072489Y-98136206D01*
X143124000Y-98125000D01*
X143376000Y-98125000D01*
X143443039Y-98144685D01*
X143488794Y-98197489D01*
X143500000Y-98249000D01*
X143500000Y-99024999D01*
X143581581Y-99024999D01*
X143652102Y-99018591D01*
X143652106Y-99018591D01*
X143659394Y-99016320D01*
X143729254Y-99015166D01*
X143788648Y-99051965D01*
X143818718Y-99115033D01*
X143820279Y-99133210D01*
X143825000Y-99525000D01*
X146087271Y-99525000D01*
X146154310Y-99544685D01*
X146174953Y-99561320D01*
X146221580Y-99607948D01*
X146221584Y-99607951D01*
X146344498Y-99690080D01*
X146344511Y-99690087D01*
X146481082Y-99746656D01*
X146481087Y-99746658D01*
X146481091Y-99746658D01*
X146481092Y-99746659D01*
X146626079Y-99775500D01*
X146626082Y-99775500D01*
X146773920Y-99775500D01*
X146871462Y-99756096D01*
X146918913Y-99746658D01*
X147055495Y-99690084D01*
X147178416Y-99607951D01*
X147225047Y-99561320D01*
X147286370Y-99527834D01*
X147312729Y-99525000D01*
X148475000Y-99525000D01*
X148475000Y-99296940D01*
X148494685Y-99229901D01*
X148547489Y-99184146D01*
X148574808Y-99175323D01*
X148597576Y-99170793D01*
X148718913Y-99146658D01*
X148855495Y-99090084D01*
X148978416Y-99007951D01*
X149082951Y-98903416D01*
X149165084Y-98780495D01*
X149221658Y-98643913D01*
X149231096Y-98596462D01*
X149250500Y-98498920D01*
X149250500Y-98351079D01*
X149221659Y-98206092D01*
X149221658Y-98206091D01*
X149221658Y-98206087D01*
X149196225Y-98144685D01*
X149165087Y-98069511D01*
X149165080Y-98069498D01*
X149082951Y-97946584D01*
X149082948Y-97946580D01*
X148978419Y-97842051D01*
X148978415Y-97842048D01*
X148855501Y-97759919D01*
X148855488Y-97759912D01*
X148718917Y-97703343D01*
X148718907Y-97703340D01*
X148574808Y-97674676D01*
X148512897Y-97642291D01*
X148478323Y-97581574D01*
X148475000Y-97553059D01*
X148475000Y-97550000D01*
X146136329Y-97550000D01*
X146130683Y-97548980D01*
X146127456Y-97549682D01*
X146104478Y-97544249D01*
X146092970Y-97542172D01*
X146090902Y-97541400D01*
X145989744Y-97499499D01*
X145975763Y-97496718D01*
X145965961Y-97494768D01*
X145965958Y-97494767D01*
X145864071Y-97474500D01*
X145864069Y-97474500D01*
X145749000Y-97474500D01*
X145681961Y-97454815D01*
X145636206Y-97402011D01*
X145625000Y-97350500D01*
X145625000Y-95550001D01*
X145624999Y-95549999D01*
X145325000Y-95225000D01*
X145324999Y-95225000D01*
X142174251Y-95225000D01*
X142107212Y-95205315D01*
X142061457Y-95152511D01*
X142050251Y-95100750D01*
X142051229Y-94616474D01*
X142054872Y-92812885D01*
X142074692Y-92745889D01*
X142105810Y-92712950D01*
X142742350Y-92248806D01*
X142808116Y-92225215D01*
X142815407Y-92225000D01*
X144079999Y-92225000D01*
X144080000Y-92225000D01*
X144569843Y-91918847D01*
X144635563Y-91900000D01*
X145904306Y-91900000D01*
X145971345Y-91919685D01*
X146017100Y-91972489D01*
X146028260Y-92020649D01*
X146033784Y-92225000D01*
X146049672Y-92812889D01*
X146050000Y-92825000D01*
X146051817Y-92892241D01*
X146046938Y-92930186D01*
X146027402Y-92997426D01*
X146027401Y-92997432D01*
X146024500Y-93034298D01*
X146024500Y-93715701D01*
X146027401Y-93752567D01*
X146027402Y-93752573D01*
X146073254Y-93910393D01*
X146073255Y-93910396D01*
X146156917Y-94051862D01*
X146156923Y-94051870D01*
X146273129Y-94168076D01*
X146273140Y-94168085D01*
X146413620Y-94251163D01*
X146461304Y-94302231D01*
X146474500Y-94357895D01*
X146474500Y-94713695D01*
X146509103Y-94887658D01*
X146509106Y-94887667D01*
X146576983Y-95051540D01*
X146576990Y-95051553D01*
X146675535Y-95199034D01*
X146675538Y-95199038D01*
X146800961Y-95324461D01*
X146800965Y-95324464D01*
X146948446Y-95423009D01*
X146948459Y-95423016D01*
X147071363Y-95473923D01*
X147112334Y-95490894D01*
X147112336Y-95490894D01*
X147112341Y-95490896D01*
X147286304Y-95525499D01*
X147286307Y-95525500D01*
X147286309Y-95525500D01*
X147463693Y-95525500D01*
X147463694Y-95525499D01*
X147521682Y-95513964D01*
X147637658Y-95490896D01*
X147637661Y-95490894D01*
X147637666Y-95490894D01*
X147801547Y-95423013D01*
X147949035Y-95324464D01*
X148074464Y-95199035D01*
X148173013Y-95051547D01*
X148240894Y-94887666D01*
X148275500Y-94713695D01*
X148275646Y-94712959D01*
X148308031Y-94651048D01*
X148368746Y-94616474D01*
X148431858Y-94618074D01*
X148447426Y-94622597D01*
X148447429Y-94622597D01*
X148447431Y-94622598D01*
X148484306Y-94625500D01*
X148484314Y-94625500D01*
X149115686Y-94625500D01*
X149115694Y-94625500D01*
X149152569Y-94622598D01*
X149152571Y-94622597D01*
X149152573Y-94622597D01*
X149194191Y-94610505D01*
X149310398Y-94576744D01*
X149451865Y-94493081D01*
X149568081Y-94376865D01*
X149585265Y-94347807D01*
X149636330Y-94300124D01*
X149705072Y-94287618D01*
X149769662Y-94314262D01*
X149797535Y-94345830D01*
X149857680Y-94443340D01*
X149857683Y-94443344D01*
X149981654Y-94567315D01*
X150130875Y-94659356D01*
X150130880Y-94659358D01*
X150297302Y-94714505D01*
X150297309Y-94714506D01*
X150400019Y-94724999D01*
X150950000Y-94724999D01*
X150999972Y-94724999D01*
X150999986Y-94724998D01*
X151102697Y-94714505D01*
X151269119Y-94659358D01*
X151269124Y-94659356D01*
X151418345Y-94567315D01*
X151542315Y-94443345D01*
X151634356Y-94294124D01*
X151634358Y-94294119D01*
X151689505Y-94127697D01*
X151689506Y-94127690D01*
X151699999Y-94024986D01*
X151700000Y-94024973D01*
X151700000Y-93750000D01*
X150950000Y-93750000D01*
X150950000Y-94724999D01*
X150400019Y-94724999D01*
X150449999Y-94724998D01*
X150450000Y-94724998D01*
X150450000Y-92877272D01*
X150950000Y-92877272D01*
X150950000Y-93250000D01*
X151699999Y-93250000D01*
X151699999Y-92975028D01*
X151699998Y-92975013D01*
X151689505Y-92872302D01*
X151634358Y-92705880D01*
X151634356Y-92705875D01*
X151567733Y-92597862D01*
X151549293Y-92530469D01*
X151567734Y-92467668D01*
X151659353Y-92319130D01*
X151659358Y-92319119D01*
X151714505Y-92152697D01*
X151714506Y-92152690D01*
X151724999Y-92049986D01*
X151725000Y-92049973D01*
X151725000Y-91775000D01*
X150975000Y-91775000D01*
X150975000Y-92803638D01*
X150966355Y-92833078D01*
X150959832Y-92863065D01*
X150956077Y-92868080D01*
X150955315Y-92870677D01*
X150950000Y-92877272D01*
X150450000Y-92877272D01*
X150450000Y-92221362D01*
X150469685Y-92154323D01*
X150475000Y-92147727D01*
X150475000Y-91275000D01*
X150975000Y-91275000D01*
X151724999Y-91275000D01*
X151724999Y-91000028D01*
X151724998Y-91000013D01*
X151714505Y-90897302D01*
X151659358Y-90730880D01*
X151659356Y-90730875D01*
X151567315Y-90581654D01*
X151443345Y-90457684D01*
X151294124Y-90365643D01*
X151294119Y-90365641D01*
X151127697Y-90310494D01*
X151127690Y-90310493D01*
X151024986Y-90300000D01*
X150975000Y-90300000D01*
X150975000Y-91275000D01*
X150475000Y-91275000D01*
X150475000Y-90059519D01*
X150494685Y-89992480D01*
X150533903Y-89953980D01*
X150593345Y-89917315D01*
X150717315Y-89793345D01*
X150809356Y-89644124D01*
X150809358Y-89644119D01*
X150864505Y-89477697D01*
X150864506Y-89477690D01*
X150874999Y-89374986D01*
X150875000Y-89374973D01*
X150875000Y-89100000D01*
X149999000Y-89100000D01*
X149942226Y-89083329D01*
X149881079Y-89003945D01*
X149875000Y-88976000D01*
X149875000Y-88724000D01*
X149894685Y-88656961D01*
X149947489Y-88611206D01*
X149999000Y-88600000D01*
X150874999Y-88600000D01*
X150874999Y-88325028D01*
X150874998Y-88325013D01*
X150864506Y-88222304D01*
X150836737Y-88138505D01*
X150835757Y-88110039D01*
X150831705Y-88081853D01*
X150834572Y-88075574D01*
X150834335Y-88068676D01*
X150848900Y-88044201D01*
X150860730Y-88018297D01*
X150866536Y-88014565D01*
X150870066Y-88008634D01*
X150895551Y-87995918D01*
X150919508Y-87980523D01*
X150929203Y-87979128D01*
X150932587Y-87977441D01*
X150954443Y-87975500D01*
X150998205Y-87975500D01*
X150998221Y-87975501D01*
X151005817Y-87975501D01*
X151144181Y-87975501D01*
X151144183Y-87975501D01*
X151251935Y-87946628D01*
X151277836Y-87939688D01*
X151285460Y-87935285D01*
X151297471Y-87931303D01*
X151315281Y-87930686D01*
X151336503Y-87925000D01*
X154626000Y-87925000D01*
X154693039Y-87944685D01*
X154738794Y-87997489D01*
X154750000Y-88049000D01*
X154750000Y-89850000D01*
X157231000Y-89850000D01*
X157298039Y-89869685D01*
X157343794Y-89922489D01*
X157355000Y-89974000D01*
X157355000Y-94796000D01*
X157335315Y-94863039D01*
X157282511Y-94908794D01*
X157231000Y-94920000D01*
X154875000Y-94920000D01*
X154887987Y-101027197D01*
X154868445Y-101094278D01*
X154867091Y-101096349D01*
X154834920Y-101144498D01*
X154834914Y-101144508D01*
X154778342Y-101281086D01*
X154778340Y-101281092D01*
X154749500Y-101426079D01*
X154749500Y-101426082D01*
X154749500Y-101573918D01*
X154749500Y-101573920D01*
X154749499Y-101573920D01*
X154778340Y-101718907D01*
X154778343Y-101718917D01*
X154834912Y-101855488D01*
X154834919Y-101855501D01*
X154869106Y-101906665D01*
X154889984Y-101973343D01*
X154890004Y-101975292D01*
X154893898Y-103806156D01*
X154874356Y-103873237D01*
X154821649Y-103919105D01*
X154752512Y-103929195D01*
X154688895Y-103900305D01*
X154677915Y-103888537D01*
X154672187Y-103882809D01*
X154557093Y-103796649D01*
X154557086Y-103796645D01*
X154422379Y-103746403D01*
X154422372Y-103746401D01*
X154362844Y-103740000D01*
X153715000Y-103740000D01*
X153715000Y-104656988D01*
X153657993Y-104624075D01*
X153530826Y-104590000D01*
X153399174Y-104590000D01*
X153272007Y-104624075D01*
X153215000Y-104656988D01*
X153215000Y-103740000D01*
X152567155Y-103740000D01*
X152507627Y-103746401D01*
X152507620Y-103746403D01*
X152372913Y-103796645D01*
X152372906Y-103796649D01*
X152257812Y-103882809D01*
X152257809Y-103882812D01*
X152171649Y-103997906D01*
X152171645Y-103997913D01*
X152121403Y-104132620D01*
X152121401Y-104132627D01*
X152115000Y-104192155D01*
X152115000Y-104840000D01*
X153031988Y-104840000D01*
X152999075Y-104897007D01*
X152965000Y-105024174D01*
X152965000Y-105155826D01*
X152999075Y-105282993D01*
X153031988Y-105340000D01*
X152115000Y-105340000D01*
X152115000Y-105987844D01*
X152121401Y-106047372D01*
X152121403Y-106047379D01*
X152171645Y-106182086D01*
X152171649Y-106182093D01*
X152257809Y-106297186D01*
X152348334Y-106364954D01*
X152390205Y-106420888D01*
X152395189Y-106490580D01*
X152361705Y-106551902D01*
X152286951Y-106626656D01*
X152286951Y-106626657D01*
X152229352Y-106739698D01*
X152214500Y-106833475D01*
X152214500Y-108596517D01*
X152223763Y-108655000D01*
X152229354Y-108690304D01*
X152286950Y-108803342D01*
X152286952Y-108803344D01*
X152286954Y-108803347D01*
X152376652Y-108893045D01*
X152376655Y-108893047D01*
X152376658Y-108893050D01*
X152403206Y-108906577D01*
X152423693Y-108917016D01*
X152474488Y-108964991D01*
X152491283Y-109032812D01*
X152468745Y-109098946D01*
X152423693Y-109137984D01*
X152376659Y-109161949D01*
X152376652Y-109161954D01*
X152286954Y-109251652D01*
X152286951Y-109251657D01*
X152229352Y-109364698D01*
X152214500Y-109458475D01*
X152214500Y-111221517D01*
X152214685Y-111222682D01*
X152229354Y-111315304D01*
X152286950Y-111428342D01*
X152286952Y-111428344D01*
X152286954Y-111428347D01*
X152376652Y-111518045D01*
X152376654Y-111518046D01*
X152376658Y-111518050D01*
X152489694Y-111575645D01*
X152489698Y-111575647D01*
X152583475Y-111590499D01*
X152583481Y-111590500D01*
X154346518Y-111590499D01*
X154440304Y-111575646D01*
X154553342Y-111518050D01*
X154643050Y-111428342D01*
X154700646Y-111315304D01*
X154700646Y-111315302D01*
X154700647Y-111315301D01*
X154715499Y-111221524D01*
X154715500Y-111221519D01*
X154715499Y-109458482D01*
X154700646Y-109364696D01*
X154643050Y-109251658D01*
X154643046Y-109251654D01*
X154643045Y-109251652D01*
X154553347Y-109161954D01*
X154553342Y-109161950D01*
X154506305Y-109137983D01*
X154455510Y-109090008D01*
X154438716Y-109022186D01*
X154461255Y-108956052D01*
X154506307Y-108917015D01*
X154553342Y-108893050D01*
X154643050Y-108803342D01*
X154700646Y-108690304D01*
X154700646Y-108690302D01*
X154700647Y-108690301D01*
X154715499Y-108596524D01*
X154715500Y-108596519D01*
X154715499Y-106833482D01*
X154715499Y-106833481D01*
X154715499Y-106833477D01*
X154710659Y-106802919D01*
X154719614Y-106733625D01*
X154764610Y-106680173D01*
X154831361Y-106659534D01*
X154886799Y-106674955D01*
X154899999Y-106674999D01*
X154900000Y-106675000D01*
X156065972Y-106678952D01*
X156132944Y-106698863D01*
X156178519Y-106751822D01*
X156187613Y-106803609D01*
X156189500Y-106803609D01*
X156189500Y-108571517D01*
X156193460Y-108596517D01*
X156204354Y-108665304D01*
X156261950Y-108778342D01*
X156261952Y-108778344D01*
X156261954Y-108778347D01*
X156351652Y-108868045D01*
X156351655Y-108868047D01*
X156351658Y-108868050D01*
X156379176Y-108882071D01*
X156398693Y-108892016D01*
X156449488Y-108939991D01*
X156466283Y-109007812D01*
X156443745Y-109073946D01*
X156398693Y-109112984D01*
X156351659Y-109136949D01*
X156351652Y-109136954D01*
X156261954Y-109226652D01*
X156261951Y-109226657D01*
X156204352Y-109339698D01*
X156189500Y-109433475D01*
X156189500Y-111196517D01*
X156200292Y-111264657D01*
X156204354Y-111290304D01*
X156261950Y-111403342D01*
X156261952Y-111403344D01*
X156261954Y-111403347D01*
X156351652Y-111493045D01*
X156351654Y-111493046D01*
X156351658Y-111493050D01*
X156464694Y-111550645D01*
X156464698Y-111550647D01*
X156558475Y-111565499D01*
X156558481Y-111565500D01*
X158321518Y-111565499D01*
X158415304Y-111550646D01*
X158528342Y-111493050D01*
X158618050Y-111403342D01*
X158675646Y-111290304D01*
X158675646Y-111290302D01*
X158675647Y-111290301D01*
X158690499Y-111196524D01*
X158690500Y-111196519D01*
X158690499Y-109433482D01*
X158675646Y-109339696D01*
X158618050Y-109226658D01*
X158618046Y-109226654D01*
X158618045Y-109226652D01*
X158528347Y-109136954D01*
X158528342Y-109136950D01*
X158481305Y-109112983D01*
X158430510Y-109065008D01*
X158413716Y-108997186D01*
X158436255Y-108931052D01*
X158481307Y-108892015D01*
X158528342Y-108868050D01*
X158618050Y-108778342D01*
X158675646Y-108665304D01*
X158675646Y-108665302D01*
X158675647Y-108665301D01*
X158690499Y-108571524D01*
X158690500Y-108571519D01*
X158690499Y-106812268D01*
X158710184Y-106745230D01*
X158762987Y-106699475D01*
X158814914Y-106688270D01*
X161725003Y-106698135D01*
X161791974Y-106718046D01*
X161837549Y-106771005D01*
X161847258Y-106840197D01*
X161818018Y-106903654D01*
X161765536Y-106939175D01*
X161492463Y-107034727D01*
X161492456Y-107034730D01*
X161173644Y-107188262D01*
X160874025Y-107376526D01*
X160597367Y-107597152D01*
X160347152Y-107847367D01*
X160126526Y-108124025D01*
X159938262Y-108423644D01*
X159784731Y-108742454D01*
X159667860Y-109076454D01*
X159667859Y-109076456D01*
X159589119Y-109421440D01*
X159589116Y-109421454D01*
X159549500Y-109773065D01*
X159549500Y-110126934D01*
X159589116Y-110478545D01*
X159589118Y-110478557D01*
X159589119Y-110478560D01*
X159595268Y-110505499D01*
X159667859Y-110823543D01*
X159667860Y-110823545D01*
X159784731Y-111157545D01*
X159938262Y-111476355D01*
X159938264Y-111476358D01*
X160126527Y-111775976D01*
X160347153Y-112052633D01*
X160597367Y-112302847D01*
X160874024Y-112523473D01*
X161173642Y-112711736D01*
X161173647Y-112711739D01*
X161177885Y-112713780D01*
X161229745Y-112760602D01*
X161248058Y-112828029D01*
X161227011Y-112894653D01*
X161173285Y-112939321D01*
X161124084Y-112949500D01*
X129275916Y-112949500D01*
X129208877Y-112929815D01*
X129163122Y-112877011D01*
X129153178Y-112807853D01*
X129182203Y-112744297D01*
X129222115Y-112713780D01*
X129226352Y-112711739D01*
X129226352Y-112711738D01*
X129226358Y-112711736D01*
X129525976Y-112523473D01*
X129802633Y-112302847D01*
X130052847Y-112052633D01*
X130273473Y-111775976D01*
X130461736Y-111476358D01*
X130615269Y-111157544D01*
X130732140Y-110823544D01*
X130810881Y-110478560D01*
X130818169Y-110413882D01*
X130830252Y-110306635D01*
X130850500Y-110126928D01*
X130850500Y-109958475D01*
X135649500Y-109958475D01*
X135649500Y-111721517D01*
X135660292Y-111789657D01*
X135664354Y-111815304D01*
X135721950Y-111928342D01*
X135721952Y-111928344D01*
X135721954Y-111928347D01*
X135811652Y-112018045D01*
X135811654Y-112018046D01*
X135811658Y-112018050D01*
X135924694Y-112075645D01*
X135924698Y-112075647D01*
X136018475Y-112090499D01*
X136018481Y-112090500D01*
X137781518Y-112090499D01*
X137875304Y-112075646D01*
X137988342Y-112018050D01*
X138078050Y-111928342D01*
X138135646Y-111815304D01*
X138135646Y-111815302D01*
X138135647Y-111815301D01*
X138150499Y-111721524D01*
X138150500Y-111721519D01*
X138150499Y-109958482D01*
X138135646Y-109864696D01*
X138078050Y-109751658D01*
X138078046Y-109751654D01*
X138078045Y-109751652D01*
X137988347Y-109661954D01*
X137988344Y-109661952D01*
X137988342Y-109661950D01*
X137911517Y-109622805D01*
X137875301Y-109604352D01*
X137781524Y-109589500D01*
X136018482Y-109589500D01*
X135937519Y-109602323D01*
X135924696Y-109604354D01*
X135811658Y-109661950D01*
X135811657Y-109661951D01*
X135811652Y-109661954D01*
X135721954Y-109751652D01*
X135721951Y-109751657D01*
X135664352Y-109864698D01*
X135649500Y-109958475D01*
X130850500Y-109958475D01*
X130850500Y-109773072D01*
X130815055Y-109458482D01*
X130810883Y-109421454D01*
X130810882Y-109421449D01*
X130810881Y-109421440D01*
X130732140Y-109076456D01*
X130615269Y-108742456D01*
X130461736Y-108423642D01*
X130408739Y-108339298D01*
X140199500Y-108339298D01*
X140199500Y-109920701D01*
X140202401Y-109957567D01*
X140202402Y-109957573D01*
X140248254Y-110115393D01*
X140248255Y-110115396D01*
X140331917Y-110256862D01*
X140331923Y-110256870D01*
X140448129Y-110373076D01*
X140448133Y-110373079D01*
X140448135Y-110373081D01*
X140589602Y-110456744D01*
X140631224Y-110468836D01*
X140747426Y-110502597D01*
X140747429Y-110502597D01*
X140747431Y-110502598D01*
X140784306Y-110505500D01*
X140784314Y-110505500D01*
X142115686Y-110505500D01*
X142115694Y-110505500D01*
X142152569Y-110502598D01*
X142152571Y-110502597D01*
X142152573Y-110502597D01*
X142194191Y-110490505D01*
X142310398Y-110456744D01*
X142451865Y-110373081D01*
X142568081Y-110256865D01*
X142651744Y-110115398D01*
X142689009Y-109987133D01*
X142726615Y-109928247D01*
X142790087Y-109899041D01*
X142859274Y-109908787D01*
X142908401Y-109948840D01*
X142996172Y-110069646D01*
X143135354Y-110208828D01*
X143294595Y-110324524D01*
X143377455Y-110366743D01*
X143469970Y-110413882D01*
X143469972Y-110413882D01*
X143469975Y-110413884D01*
X143570317Y-110446487D01*
X143657173Y-110474709D01*
X143851578Y-110505500D01*
X143851583Y-110505500D01*
X144048422Y-110505500D01*
X144242826Y-110474709D01*
X144298116Y-110456744D01*
X144430025Y-110413884D01*
X144605405Y-110324524D01*
X144764646Y-110208828D01*
X144903828Y-110069646D01*
X145019524Y-109910405D01*
X145033679Y-109882623D01*
X145081651Y-109831828D01*
X145149471Y-109815031D01*
X145215607Y-109837567D01*
X145254648Y-109882621D01*
X145295377Y-109962555D01*
X145420272Y-110134459D01*
X145420276Y-110134464D01*
X145570535Y-110284723D01*
X145570540Y-110284727D01*
X145742442Y-110409620D01*
X145931782Y-110506095D01*
X146133871Y-110571757D01*
X146200000Y-110582231D01*
X146200000Y-109534145D01*
X146266657Y-109572630D01*
X146387465Y-109605000D01*
X146512535Y-109605000D01*
X146633343Y-109572630D01*
X146700000Y-109534145D01*
X146700000Y-110582230D01*
X146766126Y-110571757D01*
X146766129Y-110571757D01*
X146968217Y-110506095D01*
X147157557Y-110409620D01*
X147329459Y-110284727D01*
X147329464Y-110284723D01*
X147479723Y-110134464D01*
X147479727Y-110134459D01*
X147604620Y-109962558D01*
X147645350Y-109882622D01*
X147693324Y-109831826D01*
X147761145Y-109815031D01*
X147827280Y-109837568D01*
X147866319Y-109882621D01*
X147880476Y-109910405D01*
X147996172Y-110069646D01*
X148135354Y-110208828D01*
X148294595Y-110324524D01*
X148377455Y-110366743D01*
X148469970Y-110413882D01*
X148469972Y-110413882D01*
X148469975Y-110413884D01*
X148570317Y-110446487D01*
X148657173Y-110474709D01*
X148851578Y-110505500D01*
X148851583Y-110505500D01*
X149048422Y-110505500D01*
X149242826Y-110474709D01*
X149298116Y-110456744D01*
X149430025Y-110413884D01*
X149605405Y-110324524D01*
X149764646Y-110208828D01*
X149903828Y-110069646D01*
X150019524Y-109910405D01*
X150108884Y-109735025D01*
X150169709Y-109547826D01*
X150183861Y-109458475D01*
X150200500Y-109353422D01*
X150200500Y-108906577D01*
X150169709Y-108712173D01*
X150132130Y-108596518D01*
X150108884Y-108524975D01*
X150108882Y-108524972D01*
X150108882Y-108524970D01*
X150033680Y-108377378D01*
X150019524Y-108349595D01*
X149903828Y-108190354D01*
X149764646Y-108051172D01*
X149605405Y-107935476D01*
X149430029Y-107846117D01*
X149242826Y-107785290D01*
X149048422Y-107754500D01*
X149048417Y-107754500D01*
X148851583Y-107754500D01*
X148851578Y-107754500D01*
X148657173Y-107785290D01*
X148469970Y-107846117D01*
X148294594Y-107935476D01*
X148239815Y-107975276D01*
X148135354Y-108051172D01*
X148135352Y-108051174D01*
X148135351Y-108051174D01*
X147996174Y-108190351D01*
X147996174Y-108190352D01*
X147996172Y-108190354D01*
X147938324Y-108269974D01*
X147880474Y-108349597D01*
X147866319Y-108377378D01*
X147818344Y-108428174D01*
X147750523Y-108444968D01*
X147684388Y-108422430D01*
X147645350Y-108377377D01*
X147604620Y-108297442D01*
X147479727Y-108125540D01*
X147479723Y-108125535D01*
X147329464Y-107975276D01*
X147329459Y-107975272D01*
X147157557Y-107850379D01*
X146968215Y-107753903D01*
X146766124Y-107688241D01*
X146700000Y-107677768D01*
X146700000Y-108725854D01*
X146633343Y-108687370D01*
X146512535Y-108655000D01*
X146387465Y-108655000D01*
X146266657Y-108687370D01*
X146200000Y-108725854D01*
X146200000Y-107677768D01*
X146199999Y-107677768D01*
X146133875Y-107688241D01*
X145931784Y-107753903D01*
X145742442Y-107850379D01*
X145570540Y-107975272D01*
X145570535Y-107975276D01*
X145420276Y-108125535D01*
X145420272Y-108125540D01*
X145295377Y-108297444D01*
X145254648Y-108377378D01*
X145206673Y-108428174D01*
X145138852Y-108444968D01*
X145072717Y-108422430D01*
X145033679Y-108377375D01*
X145019526Y-108349598D01*
X145019523Y-108349594D01*
X144903828Y-108190354D01*
X144764646Y-108051172D01*
X144605405Y-107935476D01*
X144430029Y-107846117D01*
X144242826Y-107785290D01*
X144048422Y-107754500D01*
X144048417Y-107754500D01*
X143851583Y-107754500D01*
X143851578Y-107754500D01*
X143657173Y-107785290D01*
X143469970Y-107846117D01*
X143294594Y-107935476D01*
X143239815Y-107975276D01*
X143135354Y-108051172D01*
X143135352Y-108051174D01*
X143135351Y-108051174D01*
X142996173Y-108190352D01*
X142908403Y-108311157D01*
X142853072Y-108353822D01*
X142783459Y-108359801D01*
X142721664Y-108327195D01*
X142689009Y-108272866D01*
X142651745Y-108144606D01*
X142651744Y-108144603D01*
X142651744Y-108144602D01*
X142568081Y-108003135D01*
X142568079Y-108003133D01*
X142568076Y-108003129D01*
X142451870Y-107886923D01*
X142451862Y-107886917D01*
X142310396Y-107803255D01*
X142310393Y-107803254D01*
X142152573Y-107757402D01*
X142152567Y-107757401D01*
X142115701Y-107754500D01*
X142115694Y-107754500D01*
X140784306Y-107754500D01*
X140784298Y-107754500D01*
X140747432Y-107757401D01*
X140747426Y-107757402D01*
X140589606Y-107803254D01*
X140589603Y-107803255D01*
X140448137Y-107886917D01*
X140448129Y-107886923D01*
X140331923Y-108003129D01*
X140331917Y-108003137D01*
X140248255Y-108144603D01*
X140248254Y-108144606D01*
X140202402Y-108302426D01*
X140202401Y-108302432D01*
X140199500Y-108339298D01*
X130408739Y-108339298D01*
X130273473Y-108124024D01*
X130052847Y-107847367D01*
X129802633Y-107597153D01*
X129525976Y-107376527D01*
X129226358Y-107188264D01*
X129226355Y-107188262D01*
X128907545Y-107034731D01*
X128573545Y-106917860D01*
X128573543Y-106917859D01*
X128278423Y-106850500D01*
X128228560Y-106839119D01*
X128228557Y-106839118D01*
X128228545Y-106839116D01*
X127876934Y-106799500D01*
X127876928Y-106799500D01*
X127523072Y-106799500D01*
X127523065Y-106799500D01*
X127171454Y-106839116D01*
X127171440Y-106839119D01*
X126826456Y-106917859D01*
X126826454Y-106917860D01*
X126492454Y-107034731D01*
X126173644Y-107188262D01*
X125874025Y-107376526D01*
X125597367Y-107597152D01*
X125347152Y-107847367D01*
X125126526Y-108124025D01*
X124938262Y-108423644D01*
X124936128Y-108428076D01*
X124889301Y-108479932D01*
X124821872Y-108498239D01*
X124755250Y-108477185D01*
X124710586Y-108423455D01*
X124700412Y-108374268D01*
X124700417Y-104718475D01*
X135649500Y-104718475D01*
X135649500Y-106481517D01*
X135658280Y-106536950D01*
X135664354Y-106575304D01*
X135721950Y-106688342D01*
X135721952Y-106688344D01*
X135721954Y-106688347D01*
X135811652Y-106778045D01*
X135811654Y-106778046D01*
X135811658Y-106778050D01*
X135920435Y-106833475D01*
X135924698Y-106835647D01*
X136018475Y-106850499D01*
X136018481Y-106850500D01*
X137781518Y-106850499D01*
X137875304Y-106835646D01*
X137988342Y-106778050D01*
X138078050Y-106688342D01*
X138135646Y-106575304D01*
X138135646Y-106575302D01*
X138135647Y-106575301D01*
X138150499Y-106481524D01*
X138150500Y-106481519D01*
X138150499Y-104718482D01*
X138135646Y-104624696D01*
X138078050Y-104511658D01*
X138078046Y-104511654D01*
X138078045Y-104511652D01*
X137988347Y-104421954D01*
X137988344Y-104421952D01*
X137988342Y-104421950D01*
X137911517Y-104382805D01*
X137875301Y-104364352D01*
X137781524Y-104349500D01*
X136018482Y-104349500D01*
X135937519Y-104362323D01*
X135924696Y-104364354D01*
X135811658Y-104421950D01*
X135811657Y-104421951D01*
X135811652Y-104421954D01*
X135721954Y-104511652D01*
X135721951Y-104511657D01*
X135664352Y-104624698D01*
X135649500Y-104718475D01*
X124700417Y-104718475D01*
X124700418Y-103796645D01*
X124700425Y-98699986D01*
X140300001Y-98699986D01*
X140310494Y-98802697D01*
X140365641Y-98969119D01*
X140365643Y-98969124D01*
X140457684Y-99118345D01*
X140581654Y-99242315D01*
X140730875Y-99334356D01*
X140730880Y-99334358D01*
X140897302Y-99389505D01*
X140897309Y-99389506D01*
X141000019Y-99399999D01*
X141274999Y-99399999D01*
X141275000Y-99399998D01*
X141275000Y-98650000D01*
X140300001Y-98650000D01*
X140300001Y-98699986D01*
X124700425Y-98699986D01*
X124700425Y-98598638D01*
X124700439Y-87249000D01*
X124720124Y-87181960D01*
X124772928Y-87136206D01*
X124824439Y-87125000D01*
X125205385Y-87125000D01*
X125272424Y-87144685D01*
G37*
%TD.AperFunction*%
%TA.AperFunction,Conductor*%
G36*
X129098039Y-50819685D02*
G01*
X129143794Y-50872489D01*
X129155000Y-50924000D01*
X129155000Y-53100000D01*
X133852727Y-53100000D01*
X133908987Y-53116520D01*
X133929629Y-53133154D01*
X134488181Y-53691706D01*
X134521666Y-53753029D01*
X134524500Y-53779387D01*
X134524500Y-60022474D01*
X134548858Y-60113382D01*
X134547195Y-60183232D01*
X134535589Y-60208977D01*
X134328667Y-60556031D01*
X134291052Y-60595631D01*
X134221584Y-60642048D01*
X134221580Y-60642051D01*
X134117051Y-60746580D01*
X134117048Y-60746584D01*
X134034919Y-60869498D01*
X134034912Y-60869511D01*
X133978343Y-61006082D01*
X133978340Y-61006092D01*
X133949500Y-61151079D01*
X133949500Y-61157817D01*
X133945082Y-61173853D01*
X133945582Y-61188741D01*
X133932006Y-61221319D01*
X133908118Y-61261384D01*
X133888720Y-61286133D01*
X132518362Y-62638751D01*
X132456822Y-62671835D01*
X132431255Y-62674500D01*
X132335637Y-62674500D01*
X132218246Y-62689953D01*
X132218237Y-62689956D01*
X132072160Y-62750463D01*
X131946716Y-62846719D01*
X131850462Y-62972160D01*
X131848753Y-62975122D01*
X131847693Y-62976441D01*
X131847467Y-62977298D01*
X131825087Y-63004590D01*
X131717879Y-63102710D01*
X131696168Y-63118620D01*
X131677335Y-63129494D01*
X131557481Y-63249347D01*
X131555537Y-63251290D01*
X131487743Y-63313339D01*
X131480592Y-63320045D01*
X131480236Y-63320387D01*
X131452821Y-63349453D01*
X131445609Y-63361219D01*
X131435234Y-63371595D01*
X131435231Y-63371596D01*
X129427337Y-65379493D01*
X129329496Y-65477333D01*
X129329492Y-65477338D01*
X129260313Y-65597160D01*
X129260311Y-65597164D01*
X129253968Y-65620837D01*
X129224499Y-65730817D01*
X129224499Y-65824616D01*
X129204814Y-65891655D01*
X129187417Y-65913054D01*
X129160000Y-65939999D01*
X129160000Y-69773559D01*
X129140315Y-69840598D01*
X129123586Y-69861335D01*
X124912040Y-74063793D01*
X124850681Y-74097212D01*
X124780995Y-74092152D01*
X124725107Y-74050220D01*
X124700760Y-73984729D01*
X124700454Y-73976044D01*
X124700483Y-50923999D01*
X124720168Y-50856960D01*
X124772972Y-50811206D01*
X124824483Y-50800000D01*
X129031000Y-50800000D01*
X129098039Y-50819685D01*
G37*
%TD.AperFunction*%
%TD*%
%TA.AperFunction,Conductor*%
%TO.N,OSC_OUT*%
G36*
X132500000Y-83050000D02*
G01*
X132700000Y-83050000D01*
X133005970Y-82295671D01*
X132325000Y-81849000D01*
X131845754Y-82444182D01*
X132500000Y-83050000D01*
G37*
%TD.AperFunction*%
%TD*%
%TA.AperFunction,Conductor*%
%TO.N,GND*%
G36*
X137954793Y-79023156D02*
G01*
X138454793Y-79023156D01*
X139120931Y-78650000D01*
X138875000Y-78149000D01*
X138150000Y-78272853D01*
X137954793Y-79023156D01*
G37*
%TD.AperFunction*%
%TD*%
%TA.AperFunction,Conductor*%
%TO.N,ADC1_IN14*%
G36*
X130999966Y-71560152D02*
G01*
X131002739Y-71564567D01*
X131213849Y-72169046D01*
X131213341Y-72177987D01*
X131206661Y-72183950D01*
X131205118Y-72184373D01*
X130877315Y-72250532D01*
X130872685Y-72250532D01*
X130544881Y-72184373D01*
X130537450Y-72179377D01*
X130535727Y-72170589D01*
X130536147Y-72169054D01*
X130747261Y-71564566D01*
X130753224Y-71557887D01*
X130758307Y-71556725D01*
X130991693Y-71556725D01*
X130999966Y-71560152D01*
G37*
%TD.AperFunction*%
%TD*%
%TA.AperFunction,Conductor*%
%TO.N,GND*%
G36*
X135599264Y-83367158D02*
G01*
X135457842Y-83225736D01*
X135020671Y-83019030D01*
X134674293Y-83725707D01*
X135175000Y-84033680D01*
X135599264Y-83367158D01*
G37*
%TD.AperFunction*%
%TD*%
%TA.AperFunction,Conductor*%
%TO.N,Net-(C13-Pad1)*%
G36*
X131276010Y-41153427D02*
G01*
X131278222Y-41156509D01*
X131521258Y-41647414D01*
X131521858Y-41656349D01*
X131519013Y-41660911D01*
X131033240Y-42142825D01*
X131024953Y-42146219D01*
X131016760Y-42142825D01*
X130796502Y-41924317D01*
X130530985Y-41660910D01*
X130527526Y-41652652D01*
X130528740Y-41647417D01*
X130771778Y-41156509D01*
X130778519Y-41150615D01*
X130782263Y-41150000D01*
X131267737Y-41150000D01*
X131276010Y-41153427D01*
G37*
%TD.AperFunction*%
%TD*%
%TA.AperFunction,Conductor*%
%TO.N,V_C_PHASE*%
G36*
X138401103Y-30494886D02*
G01*
X138468125Y-30514626D01*
X138513837Y-30567467D01*
X138525000Y-30618886D01*
X138525000Y-39668083D01*
X138505315Y-39735122D01*
X138483848Y-39760345D01*
X138477256Y-39766263D01*
X138425965Y-39800536D01*
X138310465Y-39916035D01*
X138307986Y-39918262D01*
X138279343Y-39931959D01*
X138251496Y-39947166D01*
X138246402Y-39947713D01*
X138244953Y-39948407D01*
X138242649Y-39948117D01*
X138225138Y-39950000D01*
X137400000Y-39950000D01*
X137400000Y-46275212D01*
X137380315Y-46342251D01*
X137327511Y-46388006D01*
X137275944Y-46399212D01*
X132123944Y-46396890D01*
X132056914Y-46377175D01*
X132011182Y-46324351D01*
X132000000Y-46272890D01*
X132000000Y-44983440D01*
X132019685Y-44916401D01*
X132036319Y-44895759D01*
X132039785Y-44892293D01*
X132129816Y-44802262D01*
X132225789Y-44649522D01*
X132285368Y-44479255D01*
X132300500Y-44344954D01*
X132300500Y-43755046D01*
X132285368Y-43620745D01*
X132225789Y-43450478D01*
X132201177Y-43411309D01*
X132129815Y-43297737D01*
X132036319Y-43204241D01*
X132021615Y-43177313D01*
X132005023Y-43151495D01*
X132004131Y-43145294D01*
X132002834Y-43142918D01*
X132000000Y-43116560D01*
X132000000Y-43083440D01*
X132019685Y-43016401D01*
X132036319Y-42995759D01*
X132129816Y-42902262D01*
X132225789Y-42749522D01*
X132285368Y-42579255D01*
X132300500Y-42444954D01*
X132300500Y-41855046D01*
X132285368Y-41720745D01*
X132225789Y-41550478D01*
X132129816Y-41397738D01*
X132036319Y-41304241D01*
X132002834Y-41242918D01*
X132000000Y-41216560D01*
X132000000Y-39946835D01*
X131884565Y-39946835D01*
X131817526Y-39927150D01*
X131796884Y-39910516D01*
X131693657Y-39807289D01*
X131693656Y-39807288D01*
X131544334Y-39715186D01*
X131377797Y-39660001D01*
X131377795Y-39660000D01*
X131275016Y-39649500D01*
X130999000Y-39649500D01*
X130931961Y-39629815D01*
X130886206Y-39577011D01*
X130875000Y-39525500D01*
X130875000Y-38321694D01*
X130880339Y-38285699D01*
X130905449Y-38202923D01*
X130905451Y-38202913D01*
X130905454Y-38202902D01*
X130937399Y-38042295D01*
X130968714Y-37884868D01*
X131000500Y-37562143D01*
X131000500Y-37237857D01*
X130968714Y-36915132D01*
X130945122Y-36796528D01*
X130905454Y-36597097D01*
X130905450Y-36597086D01*
X130905449Y-36597077D01*
X130890458Y-36547659D01*
X130880339Y-36514298D01*
X130875000Y-36478304D01*
X130875000Y-30612818D01*
X130894685Y-30545779D01*
X130947489Y-30500024D01*
X130999096Y-30488819D01*
X138401103Y-30494886D01*
G37*
%TD.AperFunction*%
%TD*%
%TA.AperFunction,Conductor*%
%TO.N,+3V3*%
G36*
X143255367Y-70210038D02*
G01*
X143724431Y-70338623D01*
X143729609Y-70341633D01*
X143899868Y-70511892D01*
X143903295Y-70520165D01*
X143899868Y-70528438D01*
X143897529Y-70530249D01*
X143378946Y-70835425D01*
X143370078Y-70836667D01*
X143363302Y-70831868D01*
X143293760Y-70728421D01*
X143177012Y-70554752D01*
X143175241Y-70545978D01*
X143240815Y-70219023D01*
X143245802Y-70211587D01*
X143254588Y-70209853D01*
X143255367Y-70210038D01*
G37*
%TD.AperFunction*%
%TD*%
%TA.AperFunction,Conductor*%
%TO.N,nSCS*%
G36*
X128605930Y-72580835D02*
G01*
X128613358Y-72585834D01*
X128615077Y-72594622D01*
X128614608Y-72596290D01*
X128427796Y-73111524D01*
X128421755Y-73118134D01*
X128416797Y-73119236D01*
X128233203Y-73119236D01*
X128224930Y-73115809D01*
X128222204Y-73111524D01*
X128174544Y-72980078D01*
X128035391Y-72596288D01*
X128035792Y-72587344D01*
X128042402Y-72581303D01*
X128044056Y-72580837D01*
X128322682Y-72524469D01*
X128327318Y-72524469D01*
X128605930Y-72580835D01*
G37*
%TD.AperFunction*%
%TD*%
%TA.AperFunction,Conductor*%
%TO.N,Net-(Q2-G)*%
G36*
X157612623Y-47862327D02*
G01*
X157613156Y-47862860D01*
X157927471Y-48198546D01*
X157961116Y-48234478D01*
X157964269Y-48242859D01*
X157963988Y-48245050D01*
X157856685Y-48720625D01*
X157851521Y-48727941D01*
X157845272Y-48729750D01*
X157363980Y-48729750D01*
X157355707Y-48726323D01*
X157352567Y-48720625D01*
X157245263Y-48245050D01*
X157246785Y-48236226D01*
X157248130Y-48234483D01*
X157596086Y-47862870D01*
X157604242Y-47859174D01*
X157612623Y-47862327D01*
G37*
%TD.AperFunction*%
%TD*%
%TA.AperFunction,Conductor*%
%TO.N,ADC1_IN11*%
G36*
X129874966Y-72835152D02*
G01*
X129877739Y-72839567D01*
X130088849Y-73444046D01*
X130088341Y-73452987D01*
X130081661Y-73458950D01*
X130080118Y-73459373D01*
X129752315Y-73525532D01*
X129747685Y-73525532D01*
X129419881Y-73459373D01*
X129412450Y-73454377D01*
X129410727Y-73445589D01*
X129411147Y-73444054D01*
X129622261Y-72839566D01*
X129628224Y-72832887D01*
X129633307Y-72831725D01*
X129866693Y-72831725D01*
X129874966Y-72835152D01*
G37*
%TD.AperFunction*%
%TD*%
%TA.AperFunction,Conductor*%
%TO.N,CAL*%
G36*
X140630801Y-69783842D02*
G01*
X140631853Y-69784775D01*
X140761976Y-69914898D01*
X140765403Y-69923171D01*
X140762967Y-69930317D01*
X140416441Y-70379590D01*
X140408675Y-70384048D01*
X140400704Y-70382190D01*
X140122131Y-70197179D01*
X140117135Y-70189748D01*
X140117123Y-70189688D01*
X140052917Y-69862856D01*
X140054685Y-69854078D01*
X140062143Y-69849120D01*
X140062989Y-69848985D01*
X140622178Y-69781432D01*
X140630801Y-69783842D01*
G37*
%TD.AperFunction*%
%TD*%
%TA.AperFunction,Conductor*%
%TO.N,SOB*%
G36*
X134511538Y-64646169D02*
G01*
X134887130Y-64869443D01*
X134889424Y-64871227D01*
X135021522Y-65003325D01*
X135024949Y-65011598D01*
X135021522Y-65019871D01*
X135021509Y-65019884D01*
X134622579Y-65417560D01*
X134614301Y-65420974D01*
X134606846Y-65418276D01*
X134605983Y-65417560D01*
X134232028Y-65107128D01*
X134227852Y-65099208D01*
X134229478Y-65092094D01*
X134495536Y-64650190D01*
X134502739Y-64644871D01*
X134511538Y-64646169D01*
G37*
%TD.AperFunction*%
%TD*%
%TA.AperFunction,Conductor*%
%TO.N,nSCS*%
G36*
X134396282Y-71135389D02*
G01*
X134911525Y-71322204D01*
X134918134Y-71328244D01*
X134919236Y-71333202D01*
X134919236Y-71516797D01*
X134915809Y-71525070D01*
X134911524Y-71527796D01*
X134396290Y-71714608D01*
X134387344Y-71714207D01*
X134381303Y-71707597D01*
X134380837Y-71705939D01*
X134324469Y-71427318D01*
X134324469Y-71422680D01*
X134380835Y-71144067D01*
X134385834Y-71136641D01*
X134394622Y-71134922D01*
X134396282Y-71135389D01*
G37*
%TD.AperFunction*%
%TD*%
%TA.AperFunction,Conductor*%
%TO.N,G_A_L*%
G36*
X157257373Y-54380844D02*
G01*
X157643498Y-54721979D01*
X157647429Y-54730025D01*
X157646648Y-54735007D01*
X157477535Y-55167560D01*
X157471331Y-55174018D01*
X157466638Y-55175000D01*
X157032614Y-55175000D01*
X157024341Y-55171573D01*
X157021717Y-55167560D01*
X156852603Y-54735007D01*
X156852782Y-54726054D01*
X156855751Y-54721981D01*
X157241879Y-54380843D01*
X157250348Y-54377934D01*
X157257373Y-54380844D01*
G37*
%TD.AperFunction*%
%TD*%
%TA.AperFunction,Conductor*%
%TO.N,TIM17_CH1N*%
G36*
X144175000Y-77625000D02*
G01*
X144425000Y-77625000D01*
X144700000Y-77177393D01*
X144300000Y-76824000D01*
X143900000Y-77177393D01*
X144175000Y-77625000D01*
G37*
%TD.AperFunction*%
%TD*%
%TA.AperFunction,Conductor*%
%TO.N,OSC_IN*%
G36*
X135825000Y-80150000D02*
G01*
X135825000Y-79950000D01*
X135070671Y-79569030D01*
X134524000Y-80150000D01*
X135151777Y-80676777D01*
X135825000Y-80150000D01*
G37*
%TD.AperFunction*%
%TD*%
%TA.AperFunction,Conductor*%
%TO.N,V_BAT*%
G36*
X151106655Y-67203427D02*
G01*
X151110082Y-67211700D01*
X151110082Y-67495254D01*
X151106776Y-67503404D01*
X150655026Y-67968659D01*
X150646804Y-67972208D01*
X150639758Y-67969977D01*
X150202912Y-67652840D01*
X150198234Y-67645225D01*
X150128991Y-67213553D01*
X150131064Y-67204842D01*
X150138690Y-67200148D01*
X150140543Y-67200000D01*
X151098382Y-67200000D01*
X151106655Y-67203427D01*
G37*
%TD.AperFunction*%
%TD*%
%TA.AperFunction,Conductor*%
%TO.N,GND*%
G36*
X151681833Y-69203918D02*
G01*
X152118165Y-69517966D01*
X152122878Y-69525580D01*
X152122505Y-69530928D01*
X151979554Y-69991766D01*
X151973830Y-69998653D01*
X151968379Y-70000000D01*
X151381621Y-70000000D01*
X151373348Y-69996573D01*
X151370446Y-69991766D01*
X151338993Y-69890372D01*
X151227494Y-69530926D01*
X151228316Y-69522011D01*
X151231831Y-69517969D01*
X151668165Y-69203918D01*
X151676882Y-69201867D01*
X151681833Y-69203918D01*
G37*
%TD.AperFunction*%
%TD*%
%TA.AperFunction,Conductor*%
%TO.N,Net-(Q2-G)*%
G36*
X157893717Y-50501034D02*
G01*
X157897144Y-50509307D01*
X157896931Y-50511531D01*
X157726839Y-51390219D01*
X157721902Y-51397690D01*
X157713178Y-51399491D01*
X157330164Y-51327047D01*
X157322671Y-51322142D01*
X157321993Y-51321016D01*
X157081846Y-50866438D01*
X157081011Y-50857522D01*
X157083445Y-50853201D01*
X157396135Y-50501532D01*
X157404194Y-50497627D01*
X157404879Y-50497607D01*
X157885444Y-50497607D01*
X157893717Y-50501034D01*
G37*
%TD.AperFunction*%
%TD*%
%TA.AperFunction,Conductor*%
%TO.N,SPB*%
G36*
X146149816Y-47216520D02*
G01*
X146195571Y-47269324D01*
X146205515Y-47338482D01*
X146200482Y-47359840D01*
X146189827Y-47391993D01*
X146189825Y-47391998D01*
X146179500Y-47493065D01*
X146179500Y-48216419D01*
X146179501Y-48216437D01*
X146189825Y-48317502D01*
X146189826Y-48317505D01*
X146237823Y-48462350D01*
X146240225Y-48532179D01*
X146207799Y-48589035D01*
X145900000Y-48896835D01*
X145900000Y-50831929D01*
X145893707Y-50870931D01*
X145885001Y-50897203D01*
X145885000Y-50897209D01*
X145874500Y-50999983D01*
X145874500Y-51650001D01*
X145874501Y-51650019D01*
X145885000Y-51752793D01*
X145885001Y-51752796D01*
X145893706Y-51779066D01*
X145894156Y-51781858D01*
X145894977Y-51783135D01*
X145900000Y-51818070D01*
X145900000Y-51992461D01*
X145881538Y-52057558D01*
X145850098Y-52108530D01*
X145798150Y-52155255D01*
X145729188Y-52166476D01*
X145693751Y-52156545D01*
X145649546Y-52136688D01*
X145582507Y-52117003D01*
X145581736Y-52116781D01*
X145575874Y-52115099D01*
X145575866Y-52115097D01*
X145426002Y-52094500D01*
X145426000Y-52094500D01*
X143748235Y-52094500D01*
X143681196Y-52074815D01*
X143669568Y-52066352D01*
X143667157Y-52064373D01*
X143527860Y-51971298D01*
X143373082Y-51907187D01*
X143373074Y-51907185D01*
X143208771Y-51874503D01*
X143208767Y-51874503D01*
X143041233Y-51874503D01*
X143041228Y-51874503D01*
X142876925Y-51907185D01*
X142876917Y-51907187D01*
X142722139Y-51971298D01*
X142582842Y-52064373D01*
X142580432Y-52066352D01*
X142578921Y-52066993D01*
X142577773Y-52067761D01*
X142577627Y-52067543D01*
X142516122Y-52093666D01*
X142501765Y-52094500D01*
X140924500Y-52094500D01*
X140857461Y-52074815D01*
X140811706Y-52022011D01*
X140800500Y-51970500D01*
X140800500Y-47324338D01*
X140809445Y-47293874D01*
X140816748Y-47262974D01*
X140819218Y-47260590D01*
X140820185Y-47257299D01*
X140844168Y-47236517D01*
X140867029Y-47214460D01*
X140871405Y-47212916D01*
X140872989Y-47211544D01*
X140900306Y-47202722D01*
X140917928Y-47199216D01*
X140942114Y-47196835D01*
X146082777Y-47196835D01*
X146149816Y-47216520D01*
G37*
%TD.AperFunction*%
%TD*%
%TA.AperFunction,Conductor*%
%TO.N,SOC*%
G36*
X134631696Y-63290763D02*
G01*
X135012527Y-63771808D01*
X135015054Y-63779070D01*
X135015054Y-63964249D01*
X135011627Y-63972522D01*
X135004342Y-63975907D01*
X134433456Y-64024283D01*
X134424923Y-64021567D01*
X134421693Y-64017185D01*
X134403842Y-63975000D01*
X134227771Y-63558913D01*
X134227704Y-63549960D01*
X134232048Y-63544627D01*
X134616029Y-63288293D01*
X134624810Y-63286551D01*
X134631696Y-63290763D01*
G37*
%TD.AperFunction*%
%TD*%
%TA.AperFunction,Conductor*%
%TO.N,+3V3*%
G36*
X141137821Y-65482978D02*
G01*
X141615868Y-65717289D01*
X141621789Y-65724007D01*
X141622419Y-65727795D01*
X141622419Y-65970047D01*
X141618992Y-65978320D01*
X141613178Y-65981486D01*
X141014070Y-66110284D01*
X141005262Y-66108672D01*
X141000172Y-66101304D01*
X141000167Y-66101280D01*
X140934170Y-65774283D01*
X140935893Y-65765497D01*
X141122963Y-65486960D01*
X141130419Y-65482004D01*
X141137821Y-65482978D01*
G37*
%TD.AperFunction*%
%TD*%
%TA.AperFunction,Conductor*%
%TO.N,Net-(Q2-G)*%
G36*
X157573508Y-51928427D02*
G01*
X157576658Y-51934169D01*
X157679656Y-52398991D01*
X157678100Y-52407809D01*
X157675195Y-52410925D01*
X157257832Y-52719924D01*
X157249144Y-52722093D01*
X157242495Y-52718691D01*
X156888624Y-52355974D01*
X156885300Y-52347660D01*
X156886331Y-52342999D01*
X157071520Y-51931895D01*
X157078043Y-51925759D01*
X157082188Y-51925000D01*
X157565235Y-51925000D01*
X157573508Y-51928427D01*
G37*
%TD.AperFunction*%
%TD*%
%TA.AperFunction,Conductor*%
%TO.N,Net-(Q6-G)*%
G36*
X137390314Y-47606458D02*
G01*
X138220424Y-47871622D01*
X138227261Y-47877403D01*
X138228180Y-47885737D01*
X138127495Y-48269303D01*
X138122080Y-48276435D01*
X138120531Y-48277192D01*
X137658302Y-48462484D01*
X137649348Y-48462381D01*
X137644611Y-48458673D01*
X137377420Y-48104714D01*
X137375058Y-48097665D01*
X137375058Y-47617604D01*
X137378485Y-47609331D01*
X137386758Y-47605904D01*
X137390314Y-47606458D01*
G37*
%TD.AperFunction*%
%TD*%
%TA.AperFunction,Conductor*%
%TO.N,SOA*%
G36*
X134510576Y-66193489D02*
G01*
X134842002Y-66313239D01*
X134846299Y-66315970D01*
X134978613Y-66448284D01*
X134982040Y-66456557D01*
X134979617Y-66463687D01*
X134631727Y-66916324D01*
X134623968Y-66920795D01*
X134615839Y-66918847D01*
X134233396Y-66656941D01*
X134228506Y-66649439D01*
X134229983Y-66641255D01*
X134496579Y-66198457D01*
X134503781Y-66193139D01*
X134510576Y-66193489D01*
G37*
%TD.AperFunction*%
%TD*%
%TA.AperFunction,Conductor*%
%TO.N,V_BAT*%
G36*
X151260014Y-67292592D02*
G01*
X151579910Y-67567441D01*
X151668751Y-67643772D01*
X151672793Y-67651762D01*
X151671344Y-67658345D01*
X151428851Y-68093095D01*
X151421828Y-68098651D01*
X151417156Y-68099002D01*
X150760223Y-68015421D01*
X150752449Y-68010978D01*
X150750000Y-68003815D01*
X150750000Y-67719523D01*
X150753427Y-67711250D01*
X150754102Y-67710625D01*
X151244804Y-67292560D01*
X151253323Y-67289804D01*
X151260014Y-67292592D01*
G37*
%TD.AperFunction*%
%TD*%
%TA.AperFunction,Conductor*%
%TO.N,SCLK*%
G36*
X134921282Y-69735389D02*
G01*
X135436525Y-69922204D01*
X135443134Y-69928244D01*
X135444236Y-69933202D01*
X135444236Y-70116797D01*
X135440809Y-70125070D01*
X135436524Y-70127796D01*
X134921290Y-70314608D01*
X134912344Y-70314207D01*
X134906303Y-70307597D01*
X134905837Y-70305939D01*
X134849469Y-70027318D01*
X134849469Y-70022680D01*
X134905835Y-69744067D01*
X134910834Y-69736641D01*
X134919622Y-69734922D01*
X134921282Y-69735389D01*
G37*
%TD.AperFunction*%
%TD*%
%TA.AperFunction,Conductor*%
%TO.N,GND*%
G36*
X145493039Y-52669685D02*
G01*
X145538794Y-52722489D01*
X145550000Y-52774000D01*
X145550000Y-58001000D01*
X145530315Y-58068039D01*
X145477511Y-58113794D01*
X145426000Y-58125000D01*
X145091405Y-58125000D01*
X145048383Y-58117298D01*
X145038519Y-58113649D01*
X145023887Y-58105201D01*
X144999673Y-58098713D01*
X144994124Y-58097226D01*
X144994121Y-58097225D01*
X144946464Y-58084455D01*
X144909309Y-58074500D01*
X144909308Y-58074500D01*
X140349000Y-58074500D01*
X140281961Y-58054815D01*
X140236206Y-58002011D01*
X140225000Y-57950500D01*
X140225000Y-55013465D01*
X140244685Y-54946426D01*
X140261319Y-54925784D01*
X140460489Y-54726614D01*
X140519799Y-54623887D01*
X140526285Y-54599675D01*
X140526286Y-54599675D01*
X140526286Y-54599671D01*
X140550500Y-54509309D01*
X140550500Y-52774000D01*
X140570185Y-52706961D01*
X140622989Y-52661206D01*
X140674500Y-52650000D01*
X145426000Y-52650000D01*
X145493039Y-52669685D01*
G37*
%TD.AperFunction*%
%TD*%
%TA.AperFunction,Conductor*%
%TO.N,+3V3*%
G36*
X139853369Y-80395421D02*
G01*
X140206921Y-80041869D01*
X139538873Y-79641327D01*
X138874293Y-80049293D01*
X139445671Y-80530970D01*
X139853369Y-80395421D01*
G37*
%TD.AperFunction*%
%TD*%
%TA.AperFunction,Conductor*%
%TO.N,SPB*%
G36*
X148241577Y-59755966D02*
G01*
X148249005Y-59760965D01*
X148250724Y-59769753D01*
X148250439Y-59770872D01*
X148203785Y-59922585D01*
X148200875Y-59927419D01*
X148189000Y-59939294D01*
X148123108Y-60053421D01*
X148123106Y-60053425D01*
X148089000Y-60180715D01*
X148089000Y-60282536D01*
X148085573Y-60290809D01*
X148077300Y-60294236D01*
X147839143Y-60294236D01*
X147830870Y-60290809D01*
X147827960Y-60285975D01*
X147717700Y-59927419D01*
X147669560Y-59770871D01*
X147670404Y-59761957D01*
X147677304Y-59756250D01*
X147678404Y-59755969D01*
X147957682Y-59699469D01*
X147962318Y-59699469D01*
X148241577Y-59755966D01*
G37*
%TD.AperFunction*%
%TD*%
%TA.AperFunction,Conductor*%
%TO.N,SDO*%
G36*
X138136735Y-66544572D02*
G01*
X138642647Y-66747057D01*
X138649055Y-66753312D01*
X138650000Y-66757919D01*
X138650000Y-66944913D01*
X138646573Y-66953186D01*
X138646280Y-66953469D01*
X138245907Y-67326919D01*
X138237520Y-67330056D01*
X138230308Y-67327242D01*
X137856530Y-67006462D01*
X137852484Y-66998473D01*
X137854146Y-66991517D01*
X138122386Y-66549364D01*
X138129606Y-66544070D01*
X138136735Y-66544572D01*
G37*
%TD.AperFunction*%
%TD*%
%TA.AperFunction,Conductor*%
%TO.N,INHB*%
G36*
X143326231Y-74580546D02*
G01*
X143149454Y-74403769D01*
X142581131Y-74775000D01*
X142799293Y-75175707D01*
X143275000Y-75174989D01*
X143326231Y-74580546D01*
G37*
%TD.AperFunction*%
%TD*%
%TA.AperFunction,Conductor*%
%TO.N,GND*%
G36*
X153408239Y-69307173D02*
G01*
X153893697Y-69788774D01*
X153897157Y-69797033D01*
X153895675Y-69802779D01*
X153705347Y-70143999D01*
X153698324Y-70149555D01*
X153695129Y-70150000D01*
X153104871Y-70150000D01*
X153096598Y-70146573D01*
X153094653Y-70143999D01*
X152904324Y-69802779D01*
X152903287Y-69793885D01*
X152906300Y-69788776D01*
X153391760Y-69307173D01*
X153400047Y-69303780D01*
X153408239Y-69307173D01*
G37*
%TD.AperFunction*%
%TD*%
%TA.AperFunction,Conductor*%
%TO.N,SDI*%
G36*
X133896282Y-68610389D02*
G01*
X134411525Y-68797204D01*
X134418134Y-68803244D01*
X134419236Y-68808202D01*
X134419236Y-68991797D01*
X134415809Y-69000070D01*
X134411524Y-69002796D01*
X133896290Y-69189608D01*
X133887344Y-69189207D01*
X133881303Y-69182597D01*
X133880837Y-69180939D01*
X133824469Y-68902318D01*
X133824469Y-68897680D01*
X133880835Y-68619067D01*
X133885834Y-68611641D01*
X133894622Y-68609922D01*
X133896282Y-68610389D01*
G37*
%TD.AperFunction*%
%TD*%
%TA.AperFunction,Conductor*%
%TO.N,GND*%
G36*
X132425000Y-79150000D02*
G01*
X132225000Y-79150000D01*
X131725000Y-79605331D01*
X132325000Y-80151000D01*
X132925000Y-79605331D01*
X132425000Y-79150000D01*
G37*
%TD.AperFunction*%
%TD*%
%TA.AperFunction,Conductor*%
%TO.N,Net-(Q6-G)*%
G36*
X136332902Y-51331240D02*
G01*
X136704599Y-51671794D01*
X136708384Y-51679909D01*
X136708025Y-51683337D01*
X136577261Y-52191217D01*
X136571880Y-52198375D01*
X136565931Y-52200000D01*
X136084069Y-52200000D01*
X136075796Y-52196573D01*
X136072739Y-52191217D01*
X136032109Y-52033415D01*
X135941974Y-51683335D01*
X135943229Y-51674471D01*
X135945394Y-51671799D01*
X136317097Y-51331240D01*
X136325511Y-51328179D01*
X136332902Y-51331240D01*
G37*
%TD.AperFunction*%
%TD*%
%TA.AperFunction,Conductor*%
%TO.N,OSC_OUT*%
G36*
X133503828Y-84850000D02*
G01*
X133503828Y-84650000D01*
X133275000Y-83566584D01*
X132774000Y-83725000D01*
X132676424Y-84450000D01*
X133503828Y-84850000D01*
G37*
%TD.AperFunction*%
%TD*%
%TA.AperFunction,Conductor*%
%TO.N,Net-(Q2-G)*%
G36*
X157855129Y-48378427D02*
G01*
X157857640Y-48382162D01*
X158126122Y-49020203D01*
X158126172Y-49029158D01*
X158124321Y-49032238D01*
X157658572Y-49590280D01*
X157650639Y-49594436D01*
X157642092Y-49591766D01*
X157640636Y-49590315D01*
X157640607Y-49590280D01*
X157172654Y-49034081D01*
X157169951Y-49025547D01*
X157170352Y-49023359D01*
X157352210Y-48383501D01*
X157357768Y-48376480D01*
X157363464Y-48375000D01*
X157846856Y-48375000D01*
X157855129Y-48378427D01*
G37*
%TD.AperFunction*%
%TD*%
%TA.AperFunction,Conductor*%
%TO.N,ADC1_IN14*%
G36*
X132192808Y-64781437D02*
G01*
X132567970Y-65092870D01*
X132572147Y-65100791D01*
X132570520Y-65107907D01*
X132304377Y-65549951D01*
X132297174Y-65555271D01*
X132288522Y-65554059D01*
X131930633Y-65348259D01*
X131928192Y-65346389D01*
X131761160Y-65179357D01*
X131757733Y-65171084D01*
X131761160Y-65162811D01*
X131761516Y-65162469D01*
X132177436Y-64781807D01*
X132185852Y-64778750D01*
X132192808Y-64781437D01*
G37*
%TD.AperFunction*%
%TD*%
%TA.AperFunction,Conductor*%
%TO.N,SPA*%
G36*
X152357002Y-45591082D02*
G01*
X152364433Y-45596078D01*
X152366259Y-45604278D01*
X152276114Y-46208302D01*
X152271503Y-46215979D01*
X152264542Y-46218275D01*
X151784710Y-46218275D01*
X151776437Y-46214848D01*
X151773138Y-46208302D01*
X151682992Y-45604278D01*
X151685160Y-45595590D01*
X151692247Y-45591082D01*
X152022312Y-45524467D01*
X152026940Y-45524467D01*
X152357002Y-45591082D01*
G37*
%TD.AperFunction*%
%TD*%
%TA.AperFunction,Conductor*%
%TO.N,SPA*%
G36*
X156648393Y-47219685D02*
G01*
X156694148Y-47272489D01*
X156704092Y-47341647D01*
X156699062Y-47362995D01*
X156690336Y-47389329D01*
X156689451Y-47392000D01*
X156679126Y-47493065D01*
X156679126Y-48216419D01*
X156679127Y-48216437D01*
X156689451Y-48317501D01*
X156697894Y-48342980D01*
X156701266Y-48355228D01*
X156703036Y-48363239D01*
X156703385Y-48367314D01*
X156730040Y-48485454D01*
X156730152Y-48485958D01*
X156729928Y-48489238D01*
X156728353Y-48546600D01*
X156727370Y-48550060D01*
X156725569Y-48553125D01*
X156725396Y-48555666D01*
X156719114Y-48564114D01*
X156695772Y-48603853D01*
X156399626Y-48900000D01*
X156399626Y-50831929D01*
X156393333Y-50870931D01*
X156384627Y-50897203D01*
X156384626Y-50897209D01*
X156374126Y-50999983D01*
X156374126Y-51650001D01*
X156374127Y-51650019D01*
X156384626Y-51752796D01*
X156393332Y-51779066D01*
X156393782Y-51781859D01*
X156394603Y-51783136D01*
X156399626Y-51818071D01*
X156399626Y-51992461D01*
X156381165Y-52057557D01*
X156289815Y-52205659D01*
X156289812Y-52205666D01*
X156252986Y-52316799D01*
X156213213Y-52374243D01*
X156148697Y-52401066D01*
X156130236Y-52401438D01*
X156130236Y-52401450D01*
X156129668Y-52401450D01*
X156126843Y-52401507D01*
X156126007Y-52401450D01*
X156126000Y-52401450D01*
X150823626Y-52401450D01*
X150814940Y-52398899D01*
X150805979Y-52400188D01*
X150781938Y-52389209D01*
X150756587Y-52381765D01*
X150750659Y-52374924D01*
X150742423Y-52371163D01*
X150728133Y-52348928D01*
X150710832Y-52328961D01*
X150708544Y-52318446D01*
X150704649Y-52312385D01*
X150699626Y-52277450D01*
X150699626Y-52091378D01*
X150719311Y-52024339D01*
X150772115Y-51978584D01*
X150799429Y-51969762D01*
X150896132Y-51950527D01*
X151050913Y-51886414D01*
X151190212Y-51793337D01*
X151308676Y-51674873D01*
X151401753Y-51535574D01*
X151465866Y-51380793D01*
X151498550Y-51216478D01*
X151498550Y-51048944D01*
X151465866Y-50884629D01*
X151401753Y-50729848D01*
X151370587Y-50683205D01*
X151308676Y-50590548D01*
X151190212Y-50472084D01*
X151050910Y-50379006D01*
X150896132Y-50314895D01*
X150896126Y-50314893D01*
X150799434Y-50295660D01*
X150737524Y-50263275D01*
X150702949Y-50202559D01*
X150699626Y-50174043D01*
X150699626Y-47324000D01*
X150719311Y-47256961D01*
X150772115Y-47211206D01*
X150823626Y-47200000D01*
X156581354Y-47200000D01*
X156648393Y-47219685D01*
G37*
%TD.AperFunction*%
%TD*%
%TA.AperFunction,Conductor*%
%TO.N,Net-(Q6-G)*%
G36*
X136657532Y-49608220D02*
G01*
X136658953Y-49609641D01*
X137126663Y-50165552D01*
X137129367Y-50174088D01*
X137128743Y-50176978D01*
X136902755Y-50817194D01*
X136896770Y-50823855D01*
X136891722Y-50825000D01*
X136408278Y-50825000D01*
X136400005Y-50821573D01*
X136397245Y-50817194D01*
X136171256Y-50176978D01*
X136171734Y-50168036D01*
X136173333Y-50165556D01*
X136641047Y-49609640D01*
X136648996Y-49605516D01*
X136657532Y-49608220D01*
G37*
%TD.AperFunction*%
%TD*%
%TA.AperFunction,Conductor*%
%TO.N,SPC*%
G36*
X131273189Y-44960152D02*
G01*
X131276488Y-44966698D01*
X131366633Y-45570721D01*
X131364465Y-45579409D01*
X131357376Y-45583917D01*
X131027315Y-45650532D01*
X131022685Y-45650532D01*
X130692623Y-45583917D01*
X130685192Y-45578921D01*
X130683366Y-45570721D01*
X130773512Y-44966698D01*
X130778123Y-44959021D01*
X130785084Y-44956725D01*
X131264916Y-44956725D01*
X131273189Y-44960152D01*
G37*
%TD.AperFunction*%
%TD*%
%TA.AperFunction,Conductor*%
%TO.N,GND*%
G36*
X135625736Y-83057842D02*
G01*
X135767158Y-83199264D01*
X136716032Y-82775000D01*
X136500707Y-82274293D01*
X135775000Y-82315698D01*
X135625736Y-83057842D01*
G37*
%TD.AperFunction*%
%TD*%
%TA.AperFunction,Conductor*%
%TO.N,Net-(Q6-G)*%
G36*
X136855503Y-48378427D02*
G01*
X136858014Y-48382162D01*
X137126496Y-49020203D01*
X137126546Y-49029158D01*
X137124695Y-49032238D01*
X136658946Y-49590280D01*
X136651013Y-49594436D01*
X136642466Y-49591766D01*
X136641010Y-49590315D01*
X136640981Y-49590280D01*
X136173028Y-49034081D01*
X136170325Y-49025547D01*
X136170726Y-49023359D01*
X136352584Y-48383501D01*
X136358142Y-48376480D01*
X136363838Y-48375000D01*
X136847230Y-48375000D01*
X136855503Y-48378427D01*
G37*
%TD.AperFunction*%
%TD*%
%TA.AperFunction,Conductor*%
%TO.N,ADC1_IN11*%
G36*
X132192808Y-63231437D02*
G01*
X132567970Y-63542870D01*
X132572147Y-63550791D01*
X132570520Y-63557907D01*
X132304377Y-63999951D01*
X132297174Y-64005271D01*
X132288522Y-64004059D01*
X131930633Y-63798259D01*
X131928192Y-63796389D01*
X131761160Y-63629357D01*
X131757733Y-63621084D01*
X131761160Y-63612811D01*
X131761516Y-63612469D01*
X132177436Y-63231807D01*
X132185852Y-63228750D01*
X132192808Y-63231437D01*
G37*
%TD.AperFunction*%
%TD*%
%TA.AperFunction,Conductor*%
%TO.N,SNA*%
G36*
X149456479Y-61230946D02*
G01*
X149463907Y-61235945D01*
X149465626Y-61244733D01*
X149465315Y-61245937D01*
X149340536Y-61640918D01*
X149339512Y-61643243D01*
X149333607Y-61653471D01*
X149333606Y-61653473D01*
X149317125Y-61714983D01*
X149316981Y-61715479D01*
X149302583Y-61761060D01*
X149296823Y-61767917D01*
X149291426Y-61769236D01*
X149058574Y-61769236D01*
X149050301Y-61765809D01*
X149047417Y-61761060D01*
X148884684Y-61245935D01*
X148885460Y-61237016D01*
X148892317Y-61231256D01*
X148893500Y-61230950D01*
X149172682Y-61174469D01*
X149177318Y-61174469D01*
X149456479Y-61230946D01*
G37*
%TD.AperFunction*%
%TD*%
%TA.AperFunction,Conductor*%
%TO.N,SPI1_MISO*%
G36*
X135492777Y-67577402D02*
G01*
X135622597Y-67707222D01*
X135626024Y-67715495D01*
X135624922Y-67720453D01*
X135538193Y-67905846D01*
X135535868Y-67909161D01*
X135518421Y-67926608D01*
X135452529Y-68040735D01*
X135452527Y-68040739D01*
X135422547Y-68152627D01*
X135421844Y-68154557D01*
X135392693Y-68216873D01*
X135386083Y-68222914D01*
X135377137Y-68222513D01*
X135375627Y-68221664D01*
X135138765Y-68064515D01*
X135135484Y-68061234D01*
X134978335Y-67824372D01*
X134976616Y-67815584D01*
X134981616Y-67808155D01*
X134983121Y-67807308D01*
X135479548Y-67575076D01*
X135488492Y-67574676D01*
X135492777Y-67577402D01*
G37*
%TD.AperFunction*%
%TD*%
%TA.AperFunction,Conductor*%
%TO.N,Net-(Q6-G)*%
G36*
X136974490Y-47478818D02*
G01*
X137346893Y-47598969D01*
X137353714Y-47604771D01*
X137355000Y-47610104D01*
X137355000Y-48093065D01*
X137351573Y-48101338D01*
X137346893Y-48104200D01*
X136974494Y-48224350D01*
X136965568Y-48223629D01*
X136962501Y-48221359D01*
X136611894Y-47859727D01*
X136608596Y-47851404D01*
X136611894Y-47843442D01*
X136962503Y-47481809D01*
X136970720Y-47478255D01*
X136974490Y-47478818D01*
G37*
%TD.AperFunction*%
%TD*%
%TA.AperFunction,Conductor*%
%TO.N,GND*%
G36*
X156193039Y-52976635D02*
G01*
X156238794Y-53029439D01*
X156250000Y-53080950D01*
X156250000Y-57255469D01*
X156230315Y-57322508D01*
X156213681Y-57343150D01*
X155743150Y-57813681D01*
X155681827Y-57847166D01*
X155655469Y-57850000D01*
X150475000Y-57850000D01*
X150424000Y-57850000D01*
X150356961Y-57830315D01*
X150311206Y-57777511D01*
X150300000Y-57726000D01*
X150300000Y-53088465D01*
X150308644Y-53059024D01*
X150315168Y-53029038D01*
X150318922Y-53024022D01*
X150319685Y-53021426D01*
X150336319Y-53000784D01*
X150343834Y-52993269D01*
X150405157Y-52959784D01*
X150431515Y-52956950D01*
X156126000Y-52956950D01*
X156193039Y-52976635D01*
G37*
%TD.AperFunction*%
%TD*%
%TA.AperFunction,Conductor*%
%TO.N,G_A_H*%
G36*
X152745522Y-64354412D02*
G01*
X152746600Y-64355047D01*
X153025507Y-64540280D01*
X153028779Y-64543552D01*
X153214099Y-64822591D01*
X153215822Y-64831379D01*
X153210826Y-64838810D01*
X153209876Y-64839378D01*
X152653238Y-65137449D01*
X152644327Y-65138334D01*
X152639442Y-65135408D01*
X152439513Y-64935479D01*
X152436086Y-64927206D01*
X152437405Y-64921810D01*
X152488979Y-64822591D01*
X152729747Y-64359395D01*
X152736601Y-64353637D01*
X152745522Y-64354412D01*
G37*
%TD.AperFunction*%
%TD*%
%TA.AperFunction,Conductor*%
%TO.N,Net-(D8-A)*%
G36*
X159263757Y-50602657D02*
G01*
X159267184Y-50610930D01*
X159266998Y-50613007D01*
X159176735Y-51113420D01*
X159171894Y-51120953D01*
X159163144Y-51122857D01*
X159162966Y-51122824D01*
X158929215Y-51076901D01*
X158921922Y-51072182D01*
X158758843Y-50841918D01*
X158756858Y-50833186D01*
X158759777Y-50827238D01*
X158966006Y-50603009D01*
X158974129Y-50599240D01*
X158974618Y-50599230D01*
X159255484Y-50599230D01*
X159263757Y-50602657D01*
G37*
%TD.AperFunction*%
%TD*%
%TA.AperFunction,Conductor*%
%TO.N,GND*%
G36*
X135825000Y-82175000D02*
G01*
X135825000Y-81975000D01*
X135171751Y-81353117D01*
X134524000Y-81850000D01*
X135070671Y-82430970D01*
X135825000Y-82175000D01*
G37*
%TD.AperFunction*%
%TD*%
%TA.AperFunction,Conductor*%
%TO.N,ENABLE*%
G36*
X146050000Y-77418275D02*
G01*
X146250000Y-77418275D01*
X146493275Y-76793282D01*
X146150000Y-76724000D01*
X145806725Y-76793282D01*
X146050000Y-77418275D01*
G37*
%TD.AperFunction*%
%TD*%
%TA.AperFunction,Conductor*%
%TO.N,SPI1_MISO*%
G36*
X135810616Y-66838685D02*
G01*
X136194844Y-66996879D01*
X136201189Y-67003197D01*
X136201885Y-67005523D01*
X136288849Y-67465291D01*
X136287020Y-67474056D01*
X136281421Y-67478435D01*
X135623441Y-67722406D01*
X135614492Y-67722069D01*
X135611100Y-67719709D01*
X135480612Y-67589221D01*
X135477185Y-67580948D01*
X135478149Y-67576298D01*
X135795431Y-66844847D01*
X135801866Y-66838623D01*
X135810616Y-66838685D01*
G37*
%TD.AperFunction*%
%TD*%
%TA.AperFunction,Conductor*%
%TO.N,V_B_PHASE*%
G36*
X148901105Y-30503493D02*
G01*
X148968125Y-30523232D01*
X149013837Y-30576073D01*
X149025000Y-30627492D01*
X149025000Y-39668083D01*
X149005315Y-39735122D01*
X148983848Y-39760345D01*
X148977256Y-39766263D01*
X148925965Y-39800536D01*
X148810465Y-39916035D01*
X148807986Y-39918262D01*
X148779343Y-39931959D01*
X148751496Y-39947166D01*
X148746402Y-39947713D01*
X148744953Y-39948407D01*
X148742649Y-39948117D01*
X148725138Y-39950000D01*
X147900000Y-39950000D01*
X147900000Y-46276000D01*
X147880315Y-46343039D01*
X147827511Y-46388794D01*
X147776000Y-46400000D01*
X142624000Y-46400000D01*
X142556961Y-46380315D01*
X142511206Y-46327511D01*
X142500000Y-46276000D01*
X142500000Y-44983440D01*
X142519685Y-44916401D01*
X142536319Y-44895759D01*
X142629816Y-44802262D01*
X142725789Y-44649522D01*
X142785368Y-44479255D01*
X142800500Y-44344954D01*
X142800500Y-43755046D01*
X142785368Y-43620745D01*
X142725789Y-43450478D01*
X142701177Y-43411309D01*
X142629815Y-43297737D01*
X142536319Y-43204241D01*
X142521615Y-43177313D01*
X142505023Y-43151495D01*
X142504131Y-43145294D01*
X142502834Y-43142918D01*
X142500000Y-43116560D01*
X142500000Y-43083440D01*
X142519685Y-43016401D01*
X142536319Y-42995759D01*
X142629816Y-42902262D01*
X142725789Y-42749522D01*
X142785368Y-42579255D01*
X142800500Y-42444954D01*
X142800500Y-41855046D01*
X142785368Y-41720745D01*
X142725789Y-41550478D01*
X142629816Y-41397738D01*
X142536319Y-41304241D01*
X142502834Y-41242918D01*
X142500000Y-41216560D01*
X142500000Y-39950000D01*
X142387730Y-39950000D01*
X142320691Y-39930315D01*
X142300049Y-39913681D01*
X142193657Y-39807289D01*
X142193656Y-39807288D01*
X142044334Y-39715186D01*
X141877797Y-39660001D01*
X141877795Y-39660000D01*
X141775016Y-39649500D01*
X141499000Y-39649500D01*
X141431961Y-39629815D01*
X141386206Y-39577011D01*
X141375000Y-39525500D01*
X141375000Y-30621425D01*
X141394685Y-30554386D01*
X141447489Y-30508631D01*
X141499098Y-30497425D01*
X148901105Y-30503493D01*
G37*
%TD.AperFunction*%
%TD*%
%TA.AperFunction,Conductor*%
%TO.N,SDO*%
G36*
X137649482Y-66528585D02*
G01*
X137653672Y-66533705D01*
X137846874Y-66991622D01*
X137846933Y-67000576D01*
X137842403Y-67006023D01*
X137459022Y-67251509D01*
X137450207Y-67253084D01*
X137443452Y-67248806D01*
X137085058Y-66784604D01*
X137082715Y-66775961D01*
X137086045Y-66769182D01*
X137252996Y-66602231D01*
X137259088Y-66599011D01*
X137640717Y-66526757D01*
X137649482Y-66528585D01*
G37*
%TD.AperFunction*%
%TD*%
M02*
