%TF.GenerationSoftware,KiCad,Pcbnew,9.0.7*%
%TF.CreationDate,2026-02-13T21:21:15+01:00*%
%TF.ProjectId,ESC_v3,4553435f-7633-42e6-9b69-6361645f7063,rev?*%
%TF.SameCoordinates,Original*%
%TF.FileFunction,Copper,L3,Inr*%
%TF.FilePolarity,Positive*%
%FSLAX46Y46*%
G04 Gerber Fmt 4.6, Leading zero omitted, Abs format (unit mm)*
G04 Created by KiCad (PCBNEW 9.0.7) date 2026-02-13 21:21:15*
%MOMM*%
%LPD*%
G01*
G04 APERTURE LIST*
G04 Aperture macros list*
%AMRoundRect*
0 Rectangle with rounded corners*
0 $1 Rounding radius*
0 $2 $3 $4 $5 $6 $7 $8 $9 X,Y pos of 4 corners*
0 Add a 4 corners polygon primitive as box body*
4,1,4,$2,$3,$4,$5,$6,$7,$8,$9,$2,$3,0*
0 Add four circle primitives for the rounded corners*
1,1,$1+$1,$2,$3*
1,1,$1+$1,$4,$5*
1,1,$1+$1,$6,$7*
1,1,$1+$1,$8,$9*
0 Add four rect primitives between the rounded corners*
20,1,$1+$1,$2,$3,$4,$5,0*
20,1,$1+$1,$4,$5,$6,$7,0*
20,1,$1+$1,$6,$7,$8,$9,0*
20,1,$1+$1,$8,$9,$2,$3,0*%
G04 Aperture macros list end*
%TA.AperFunction,ComponentPad*%
%ADD10R,1.700000X1.700000*%
%TD*%
%TA.AperFunction,ComponentPad*%
%ADD11C,3.200000*%
%TD*%
%TA.AperFunction,ComponentPad*%
%ADD12C,5.500000*%
%TD*%
%TA.AperFunction,ComponentPad*%
%ADD13RoundRect,0.250000X-0.600000X-0.725000X0.600000X-0.725000X0.600000X0.725000X-0.600000X0.725000X0*%
%TD*%
%TA.AperFunction,ComponentPad*%
%ADD14O,1.700000X1.950000*%
%TD*%
%TA.AperFunction,ViaPad*%
%ADD15C,0.700000*%
%TD*%
%TA.AperFunction,ViaPad*%
%ADD16C,0.600000*%
%TD*%
%TA.AperFunction,ViaPad*%
%ADD17C,0.650000*%
%TD*%
%TA.AperFunction,ViaPad*%
%ADD18C,1.500000*%
%TD*%
%TA.AperFunction,Conductor*%
%ADD19C,0.300000*%
%TD*%
%TA.AperFunction,Conductor*%
%ADD20C,0.500000*%
%TD*%
%TA.AperFunction,Conductor*%
%ADD21C,0.200000*%
%TD*%
G04 APERTURE END LIST*
D10*
%TO.N,SWDIO*%
%TO.C,J6*%
X153465000Y-107715000D03*
%TD*%
%TO.N,+3V3RAW*%
%TO.C,J4*%
X157440000Y-110315000D03*
%TD*%
%TO.N,USART2_RX*%
%TO.C,J9*%
X136900000Y-105600000D03*
%TD*%
D11*
%TO.N,GND*%
%TO.C,J2*%
X126440000Y-98015000D03*
X126440000Y-103885000D03*
X132310000Y-98015000D03*
X132310000Y-103885000D03*
%TD*%
D10*
%TO.N,NRST*%
%TO.C,J7*%
X157440000Y-107690000D03*
%TD*%
D12*
%TO.N,unconnected-(H4-Pad1)*%
%TO.C,H4*%
X162700000Y-109950000D03*
%TD*%
D10*
%TO.N,USART2_TX*%
%TO.C,J8*%
X136900000Y-110840000D03*
%TD*%
%TO.N,GND*%
%TO.C,J10*%
X136900000Y-108225000D03*
%TD*%
%TO.N,GND*%
%TO.C,J3*%
X153465000Y-105090000D03*
%TD*%
D11*
%TO.N,V_BAT*%
%TO.C,J11*%
X158090000Y-97990000D03*
X158090000Y-103860000D03*
X163960000Y-97990000D03*
X163960000Y-103860000D03*
%TD*%
D12*
%TO.N,unconnected-(H2-Pad1)*%
%TO.C,H2*%
X162700000Y-37400000D03*
%TD*%
D13*
%TO.N,CAN_H*%
%TO.C,J1*%
X141450000Y-109130000D03*
D14*
%TO.N,CAN_L*%
X143950000Y-109130000D03*
%TO.N,GND*%
X146450000Y-109130000D03*
%TO.N,+3V3RAW*%
X148950000Y-109130000D03*
%TD*%
D12*
%TO.N,unconnected-(H1-Pad1)*%
%TO.C,H1*%
X127700000Y-37400000D03*
%TD*%
D10*
%TO.N,SWCLK*%
%TO.C,J5*%
X153465000Y-110340000D03*
%TD*%
D12*
%TO.N,unconnected-(H3-Pad1)*%
%TO.C,H3*%
X127700000Y-109950000D03*
%TD*%
D15*
%TO.N,V_BAT*%
X163500000Y-61500000D03*
X161500000Y-65500000D03*
X157500000Y-101500000D03*
X159500000Y-73500000D03*
X159500000Y-81500000D03*
X158500000Y-63500000D03*
X162500000Y-95500000D03*
X162500000Y-67500000D03*
X156500000Y-99500000D03*
X159500000Y-41500000D03*
X162500000Y-47500000D03*
X155500000Y-73500000D03*
X146700000Y-99025000D03*
X126000000Y-49000000D03*
X161500000Y-41500000D03*
X127000000Y-43000000D03*
X159500000Y-77500000D03*
X156500000Y-63500000D03*
X158500000Y-91500000D03*
X140000000Y-37500000D03*
X164500000Y-47500000D03*
X154500000Y-75500000D03*
X139000000Y-42000000D03*
X159500000Y-93500000D03*
X149500000Y-43500000D03*
X161500000Y-61500000D03*
X162500000Y-99500000D03*
X158500000Y-67500000D03*
X155500000Y-101500000D03*
X154500000Y-71500000D03*
X159500000Y-61500000D03*
X150500000Y-39000000D03*
X159500000Y-89500000D03*
X154500000Y-67500000D03*
X156500000Y-87500000D03*
X154500000Y-83500000D03*
X159500000Y-69500000D03*
X160500000Y-59500000D03*
X159500000Y-85500000D03*
X162500000Y-51500000D03*
X155500000Y-69500000D03*
X149500000Y-40500000D03*
X128000000Y-49000000D03*
X155500000Y-81500000D03*
X163500000Y-101500000D03*
X164500000Y-95500000D03*
X149500000Y-42000000D03*
X164500000Y-59500000D03*
X163500000Y-45500000D03*
X162500000Y-63500000D03*
X139000000Y-40500000D03*
X126000000Y-45000000D03*
X150500000Y-37500000D03*
X126000000Y-41000000D03*
X164500000Y-55500000D03*
X162500000Y-59500000D03*
X164500000Y-67500000D03*
X161500000Y-101500000D03*
X157500000Y-65500000D03*
X155500000Y-85500000D03*
X161500000Y-57500000D03*
X160500000Y-67500000D03*
X159500000Y-105500000D03*
X160500000Y-103500000D03*
X156500000Y-67500000D03*
X155500000Y-77500000D03*
X127000000Y-47000000D03*
X140000000Y-39000000D03*
X163500000Y-41500000D03*
X160500000Y-95500000D03*
X128000000Y-45000000D03*
X160500000Y-63500000D03*
X155500000Y-65500000D03*
X161500000Y-97500000D03*
X162500000Y-55500000D03*
X164500000Y-51500000D03*
X139000000Y-43500000D03*
X163500000Y-49500000D03*
X159500000Y-65500000D03*
X160500000Y-99500000D03*
X164500000Y-43500000D03*
X159500000Y-101500000D03*
X129000000Y-43000000D03*
X162500000Y-43500000D03*
X163500000Y-57500000D03*
X128000000Y-41000000D03*
X164500000Y-63500000D03*
X163500000Y-65500000D03*
X158500000Y-95500000D03*
X154500000Y-79500000D03*
X163500000Y-53500000D03*
X161500000Y-105500000D03*
%TO.N,V_A_PHASE*%
X156700000Y-33000000D03*
X157700000Y-35000000D03*
X157185000Y-45007750D03*
X156335000Y-45007750D03*
X155699870Y-31008566D03*
X154635000Y-45007750D03*
X153700000Y-35000000D03*
X158035000Y-45007750D03*
X154700000Y-33000000D03*
X157699848Y-31010206D03*
X155485000Y-45007750D03*
X153699789Y-31006927D03*
X158700000Y-33000000D03*
X155700000Y-35000000D03*
X152700000Y-33000000D03*
%TO.N,SPA*%
X151500000Y-51200000D03*
X152024626Y-45525000D03*
%TO.N,SPB*%
X141525000Y-45650000D03*
D16*
X147960000Y-59700000D03*
D15*
X143125000Y-51875000D03*
%TO.N,V_B_PHASE*%
X145835000Y-45007750D03*
X145200000Y-35000000D03*
X147199773Y-31001599D03*
X143199797Y-30998320D03*
X142200000Y-33000000D03*
X144135000Y-45007750D03*
X146200000Y-33000000D03*
X147535000Y-45007750D03*
X144200000Y-33000000D03*
X144985000Y-45007750D03*
X148200000Y-33000000D03*
X146685000Y-45007750D03*
X143200000Y-35000000D03*
X147200000Y-35000000D03*
X145199713Y-30999960D03*
%TO.N,SPC*%
X131025000Y-45650000D03*
%TO.N,V_C_PHASE*%
X131700000Y-33000000D03*
X134699782Y-30991353D03*
X136699760Y-30992992D03*
X135700000Y-33000000D03*
X132699742Y-30989714D03*
X135325000Y-45000000D03*
X132700000Y-35000000D03*
X137025000Y-45000000D03*
X136700000Y-35000000D03*
X133625000Y-45000000D03*
X136175000Y-45000000D03*
X134700000Y-35000000D03*
X133700000Y-33000000D03*
X137700000Y-33000000D03*
X134475000Y-45000000D03*
%TO.N,G_A_H*%
X153026766Y-64542293D03*
D16*
%TO.N,G_B_H*%
X142884456Y-59532772D03*
%TO.N,G_C_H*%
X140752709Y-59518948D03*
D15*
%TO.N,NFAULT*%
X147150000Y-74475000D03*
X139225000Y-66000000D03*
D16*
%TO.N,SDO*%
X137125000Y-66675000D03*
D15*
%TO.N,CAN_TX*%
X142775000Y-87125000D03*
%TO.N,CAN_RX*%
X144500000Y-87150000D03*
D16*
%TO.N,nSCS*%
X128325000Y-72525000D03*
X134325000Y-71425000D03*
%TO.N,SCLK*%
X134850000Y-70025000D03*
D15*
X134750000Y-90850000D03*
D16*
%TO.N,SDI*%
X133825000Y-68900000D03*
D15*
X134712500Y-92737500D03*
D16*
%TO.N,+3V3*%
X134575000Y-72850000D03*
D15*
X148500000Y-98425000D03*
X143175000Y-70550000D03*
X140349000Y-79126000D03*
X140934205Y-65769500D03*
X139050000Y-81150000D03*
X146775000Y-88925000D03*
X147375000Y-94625000D03*
X149175000Y-80375000D03*
D16*
%TO.N,NRST*%
X140089352Y-84950000D03*
D15*
%TO.N,ENABLE*%
X146150000Y-76725000D03*
D16*
X138701852Y-70651852D03*
%TO.N,ADC1_IN11*%
X149725000Y-86475000D03*
D15*
X129750000Y-73525000D03*
%TO.N,ADC1_IN14*%
X130875000Y-72250000D03*
D16*
X151500000Y-87025000D03*
D15*
%TO.N,SWCLK*%
X143114798Y-83914798D03*
%TO.N,SWDIO*%
X144150000Y-83500000D03*
D17*
%TO.N,USART2_TX*%
X140550000Y-86500000D03*
%TO.N,USART2_RX*%
X141400000Y-85525000D03*
D16*
%TO.N,SNA*%
X149175000Y-61175000D03*
D15*
%TO.N,CAL*%
X140118771Y-70193771D03*
D16*
X152200000Y-83975000D03*
D15*
%TO.N,BOOT0*%
X141950000Y-81675000D03*
D16*
%TO.N,SPI1_MISO*%
X135137500Y-68062500D03*
D15*
X132375000Y-91775000D03*
%TO.N,SNC*%
X134700000Y-61225000D03*
D16*
%TO.N,SNB*%
X148125000Y-62700000D03*
D15*
%TO.N,GND*%
X126000000Y-53000000D03*
X153325000Y-97800000D03*
D18*
X129300000Y-100950000D03*
D16*
X139991974Y-59766510D03*
D15*
X154325000Y-95800000D03*
X138204793Y-79023156D03*
D16*
X134500000Y-78950000D03*
X135416380Y-61697140D03*
D15*
X164950000Y-80400000D03*
D16*
X133766386Y-85350000D03*
X129700462Y-74373558D03*
D15*
X164950000Y-72400000D03*
X132000000Y-61000000D03*
D16*
X148589500Y-60246610D03*
D15*
X143449828Y-87739676D03*
D18*
X126315000Y-100950000D03*
D16*
X140089474Y-65675000D03*
X142479441Y-84479444D03*
D15*
X164950000Y-82400000D03*
D16*
X134725000Y-85350000D03*
X143575000Y-68675000D03*
D15*
X128000000Y-65000000D03*
X130390000Y-54417564D03*
X127000000Y-95000000D03*
X149025000Y-79225000D03*
D16*
X135975000Y-88830000D03*
D15*
X126000000Y-61000000D03*
D16*
X143870948Y-84303052D03*
D15*
X130000000Y-61000000D03*
D16*
X134058038Y-69911863D03*
D15*
X147125000Y-67200000D03*
D16*
X131525424Y-91801841D03*
D15*
X129000000Y-95000000D03*
X153815000Y-64107907D03*
D16*
X131675000Y-83100000D03*
D15*
X164950000Y-84400000D03*
X126000000Y-57000000D03*
D16*
X135700000Y-79150000D03*
D15*
X126000000Y-89000000D03*
X127000000Y-55000000D03*
X144800000Y-68325000D03*
X140945913Y-81663862D03*
D16*
X153400000Y-70150000D03*
D15*
X127000000Y-59000000D03*
X143675000Y-67200000D03*
X143700000Y-66000000D03*
X152075000Y-54525000D03*
X128000000Y-61000000D03*
D16*
X133900502Y-90879293D03*
D15*
X148650000Y-96575000D03*
X152475000Y-91900000D03*
X127000000Y-67000000D03*
X128000000Y-57000000D03*
X164950000Y-74400000D03*
X128000000Y-93000000D03*
D16*
X132750000Y-85225000D03*
D15*
X143500000Y-57175000D03*
X145400000Y-87699269D03*
X129000000Y-59000000D03*
D16*
X150648050Y-51132711D03*
D15*
X164950000Y-76400000D03*
D16*
X149800000Y-61846658D03*
X135918921Y-68233924D03*
D18*
X132285000Y-100950000D03*
D15*
X126000000Y-69000000D03*
D16*
X133037442Y-68759448D03*
X150750000Y-88850000D03*
X142000000Y-91448528D03*
X133425000Y-78950000D03*
D15*
X148625000Y-95125000D03*
X141600000Y-57175000D03*
X132900000Y-57147564D03*
X145475000Y-93875000D03*
D16*
X148550000Y-62022229D03*
X131100000Y-79475000D03*
D15*
X164950000Y-70400000D03*
X132325000Y-79150000D03*
X164950000Y-78400000D03*
X154700000Y-57175000D03*
X129000000Y-63000000D03*
D18*
X129300000Y-103935000D03*
D15*
X128000000Y-53000000D03*
D16*
X150471679Y-86187816D03*
D15*
X135650000Y-83175000D03*
X147125000Y-66000000D03*
X131000000Y-59000000D03*
D16*
X131100000Y-82300000D03*
X151675000Y-70000000D03*
D15*
X127000000Y-63000000D03*
X126000000Y-93000000D03*
X153375000Y-54525000D03*
X139950000Y-97650000D03*
X130000000Y-93000000D03*
X133790000Y-54412692D03*
D16*
X136800000Y-79275000D03*
D15*
X141600000Y-54525000D03*
D16*
X142000000Y-86141614D03*
X136650000Y-85050000D03*
D15*
X129976614Y-45591757D03*
D16*
X135725000Y-85350000D03*
D15*
X144825000Y-57175000D03*
D16*
X141475000Y-59175000D03*
D15*
X150750000Y-54550000D03*
D16*
X151775000Y-88950000D03*
D15*
X146000000Y-64875000D03*
X127000000Y-91000000D03*
D16*
X131875000Y-84850000D03*
X138525000Y-72475000D03*
X152215544Y-86667228D03*
D15*
X150975463Y-45483008D03*
X139775000Y-76225000D03*
X164950000Y-86400000D03*
D16*
X143125000Y-52725003D03*
D15*
X140275000Y-57175000D03*
D16*
X143600000Y-59175000D03*
D15*
X131200000Y-57150000D03*
X150750000Y-57175000D03*
X143500000Y-54525000D03*
X132090000Y-54415128D03*
X126000000Y-65000000D03*
X133000000Y-59000000D03*
D16*
X133862991Y-92766444D03*
D15*
X152325000Y-95800000D03*
D16*
X131050000Y-81300000D03*
D15*
X146000000Y-94650000D03*
D16*
X142550000Y-97600000D03*
D15*
X153375000Y-57175000D03*
X131000000Y-95000000D03*
X144800000Y-64875000D03*
X148550000Y-82450000D03*
D16*
X130770066Y-73093501D03*
D15*
X129500000Y-57150000D03*
X152075000Y-57175000D03*
X144825000Y-54525000D03*
D18*
X129300000Y-97965000D03*
D15*
X146000000Y-68325000D03*
X153325000Y-93800000D03*
X142650000Y-105825000D03*
X149022729Y-88300439D03*
D16*
X142143331Y-59834000D03*
D15*
X140717349Y-46320973D03*
D16*
X131050000Y-80400000D03*
X131675000Y-83950000D03*
%TD*%
D19*
%TO.N,V_BAT*%
X147150000Y-99475000D02*
X147150000Y-101000000D01*
X156135000Y-103860000D02*
X158090000Y-103860000D01*
X155600000Y-103325000D02*
X156135000Y-103860000D01*
X146700000Y-99025000D02*
X147150000Y-99475000D01*
X147150000Y-101000000D02*
X149475000Y-103325000D01*
X149475000Y-103325000D02*
X155600000Y-103325000D01*
D20*
%TO.N,+3V3*%
X149175000Y-80375000D02*
X150425000Y-79125000D01*
X150425000Y-79125000D02*
X150425000Y-72600000D01*
X147375000Y-94625000D02*
X147375000Y-94375000D01*
X143175000Y-70550000D02*
X141212500Y-68587500D01*
X148500000Y-98425000D02*
X147375000Y-97300000D01*
D21*
X138887500Y-68587500D02*
X135050000Y-72425000D01*
D20*
X141212500Y-68587500D02*
X140934205Y-68309205D01*
X140934205Y-68309205D02*
X140934205Y-65769500D01*
X147375000Y-89525000D02*
X146775000Y-88925000D01*
X148775000Y-70950000D02*
X143575000Y-70950000D01*
D21*
X141212500Y-68587500D02*
X138887500Y-68587500D01*
D20*
X143575000Y-70950000D02*
X143175000Y-70550000D01*
X150425000Y-72600000D02*
X148775000Y-70950000D01*
D21*
X134625000Y-72850000D02*
X134575000Y-72850000D01*
D19*
X140349000Y-79126000D02*
X140350000Y-79127000D01*
X140350000Y-79127000D02*
X140350000Y-79850000D01*
D21*
X135050000Y-72425000D02*
X134625000Y-72850000D01*
D19*
X140350000Y-79850000D02*
X139050000Y-81150000D01*
D20*
X147375000Y-94375000D02*
X147375000Y-89525000D01*
X147375000Y-97300000D02*
X147375000Y-94625000D01*
%TD*%
%TA.AperFunction,Conductor*%
%TO.N,V_C_PHASE*%
G36*
X138401103Y-30494886D02*
G01*
X138468125Y-30514626D01*
X138513837Y-30567467D01*
X138525000Y-30618886D01*
X138525000Y-34251000D01*
X138505315Y-34318039D01*
X138452511Y-34363794D01*
X138401000Y-34375000D01*
X137300000Y-34375000D01*
X137300000Y-35401000D01*
X137280315Y-35468039D01*
X137227511Y-35513794D01*
X137176000Y-35525000D01*
X130999000Y-35525000D01*
X130931961Y-35505315D01*
X130886206Y-35452511D01*
X130875000Y-35401000D01*
X130875000Y-30612818D01*
X130894685Y-30545779D01*
X130947489Y-30500024D01*
X130999096Y-30488819D01*
X138401103Y-30494886D01*
G37*
%TD.AperFunction*%
%TD*%
%TA.AperFunction,Conductor*%
%TO.N,V_B_PHASE*%
G36*
X148901105Y-30503493D02*
G01*
X148968125Y-30523232D01*
X149013837Y-30576073D01*
X149025000Y-30627492D01*
X149025000Y-34251000D01*
X149005315Y-34318039D01*
X148952511Y-34363794D01*
X148901000Y-34375000D01*
X147775000Y-34375000D01*
X147775000Y-35401000D01*
X147755315Y-35468039D01*
X147702511Y-35513794D01*
X147651000Y-35525000D01*
X142724000Y-35525000D01*
X142656961Y-35505315D01*
X142611206Y-35452511D01*
X142600000Y-35401000D01*
X142600000Y-34375000D01*
X141499000Y-34375000D01*
X141431961Y-34355315D01*
X141386206Y-34302511D01*
X141375000Y-34251000D01*
X141375000Y-30621425D01*
X141394685Y-30554386D01*
X141447489Y-30508631D01*
X141499098Y-30497425D01*
X148901105Y-30503493D01*
G37*
%TD.AperFunction*%
%TD*%
%TA.AperFunction,Conductor*%
%TO.N,V_A_PHASE*%
G36*
X159401104Y-30512099D02*
G01*
X159468125Y-30531839D01*
X159513837Y-30584680D01*
X159525000Y-30636099D01*
X159525000Y-35401000D01*
X159505315Y-35468039D01*
X159452511Y-35513794D01*
X159401000Y-35525000D01*
X153224000Y-35525000D01*
X153156961Y-35505315D01*
X153111206Y-35452511D01*
X153100000Y-35401000D01*
X153100000Y-34375000D01*
X151999000Y-34375000D01*
X151931961Y-34355315D01*
X151886206Y-34302511D01*
X151875000Y-34251000D01*
X151875000Y-30630031D01*
X151894685Y-30562992D01*
X151947489Y-30517237D01*
X151999095Y-30506032D01*
X159401104Y-30512099D01*
G37*
%TD.AperFunction*%
%TD*%
%TA.AperFunction,Conductor*%
%TO.N,V_BAT*%
G36*
X159585446Y-36519685D02*
G01*
X159631201Y-36572489D01*
X159641145Y-36641647D01*
X159639298Y-36651593D01*
X159589119Y-36871440D01*
X159589116Y-36871454D01*
X159549500Y-37223065D01*
X159549500Y-37576934D01*
X159589116Y-37928545D01*
X159589119Y-37928559D01*
X159667859Y-38273543D01*
X159667860Y-38273545D01*
X159784731Y-38607545D01*
X159938262Y-38926355D01*
X159938264Y-38926358D01*
X160126527Y-39225976D01*
X160347153Y-39502633D01*
X160597367Y-39752847D01*
X160874024Y-39973473D01*
X161173642Y-40161736D01*
X161492456Y-40315269D01*
X161826456Y-40432140D01*
X162171440Y-40510881D01*
X162171449Y-40510882D01*
X162171454Y-40510883D01*
X162405861Y-40537293D01*
X162523066Y-40550499D01*
X162523069Y-40550500D01*
X162523072Y-40550500D01*
X162876931Y-40550500D01*
X162876932Y-40550499D01*
X163056635Y-40530252D01*
X163228545Y-40510883D01*
X163228548Y-40510882D01*
X163228560Y-40510881D01*
X163573544Y-40432140D01*
X163907544Y-40315269D01*
X164226358Y-40161736D01*
X164525976Y-39973473D01*
X164802633Y-39752847D01*
X165052847Y-39502633D01*
X165273473Y-39225976D01*
X165461736Y-38926358D01*
X165461739Y-38926352D01*
X165463780Y-38922115D01*
X165510602Y-38870255D01*
X165578029Y-38851942D01*
X165644653Y-38872989D01*
X165689321Y-38926715D01*
X165699500Y-38975916D01*
X165699500Y-69788770D01*
X165679815Y-69855809D01*
X165627011Y-69901564D01*
X165557853Y-69911508D01*
X165494297Y-69882483D01*
X165487819Y-69876451D01*
X165428419Y-69817051D01*
X165428415Y-69817048D01*
X165305501Y-69734919D01*
X165305488Y-69734912D01*
X165168917Y-69678343D01*
X165168907Y-69678340D01*
X165023920Y-69649500D01*
X165023918Y-69649500D01*
X164876082Y-69649500D01*
X164876080Y-69649500D01*
X164731092Y-69678340D01*
X164731082Y-69678343D01*
X164594511Y-69734912D01*
X164594498Y-69734919D01*
X164471584Y-69817048D01*
X164471580Y-69817051D01*
X164367051Y-69921580D01*
X164367048Y-69921584D01*
X164284919Y-70044498D01*
X164284912Y-70044511D01*
X164228343Y-70181082D01*
X164228340Y-70181092D01*
X164199500Y-70326079D01*
X164199500Y-70326082D01*
X164199500Y-70473918D01*
X164199500Y-70473920D01*
X164199499Y-70473920D01*
X164228340Y-70618907D01*
X164228343Y-70618917D01*
X164284912Y-70755488D01*
X164284919Y-70755501D01*
X164367048Y-70878415D01*
X164367051Y-70878419D01*
X164471580Y-70982948D01*
X164471584Y-70982951D01*
X164594498Y-71065080D01*
X164594511Y-71065087D01*
X164731082Y-71121656D01*
X164731087Y-71121658D01*
X164731091Y-71121658D01*
X164731092Y-71121659D01*
X164876079Y-71150500D01*
X164876082Y-71150500D01*
X165023920Y-71150500D01*
X165121462Y-71131096D01*
X165168913Y-71121658D01*
X165305495Y-71065084D01*
X165428416Y-70982951D01*
X165432909Y-70978458D01*
X165487819Y-70923549D01*
X165549142Y-70890064D01*
X165618834Y-70895048D01*
X165674767Y-70936920D01*
X165699184Y-71002384D01*
X165699500Y-71011230D01*
X165699500Y-71788770D01*
X165679815Y-71855809D01*
X165627011Y-71901564D01*
X165557853Y-71911508D01*
X165494297Y-71882483D01*
X165487819Y-71876451D01*
X165428419Y-71817051D01*
X165428415Y-71817048D01*
X165305501Y-71734919D01*
X165305488Y-71734912D01*
X165168917Y-71678343D01*
X165168907Y-71678340D01*
X165023920Y-71649500D01*
X165023918Y-71649500D01*
X164876082Y-71649500D01*
X164876080Y-71649500D01*
X164731092Y-71678340D01*
X164731082Y-71678343D01*
X164594511Y-71734912D01*
X164594498Y-71734919D01*
X164471584Y-71817048D01*
X164471580Y-71817051D01*
X164367051Y-71921580D01*
X164367048Y-71921584D01*
X164284919Y-72044498D01*
X164284912Y-72044511D01*
X164228343Y-72181082D01*
X164228340Y-72181092D01*
X164199500Y-72326079D01*
X164199500Y-72326082D01*
X164199500Y-72473918D01*
X164199500Y-72473920D01*
X164199499Y-72473920D01*
X164228340Y-72618907D01*
X164228343Y-72618917D01*
X164284912Y-72755488D01*
X164284919Y-72755501D01*
X164367048Y-72878415D01*
X164367051Y-72878419D01*
X164471580Y-72982948D01*
X164471584Y-72982951D01*
X164594498Y-73065080D01*
X164594511Y-73065087D01*
X164731082Y-73121656D01*
X164731087Y-73121658D01*
X164731091Y-73121658D01*
X164731092Y-73121659D01*
X164876079Y-73150500D01*
X164876082Y-73150500D01*
X165023920Y-73150500D01*
X165121462Y-73131096D01*
X165168913Y-73121658D01*
X165305495Y-73065084D01*
X165428416Y-72982951D01*
X165439825Y-72971542D01*
X165487819Y-72923549D01*
X165549142Y-72890064D01*
X165618834Y-72895048D01*
X165674767Y-72936920D01*
X165699184Y-73002384D01*
X165699500Y-73011230D01*
X165699500Y-73788770D01*
X165679815Y-73855809D01*
X165627011Y-73901564D01*
X165557853Y-73911508D01*
X165494297Y-73882483D01*
X165487819Y-73876451D01*
X165428419Y-73817051D01*
X165428415Y-73817048D01*
X165305501Y-73734919D01*
X165305488Y-73734912D01*
X165168917Y-73678343D01*
X165168907Y-73678340D01*
X165023920Y-73649500D01*
X165023918Y-73649500D01*
X164876082Y-73649500D01*
X164876080Y-73649500D01*
X164731092Y-73678340D01*
X164731082Y-73678343D01*
X164594511Y-73734912D01*
X164594498Y-73734919D01*
X164471584Y-73817048D01*
X164471580Y-73817051D01*
X164367051Y-73921580D01*
X164367048Y-73921584D01*
X164284919Y-74044498D01*
X164284912Y-74044511D01*
X164228343Y-74181082D01*
X164228340Y-74181092D01*
X164199500Y-74326079D01*
X164199500Y-74326082D01*
X164199500Y-74473918D01*
X164199500Y-74473920D01*
X164199499Y-74473920D01*
X164228340Y-74618907D01*
X164228343Y-74618917D01*
X164284912Y-74755488D01*
X164284919Y-74755501D01*
X164367048Y-74878415D01*
X164367051Y-74878419D01*
X164471580Y-74982948D01*
X164471584Y-74982951D01*
X164594498Y-75065080D01*
X164594511Y-75065087D01*
X164731082Y-75121656D01*
X164731087Y-75121658D01*
X164731091Y-75121658D01*
X164731092Y-75121659D01*
X164876079Y-75150500D01*
X164876082Y-75150500D01*
X165023920Y-75150500D01*
X165121462Y-75131096D01*
X165168913Y-75121658D01*
X165305495Y-75065084D01*
X165428416Y-74982951D01*
X165457951Y-74953416D01*
X165487819Y-74923549D01*
X165549142Y-74890064D01*
X165618834Y-74895048D01*
X165674767Y-74936920D01*
X165699184Y-75002384D01*
X165699500Y-75011230D01*
X165699500Y-75788770D01*
X165679815Y-75855809D01*
X165627011Y-75901564D01*
X165557853Y-75911508D01*
X165494297Y-75882483D01*
X165487819Y-75876451D01*
X165428419Y-75817051D01*
X165428415Y-75817048D01*
X165305501Y-75734919D01*
X165305488Y-75734912D01*
X165168917Y-75678343D01*
X165168907Y-75678340D01*
X165023920Y-75649500D01*
X165023918Y-75649500D01*
X164876082Y-75649500D01*
X164876080Y-75649500D01*
X164731092Y-75678340D01*
X164731082Y-75678343D01*
X164594511Y-75734912D01*
X164594498Y-75734919D01*
X164471584Y-75817048D01*
X164471580Y-75817051D01*
X164367051Y-75921580D01*
X164367048Y-75921584D01*
X164284919Y-76044498D01*
X164284912Y-76044511D01*
X164228343Y-76181082D01*
X164228340Y-76181092D01*
X164199500Y-76326079D01*
X164199500Y-76326082D01*
X164199500Y-76473918D01*
X164199500Y-76473920D01*
X164199499Y-76473920D01*
X164228340Y-76618907D01*
X164228343Y-76618917D01*
X164284912Y-76755488D01*
X164284919Y-76755501D01*
X164367048Y-76878415D01*
X164367051Y-76878419D01*
X164471580Y-76982948D01*
X164471584Y-76982951D01*
X164594498Y-77065080D01*
X164594511Y-77065087D01*
X164731082Y-77121656D01*
X164731087Y-77121658D01*
X164731091Y-77121658D01*
X164731092Y-77121659D01*
X164876079Y-77150500D01*
X164876082Y-77150500D01*
X165023920Y-77150500D01*
X165121462Y-77131096D01*
X165168913Y-77121658D01*
X165305495Y-77065084D01*
X165428416Y-76982951D01*
X165435867Y-76975500D01*
X165487819Y-76923549D01*
X165549142Y-76890064D01*
X165618834Y-76895048D01*
X165674767Y-76936920D01*
X165699184Y-77002384D01*
X165699500Y-77011230D01*
X165699500Y-77788770D01*
X165679815Y-77855809D01*
X165627011Y-77901564D01*
X165557853Y-77911508D01*
X165494297Y-77882483D01*
X165487819Y-77876451D01*
X165428419Y-77817051D01*
X165428415Y-77817048D01*
X165305501Y-77734919D01*
X165305488Y-77734912D01*
X165168917Y-77678343D01*
X165168907Y-77678340D01*
X165023920Y-77649500D01*
X165023918Y-77649500D01*
X164876082Y-77649500D01*
X164876080Y-77649500D01*
X164731092Y-77678340D01*
X164731082Y-77678343D01*
X164594511Y-77734912D01*
X164594498Y-77734919D01*
X164471584Y-77817048D01*
X164471580Y-77817051D01*
X164367051Y-77921580D01*
X164367048Y-77921584D01*
X164284919Y-78044498D01*
X164284912Y-78044511D01*
X164228343Y-78181082D01*
X164228340Y-78181092D01*
X164199500Y-78326079D01*
X164199500Y-78326082D01*
X164199500Y-78473918D01*
X164199500Y-78473920D01*
X164199499Y-78473920D01*
X164228340Y-78618907D01*
X164228343Y-78618917D01*
X164284912Y-78755488D01*
X164284919Y-78755501D01*
X164367048Y-78878415D01*
X164367051Y-78878419D01*
X164471580Y-78982948D01*
X164471584Y-78982951D01*
X164594498Y-79065080D01*
X164594511Y-79065087D01*
X164731082Y-79121656D01*
X164731087Y-79121658D01*
X164731091Y-79121658D01*
X164731092Y-79121659D01*
X164876079Y-79150500D01*
X164876082Y-79150500D01*
X165023920Y-79150500D01*
X165121462Y-79131096D01*
X165168913Y-79121658D01*
X165305495Y-79065084D01*
X165428416Y-78982951D01*
X165433072Y-78978295D01*
X165487819Y-78923549D01*
X165549142Y-78890064D01*
X165618834Y-78895048D01*
X165674767Y-78936920D01*
X165699184Y-79002384D01*
X165699500Y-79011230D01*
X165699500Y-79788770D01*
X165679815Y-79855809D01*
X165627011Y-79901564D01*
X165557853Y-79911508D01*
X165494297Y-79882483D01*
X165487819Y-79876451D01*
X165428419Y-79817051D01*
X165428415Y-79817048D01*
X165305501Y-79734919D01*
X165305488Y-79734912D01*
X165168917Y-79678343D01*
X165168907Y-79678340D01*
X165023920Y-79649500D01*
X165023918Y-79649500D01*
X164876082Y-79649500D01*
X164876080Y-79649500D01*
X164731092Y-79678340D01*
X164731082Y-79678343D01*
X164594511Y-79734912D01*
X164594498Y-79734919D01*
X164471584Y-79817048D01*
X164471580Y-79817051D01*
X164367051Y-79921580D01*
X164367048Y-79921584D01*
X164284919Y-80044498D01*
X164284912Y-80044511D01*
X164228343Y-80181082D01*
X164228340Y-80181092D01*
X164199500Y-80326079D01*
X164199500Y-80326082D01*
X164199500Y-80473918D01*
X164199500Y-80473920D01*
X164199499Y-80473920D01*
X164228340Y-80618907D01*
X164228343Y-80618917D01*
X164284912Y-80755488D01*
X164284919Y-80755501D01*
X164367048Y-80878415D01*
X164367051Y-80878419D01*
X164471580Y-80982948D01*
X164471584Y-80982951D01*
X164594498Y-81065080D01*
X164594511Y-81065087D01*
X164703200Y-81110107D01*
X164731087Y-81121658D01*
X164731091Y-81121658D01*
X164731092Y-81121659D01*
X164876079Y-81150500D01*
X164876082Y-81150500D01*
X165023920Y-81150500D01*
X165149598Y-81125500D01*
X165168913Y-81121658D01*
X165305495Y-81065084D01*
X165428416Y-80982951D01*
X165458025Y-80953342D01*
X165487819Y-80923549D01*
X165549142Y-80890064D01*
X165618834Y-80895048D01*
X165674767Y-80936920D01*
X165699184Y-81002384D01*
X165699500Y-81011230D01*
X165699500Y-81788770D01*
X165679815Y-81855809D01*
X165627011Y-81901564D01*
X165557853Y-81911508D01*
X165494297Y-81882483D01*
X165487819Y-81876451D01*
X165428419Y-81817051D01*
X165428415Y-81817048D01*
X165305501Y-81734919D01*
X165305488Y-81734912D01*
X165168917Y-81678343D01*
X165168907Y-81678340D01*
X165023920Y-81649500D01*
X165023918Y-81649500D01*
X164876082Y-81649500D01*
X164876080Y-81649500D01*
X164731092Y-81678340D01*
X164731082Y-81678343D01*
X164594511Y-81734912D01*
X164594498Y-81734919D01*
X164471584Y-81817048D01*
X164471580Y-81817051D01*
X164367051Y-81921580D01*
X164367048Y-81921584D01*
X164284919Y-82044498D01*
X164284912Y-82044511D01*
X164228343Y-82181082D01*
X164228340Y-82181092D01*
X164199500Y-82326079D01*
X164199500Y-82326082D01*
X164199500Y-82473918D01*
X164199500Y-82473920D01*
X164199499Y-82473920D01*
X164228340Y-82618907D01*
X164228343Y-82618917D01*
X164284912Y-82755488D01*
X164284919Y-82755501D01*
X164367048Y-82878415D01*
X164367051Y-82878419D01*
X164471580Y-82982948D01*
X164471584Y-82982951D01*
X164594498Y-83065080D01*
X164594511Y-83065087D01*
X164715216Y-83115084D01*
X164731087Y-83121658D01*
X164731091Y-83121658D01*
X164731092Y-83121659D01*
X164876079Y-83150500D01*
X164876082Y-83150500D01*
X165023920Y-83150500D01*
X165121462Y-83131096D01*
X165168913Y-83121658D01*
X165305495Y-83065084D01*
X165428416Y-82982951D01*
X165455280Y-82956087D01*
X165487819Y-82923549D01*
X165549142Y-82890064D01*
X165618834Y-82895048D01*
X165674767Y-82936920D01*
X165699184Y-83002384D01*
X165699500Y-83011230D01*
X165699500Y-83788770D01*
X165679815Y-83855809D01*
X165627011Y-83901564D01*
X165557853Y-83911508D01*
X165494297Y-83882483D01*
X165487819Y-83876451D01*
X165428419Y-83817051D01*
X165428415Y-83817048D01*
X165305501Y-83734919D01*
X165305488Y-83734912D01*
X165168917Y-83678343D01*
X165168907Y-83678340D01*
X165023920Y-83649500D01*
X165023918Y-83649500D01*
X164876082Y-83649500D01*
X164876080Y-83649500D01*
X164731092Y-83678340D01*
X164731082Y-83678343D01*
X164594511Y-83734912D01*
X164594498Y-83734919D01*
X164471584Y-83817048D01*
X164471580Y-83817051D01*
X164367051Y-83921580D01*
X164367048Y-83921584D01*
X164284919Y-84044498D01*
X164284912Y-84044511D01*
X164228343Y-84181082D01*
X164228340Y-84181092D01*
X164199500Y-84326079D01*
X164199500Y-84326082D01*
X164199500Y-84473918D01*
X164199500Y-84473920D01*
X164199499Y-84473920D01*
X164228340Y-84618907D01*
X164228343Y-84618917D01*
X164284912Y-84755488D01*
X164284919Y-84755501D01*
X164367048Y-84878415D01*
X164367051Y-84878419D01*
X164471580Y-84982948D01*
X164471584Y-84982951D01*
X164594498Y-85065080D01*
X164594511Y-85065087D01*
X164724653Y-85118993D01*
X164731087Y-85121658D01*
X164731091Y-85121658D01*
X164731092Y-85121659D01*
X164876079Y-85150500D01*
X164876082Y-85150500D01*
X165023920Y-85150500D01*
X165121462Y-85131096D01*
X165168913Y-85121658D01*
X165305495Y-85065084D01*
X165428416Y-84982951D01*
X165449899Y-84961468D01*
X165487819Y-84923549D01*
X165549142Y-84890064D01*
X165618834Y-84895048D01*
X165674767Y-84936920D01*
X165699184Y-85002384D01*
X165699500Y-85011230D01*
X165699500Y-85788770D01*
X165679815Y-85855809D01*
X165627011Y-85901564D01*
X165557853Y-85911508D01*
X165494297Y-85882483D01*
X165487819Y-85876451D01*
X165428419Y-85817051D01*
X165428415Y-85817048D01*
X165305501Y-85734919D01*
X165305488Y-85734912D01*
X165168917Y-85678343D01*
X165168907Y-85678340D01*
X165023920Y-85649500D01*
X165023918Y-85649500D01*
X164876082Y-85649500D01*
X164876080Y-85649500D01*
X164731092Y-85678340D01*
X164731082Y-85678343D01*
X164594511Y-85734912D01*
X164594498Y-85734919D01*
X164471584Y-85817048D01*
X164471580Y-85817051D01*
X164367051Y-85921580D01*
X164367048Y-85921584D01*
X164284919Y-86044498D01*
X164284912Y-86044511D01*
X164228343Y-86181082D01*
X164228340Y-86181092D01*
X164199500Y-86326079D01*
X164199500Y-86326082D01*
X164199500Y-86473918D01*
X164199500Y-86473920D01*
X164199499Y-86473920D01*
X164228340Y-86618907D01*
X164228343Y-86618917D01*
X164284912Y-86755488D01*
X164284919Y-86755501D01*
X164367048Y-86878415D01*
X164367051Y-86878419D01*
X164471580Y-86982948D01*
X164471584Y-86982951D01*
X164594498Y-87065080D01*
X164594511Y-87065087D01*
X164718195Y-87116318D01*
X164731087Y-87121658D01*
X164731091Y-87121658D01*
X164731092Y-87121659D01*
X164876079Y-87150500D01*
X164876082Y-87150500D01*
X165023920Y-87150500D01*
X165121462Y-87131096D01*
X165168913Y-87121658D01*
X165305495Y-87065084D01*
X165428416Y-86982951D01*
X165455360Y-86956007D01*
X165487819Y-86923549D01*
X165549142Y-86890064D01*
X165618834Y-86895048D01*
X165674767Y-86936920D01*
X165699184Y-87002384D01*
X165699500Y-87011230D01*
X165699500Y-106026000D01*
X165679815Y-106093039D01*
X165627011Y-106138794D01*
X165575500Y-106150000D01*
X155499000Y-106150000D01*
X155431961Y-106130315D01*
X155386206Y-106077511D01*
X155375000Y-106026000D01*
X155375000Y-86825000D01*
X155374999Y-86824999D01*
X153269400Y-85062172D01*
X153230633Y-85004044D01*
X153225000Y-84967094D01*
X153225000Y-71803187D01*
X153244685Y-71736148D01*
X153263538Y-71713342D01*
X154249999Y-70775001D01*
X154250000Y-70775000D01*
X154250000Y-68367106D01*
X154254631Y-68333534D01*
X155816337Y-62780801D01*
X155847484Y-62727236D01*
X159850000Y-58675000D01*
X159850000Y-44325000D01*
X158372510Y-44325000D01*
X158325058Y-44315561D01*
X158253913Y-44286092D01*
X158253907Y-44286090D01*
X158108920Y-44257250D01*
X158108918Y-44257250D01*
X157961082Y-44257250D01*
X157961080Y-44257250D01*
X157816092Y-44286090D01*
X157816086Y-44286092D01*
X157771796Y-44304437D01*
X157744941Y-44315561D01*
X157736765Y-44317187D01*
X157732425Y-44319977D01*
X157697490Y-44325000D01*
X157522510Y-44325000D01*
X157475058Y-44315561D01*
X157403913Y-44286092D01*
X157403907Y-44286090D01*
X157258920Y-44257250D01*
X157258918Y-44257250D01*
X157111082Y-44257250D01*
X157111080Y-44257250D01*
X156966092Y-44286090D01*
X156966086Y-44286092D01*
X156921796Y-44304437D01*
X156894941Y-44315561D01*
X156886765Y-44317187D01*
X156882425Y-44319977D01*
X156847490Y-44325000D01*
X156672510Y-44325000D01*
X156625058Y-44315561D01*
X156553913Y-44286092D01*
X156553907Y-44286090D01*
X156408920Y-44257250D01*
X156408918Y-44257250D01*
X156261082Y-44257250D01*
X156261080Y-44257250D01*
X156116092Y-44286090D01*
X156116086Y-44286092D01*
X156071796Y-44304437D01*
X156044941Y-44315561D01*
X156036765Y-44317187D01*
X156032425Y-44319977D01*
X155997490Y-44325000D01*
X155822510Y-44325000D01*
X155775058Y-44315561D01*
X155703913Y-44286092D01*
X155703907Y-44286090D01*
X155558920Y-44257250D01*
X155558918Y-44257250D01*
X155411082Y-44257250D01*
X155411080Y-44257250D01*
X155266092Y-44286090D01*
X155266086Y-44286092D01*
X155221796Y-44304437D01*
X155194941Y-44315561D01*
X155186765Y-44317187D01*
X155182425Y-44319977D01*
X155147490Y-44325000D01*
X154972510Y-44325000D01*
X154925058Y-44315561D01*
X154853913Y-44286092D01*
X154853907Y-44286090D01*
X154708920Y-44257250D01*
X154708918Y-44257250D01*
X154561082Y-44257250D01*
X154561080Y-44257250D01*
X154416092Y-44286090D01*
X154416086Y-44286092D01*
X154371796Y-44304437D01*
X154344941Y-44315561D01*
X154297490Y-44325000D01*
X147872510Y-44325000D01*
X147825058Y-44315561D01*
X147753913Y-44286092D01*
X147753907Y-44286090D01*
X147608920Y-44257250D01*
X147608918Y-44257250D01*
X147461082Y-44257250D01*
X147461080Y-44257250D01*
X147316092Y-44286090D01*
X147316086Y-44286092D01*
X147271796Y-44304437D01*
X147244941Y-44315561D01*
X147236765Y-44317187D01*
X147232425Y-44319977D01*
X147197490Y-44325000D01*
X147022510Y-44325000D01*
X146975058Y-44315561D01*
X146903913Y-44286092D01*
X146903907Y-44286090D01*
X146758920Y-44257250D01*
X146758918Y-44257250D01*
X146611082Y-44257250D01*
X146611080Y-44257250D01*
X146466092Y-44286090D01*
X146466086Y-44286092D01*
X146421796Y-44304437D01*
X146394941Y-44315561D01*
X146386765Y-44317187D01*
X146382425Y-44319977D01*
X146347490Y-44325000D01*
X146172510Y-44325000D01*
X146125058Y-44315561D01*
X146053913Y-44286092D01*
X146053907Y-44286090D01*
X145908920Y-44257250D01*
X145908918Y-44257250D01*
X145761082Y-44257250D01*
X145761080Y-44257250D01*
X145616092Y-44286090D01*
X145616086Y-44286092D01*
X145571796Y-44304437D01*
X145544941Y-44315561D01*
X145536765Y-44317187D01*
X145532425Y-44319977D01*
X145497490Y-44325000D01*
X145322510Y-44325000D01*
X145275058Y-44315561D01*
X145203913Y-44286092D01*
X145203907Y-44286090D01*
X145058920Y-44257250D01*
X145058918Y-44257250D01*
X144911082Y-44257250D01*
X144911080Y-44257250D01*
X144766092Y-44286090D01*
X144766086Y-44286092D01*
X144721796Y-44304437D01*
X144694941Y-44315561D01*
X144686765Y-44317187D01*
X144682425Y-44319977D01*
X144647490Y-44325000D01*
X144472510Y-44325000D01*
X144425058Y-44315561D01*
X144353913Y-44286092D01*
X144353907Y-44286090D01*
X144208920Y-44257250D01*
X144208918Y-44257250D01*
X144061082Y-44257250D01*
X144061080Y-44257250D01*
X143916092Y-44286090D01*
X143916086Y-44286092D01*
X143871796Y-44304437D01*
X143844941Y-44315561D01*
X143797490Y-44325000D01*
X137381221Y-44325000D01*
X137333769Y-44315561D01*
X137243917Y-44278343D01*
X137243907Y-44278340D01*
X137098920Y-44249500D01*
X137098918Y-44249500D01*
X136951082Y-44249500D01*
X136951080Y-44249500D01*
X136806092Y-44278340D01*
X136806082Y-44278343D01*
X136716231Y-44315561D01*
X136708054Y-44317187D01*
X136703714Y-44319977D01*
X136668779Y-44325000D01*
X136531221Y-44325000D01*
X136483769Y-44315561D01*
X136393917Y-44278343D01*
X136393907Y-44278340D01*
X136248920Y-44249500D01*
X136248918Y-44249500D01*
X136101082Y-44249500D01*
X136101080Y-44249500D01*
X135956092Y-44278340D01*
X135956082Y-44278343D01*
X135866231Y-44315561D01*
X135858054Y-44317187D01*
X135853714Y-44319977D01*
X135818779Y-44325000D01*
X135681221Y-44325000D01*
X135633769Y-44315561D01*
X135543917Y-44278343D01*
X135543907Y-44278340D01*
X135398920Y-44249500D01*
X135398918Y-44249500D01*
X135251082Y-44249500D01*
X135251080Y-44249500D01*
X135106092Y-44278340D01*
X135106082Y-44278343D01*
X135016231Y-44315561D01*
X135008054Y-44317187D01*
X135003714Y-44319977D01*
X134968779Y-44325000D01*
X134831221Y-44325000D01*
X134783769Y-44315561D01*
X134693917Y-44278343D01*
X134693907Y-44278340D01*
X134548920Y-44249500D01*
X134548918Y-44249500D01*
X134401082Y-44249500D01*
X134401080Y-44249500D01*
X134256092Y-44278340D01*
X134256082Y-44278343D01*
X134166231Y-44315561D01*
X134158054Y-44317187D01*
X134153714Y-44319977D01*
X134118779Y-44325000D01*
X133981221Y-44325000D01*
X133933769Y-44315561D01*
X133843917Y-44278343D01*
X133843907Y-44278340D01*
X133698920Y-44249500D01*
X133698918Y-44249500D01*
X133551082Y-44249500D01*
X133551080Y-44249500D01*
X133406092Y-44278340D01*
X133406082Y-44278343D01*
X133316231Y-44315561D01*
X133268779Y-44325000D01*
X129100000Y-44325000D01*
X129100000Y-50226000D01*
X129080315Y-50293039D01*
X129027511Y-50338794D01*
X128976000Y-50350000D01*
X124824483Y-50350000D01*
X124757444Y-50330315D01*
X124711689Y-50277511D01*
X124700483Y-50226000D01*
X124700488Y-46903924D01*
X124700497Y-38975909D01*
X124720182Y-38908870D01*
X124772986Y-38863116D01*
X124842144Y-38853172D01*
X124905700Y-38882197D01*
X124936217Y-38922108D01*
X124938262Y-38926355D01*
X124938264Y-38926358D01*
X125126527Y-39225976D01*
X125347153Y-39502633D01*
X125597367Y-39752847D01*
X125874024Y-39973473D01*
X126173642Y-40161736D01*
X126492456Y-40315269D01*
X126826456Y-40432140D01*
X127171440Y-40510881D01*
X127171449Y-40510882D01*
X127171454Y-40510883D01*
X127405861Y-40537293D01*
X127523066Y-40550499D01*
X127523069Y-40550500D01*
X127523072Y-40550500D01*
X127876931Y-40550500D01*
X127876932Y-40550499D01*
X128056635Y-40530252D01*
X128228545Y-40510883D01*
X128228548Y-40510882D01*
X128228560Y-40510881D01*
X128573544Y-40432140D01*
X128907544Y-40315269D01*
X129226358Y-40161736D01*
X129525976Y-39973473D01*
X129802633Y-39752847D01*
X130052847Y-39502633D01*
X130273473Y-39225976D01*
X130461736Y-38926358D01*
X130615269Y-38607544D01*
X130732140Y-38273544D01*
X130810881Y-37928560D01*
X130850500Y-37576928D01*
X130850500Y-37223072D01*
X130810881Y-36871440D01*
X130760702Y-36651593D01*
X130764975Y-36581854D01*
X130806274Y-36525496D01*
X130871486Y-36500413D01*
X130881593Y-36500000D01*
X159518407Y-36500000D01*
X159585446Y-36519685D01*
G37*
%TD.AperFunction*%
%TD*%
%TA.AperFunction,Conductor*%
%TO.N,GND*%
G36*
X132980968Y-44750185D02*
G01*
X133026723Y-44802989D01*
X133036667Y-44872147D01*
X133033704Y-44886592D01*
X133024500Y-44920941D01*
X133024500Y-44920943D01*
X133024500Y-45079057D01*
X133048728Y-45169475D01*
X133065423Y-45231783D01*
X133065426Y-45231790D01*
X133144475Y-45368709D01*
X133144479Y-45368714D01*
X133144480Y-45368716D01*
X133256284Y-45480520D01*
X133256286Y-45480521D01*
X133256290Y-45480524D01*
X133269714Y-45488274D01*
X133393216Y-45559577D01*
X133545943Y-45600500D01*
X133545945Y-45600500D01*
X133704055Y-45600500D01*
X133704057Y-45600500D01*
X133856784Y-45559577D01*
X133988000Y-45483819D01*
X134055901Y-45467347D01*
X134111999Y-45483819D01*
X134243216Y-45559577D01*
X134395943Y-45600500D01*
X134395945Y-45600500D01*
X134554055Y-45600500D01*
X134554057Y-45600500D01*
X134706784Y-45559577D01*
X134838000Y-45483819D01*
X134905901Y-45467347D01*
X134961999Y-45483819D01*
X135093216Y-45559577D01*
X135245943Y-45600500D01*
X135245945Y-45600500D01*
X135404055Y-45600500D01*
X135404057Y-45600500D01*
X135556784Y-45559577D01*
X135688000Y-45483819D01*
X135755901Y-45467347D01*
X135811999Y-45483819D01*
X135943216Y-45559577D01*
X136095943Y-45600500D01*
X136095945Y-45600500D01*
X136254055Y-45600500D01*
X136254057Y-45600500D01*
X136406784Y-45559577D01*
X136538000Y-45483819D01*
X136605901Y-45467347D01*
X136661999Y-45483819D01*
X136793216Y-45559577D01*
X136945943Y-45600500D01*
X136945945Y-45600500D01*
X137104055Y-45600500D01*
X137104057Y-45600500D01*
X137214365Y-45570943D01*
X140924500Y-45570943D01*
X140924500Y-45729057D01*
X140931930Y-45756784D01*
X140965423Y-45881783D01*
X140965426Y-45881790D01*
X141044475Y-46018709D01*
X141044479Y-46018714D01*
X141044480Y-46018716D01*
X141156284Y-46130520D01*
X141156286Y-46130521D01*
X141156290Y-46130524D01*
X141293209Y-46209573D01*
X141293216Y-46209577D01*
X141445943Y-46250500D01*
X141445945Y-46250500D01*
X141604055Y-46250500D01*
X141604057Y-46250500D01*
X141756784Y-46209577D01*
X141893716Y-46130520D01*
X142005520Y-46018716D01*
X142084577Y-45881784D01*
X142125500Y-45729057D01*
X142125500Y-45570943D01*
X142084577Y-45418216D01*
X142084573Y-45418209D01*
X142005524Y-45281290D01*
X142005518Y-45281282D01*
X141893717Y-45169481D01*
X141893709Y-45169475D01*
X141756790Y-45090426D01*
X141756786Y-45090424D01*
X141756784Y-45090423D01*
X141604057Y-45049500D01*
X141445943Y-45049500D01*
X141293216Y-45090423D01*
X141293209Y-45090426D01*
X141156290Y-45169475D01*
X141156282Y-45169481D01*
X141044481Y-45281282D01*
X141044475Y-45281290D01*
X140965426Y-45418209D01*
X140965423Y-45418216D01*
X140924500Y-45570943D01*
X137214365Y-45570943D01*
X137256784Y-45559577D01*
X137393716Y-45480520D01*
X137505520Y-45368716D01*
X137584577Y-45231784D01*
X137625500Y-45079057D01*
X137625500Y-44920943D01*
X137616296Y-44886592D01*
X137617959Y-44816742D01*
X137657122Y-44758880D01*
X137721351Y-44731377D01*
X137736071Y-44730500D01*
X143426006Y-44730500D01*
X143493045Y-44750185D01*
X143538800Y-44802989D01*
X143548744Y-44872147D01*
X143545782Y-44886587D01*
X143534500Y-44928693D01*
X143534500Y-45086807D01*
X143573347Y-45231784D01*
X143575423Y-45239533D01*
X143575426Y-45239540D01*
X143654475Y-45376459D01*
X143654479Y-45376464D01*
X143654480Y-45376466D01*
X143766284Y-45488270D01*
X143766286Y-45488271D01*
X143766290Y-45488274D01*
X143889789Y-45559575D01*
X143903216Y-45567327D01*
X144055943Y-45608250D01*
X144055945Y-45608250D01*
X144214055Y-45608250D01*
X144214057Y-45608250D01*
X144366784Y-45567327D01*
X144498000Y-45491569D01*
X144565901Y-45475097D01*
X144621999Y-45491569D01*
X144753216Y-45567327D01*
X144905943Y-45608250D01*
X144905945Y-45608250D01*
X145064055Y-45608250D01*
X145064057Y-45608250D01*
X145216784Y-45567327D01*
X145348000Y-45491569D01*
X145415901Y-45475097D01*
X145471999Y-45491569D01*
X145603216Y-45567327D01*
X145755943Y-45608250D01*
X145755945Y-45608250D01*
X145914055Y-45608250D01*
X145914057Y-45608250D01*
X146066784Y-45567327D01*
X146198000Y-45491569D01*
X146265901Y-45475097D01*
X146321999Y-45491569D01*
X146453216Y-45567327D01*
X146605943Y-45608250D01*
X146605945Y-45608250D01*
X146764055Y-45608250D01*
X146764057Y-45608250D01*
X146916784Y-45567327D01*
X147048000Y-45491569D01*
X147115901Y-45475097D01*
X147171999Y-45491569D01*
X147303216Y-45567327D01*
X147455943Y-45608250D01*
X147455945Y-45608250D01*
X147614055Y-45608250D01*
X147614057Y-45608250D01*
X147766784Y-45567327D01*
X147903716Y-45488270D01*
X148015520Y-45376466D01*
X148094577Y-45239534D01*
X148135500Y-45086807D01*
X148135500Y-44928693D01*
X148124219Y-44886591D01*
X148125882Y-44816744D01*
X148165045Y-44758881D01*
X148229273Y-44731377D01*
X148243994Y-44730500D01*
X151736966Y-44730500D01*
X151804005Y-44750185D01*
X151849760Y-44802989D01*
X151859704Y-44872147D01*
X151830679Y-44935703D01*
X151798966Y-44961887D01*
X151655913Y-45044477D01*
X151655908Y-45044481D01*
X151544107Y-45156282D01*
X151544101Y-45156290D01*
X151465052Y-45293209D01*
X151465049Y-45293216D01*
X151424126Y-45445943D01*
X151424126Y-45604057D01*
X151457620Y-45729056D01*
X151465049Y-45756783D01*
X151465052Y-45756790D01*
X151544101Y-45893709D01*
X151544105Y-45893714D01*
X151544106Y-45893716D01*
X151655910Y-46005520D01*
X151655912Y-46005521D01*
X151655916Y-46005524D01*
X151792835Y-46084573D01*
X151792842Y-46084577D01*
X151945569Y-46125500D01*
X151945571Y-46125500D01*
X152103681Y-46125500D01*
X152103683Y-46125500D01*
X152256410Y-46084577D01*
X152393342Y-46005520D01*
X152505146Y-45893716D01*
X152584203Y-45756784D01*
X152625126Y-45604057D01*
X152625126Y-45445943D01*
X152584203Y-45293216D01*
X152577313Y-45281282D01*
X152505150Y-45156290D01*
X152505144Y-45156282D01*
X152393343Y-45044481D01*
X152393338Y-45044477D01*
X152250286Y-44961887D01*
X152202071Y-44911321D01*
X152188847Y-44842714D01*
X152214815Y-44777849D01*
X152271729Y-44737320D01*
X152312286Y-44730500D01*
X153926006Y-44730500D01*
X153993045Y-44750185D01*
X154038800Y-44802989D01*
X154048744Y-44872147D01*
X154045782Y-44886587D01*
X154034500Y-44928693D01*
X154034500Y-45086807D01*
X154073347Y-45231784D01*
X154075423Y-45239533D01*
X154075426Y-45239540D01*
X154154475Y-45376459D01*
X154154479Y-45376464D01*
X154154480Y-45376466D01*
X154266284Y-45488270D01*
X154266286Y-45488271D01*
X154266290Y-45488274D01*
X154389789Y-45559575D01*
X154403216Y-45567327D01*
X154555943Y-45608250D01*
X154555945Y-45608250D01*
X154714055Y-45608250D01*
X154714057Y-45608250D01*
X154866784Y-45567327D01*
X154998000Y-45491569D01*
X155065901Y-45475097D01*
X155121999Y-45491569D01*
X155253216Y-45567327D01*
X155405943Y-45608250D01*
X155405945Y-45608250D01*
X155564055Y-45608250D01*
X155564057Y-45608250D01*
X155716784Y-45567327D01*
X155848000Y-45491569D01*
X155915901Y-45475097D01*
X155971999Y-45491569D01*
X156103216Y-45567327D01*
X156255943Y-45608250D01*
X156255945Y-45608250D01*
X156414055Y-45608250D01*
X156414057Y-45608250D01*
X156566784Y-45567327D01*
X156698000Y-45491569D01*
X156765901Y-45475097D01*
X156821999Y-45491569D01*
X156953216Y-45567327D01*
X157105943Y-45608250D01*
X157105945Y-45608250D01*
X157264055Y-45608250D01*
X157264057Y-45608250D01*
X157416784Y-45567327D01*
X157548000Y-45491569D01*
X157615901Y-45475097D01*
X157671999Y-45491569D01*
X157803216Y-45567327D01*
X157955943Y-45608250D01*
X157955945Y-45608250D01*
X158114055Y-45608250D01*
X158114057Y-45608250D01*
X158266784Y-45567327D01*
X158403716Y-45488270D01*
X158515520Y-45376466D01*
X158594577Y-45239534D01*
X158635500Y-45086807D01*
X158635500Y-44928693D01*
X158624219Y-44886591D01*
X158625882Y-44816744D01*
X158665045Y-44758881D01*
X158729273Y-44731377D01*
X158743994Y-44730500D01*
X159320500Y-44730500D01*
X159387539Y-44750185D01*
X159433294Y-44802989D01*
X159444500Y-44854500D01*
X159444500Y-58457586D01*
X159424815Y-58524625D01*
X159408721Y-58544724D01*
X155558993Y-62442274D01*
X155558988Y-62442280D01*
X155496939Y-62523401D01*
X155496937Y-62523404D01*
X155496935Y-62523407D01*
X155496931Y-62523413D01*
X155465792Y-62576965D01*
X155465790Y-62576967D01*
X155425984Y-62671008D01*
X155425979Y-62671023D01*
X154230537Y-66921482D01*
X154193437Y-66980689D01*
X154173169Y-66995296D01*
X154131290Y-67019475D01*
X154131282Y-67019481D01*
X154019481Y-67131282D01*
X154019475Y-67131290D01*
X153940426Y-67268209D01*
X153940423Y-67268216D01*
X153899500Y-67420943D01*
X153899500Y-67579057D01*
X153940423Y-67731784D01*
X153956129Y-67758989D01*
X153972599Y-67826888D01*
X153968109Y-67854557D01*
X153889243Y-68134975D01*
X153864276Y-68223747D01*
X153852935Y-68278123D01*
X153849146Y-68305587D01*
X153848304Y-68311694D01*
X153844500Y-68367111D01*
X153844500Y-70547880D01*
X153824815Y-70614919D01*
X153805963Y-70637725D01*
X152984082Y-71419513D01*
X152984051Y-71419545D01*
X152951020Y-71454958D01*
X152951012Y-71454966D01*
X152932151Y-71477782D01*
X152909956Y-71507266D01*
X152855612Y-71621897D01*
X152835926Y-71688939D01*
X152835924Y-71688947D01*
X152819500Y-71803186D01*
X152819500Y-83516614D01*
X152799815Y-83583653D01*
X152747011Y-83629408D01*
X152677853Y-83639352D01*
X152614297Y-83610327D01*
X152607819Y-83604295D01*
X152538017Y-83534493D01*
X152538011Y-83534488D01*
X152412488Y-83462017D01*
X152412489Y-83462017D01*
X152401006Y-83458940D01*
X152272475Y-83424500D01*
X152127525Y-83424500D01*
X151998993Y-83458940D01*
X151987511Y-83462017D01*
X151861988Y-83534488D01*
X151861982Y-83534493D01*
X151759493Y-83636982D01*
X151759488Y-83636988D01*
X151687017Y-83762511D01*
X151687016Y-83762515D01*
X151649500Y-83902525D01*
X151649500Y-84047475D01*
X151687016Y-84187485D01*
X151687017Y-84187488D01*
X151759488Y-84313011D01*
X151759490Y-84313013D01*
X151759491Y-84313015D01*
X151861985Y-84415509D01*
X151861986Y-84415510D01*
X151861988Y-84415511D01*
X151987511Y-84487982D01*
X151987512Y-84487982D01*
X151987515Y-84487984D01*
X152127525Y-84525500D01*
X152127528Y-84525500D01*
X152272472Y-84525500D01*
X152272475Y-84525500D01*
X152412485Y-84487984D01*
X152538015Y-84415509D01*
X152607819Y-84345705D01*
X152669142Y-84312220D01*
X152738834Y-84317204D01*
X152794767Y-84359076D01*
X152819184Y-84424540D01*
X152819500Y-84433386D01*
X152819500Y-84967088D01*
X152819501Y-84967116D01*
X152824130Y-85028197D01*
X152824130Y-85028202D01*
X152829763Y-85065151D01*
X152840262Y-85113774D01*
X152893276Y-85229033D01*
X152932039Y-85287157D01*
X152932048Y-85287168D01*
X153009086Y-85373083D01*
X153009091Y-85373088D01*
X153009095Y-85373092D01*
X153009100Y-85373096D01*
X153009102Y-85373098D01*
X153029901Y-85390511D01*
X154925101Y-86977190D01*
X154963867Y-87035316D01*
X154969500Y-87072266D01*
X154969500Y-101184626D01*
X154952889Y-101246623D01*
X154940424Y-101268213D01*
X154940423Y-101268216D01*
X154899500Y-101420943D01*
X154899500Y-101579057D01*
X154940423Y-101731784D01*
X154952887Y-101753373D01*
X154969500Y-101815372D01*
X154969500Y-102800500D01*
X154949815Y-102867539D01*
X154897011Y-102913294D01*
X154845500Y-102924500D01*
X149692254Y-102924500D01*
X149625215Y-102904815D01*
X149604573Y-102888181D01*
X147586819Y-100870426D01*
X147553334Y-100809103D01*
X147550500Y-100782745D01*
X147550500Y-99422275D01*
X147550500Y-99422273D01*
X147523207Y-99320413D01*
X147523207Y-99320412D01*
X147470480Y-99229087D01*
X147336819Y-99095426D01*
X147303334Y-99034103D01*
X147300500Y-99007745D01*
X147300500Y-98945945D01*
X147300500Y-98945943D01*
X147259577Y-98793216D01*
X147259573Y-98793209D01*
X147180524Y-98656290D01*
X147180518Y-98656282D01*
X147068717Y-98544481D01*
X147068709Y-98544475D01*
X146931790Y-98465426D01*
X146931786Y-98465424D01*
X146931784Y-98465423D01*
X146779057Y-98424500D01*
X146620943Y-98424500D01*
X146468216Y-98465423D01*
X146468209Y-98465426D01*
X146331290Y-98544475D01*
X146331282Y-98544481D01*
X146219481Y-98656282D01*
X146219475Y-98656290D01*
X146140426Y-98793209D01*
X146140423Y-98793216D01*
X146099500Y-98945943D01*
X146099500Y-99104057D01*
X146133003Y-99229090D01*
X146140423Y-99256783D01*
X146140426Y-99256790D01*
X146219475Y-99393709D01*
X146219479Y-99393714D01*
X146219480Y-99393716D01*
X146331284Y-99505520D01*
X146331286Y-99505521D01*
X146331290Y-99505524D01*
X146468209Y-99584573D01*
X146468216Y-99584577D01*
X146620943Y-99625500D01*
X146625500Y-99625500D01*
X146692539Y-99645185D01*
X146738294Y-99697989D01*
X146749500Y-99749500D01*
X146749500Y-101052726D01*
X146776793Y-101154589D01*
X146803156Y-101200250D01*
X146829520Y-101245913D01*
X146829521Y-101245914D01*
X146829522Y-101245915D01*
X149150179Y-103566571D01*
X149150189Y-103566582D01*
X149154519Y-103570912D01*
X149154520Y-103570913D01*
X149229087Y-103645480D01*
X149320413Y-103698207D01*
X149422273Y-103725501D01*
X149422275Y-103725501D01*
X149535323Y-103725501D01*
X149535339Y-103725500D01*
X152127852Y-103725500D01*
X152194891Y-103745185D01*
X152240646Y-103797989D01*
X152250590Y-103867147D01*
X152227118Y-103923812D01*
X152171647Y-103997910D01*
X152171645Y-103997913D01*
X152121403Y-104132620D01*
X152121401Y-104132627D01*
X152115000Y-104192155D01*
X152115000Y-104840000D01*
X153031988Y-104840000D01*
X152999075Y-104897007D01*
X152965000Y-105024174D01*
X152965000Y-105155826D01*
X152999075Y-105282993D01*
X153031988Y-105340000D01*
X152115000Y-105340000D01*
X152115000Y-105987844D01*
X152121401Y-106047372D01*
X152121403Y-106047379D01*
X152171645Y-106182086D01*
X152171649Y-106182093D01*
X152257809Y-106297187D01*
X152257812Y-106297190D01*
X152372906Y-106383350D01*
X152372915Y-106383355D01*
X152474499Y-106421243D01*
X152530433Y-106463114D01*
X152554851Y-106528578D01*
X152540000Y-106596851D01*
X152500058Y-106640527D01*
X152434399Y-106684398D01*
X152379033Y-106767260D01*
X152379032Y-106767264D01*
X152364500Y-106840321D01*
X152364500Y-108589678D01*
X152379032Y-108662735D01*
X152379033Y-108662739D01*
X152379034Y-108662740D01*
X152434399Y-108745601D01*
X152515732Y-108799945D01*
X152517260Y-108800966D01*
X152517264Y-108800967D01*
X152590321Y-108815499D01*
X152590324Y-108815500D01*
X152590326Y-108815500D01*
X154339676Y-108815500D01*
X154339677Y-108815499D01*
X154412740Y-108800966D01*
X154495601Y-108745601D01*
X154550966Y-108662740D01*
X154565500Y-108589674D01*
X154565500Y-106840326D01*
X154565500Y-106840323D01*
X154565499Y-106840321D01*
X154550967Y-106767264D01*
X154550966Y-106767260D01*
X154506358Y-106700499D01*
X154495601Y-106684399D01*
X154495599Y-106684398D01*
X154495599Y-106684397D01*
X154429942Y-106640527D01*
X154385136Y-106586915D01*
X154376429Y-106517590D01*
X154406583Y-106454563D01*
X154455500Y-106421243D01*
X154557084Y-106383355D01*
X154557093Y-106383350D01*
X154672187Y-106297190D01*
X154672190Y-106297187D01*
X154758350Y-106182093D01*
X154758353Y-106182087D01*
X154761011Y-106174962D01*
X154802879Y-106119026D01*
X154868342Y-106094605D01*
X154936616Y-106109454D01*
X154986024Y-106158856D01*
X154995396Y-106180813D01*
X155012688Y-106235355D01*
X155012691Y-106235362D01*
X155079751Y-106343059D01*
X155125498Y-106395854D01*
X155125502Y-106395857D01*
X155125505Y-106395861D01*
X155203077Y-106465042D01*
X155203078Y-106465042D01*
X155203079Y-106465043D01*
X155317712Y-106519388D01*
X155317714Y-106519388D01*
X155317715Y-106519389D01*
X155384754Y-106539074D01*
X155384758Y-106539074D01*
X155384760Y-106539075D01*
X155400550Y-106541345D01*
X155499000Y-106555500D01*
X155499003Y-106555500D01*
X156246835Y-106555500D01*
X156313874Y-106575185D01*
X156359629Y-106627989D01*
X156369573Y-106697147D01*
X156356897Y-106730229D01*
X156358707Y-106730979D01*
X156354032Y-106742264D01*
X156339500Y-106815321D01*
X156339500Y-108564678D01*
X156354032Y-108637735D01*
X156354033Y-108637739D01*
X156370738Y-108662740D01*
X156409399Y-108720601D01*
X156488990Y-108773781D01*
X156492260Y-108775966D01*
X156492264Y-108775967D01*
X156565321Y-108790499D01*
X156565324Y-108790500D01*
X156565326Y-108790500D01*
X158314676Y-108790500D01*
X158314677Y-108790499D01*
X158387740Y-108775966D01*
X158470601Y-108720601D01*
X158525966Y-108637740D01*
X158540500Y-108564674D01*
X158540500Y-106815326D01*
X158540500Y-106815323D01*
X158540499Y-106815321D01*
X158525967Y-106742264D01*
X158525966Y-106742263D01*
X158525966Y-106742260D01*
X158525964Y-106742257D01*
X158521293Y-106730979D01*
X158524229Y-106729762D01*
X158509185Y-106681704D01*
X158527674Y-106614326D01*
X158579657Y-106567639D01*
X158633165Y-106555500D01*
X165575500Y-106555500D01*
X165642539Y-106575185D01*
X165688294Y-106627989D01*
X165699500Y-106679500D01*
X165699500Y-108719797D01*
X165679815Y-108786836D01*
X165627011Y-108832591D01*
X165557853Y-108842535D01*
X165494297Y-108813510D01*
X165463780Y-108773599D01*
X165330247Y-108496316D01*
X165282155Y-108419778D01*
X165150946Y-108210961D01*
X164940825Y-107947477D01*
X164702523Y-107709175D01*
X164439039Y-107499054D01*
X164153686Y-107319754D01*
X164153683Y-107319752D01*
X163850054Y-107173532D01*
X163531965Y-107062227D01*
X163531953Y-107062223D01*
X163203397Y-106987233D01*
X163203381Y-106987231D01*
X162868508Y-106949500D01*
X162868504Y-106949500D01*
X162531496Y-106949500D01*
X162531491Y-106949500D01*
X162196618Y-106987231D01*
X162196602Y-106987233D01*
X161868046Y-107062223D01*
X161868034Y-107062227D01*
X161549945Y-107173532D01*
X161246316Y-107319752D01*
X160960962Y-107499053D01*
X160697477Y-107709174D01*
X160459174Y-107947477D01*
X160249053Y-108210962D01*
X160069752Y-108496316D01*
X159923532Y-108799945D01*
X159812227Y-109118034D01*
X159812223Y-109118046D01*
X159737233Y-109446602D01*
X159737231Y-109446618D01*
X159699500Y-109781491D01*
X159699500Y-110118508D01*
X159737231Y-110453381D01*
X159737233Y-110453397D01*
X159812223Y-110781953D01*
X159812227Y-110781965D01*
X159923532Y-111100054D01*
X160069752Y-111403683D01*
X160083754Y-111425967D01*
X160249054Y-111689039D01*
X160393844Y-111870600D01*
X160437996Y-111925966D01*
X160459175Y-111952523D01*
X160697477Y-112190825D01*
X160960961Y-112400946D01*
X161132030Y-112508436D01*
X161246316Y-112580247D01*
X161523599Y-112713780D01*
X161575458Y-112760602D01*
X161593771Y-112828030D01*
X161572723Y-112894653D01*
X161518997Y-112939322D01*
X161469797Y-112949500D01*
X128930203Y-112949500D01*
X128863164Y-112929815D01*
X128817409Y-112877011D01*
X128807465Y-112807853D01*
X128836490Y-112744297D01*
X128876401Y-112713780D01*
X129023025Y-112643169D01*
X129153686Y-112580246D01*
X129439039Y-112400946D01*
X129702523Y-112190825D01*
X129940825Y-111952523D01*
X130150946Y-111689039D01*
X130330246Y-111403686D01*
X130476469Y-111100051D01*
X130587776Y-110781954D01*
X130662767Y-110453394D01*
X130700500Y-110118504D01*
X130700500Y-109965321D01*
X135799500Y-109965321D01*
X135799500Y-111714678D01*
X135814032Y-111787735D01*
X135814033Y-111787739D01*
X135814034Y-111787740D01*
X135869399Y-111870601D01*
X135911513Y-111898740D01*
X135952260Y-111925966D01*
X135952264Y-111925967D01*
X136025321Y-111940499D01*
X136025324Y-111940500D01*
X136025326Y-111940500D01*
X137774676Y-111940500D01*
X137774677Y-111940499D01*
X137847740Y-111925966D01*
X137930601Y-111870601D01*
X137985966Y-111787740D01*
X138000500Y-111714674D01*
X138000500Y-109965326D01*
X138000500Y-109965323D01*
X138000499Y-109965321D01*
X137985967Y-109892264D01*
X137985966Y-109892260D01*
X137980518Y-109884107D01*
X137930601Y-109809399D01*
X137847740Y-109754034D01*
X137847739Y-109754033D01*
X137847735Y-109754032D01*
X137774677Y-109739500D01*
X137774674Y-109739500D01*
X136025326Y-109739500D01*
X136025323Y-109739500D01*
X135952264Y-109754032D01*
X135952260Y-109754033D01*
X135869399Y-109809399D01*
X135814033Y-109892260D01*
X135814032Y-109892264D01*
X135799500Y-109965321D01*
X130700500Y-109965321D01*
X130700500Y-109781496D01*
X130662767Y-109446606D01*
X130587776Y-109118046D01*
X130476469Y-108799949D01*
X130330246Y-108496314D01*
X130242794Y-108357135D01*
X140349500Y-108357135D01*
X140349500Y-109902870D01*
X140349501Y-109902876D01*
X140355908Y-109962483D01*
X140406202Y-110097328D01*
X140406206Y-110097335D01*
X140492452Y-110212544D01*
X140492455Y-110212547D01*
X140607664Y-110298793D01*
X140607671Y-110298797D01*
X140742517Y-110349091D01*
X140742516Y-110349091D01*
X140749444Y-110349835D01*
X140802127Y-110355500D01*
X142097872Y-110355499D01*
X142157483Y-110349091D01*
X142292331Y-110298796D01*
X142407546Y-110212546D01*
X142493796Y-110097331D01*
X142544091Y-109962483D01*
X142550500Y-109902873D01*
X142550499Y-108918389D01*
X142849500Y-108918389D01*
X142849500Y-109341610D01*
X142869094Y-109465326D01*
X142876598Y-109512701D01*
X142930127Y-109677445D01*
X143008768Y-109831788D01*
X143110586Y-109971928D01*
X143233072Y-110094414D01*
X143373212Y-110196232D01*
X143527555Y-110274873D01*
X143692299Y-110328402D01*
X143863389Y-110355500D01*
X143863390Y-110355500D01*
X144036610Y-110355500D01*
X144036611Y-110355500D01*
X144207701Y-110328402D01*
X144372445Y-110274873D01*
X144526788Y-110196232D01*
X144666928Y-110094414D01*
X144789414Y-109971928D01*
X144891232Y-109831788D01*
X144954814Y-109706999D01*
X145002788Y-109656204D01*
X145070609Y-109639408D01*
X145136744Y-109661945D01*
X145180196Y-109716660D01*
X145183230Y-109724976D01*
X145198904Y-109773217D01*
X145295379Y-109962557D01*
X145420272Y-110134459D01*
X145420276Y-110134464D01*
X145570535Y-110284723D01*
X145570540Y-110284727D01*
X145742442Y-110409620D01*
X145931782Y-110506095D01*
X146133871Y-110571757D01*
X146200000Y-110582231D01*
X146200000Y-109534145D01*
X146266657Y-109572630D01*
X146387465Y-109605000D01*
X146512535Y-109605000D01*
X146633343Y-109572630D01*
X146700000Y-109534145D01*
X146700000Y-110582230D01*
X146766126Y-110571757D01*
X146766129Y-110571757D01*
X146968217Y-110506095D01*
X147157557Y-110409620D01*
X147329459Y-110284727D01*
X147329464Y-110284723D01*
X147479723Y-110134464D01*
X147479727Y-110134459D01*
X147604620Y-109962557D01*
X147701094Y-109773219D01*
X147716768Y-109724978D01*
X147756205Y-109667302D01*
X147820563Y-109640103D01*
X147889409Y-109652016D01*
X147940886Y-109699259D01*
X147945185Y-109706999D01*
X147983143Y-109781496D01*
X148008768Y-109831788D01*
X148110586Y-109971928D01*
X148233072Y-110094414D01*
X148373212Y-110196232D01*
X148527555Y-110274873D01*
X148692299Y-110328402D01*
X148863389Y-110355500D01*
X148863390Y-110355500D01*
X149036610Y-110355500D01*
X149036611Y-110355500D01*
X149207701Y-110328402D01*
X149372445Y-110274873D01*
X149526788Y-110196232D01*
X149666928Y-110094414D01*
X149789414Y-109971928D01*
X149891232Y-109831788D01*
X149969873Y-109677445D01*
X150023402Y-109512701D01*
X150030906Y-109465321D01*
X152364500Y-109465321D01*
X152364500Y-111214678D01*
X152379032Y-111287735D01*
X152379033Y-111287739D01*
X152379034Y-111287740D01*
X152434399Y-111370601D01*
X152517260Y-111425966D01*
X152517264Y-111425967D01*
X152590321Y-111440499D01*
X152590324Y-111440500D01*
X152590326Y-111440500D01*
X154339676Y-111440500D01*
X154339677Y-111440499D01*
X154412740Y-111425966D01*
X154495601Y-111370601D01*
X154550966Y-111287740D01*
X154565500Y-111214674D01*
X154565500Y-109465326D01*
X154565500Y-109465323D01*
X154565499Y-109465321D01*
X154564128Y-109458425D01*
X154560527Y-109440321D01*
X156339500Y-109440321D01*
X156339500Y-111189678D01*
X156354032Y-111262735D01*
X156354033Y-111262739D01*
X156370738Y-111287740D01*
X156409399Y-111345601D01*
X156492260Y-111400966D01*
X156492264Y-111400967D01*
X156565321Y-111415499D01*
X156565324Y-111415500D01*
X156565326Y-111415500D01*
X158314676Y-111415500D01*
X158314677Y-111415499D01*
X158387740Y-111400966D01*
X158470601Y-111345601D01*
X158525966Y-111262740D01*
X158540500Y-111189674D01*
X158540500Y-109440326D01*
X158540500Y-109440323D01*
X158540499Y-109440321D01*
X158525967Y-109367264D01*
X158525966Y-109367260D01*
X158508828Y-109341611D01*
X158470601Y-109284399D01*
X158387740Y-109229034D01*
X158387739Y-109229033D01*
X158387735Y-109229032D01*
X158314677Y-109214500D01*
X158314674Y-109214500D01*
X156565326Y-109214500D01*
X156565323Y-109214500D01*
X156492264Y-109229032D01*
X156492260Y-109229033D01*
X156409399Y-109284399D01*
X156354033Y-109367260D01*
X156354032Y-109367264D01*
X156339500Y-109440321D01*
X154560527Y-109440321D01*
X154550967Y-109392264D01*
X154550966Y-109392260D01*
X154534262Y-109367260D01*
X154495601Y-109309399D01*
X154412740Y-109254034D01*
X154412739Y-109254033D01*
X154412735Y-109254032D01*
X154339677Y-109239500D01*
X154339674Y-109239500D01*
X152590326Y-109239500D01*
X152590323Y-109239500D01*
X152517264Y-109254032D01*
X152517260Y-109254033D01*
X152434399Y-109309399D01*
X152379033Y-109392260D01*
X152379032Y-109392264D01*
X152364500Y-109465321D01*
X150030906Y-109465321D01*
X150031109Y-109464040D01*
X150034943Y-109439836D01*
X150034943Y-109439835D01*
X150050500Y-109341611D01*
X150050500Y-108918389D01*
X150029664Y-108786836D01*
X150023402Y-108747299D01*
X149969873Y-108582555D01*
X149891232Y-108428212D01*
X149789414Y-108288072D01*
X149666928Y-108165586D01*
X149526788Y-108063768D01*
X149372445Y-107985127D01*
X149207701Y-107931598D01*
X149207699Y-107931597D01*
X149207698Y-107931597D01*
X149076271Y-107910781D01*
X149036611Y-107904500D01*
X148863389Y-107904500D01*
X148823728Y-107910781D01*
X148692302Y-107931597D01*
X148527552Y-107985128D01*
X148373211Y-108063768D01*
X148293256Y-108121859D01*
X148233072Y-108165586D01*
X148233070Y-108165588D01*
X148233069Y-108165588D01*
X148110588Y-108288069D01*
X148110588Y-108288070D01*
X148110586Y-108288072D01*
X148103725Y-108297516D01*
X148008768Y-108428211D01*
X147945185Y-108553000D01*
X147897210Y-108603796D01*
X147829389Y-108620591D01*
X147763254Y-108598053D01*
X147719803Y-108543338D01*
X147716768Y-108535022D01*
X147701093Y-108486778D01*
X147604620Y-108297442D01*
X147479727Y-108125540D01*
X147479723Y-108125535D01*
X147329464Y-107975276D01*
X147329459Y-107975272D01*
X147157557Y-107850379D01*
X146968215Y-107753903D01*
X146766124Y-107688241D01*
X146700000Y-107677768D01*
X146700000Y-108725854D01*
X146633343Y-108687370D01*
X146512535Y-108655000D01*
X146387465Y-108655000D01*
X146266657Y-108687370D01*
X146200000Y-108725854D01*
X146200000Y-107677768D01*
X146199999Y-107677768D01*
X146133875Y-107688241D01*
X145931784Y-107753903D01*
X145742442Y-107850379D01*
X145570540Y-107975272D01*
X145570535Y-107975276D01*
X145420276Y-108125535D01*
X145420272Y-108125540D01*
X145295379Y-108297442D01*
X145198905Y-108486781D01*
X145183230Y-108535024D01*
X145143792Y-108592699D01*
X145079433Y-108619897D01*
X145010587Y-108607982D01*
X144959111Y-108560738D01*
X144954814Y-108552999D01*
X144891233Y-108428213D01*
X144839591Y-108357135D01*
X144789414Y-108288072D01*
X144666928Y-108165586D01*
X144526788Y-108063768D01*
X144372445Y-107985127D01*
X144207701Y-107931598D01*
X144207699Y-107931597D01*
X144207698Y-107931597D01*
X144076271Y-107910781D01*
X144036611Y-107904500D01*
X143863389Y-107904500D01*
X143823728Y-107910781D01*
X143692302Y-107931597D01*
X143527552Y-107985128D01*
X143373211Y-108063768D01*
X143293256Y-108121859D01*
X143233072Y-108165586D01*
X143233070Y-108165588D01*
X143233069Y-108165588D01*
X143110588Y-108288069D01*
X143110588Y-108288070D01*
X143110586Y-108288072D01*
X143103725Y-108297516D01*
X143008768Y-108428211D01*
X142930128Y-108582552D01*
X142876597Y-108747302D01*
X142849500Y-108918389D01*
X142550499Y-108918389D01*
X142550499Y-108357128D01*
X142544091Y-108297517D01*
X142540568Y-108288072D01*
X142493797Y-108162671D01*
X142493793Y-108162664D01*
X142407547Y-108047455D01*
X142407544Y-108047452D01*
X142292335Y-107961206D01*
X142292328Y-107961202D01*
X142157482Y-107910908D01*
X142157483Y-107910908D01*
X142097883Y-107904501D01*
X142097881Y-107904500D01*
X142097873Y-107904500D01*
X142097864Y-107904500D01*
X140802129Y-107904500D01*
X140802123Y-107904501D01*
X140742516Y-107910908D01*
X140607671Y-107961202D01*
X140607664Y-107961206D01*
X140492455Y-108047452D01*
X140492452Y-108047455D01*
X140406206Y-108162664D01*
X140406202Y-108162671D01*
X140355908Y-108297517D01*
X140349501Y-108357116D01*
X140349501Y-108357123D01*
X140349500Y-108357135D01*
X130242794Y-108357135D01*
X130150946Y-108210961D01*
X129940825Y-107947477D01*
X129702523Y-107709175D01*
X129439039Y-107499054D01*
X129153686Y-107319754D01*
X129153683Y-107319752D01*
X128850054Y-107173532D01*
X128531965Y-107062227D01*
X128531953Y-107062223D01*
X128203397Y-106987233D01*
X128203381Y-106987231D01*
X127868508Y-106949500D01*
X127868504Y-106949500D01*
X127531496Y-106949500D01*
X127531491Y-106949500D01*
X127196618Y-106987231D01*
X127196602Y-106987233D01*
X126868046Y-107062223D01*
X126868034Y-107062227D01*
X126549945Y-107173532D01*
X126246316Y-107319752D01*
X125960962Y-107499053D01*
X125697477Y-107709174D01*
X125459174Y-107947477D01*
X125249053Y-108210962D01*
X125069752Y-108496316D01*
X124936132Y-108773781D01*
X124889309Y-108825640D01*
X124821882Y-108843953D01*
X124755258Y-108822905D01*
X124710590Y-108769179D01*
X124700412Y-108719979D01*
X124700413Y-108543338D01*
X124700417Y-104725321D01*
X135799500Y-104725321D01*
X135799500Y-106474678D01*
X135814032Y-106547735D01*
X135814033Y-106547739D01*
X135814034Y-106547740D01*
X135869399Y-106630601D01*
X135942583Y-106679500D01*
X135952260Y-106685966D01*
X135952264Y-106685967D01*
X136025321Y-106700499D01*
X136025324Y-106700500D01*
X136025326Y-106700500D01*
X137774676Y-106700500D01*
X137774677Y-106700499D01*
X137847740Y-106685966D01*
X137930601Y-106630601D01*
X137985966Y-106547740D01*
X138000500Y-106474674D01*
X138000500Y-104725326D01*
X138000500Y-104725323D01*
X138000499Y-104725321D01*
X137985967Y-104652264D01*
X137985966Y-104652260D01*
X137930601Y-104569399D01*
X137847740Y-104514034D01*
X137847739Y-104514033D01*
X137847735Y-104514032D01*
X137774677Y-104499500D01*
X137774674Y-104499500D01*
X136025326Y-104499500D01*
X136025323Y-104499500D01*
X135952264Y-104514032D01*
X135952260Y-104514033D01*
X135869399Y-104569399D01*
X135814033Y-104652260D01*
X135814032Y-104652264D01*
X135799500Y-104725321D01*
X124700417Y-104725321D01*
X124700426Y-97092686D01*
X124700432Y-92658443D01*
X134112000Y-92658443D01*
X134112000Y-92816556D01*
X134152923Y-92969283D01*
X134152926Y-92969290D01*
X134231975Y-93106209D01*
X134231979Y-93106214D01*
X134231980Y-93106216D01*
X134343784Y-93218020D01*
X134343786Y-93218021D01*
X134343790Y-93218024D01*
X134480709Y-93297073D01*
X134480716Y-93297077D01*
X134633443Y-93338000D01*
X134633445Y-93338000D01*
X134791555Y-93338000D01*
X134791557Y-93338000D01*
X134944284Y-93297077D01*
X135081216Y-93218020D01*
X135193020Y-93106216D01*
X135272077Y-92969284D01*
X135313000Y-92816557D01*
X135313000Y-92658443D01*
X135272077Y-92505716D01*
X135272073Y-92505709D01*
X135193024Y-92368790D01*
X135193018Y-92368782D01*
X135081217Y-92256981D01*
X135081209Y-92256975D01*
X134944290Y-92177926D01*
X134944286Y-92177924D01*
X134944284Y-92177923D01*
X134791557Y-92137000D01*
X134633443Y-92137000D01*
X134480716Y-92177923D01*
X134480709Y-92177926D01*
X134343790Y-92256975D01*
X134343782Y-92256981D01*
X134231981Y-92368782D01*
X134231975Y-92368790D01*
X134152926Y-92505709D01*
X134152923Y-92505716D01*
X134112000Y-92658443D01*
X124700432Y-92658443D01*
X124700432Y-92650316D01*
X124700433Y-91695943D01*
X131774500Y-91695943D01*
X131774500Y-91854056D01*
X131815423Y-92006783D01*
X131815426Y-92006790D01*
X131894475Y-92143709D01*
X131894479Y-92143714D01*
X131894480Y-92143716D01*
X132006284Y-92255520D01*
X132006286Y-92255521D01*
X132006290Y-92255524D01*
X132143209Y-92334573D01*
X132143216Y-92334577D01*
X132295943Y-92375500D01*
X132295945Y-92375500D01*
X132454055Y-92375500D01*
X132454057Y-92375500D01*
X132606784Y-92334577D01*
X132743716Y-92255520D01*
X132855520Y-92143716D01*
X132934577Y-92006784D01*
X132975500Y-91854057D01*
X132975500Y-91695943D01*
X132934577Y-91543216D01*
X132881048Y-91450500D01*
X132855524Y-91406290D01*
X132855518Y-91406282D01*
X132743717Y-91294481D01*
X132743709Y-91294475D01*
X132606790Y-91215426D01*
X132606786Y-91215424D01*
X132606784Y-91215423D01*
X132454057Y-91174500D01*
X132295943Y-91174500D01*
X132143216Y-91215423D01*
X132143209Y-91215426D01*
X132006290Y-91294475D01*
X132006282Y-91294481D01*
X131894481Y-91406282D01*
X131894475Y-91406290D01*
X131815426Y-91543209D01*
X131815423Y-91543216D01*
X131774500Y-91695943D01*
X124700433Y-91695943D01*
X124700433Y-91687816D01*
X124700433Y-91330518D01*
X124700434Y-90770943D01*
X134149500Y-90770943D01*
X134149500Y-90929056D01*
X134190423Y-91081783D01*
X134190426Y-91081790D01*
X134269475Y-91218709D01*
X134269479Y-91218714D01*
X134269480Y-91218716D01*
X134381284Y-91330520D01*
X134381286Y-91330521D01*
X134381290Y-91330524D01*
X134512509Y-91406282D01*
X134518216Y-91409577D01*
X134670943Y-91450500D01*
X134670945Y-91450500D01*
X134829055Y-91450500D01*
X134829057Y-91450500D01*
X134981784Y-91409577D01*
X135118716Y-91330520D01*
X135230520Y-91218716D01*
X135309577Y-91081784D01*
X135350500Y-90929057D01*
X135350500Y-90770943D01*
X135309577Y-90618216D01*
X135309573Y-90618209D01*
X135230524Y-90481290D01*
X135230518Y-90481282D01*
X135118717Y-90369481D01*
X135118709Y-90369475D01*
X134981790Y-90290426D01*
X134981786Y-90290424D01*
X134981784Y-90290423D01*
X134829057Y-90249500D01*
X134670943Y-90249500D01*
X134518216Y-90290423D01*
X134518209Y-90290426D01*
X134381290Y-90369475D01*
X134381282Y-90369481D01*
X134269481Y-90481282D01*
X134269475Y-90481290D01*
X134190426Y-90618209D01*
X134190423Y-90618216D01*
X134149500Y-90770943D01*
X124700434Y-90770943D01*
X124700436Y-88845943D01*
X146174500Y-88845943D01*
X146174500Y-89004056D01*
X146215423Y-89156783D01*
X146215426Y-89156790D01*
X146294475Y-89293709D01*
X146294479Y-89293714D01*
X146294480Y-89293716D01*
X146406284Y-89405520D01*
X146406286Y-89405521D01*
X146406290Y-89405524D01*
X146499102Y-89459108D01*
X146543216Y-89484577D01*
X146625250Y-89506557D01*
X146639136Y-89514574D01*
X146652583Y-89517500D01*
X146680837Y-89538651D01*
X146838181Y-89695995D01*
X146871666Y-89757318D01*
X146874500Y-89783676D01*
X146874500Y-94257664D01*
X146857888Y-94319663D01*
X146815423Y-94393215D01*
X146815423Y-94393216D01*
X146774500Y-94545943D01*
X146774500Y-94704056D01*
X146815423Y-94856783D01*
X146815424Y-94856786D01*
X146857887Y-94930334D01*
X146874500Y-94992334D01*
X146874500Y-97365891D01*
X146908608Y-97493187D01*
X146941554Y-97550250D01*
X146974500Y-97607314D01*
X146974501Y-97607315D01*
X146974502Y-97607316D01*
X147886347Y-98519160D01*
X147918440Y-98574745D01*
X147940288Y-98656282D01*
X147940424Y-98656786D01*
X147940426Y-98656790D01*
X148019475Y-98793709D01*
X148019479Y-98793714D01*
X148019480Y-98793716D01*
X148131284Y-98905520D01*
X148131286Y-98905521D01*
X148131290Y-98905524D01*
X148268209Y-98984573D01*
X148268216Y-98984577D01*
X148420943Y-99025500D01*
X148420945Y-99025500D01*
X148579055Y-99025500D01*
X148579057Y-99025500D01*
X148731784Y-98984577D01*
X148868716Y-98905520D01*
X148980520Y-98793716D01*
X149059577Y-98656784D01*
X149100500Y-98504057D01*
X149100500Y-98345943D01*
X149059577Y-98193216D01*
X149059573Y-98193209D01*
X148980524Y-98056290D01*
X148980518Y-98056282D01*
X148868717Y-97944481D01*
X148868709Y-97944475D01*
X148731790Y-97865426D01*
X148731786Y-97865424D01*
X148731785Y-97865423D01*
X148731784Y-97865423D01*
X148649745Y-97843440D01*
X148594160Y-97811347D01*
X147911819Y-97129005D01*
X147878334Y-97067682D01*
X147875500Y-97041324D01*
X147875500Y-94992334D01*
X147892113Y-94930334D01*
X147934577Y-94856784D01*
X147975500Y-94704057D01*
X147975500Y-94545943D01*
X147934577Y-94393216D01*
X147892112Y-94319663D01*
X147875500Y-94257664D01*
X147875500Y-89459110D01*
X147875500Y-89459108D01*
X147841392Y-89331814D01*
X147775500Y-89217686D01*
X147682314Y-89124500D01*
X147388651Y-88830837D01*
X147356557Y-88775250D01*
X147334577Y-88693216D01*
X147334573Y-88693209D01*
X147255524Y-88556290D01*
X147255518Y-88556282D01*
X147143717Y-88444481D01*
X147143709Y-88444475D01*
X147006790Y-88365426D01*
X147006786Y-88365424D01*
X147006784Y-88365423D01*
X146854057Y-88324500D01*
X146695943Y-88324500D01*
X146543216Y-88365423D01*
X146543209Y-88365426D01*
X146406290Y-88444475D01*
X146406282Y-88444481D01*
X146294481Y-88556282D01*
X146294475Y-88556290D01*
X146215426Y-88693209D01*
X146215423Y-88693216D01*
X146174500Y-88845943D01*
X124700436Y-88845943D01*
X124700439Y-86424234D01*
X139974500Y-86424234D01*
X139974500Y-86575766D01*
X139978427Y-86590423D01*
X140013719Y-86722136D01*
X140020640Y-86734123D01*
X140089485Y-86853365D01*
X140196635Y-86960515D01*
X140289899Y-87014361D01*
X140326193Y-87035316D01*
X140327865Y-87036281D01*
X140474234Y-87075500D01*
X140474236Y-87075500D01*
X140625764Y-87075500D01*
X140625766Y-87075500D01*
X140736076Y-87045943D01*
X142174500Y-87045943D01*
X142174500Y-87204057D01*
X142181199Y-87229056D01*
X142215423Y-87356783D01*
X142215426Y-87356790D01*
X142294475Y-87493709D01*
X142294479Y-87493714D01*
X142294480Y-87493716D01*
X142406284Y-87605520D01*
X142406286Y-87605521D01*
X142406290Y-87605524D01*
X142543209Y-87684573D01*
X142543216Y-87684577D01*
X142695943Y-87725500D01*
X142695945Y-87725500D01*
X142854055Y-87725500D01*
X142854057Y-87725500D01*
X143006784Y-87684577D01*
X143143716Y-87605520D01*
X143255520Y-87493716D01*
X143334577Y-87356784D01*
X143375500Y-87204057D01*
X143375500Y-87070943D01*
X143899500Y-87070943D01*
X143899500Y-87229057D01*
X143935395Y-87363017D01*
X143940423Y-87381783D01*
X143940426Y-87381790D01*
X144019475Y-87518709D01*
X144019479Y-87518714D01*
X144019480Y-87518716D01*
X144131284Y-87630520D01*
X144131286Y-87630521D01*
X144131290Y-87630524D01*
X144224914Y-87684577D01*
X144268216Y-87709577D01*
X144420943Y-87750500D01*
X144420945Y-87750500D01*
X144579055Y-87750500D01*
X144579057Y-87750500D01*
X144731784Y-87709577D01*
X144868716Y-87630520D01*
X144980520Y-87518716D01*
X145059577Y-87381784D01*
X145100500Y-87229057D01*
X145100500Y-87070943D01*
X145059577Y-86918216D01*
X145058012Y-86915506D01*
X144980524Y-86781290D01*
X144980518Y-86781282D01*
X144868717Y-86669481D01*
X144868709Y-86669475D01*
X144731790Y-86590426D01*
X144731786Y-86590424D01*
X144731784Y-86590423D01*
X144579057Y-86549500D01*
X144420943Y-86549500D01*
X144268216Y-86590423D01*
X144268209Y-86590426D01*
X144131290Y-86669475D01*
X144131282Y-86669481D01*
X144019481Y-86781282D01*
X144019475Y-86781290D01*
X143940426Y-86918209D01*
X143940423Y-86918216D01*
X143899500Y-87070943D01*
X143375500Y-87070943D01*
X143375500Y-87045943D01*
X143334577Y-86893216D01*
X143334573Y-86893209D01*
X143255524Y-86756290D01*
X143255518Y-86756282D01*
X143143717Y-86644481D01*
X143143709Y-86644475D01*
X143006790Y-86565426D01*
X143006786Y-86565424D01*
X143006784Y-86565423D01*
X142854057Y-86524500D01*
X142695943Y-86524500D01*
X142543216Y-86565423D01*
X142543209Y-86565426D01*
X142406290Y-86644475D01*
X142406282Y-86644481D01*
X142294481Y-86756282D01*
X142294475Y-86756290D01*
X142215426Y-86893209D01*
X142215423Y-86893216D01*
X142174500Y-87045943D01*
X140736076Y-87045943D01*
X140772135Y-87036281D01*
X140903365Y-86960515D01*
X141010515Y-86853365D01*
X141086281Y-86722135D01*
X141125500Y-86575766D01*
X141125500Y-86424234D01*
X141119683Y-86402525D01*
X149174500Y-86402525D01*
X149174500Y-86547475D01*
X149208607Y-86674761D01*
X149212017Y-86687488D01*
X149284488Y-86813011D01*
X149284490Y-86813013D01*
X149284491Y-86813015D01*
X149386985Y-86915509D01*
X149386986Y-86915510D01*
X149386988Y-86915511D01*
X149512511Y-86987982D01*
X149512512Y-86987982D01*
X149512515Y-86987984D01*
X149652525Y-87025500D01*
X149652528Y-87025500D01*
X149797472Y-87025500D01*
X149797475Y-87025500D01*
X149937485Y-86987984D01*
X149998902Y-86952525D01*
X150949500Y-86952525D01*
X150949500Y-87097475D01*
X150984758Y-87229057D01*
X150987017Y-87237488D01*
X151059488Y-87363011D01*
X151059490Y-87363013D01*
X151059491Y-87363015D01*
X151161985Y-87465509D01*
X151161986Y-87465510D01*
X151161988Y-87465511D01*
X151287511Y-87537982D01*
X151287512Y-87537982D01*
X151287515Y-87537984D01*
X151427525Y-87575500D01*
X151427528Y-87575500D01*
X151572472Y-87575500D01*
X151572475Y-87575500D01*
X151712485Y-87537984D01*
X151838015Y-87465509D01*
X151940509Y-87363015D01*
X152012984Y-87237485D01*
X152050500Y-87097475D01*
X152050500Y-86952525D01*
X152012984Y-86812515D01*
X151980522Y-86756290D01*
X151940511Y-86686988D01*
X151940506Y-86686982D01*
X151838017Y-86584493D01*
X151838011Y-86584488D01*
X151712488Y-86512017D01*
X151712489Y-86512017D01*
X151677389Y-86502612D01*
X151572475Y-86474500D01*
X151427525Y-86474500D01*
X151322611Y-86502612D01*
X151287511Y-86512017D01*
X151161988Y-86584488D01*
X151161982Y-86584493D01*
X151059493Y-86686982D01*
X151059488Y-86686988D01*
X150987017Y-86812511D01*
X150987016Y-86812515D01*
X150949500Y-86952525D01*
X149998902Y-86952525D01*
X150063015Y-86915509D01*
X150165509Y-86813015D01*
X150237984Y-86687485D01*
X150275500Y-86547475D01*
X150275500Y-86402525D01*
X150237984Y-86262515D01*
X150229525Y-86247864D01*
X150165511Y-86136988D01*
X150165506Y-86136982D01*
X150063017Y-86034493D01*
X150063011Y-86034488D01*
X149937488Y-85962017D01*
X149937489Y-85962017D01*
X149893570Y-85950249D01*
X149797475Y-85924500D01*
X149652525Y-85924500D01*
X149556430Y-85950249D01*
X149512511Y-85962017D01*
X149386988Y-86034488D01*
X149386982Y-86034493D01*
X149284493Y-86136982D01*
X149284488Y-86136988D01*
X149212017Y-86262511D01*
X149212016Y-86262515D01*
X149174500Y-86402525D01*
X141119683Y-86402525D01*
X141086281Y-86277865D01*
X141064860Y-86240763D01*
X141060857Y-86228583D01*
X141060134Y-86205963D01*
X141054798Y-86183969D01*
X141059040Y-86171711D01*
X141058626Y-86158749D01*
X141070248Y-86139327D01*
X141077650Y-86117941D01*
X141087844Y-86109923D01*
X141094504Y-86098795D01*
X141114779Y-86088740D01*
X141132570Y-86074750D01*
X141145481Y-86073516D01*
X141157101Y-86067755D01*
X141179593Y-86070258D01*
X141202123Y-86068107D01*
X141210733Y-86070087D01*
X141324234Y-86100500D01*
X141324236Y-86100500D01*
X141475764Y-86100500D01*
X141475766Y-86100500D01*
X141622135Y-86061281D01*
X141753365Y-85985515D01*
X141860515Y-85878365D01*
X141936281Y-85747135D01*
X141975500Y-85600766D01*
X141975500Y-85449234D01*
X141936281Y-85302865D01*
X141860515Y-85171635D01*
X141753365Y-85064485D01*
X141680597Y-85022472D01*
X141622136Y-84988719D01*
X141548950Y-84969109D01*
X141475766Y-84949500D01*
X141324234Y-84949500D01*
X141177863Y-84988719D01*
X141046635Y-85064485D01*
X141046632Y-85064487D01*
X140939487Y-85171632D01*
X140939485Y-85171635D01*
X140863719Y-85302863D01*
X140824500Y-85449234D01*
X140824500Y-85600765D01*
X140863719Y-85747136D01*
X140878728Y-85773131D01*
X140895201Y-85841031D01*
X140872349Y-85907059D01*
X140817428Y-85950249D01*
X140747874Y-85956891D01*
X140739248Y-85954907D01*
X140719278Y-85949556D01*
X140625766Y-85924500D01*
X140474234Y-85924500D01*
X140327863Y-85963719D01*
X140196635Y-86039485D01*
X140196632Y-86039487D01*
X140089487Y-86146632D01*
X140089485Y-86146635D01*
X140013719Y-86277863D01*
X140002158Y-86321010D01*
X139974500Y-86424234D01*
X124700439Y-86424234D01*
X124700441Y-84877525D01*
X139538852Y-84877525D01*
X139538852Y-85022475D01*
X139563316Y-85113774D01*
X139576369Y-85162488D01*
X139648840Y-85288011D01*
X139648842Y-85288013D01*
X139648843Y-85288015D01*
X139751337Y-85390509D01*
X139751338Y-85390510D01*
X139751340Y-85390511D01*
X139876863Y-85462982D01*
X139876864Y-85462982D01*
X139876867Y-85462984D01*
X140016877Y-85500500D01*
X140016880Y-85500500D01*
X140161824Y-85500500D01*
X140161827Y-85500500D01*
X140301837Y-85462984D01*
X140427367Y-85390509D01*
X140529861Y-85288015D01*
X140602336Y-85162485D01*
X140639852Y-85022475D01*
X140639852Y-84877525D01*
X140602336Y-84737515D01*
X140599002Y-84731741D01*
X140529863Y-84611988D01*
X140529858Y-84611982D01*
X140427369Y-84509493D01*
X140427363Y-84509488D01*
X140301840Y-84437017D01*
X140301841Y-84437017D01*
X140255276Y-84424540D01*
X140161827Y-84399500D01*
X140016877Y-84399500D01*
X139923428Y-84424540D01*
X139876863Y-84437017D01*
X139751340Y-84509488D01*
X139751334Y-84509493D01*
X139648845Y-84611982D01*
X139648840Y-84611988D01*
X139576369Y-84737511D01*
X139576368Y-84737515D01*
X139538852Y-84877525D01*
X124700441Y-84877525D01*
X124700442Y-83835741D01*
X142514298Y-83835741D01*
X142514298Y-83993855D01*
X142555221Y-84146580D01*
X142555221Y-84146581D01*
X142555224Y-84146588D01*
X142634273Y-84283507D01*
X142634277Y-84283512D01*
X142634278Y-84283514D01*
X142746082Y-84395318D01*
X142746084Y-84395319D01*
X142746088Y-84395322D01*
X142818307Y-84437017D01*
X142883014Y-84474375D01*
X143035741Y-84515298D01*
X143035743Y-84515298D01*
X143193853Y-84515298D01*
X143193855Y-84515298D01*
X143346582Y-84474375D01*
X143483514Y-84395318D01*
X143595318Y-84283514D01*
X143674375Y-84146582D01*
X143685407Y-84105406D01*
X143721771Y-84045747D01*
X143784618Y-84015217D01*
X143853994Y-84023511D01*
X143867178Y-84030110D01*
X143918216Y-84059577D01*
X144070943Y-84100500D01*
X144070945Y-84100500D01*
X144229055Y-84100500D01*
X144229057Y-84100500D01*
X144381784Y-84059577D01*
X144518716Y-83980520D01*
X144630520Y-83868716D01*
X144709577Y-83731784D01*
X144750500Y-83579057D01*
X144750500Y-83420943D01*
X144709577Y-83268216D01*
X144709573Y-83268209D01*
X144630524Y-83131290D01*
X144630518Y-83131282D01*
X144518717Y-83019481D01*
X144518709Y-83019475D01*
X144381790Y-82940426D01*
X144381786Y-82940424D01*
X144381784Y-82940423D01*
X144229057Y-82899500D01*
X144070943Y-82899500D01*
X143918216Y-82940423D01*
X143918209Y-82940426D01*
X143781290Y-83019475D01*
X143781282Y-83019481D01*
X143669481Y-83131282D01*
X143669475Y-83131290D01*
X143590426Y-83268209D01*
X143590421Y-83268220D01*
X143579389Y-83309392D01*
X143543024Y-83369052D01*
X143480176Y-83399580D01*
X143410801Y-83391285D01*
X143397616Y-83384685D01*
X143346582Y-83355221D01*
X143193855Y-83314298D01*
X143035741Y-83314298D01*
X142883014Y-83355221D01*
X142883007Y-83355224D01*
X142746088Y-83434273D01*
X142746080Y-83434279D01*
X142634279Y-83546080D01*
X142634273Y-83546088D01*
X142555224Y-83683007D01*
X142555221Y-83683014D01*
X142514298Y-83835741D01*
X124700442Y-83835741D01*
X124700446Y-81070943D01*
X138449500Y-81070943D01*
X138449500Y-81229057D01*
X138470195Y-81306290D01*
X138490423Y-81381783D01*
X138490426Y-81381790D01*
X138569475Y-81518709D01*
X138569477Y-81518711D01*
X138569480Y-81518716D01*
X138681284Y-81630520D01*
X138681286Y-81630521D01*
X138681290Y-81630524D01*
X138818209Y-81709573D01*
X138818216Y-81709577D01*
X138970943Y-81750500D01*
X138970945Y-81750500D01*
X139129055Y-81750500D01*
X139129057Y-81750500D01*
X139281784Y-81709577D01*
X139418716Y-81630520D01*
X139453293Y-81595943D01*
X141349500Y-81595943D01*
X141349500Y-81754056D01*
X141390423Y-81906783D01*
X141390426Y-81906790D01*
X141469475Y-82043709D01*
X141469479Y-82043714D01*
X141469480Y-82043716D01*
X141581284Y-82155520D01*
X141581286Y-82155521D01*
X141581290Y-82155524D01*
X141641397Y-82190226D01*
X141718216Y-82234577D01*
X141870943Y-82275500D01*
X141870945Y-82275500D01*
X142029055Y-82275500D01*
X142029057Y-82275500D01*
X142181784Y-82234577D01*
X142318716Y-82155520D01*
X142430520Y-82043716D01*
X142509577Y-81906784D01*
X142550500Y-81754057D01*
X142550500Y-81595943D01*
X142509577Y-81443216D01*
X142474109Y-81381783D01*
X142430524Y-81306290D01*
X142430518Y-81306282D01*
X142318717Y-81194481D01*
X142318709Y-81194475D01*
X142181790Y-81115426D01*
X142181786Y-81115424D01*
X142181784Y-81115423D01*
X142029057Y-81074500D01*
X141870943Y-81074500D01*
X141718216Y-81115423D01*
X141718209Y-81115426D01*
X141581290Y-81194475D01*
X141581282Y-81194481D01*
X141469481Y-81306282D01*
X141469475Y-81306290D01*
X141390426Y-81443209D01*
X141390423Y-81443216D01*
X141349500Y-81595943D01*
X139453293Y-81595943D01*
X139530520Y-81518716D01*
X139609577Y-81381784D01*
X139650500Y-81229057D01*
X139650500Y-81167253D01*
X139670185Y-81100214D01*
X139686815Y-81079576D01*
X140585703Y-80180687D01*
X140585708Y-80180684D01*
X140595911Y-80170480D01*
X140595913Y-80170480D01*
X140670480Y-80095913D01*
X140723207Y-80004587D01*
X140732460Y-79970055D01*
X140750501Y-79902727D01*
X140750501Y-79797273D01*
X140750501Y-79789678D01*
X140750500Y-79789660D01*
X140750500Y-79625098D01*
X140770185Y-79558059D01*
X140786819Y-79537417D01*
X140829520Y-79494716D01*
X140908577Y-79357784D01*
X140949500Y-79205057D01*
X140949500Y-79046943D01*
X140908577Y-78894216D01*
X140892473Y-78866323D01*
X140829524Y-78757290D01*
X140829518Y-78757282D01*
X140717717Y-78645481D01*
X140717709Y-78645475D01*
X140580790Y-78566426D01*
X140580786Y-78566424D01*
X140580784Y-78566423D01*
X140428057Y-78525500D01*
X140269943Y-78525500D01*
X140117216Y-78566423D01*
X140117209Y-78566426D01*
X139980290Y-78645475D01*
X139980282Y-78645481D01*
X139868481Y-78757282D01*
X139868475Y-78757290D01*
X139789426Y-78894209D01*
X139789423Y-78894216D01*
X139748500Y-79046943D01*
X139748500Y-79205056D01*
X139789423Y-79357783D01*
X139789426Y-79357790D01*
X139868475Y-79494709D01*
X139868481Y-79494717D01*
X139913181Y-79539417D01*
X139927884Y-79566344D01*
X139944477Y-79592163D01*
X139945368Y-79598363D01*
X139946666Y-79600740D01*
X139949500Y-79627098D01*
X139949500Y-79632745D01*
X139929815Y-79699784D01*
X139913181Y-79720426D01*
X139120426Y-80513181D01*
X139059103Y-80546666D01*
X139032745Y-80549500D01*
X138970943Y-80549500D01*
X138818216Y-80590423D01*
X138818209Y-80590426D01*
X138681290Y-80669475D01*
X138681282Y-80669481D01*
X138569481Y-80781282D01*
X138569475Y-80781290D01*
X138490426Y-80918209D01*
X138490423Y-80918216D01*
X138449500Y-81070943D01*
X124700446Y-81070943D01*
X124700446Y-80698946D01*
X124700452Y-76645943D01*
X145549500Y-76645943D01*
X145549500Y-76804056D01*
X145590423Y-76956783D01*
X145590426Y-76956790D01*
X145669475Y-77093709D01*
X145669479Y-77093714D01*
X145669480Y-77093716D01*
X145781284Y-77205520D01*
X145781286Y-77205521D01*
X145781290Y-77205524D01*
X145918209Y-77284573D01*
X145918216Y-77284577D01*
X146070943Y-77325500D01*
X146070945Y-77325500D01*
X146229055Y-77325500D01*
X146229057Y-77325500D01*
X146381784Y-77284577D01*
X146518716Y-77205520D01*
X146630520Y-77093716D01*
X146709577Y-76956784D01*
X146750500Y-76804057D01*
X146750500Y-76645943D01*
X146709577Y-76493216D01*
X146705178Y-76485597D01*
X146630524Y-76356290D01*
X146630518Y-76356282D01*
X146518717Y-76244481D01*
X146518709Y-76244475D01*
X146381790Y-76165426D01*
X146381786Y-76165424D01*
X146381784Y-76165423D01*
X146229057Y-76124500D01*
X146070943Y-76124500D01*
X145918216Y-76165423D01*
X145918209Y-76165426D01*
X145781290Y-76244475D01*
X145781282Y-76244481D01*
X145669481Y-76356282D01*
X145669475Y-76356290D01*
X145590426Y-76493209D01*
X145590423Y-76493216D01*
X145549500Y-76645943D01*
X124700452Y-76645943D01*
X124700452Y-76637816D01*
X124700455Y-74395943D01*
X146549500Y-74395943D01*
X146549500Y-74554057D01*
X146590142Y-74705733D01*
X146590423Y-74706783D01*
X146590426Y-74706790D01*
X146669475Y-74843709D01*
X146669479Y-74843714D01*
X146669480Y-74843716D01*
X146781284Y-74955520D01*
X146781286Y-74955521D01*
X146781290Y-74955524D01*
X146918209Y-75034573D01*
X146918216Y-75034577D01*
X147070943Y-75075500D01*
X147070945Y-75075500D01*
X147229055Y-75075500D01*
X147229057Y-75075500D01*
X147381784Y-75034577D01*
X147518716Y-74955520D01*
X147630520Y-74843716D01*
X147709577Y-74706784D01*
X147750500Y-74554057D01*
X147750500Y-74395943D01*
X147709577Y-74243216D01*
X147699882Y-74226424D01*
X147630524Y-74106290D01*
X147630518Y-74106282D01*
X147518717Y-73994481D01*
X147518709Y-73994475D01*
X147381790Y-73915426D01*
X147381786Y-73915424D01*
X147381784Y-73915423D01*
X147229057Y-73874500D01*
X147070943Y-73874500D01*
X146918216Y-73915423D01*
X146918209Y-73915426D01*
X146781290Y-73994475D01*
X146781282Y-73994481D01*
X146669481Y-74106282D01*
X146669475Y-74106290D01*
X146590426Y-74243209D01*
X146590423Y-74243216D01*
X146549500Y-74395943D01*
X124700455Y-74395943D01*
X124700455Y-74387816D01*
X124700456Y-73445943D01*
X129149500Y-73445943D01*
X129149500Y-73604056D01*
X129190423Y-73756783D01*
X129190426Y-73756790D01*
X129269475Y-73893709D01*
X129269479Y-73893714D01*
X129269480Y-73893716D01*
X129381284Y-74005520D01*
X129381286Y-74005521D01*
X129381290Y-74005524D01*
X129518209Y-74084573D01*
X129518216Y-74084577D01*
X129670943Y-74125500D01*
X129670945Y-74125500D01*
X129829055Y-74125500D01*
X129829057Y-74125500D01*
X129981784Y-74084577D01*
X130118716Y-74005520D01*
X130230520Y-73893716D01*
X130309577Y-73756784D01*
X130350500Y-73604057D01*
X130350500Y-73445943D01*
X130309577Y-73293216D01*
X130248841Y-73188017D01*
X130230524Y-73156290D01*
X130230518Y-73156282D01*
X130118717Y-73044481D01*
X130118709Y-73044475D01*
X129981790Y-72965426D01*
X129981786Y-72965424D01*
X129981784Y-72965423D01*
X129829057Y-72924500D01*
X129670943Y-72924500D01*
X129518216Y-72965423D01*
X129518209Y-72965426D01*
X129381290Y-73044475D01*
X129381282Y-73044481D01*
X129269481Y-73156282D01*
X129269475Y-73156290D01*
X129190426Y-73293209D01*
X129190423Y-73293216D01*
X129149500Y-73445943D01*
X124700456Y-73445943D01*
X124700456Y-73437816D01*
X124700457Y-72452525D01*
X127774500Y-72452525D01*
X127774500Y-72597475D01*
X127811115Y-72734122D01*
X127812017Y-72737488D01*
X127884488Y-72863011D01*
X127884490Y-72863013D01*
X127884491Y-72863015D01*
X127986985Y-72965509D01*
X127986986Y-72965510D01*
X127986988Y-72965511D01*
X128112511Y-73037982D01*
X128112512Y-73037982D01*
X128112515Y-73037984D01*
X128252525Y-73075500D01*
X128252528Y-73075500D01*
X128397472Y-73075500D01*
X128397475Y-73075500D01*
X128537485Y-73037984D01*
X128663015Y-72965509D01*
X128765509Y-72863015D01*
X128837984Y-72737485D01*
X128875500Y-72597475D01*
X128875500Y-72452525D01*
X128837984Y-72312515D01*
X128826537Y-72292689D01*
X128787352Y-72224818D01*
X128787351Y-72224817D01*
X128765509Y-72186985D01*
X128749467Y-72170943D01*
X130274500Y-72170943D01*
X130274500Y-72329057D01*
X130307974Y-72453982D01*
X130315423Y-72481783D01*
X130315426Y-72481790D01*
X130394475Y-72618709D01*
X130394479Y-72618714D01*
X130394480Y-72618716D01*
X130506284Y-72730520D01*
X130506286Y-72730521D01*
X130506290Y-72730524D01*
X130587703Y-72777527D01*
X130643216Y-72809577D01*
X130795943Y-72850500D01*
X130795945Y-72850500D01*
X130954055Y-72850500D01*
X130954057Y-72850500D01*
X131106784Y-72809577D01*
X131162300Y-72777525D01*
X134024500Y-72777525D01*
X134024500Y-72922475D01*
X134055451Y-73037984D01*
X134062017Y-73062488D01*
X134134488Y-73188011D01*
X134134490Y-73188013D01*
X134134491Y-73188015D01*
X134236985Y-73290509D01*
X134236986Y-73290510D01*
X134236988Y-73290511D01*
X134362511Y-73362982D01*
X134362512Y-73362982D01*
X134362515Y-73362984D01*
X134502525Y-73400500D01*
X134502528Y-73400500D01*
X134647472Y-73400500D01*
X134647475Y-73400500D01*
X134787485Y-73362984D01*
X134913015Y-73290509D01*
X135015509Y-73188015D01*
X135034979Y-73154290D01*
X135047000Y-73137035D01*
X135055117Y-73127270D01*
X135297590Y-72680328D01*
X135318903Y-72651778D01*
X135330470Y-72640212D01*
X137391305Y-70579377D01*
X138151352Y-70579377D01*
X138151352Y-70724327D01*
X138170094Y-70794271D01*
X138188869Y-70864340D01*
X138261340Y-70989863D01*
X138261342Y-70989865D01*
X138261343Y-70989867D01*
X138363837Y-71092361D01*
X138363838Y-71092362D01*
X138363840Y-71092363D01*
X138489363Y-71164834D01*
X138489364Y-71164834D01*
X138489367Y-71164836D01*
X138629377Y-71202352D01*
X138629380Y-71202352D01*
X138774324Y-71202352D01*
X138774327Y-71202352D01*
X138914337Y-71164836D01*
X139039867Y-71092361D01*
X139142361Y-70989867D01*
X139214836Y-70864337D01*
X139252352Y-70724327D01*
X139252352Y-70579377D01*
X139214836Y-70439367D01*
X139214006Y-70437930D01*
X139142363Y-70313840D01*
X139142358Y-70313834D01*
X139039869Y-70211345D01*
X139039863Y-70211340D01*
X138914340Y-70138869D01*
X138914341Y-70138869D01*
X138888784Y-70132021D01*
X138824194Y-70114714D01*
X139518271Y-70114714D01*
X139518271Y-70272828D01*
X139558343Y-70422377D01*
X139559194Y-70425554D01*
X139559197Y-70425561D01*
X139638246Y-70562480D01*
X139638250Y-70562485D01*
X139638251Y-70562487D01*
X139750055Y-70674291D01*
X139750057Y-70674292D01*
X139750061Y-70674295D01*
X139853686Y-70734122D01*
X139886987Y-70753348D01*
X140039714Y-70794271D01*
X140039716Y-70794271D01*
X140197826Y-70794271D01*
X140197828Y-70794271D01*
X140350555Y-70753348D01*
X140487487Y-70674291D01*
X140599291Y-70562487D01*
X140678348Y-70425555D01*
X140719271Y-70272828D01*
X140719271Y-70114714D01*
X140678348Y-69961987D01*
X140668193Y-69944398D01*
X140599295Y-69825061D01*
X140599289Y-69825053D01*
X140487488Y-69713252D01*
X140487480Y-69713246D01*
X140350561Y-69634197D01*
X140350557Y-69634195D01*
X140350555Y-69634194D01*
X140197828Y-69593271D01*
X140039714Y-69593271D01*
X139886987Y-69634194D01*
X139886980Y-69634197D01*
X139750061Y-69713246D01*
X139750053Y-69713252D01*
X139638252Y-69825053D01*
X139638246Y-69825061D01*
X139559197Y-69961980D01*
X139559194Y-69961987D01*
X139518271Y-70114714D01*
X138824194Y-70114714D01*
X138774327Y-70101352D01*
X138629377Y-70101352D01*
X138514920Y-70132021D01*
X138489363Y-70138869D01*
X138363840Y-70211340D01*
X138363834Y-70211345D01*
X138261345Y-70313834D01*
X138261340Y-70313840D01*
X138188869Y-70439363D01*
X138188868Y-70439367D01*
X138151352Y-70579377D01*
X137391305Y-70579377D01*
X138996363Y-68974319D01*
X139057686Y-68940834D01*
X139084044Y-68938000D01*
X140803824Y-68938000D01*
X140870863Y-68957685D01*
X140891505Y-68974319D01*
X142290027Y-70372841D01*
X142304881Y-70391890D01*
X142305025Y-70391785D01*
X142672013Y-70887529D01*
X142675814Y-70891784D01*
X142674972Y-70892535D01*
X142690948Y-70912599D01*
X142694477Y-70918712D01*
X142694479Y-70918715D01*
X142694480Y-70918716D01*
X142806284Y-71030520D01*
X142837705Y-71048660D01*
X142854122Y-71058139D01*
X142854123Y-71058139D01*
X142861339Y-71062305D01*
X142878682Y-71075703D01*
X142920901Y-71096693D01*
X142924237Y-71098619D01*
X142924240Y-71098621D01*
X142943214Y-71109576D01*
X142950725Y-71112687D01*
X142950656Y-71112853D01*
X142962135Y-71117193D01*
X143087673Y-71179609D01*
X143120147Y-71202961D01*
X143174500Y-71257314D01*
X143267686Y-71350500D01*
X143305398Y-71372273D01*
X143381814Y-71416392D01*
X143509107Y-71450500D01*
X143509108Y-71450500D01*
X148516324Y-71450500D01*
X148583363Y-71470185D01*
X148604005Y-71486819D01*
X149888181Y-72770995D01*
X149921666Y-72832318D01*
X149924500Y-72858676D01*
X149924500Y-78866323D01*
X149904815Y-78933362D01*
X149888181Y-78954004D01*
X149080837Y-79761347D01*
X149025252Y-79793440D01*
X148943218Y-79815422D01*
X148943209Y-79815426D01*
X148806290Y-79894475D01*
X148806282Y-79894481D01*
X148694481Y-80006282D01*
X148694475Y-80006290D01*
X148615426Y-80143209D01*
X148615423Y-80143216D01*
X148574500Y-80295943D01*
X148574500Y-80454057D01*
X148615423Y-80606782D01*
X148615423Y-80606783D01*
X148615426Y-80606790D01*
X148694475Y-80743709D01*
X148694479Y-80743714D01*
X148694480Y-80743716D01*
X148806284Y-80855520D01*
X148806286Y-80855521D01*
X148806290Y-80855524D01*
X148943209Y-80934573D01*
X148943216Y-80934577D01*
X149095943Y-80975500D01*
X149095945Y-80975500D01*
X149254055Y-80975500D01*
X149254057Y-80975500D01*
X149406784Y-80934577D01*
X149543716Y-80855520D01*
X149655520Y-80743716D01*
X149734577Y-80606784D01*
X149756558Y-80524748D01*
X149788649Y-80469163D01*
X150825500Y-79432314D01*
X150891392Y-79318186D01*
X150925500Y-79190892D01*
X150925500Y-79059108D01*
X150925500Y-72534108D01*
X150921536Y-72519315D01*
X150891392Y-72406814D01*
X150846499Y-72329057D01*
X150825500Y-72292686D01*
X150732314Y-72199500D01*
X149082314Y-70549500D01*
X148997671Y-70500631D01*
X148968187Y-70483608D01*
X148900628Y-70465506D01*
X148840892Y-70449500D01*
X148840891Y-70449500D01*
X143905763Y-70449500D01*
X143899472Y-70447652D01*
X143893025Y-70448844D01*
X143866360Y-70437930D01*
X143838724Y-70429815D01*
X143832928Y-70424245D01*
X143828362Y-70422377D01*
X143806304Y-70398664D01*
X143804204Y-70396646D01*
X143803884Y-70396190D01*
X143683151Y-70220404D01*
X143675424Y-70212818D01*
X143668878Y-70203473D01*
X143667907Y-70200596D01*
X143663047Y-70194322D01*
X143655520Y-70181284D01*
X143606257Y-70132021D01*
X143543716Y-70069480D01*
X143543713Y-70069478D01*
X143543709Y-70069475D01*
X143537569Y-70065930D01*
X143516380Y-70050497D01*
X143512532Y-70047016D01*
X143373911Y-69944398D01*
X143021680Y-69683649D01*
X143021675Y-69683646D01*
X143019847Y-69682506D01*
X142997787Y-69664973D01*
X141471024Y-68138210D01*
X141437539Y-68076887D01*
X141434705Y-68050529D01*
X141434705Y-66520536D01*
X141437673Y-66496566D01*
X141437495Y-66496540D01*
X141499800Y-66079056D01*
X141528539Y-65886491D01*
X141528538Y-65886481D01*
X141528859Y-65880807D01*
X141530015Y-65880872D01*
X141532877Y-65855375D01*
X141534705Y-65848557D01*
X141534705Y-65690443D01*
X141493782Y-65537716D01*
X141483251Y-65519475D01*
X141414729Y-65400790D01*
X141414723Y-65400782D01*
X141302922Y-65288981D01*
X141302914Y-65288975D01*
X141165995Y-65209926D01*
X141165991Y-65209924D01*
X141165989Y-65209923D01*
X141013262Y-65169000D01*
X140855148Y-65169000D01*
X140702421Y-65209923D01*
X140702414Y-65209926D01*
X140565495Y-65288975D01*
X140565487Y-65288981D01*
X140453686Y-65400782D01*
X140453680Y-65400790D01*
X140374631Y-65537709D01*
X140374628Y-65537716D01*
X140333705Y-65690443D01*
X140333705Y-65848556D01*
X140335542Y-65855413D01*
X140339610Y-65881303D01*
X140339869Y-65886488D01*
X140430017Y-66490524D01*
X140430501Y-66492609D01*
X140433705Y-66520613D01*
X140433705Y-68113000D01*
X140414020Y-68180039D01*
X140361216Y-68225794D01*
X140309705Y-68237000D01*
X138841355Y-68237000D01*
X138817795Y-68243312D01*
X138817796Y-68243313D01*
X138752210Y-68260886D01*
X138752209Y-68260887D01*
X138672291Y-68307027D01*
X138672286Y-68307031D01*
X134836038Y-72143279D01*
X134794056Y-72170870D01*
X134431349Y-72314664D01*
X134427156Y-72316704D01*
X134426909Y-72316197D01*
X134402927Y-72326186D01*
X134362517Y-72337014D01*
X134362511Y-72337017D01*
X134236988Y-72409488D01*
X134236982Y-72409493D01*
X134134493Y-72511982D01*
X134134488Y-72511988D01*
X134062017Y-72637511D01*
X134062016Y-72637515D01*
X134024500Y-72777525D01*
X131162300Y-72777525D01*
X131243716Y-72730520D01*
X131355520Y-72618716D01*
X131434577Y-72481784D01*
X131475500Y-72329057D01*
X131475500Y-72170943D01*
X131434577Y-72018216D01*
X131430998Y-72012017D01*
X131355524Y-71881290D01*
X131355518Y-71881282D01*
X131243717Y-71769481D01*
X131243709Y-71769475D01*
X131106790Y-71690426D01*
X131106786Y-71690424D01*
X131106784Y-71690423D01*
X130954057Y-71649500D01*
X130795943Y-71649500D01*
X130643216Y-71690423D01*
X130643209Y-71690426D01*
X130506290Y-71769475D01*
X130506282Y-71769481D01*
X130394481Y-71881282D01*
X130394475Y-71881290D01*
X130315426Y-72018209D01*
X130315423Y-72018216D01*
X130274500Y-72170943D01*
X128749467Y-72170943D01*
X128663015Y-72084491D01*
X128663013Y-72084490D01*
X128663011Y-72084488D01*
X128537488Y-72012017D01*
X128537489Y-72012017D01*
X128526006Y-72008940D01*
X128397475Y-71974500D01*
X128252525Y-71974500D01*
X128123993Y-72008940D01*
X128112511Y-72012017D01*
X127986988Y-72084488D01*
X127986982Y-72084493D01*
X127884493Y-72186982D01*
X127884488Y-72186988D01*
X127812017Y-72312511D01*
X127809740Y-72321010D01*
X127774500Y-72452525D01*
X124700457Y-72452525D01*
X124700457Y-72444398D01*
X124700458Y-71352525D01*
X133774500Y-71352525D01*
X133774500Y-71497475D01*
X133812016Y-71637485D01*
X133812017Y-71637488D01*
X133884488Y-71763011D01*
X133884490Y-71763013D01*
X133884491Y-71763015D01*
X133986985Y-71865509D01*
X133986986Y-71865510D01*
X133986988Y-71865511D01*
X134112511Y-71937982D01*
X134112512Y-71937982D01*
X134112515Y-71937984D01*
X134252525Y-71975500D01*
X134252528Y-71975500D01*
X134397472Y-71975500D01*
X134397475Y-71975500D01*
X134537485Y-71937984D01*
X134663015Y-71865509D01*
X134765509Y-71763015D01*
X134837984Y-71637485D01*
X134875500Y-71497475D01*
X134875500Y-71352525D01*
X134837984Y-71212515D01*
X134832116Y-71202352D01*
X134765511Y-71086988D01*
X134765506Y-71086982D01*
X134663017Y-70984493D01*
X134663011Y-70984488D01*
X134537488Y-70912017D01*
X134537489Y-70912017D01*
X134526006Y-70908940D01*
X134397475Y-70874500D01*
X134252525Y-70874500D01*
X134123993Y-70908940D01*
X134112511Y-70912017D01*
X133986988Y-70984488D01*
X133986982Y-70984493D01*
X133884493Y-71086982D01*
X133884488Y-71086988D01*
X133812017Y-71212511D01*
X133812016Y-71212515D01*
X133774500Y-71352525D01*
X124700458Y-71352525D01*
X124700458Y-71344398D01*
X124700460Y-69952525D01*
X134299500Y-69952525D01*
X134299500Y-70097475D01*
X134330012Y-70211345D01*
X134337017Y-70237488D01*
X134409488Y-70363011D01*
X134409490Y-70363013D01*
X134409491Y-70363015D01*
X134511985Y-70465509D01*
X134511986Y-70465510D01*
X134511988Y-70465511D01*
X134637511Y-70537982D01*
X134637512Y-70537982D01*
X134637515Y-70537984D01*
X134777525Y-70575500D01*
X134777528Y-70575500D01*
X134922472Y-70575500D01*
X134922475Y-70575500D01*
X135062485Y-70537984D01*
X135188015Y-70465509D01*
X135290509Y-70363015D01*
X135362984Y-70237485D01*
X135400500Y-70097475D01*
X135400500Y-69952525D01*
X135362984Y-69812515D01*
X135305674Y-69713252D01*
X135290511Y-69686988D01*
X135290506Y-69686982D01*
X135188017Y-69584493D01*
X135188011Y-69584488D01*
X135062488Y-69512017D01*
X135062489Y-69512017D01*
X135051006Y-69508940D01*
X134922475Y-69474500D01*
X134777525Y-69474500D01*
X134648993Y-69508940D01*
X134637511Y-69512017D01*
X134511988Y-69584488D01*
X134511982Y-69584493D01*
X134409493Y-69686982D01*
X134409488Y-69686988D01*
X134337017Y-69812511D01*
X134337016Y-69812515D01*
X134299500Y-69952525D01*
X124700460Y-69952525D01*
X124700460Y-69944398D01*
X124700461Y-68827525D01*
X133274500Y-68827525D01*
X133274500Y-68972475D01*
X133312016Y-69112485D01*
X133312017Y-69112488D01*
X133384488Y-69238011D01*
X133384490Y-69238013D01*
X133384491Y-69238015D01*
X133486985Y-69340509D01*
X133486986Y-69340510D01*
X133486988Y-69340511D01*
X133612511Y-69412982D01*
X133612512Y-69412982D01*
X133612515Y-69412984D01*
X133752525Y-69450500D01*
X133752528Y-69450500D01*
X133897472Y-69450500D01*
X133897475Y-69450500D01*
X134037485Y-69412984D01*
X134163015Y-69340509D01*
X134265509Y-69238015D01*
X134337984Y-69112485D01*
X134375500Y-68972475D01*
X134375500Y-68827525D01*
X134337984Y-68687515D01*
X134265509Y-68561985D01*
X134163015Y-68459491D01*
X134163013Y-68459490D01*
X134163011Y-68459488D01*
X134037488Y-68387017D01*
X134037489Y-68387017D01*
X134026006Y-68383940D01*
X133897475Y-68349500D01*
X133752525Y-68349500D01*
X133623993Y-68383940D01*
X133612511Y-68387017D01*
X133486988Y-68459488D01*
X133486982Y-68459493D01*
X133384493Y-68561982D01*
X133384488Y-68561988D01*
X133312017Y-68687511D01*
X133312016Y-68687515D01*
X133274500Y-68827525D01*
X124700461Y-68827525D01*
X124700461Y-68819398D01*
X124700462Y-67990025D01*
X134587000Y-67990025D01*
X134587000Y-68134975D01*
X134624516Y-68274985D01*
X134624517Y-68274988D01*
X134696988Y-68400511D01*
X134696990Y-68400513D01*
X134696991Y-68400515D01*
X134799485Y-68503009D01*
X134799486Y-68503010D01*
X134799488Y-68503011D01*
X134925011Y-68575482D01*
X134925012Y-68575482D01*
X134925015Y-68575484D01*
X135065025Y-68613000D01*
X135065028Y-68613000D01*
X135209972Y-68613000D01*
X135209975Y-68613000D01*
X135349985Y-68575484D01*
X135475515Y-68503009D01*
X135578009Y-68400515D01*
X135650484Y-68274985D01*
X135688000Y-68134975D01*
X135688000Y-67990025D01*
X135650484Y-67850015D01*
X135624060Y-67804248D01*
X135578011Y-67724488D01*
X135578006Y-67724482D01*
X135475517Y-67621993D01*
X135475511Y-67621988D01*
X135349988Y-67549517D01*
X135349989Y-67549517D01*
X135338506Y-67546440D01*
X135209975Y-67512000D01*
X135065025Y-67512000D01*
X134936493Y-67546440D01*
X134925011Y-67549517D01*
X134799488Y-67621988D01*
X134799482Y-67621993D01*
X134696993Y-67724482D01*
X134696988Y-67724488D01*
X134624517Y-67850011D01*
X134624516Y-67850015D01*
X134587000Y-67990025D01*
X124700462Y-67990025D01*
X124700462Y-67981898D01*
X124700464Y-66602525D01*
X136574500Y-66602525D01*
X136574500Y-66747475D01*
X136612016Y-66887485D01*
X136612017Y-66887488D01*
X136684488Y-67013011D01*
X136684490Y-67013013D01*
X136684491Y-67013015D01*
X136786985Y-67115509D01*
X136786986Y-67115510D01*
X136786988Y-67115511D01*
X136912511Y-67187982D01*
X136912512Y-67187982D01*
X136912515Y-67187984D01*
X137052525Y-67225500D01*
X137052528Y-67225500D01*
X137197472Y-67225500D01*
X137197475Y-67225500D01*
X137337485Y-67187984D01*
X137463015Y-67115509D01*
X137565509Y-67013015D01*
X137637984Y-66887485D01*
X137675500Y-66747475D01*
X137675500Y-66602525D01*
X137637984Y-66462515D01*
X137565509Y-66336985D01*
X137463015Y-66234491D01*
X137463013Y-66234490D01*
X137463011Y-66234488D01*
X137337488Y-66162017D01*
X137337489Y-66162017D01*
X137326006Y-66158940D01*
X137197475Y-66124500D01*
X137052525Y-66124500D01*
X136923993Y-66158940D01*
X136912511Y-66162017D01*
X136786988Y-66234488D01*
X136786982Y-66234493D01*
X136684493Y-66336982D01*
X136684488Y-66336988D01*
X136612017Y-66462511D01*
X136612016Y-66462515D01*
X136574500Y-66602525D01*
X124700464Y-66602525D01*
X124700464Y-66594398D01*
X124700465Y-65920943D01*
X138624500Y-65920943D01*
X138624500Y-66079057D01*
X138636677Y-66124500D01*
X138665423Y-66231783D01*
X138665426Y-66231790D01*
X138744475Y-66368709D01*
X138744479Y-66368714D01*
X138744480Y-66368716D01*
X138856284Y-66480520D01*
X138856286Y-66480521D01*
X138856290Y-66480524D01*
X138993209Y-66559573D01*
X138993216Y-66559577D01*
X139145943Y-66600500D01*
X139145945Y-66600500D01*
X139304055Y-66600500D01*
X139304057Y-66600500D01*
X139456784Y-66559577D01*
X139593716Y-66480520D01*
X139705520Y-66368716D01*
X139784577Y-66231784D01*
X139825500Y-66079057D01*
X139825500Y-65920943D01*
X139784577Y-65768216D01*
X139784573Y-65768209D01*
X139705524Y-65631290D01*
X139705518Y-65631282D01*
X139593717Y-65519481D01*
X139593709Y-65519475D01*
X139456790Y-65440426D01*
X139456786Y-65440424D01*
X139456784Y-65440423D01*
X139304057Y-65399500D01*
X139145943Y-65399500D01*
X138993216Y-65440423D01*
X138993209Y-65440426D01*
X138856290Y-65519475D01*
X138856282Y-65519481D01*
X138744481Y-65631282D01*
X138744475Y-65631290D01*
X138665426Y-65768209D01*
X138665423Y-65768216D01*
X138624500Y-65920943D01*
X124700465Y-65920943D01*
X124700465Y-65912816D01*
X124700466Y-64463236D01*
X152426266Y-64463236D01*
X152426266Y-64621349D01*
X152467189Y-64774076D01*
X152467192Y-64774083D01*
X152546241Y-64911002D01*
X152546245Y-64911007D01*
X152546246Y-64911009D01*
X152658050Y-65022813D01*
X152658052Y-65022814D01*
X152658056Y-65022817D01*
X152794975Y-65101866D01*
X152794982Y-65101870D01*
X152947709Y-65142793D01*
X152947711Y-65142793D01*
X153105821Y-65142793D01*
X153105823Y-65142793D01*
X153258550Y-65101870D01*
X153395482Y-65022813D01*
X153507286Y-64911009D01*
X153586343Y-64774077D01*
X153627266Y-64621350D01*
X153627266Y-64463236D01*
X153586343Y-64310509D01*
X153586339Y-64310502D01*
X153507290Y-64173583D01*
X153507284Y-64173575D01*
X153395483Y-64061774D01*
X153395475Y-64061768D01*
X153258556Y-63982719D01*
X153258552Y-63982717D01*
X153258550Y-63982716D01*
X153105823Y-63941793D01*
X152947709Y-63941793D01*
X152794982Y-63982716D01*
X152794975Y-63982719D01*
X152658056Y-64061768D01*
X152658048Y-64061774D01*
X152546247Y-64173575D01*
X152546241Y-64173583D01*
X152467192Y-64310502D01*
X152467189Y-64310509D01*
X152426266Y-64463236D01*
X124700466Y-64463236D01*
X124700466Y-64455109D01*
X124700466Y-64310502D01*
X124700468Y-62627525D01*
X147574500Y-62627525D01*
X147574500Y-62772475D01*
X147612016Y-62912485D01*
X147612017Y-62912488D01*
X147684488Y-63038011D01*
X147684490Y-63038013D01*
X147684491Y-63038015D01*
X147786985Y-63140509D01*
X147786986Y-63140510D01*
X147786988Y-63140511D01*
X147912511Y-63212982D01*
X147912512Y-63212982D01*
X147912515Y-63212984D01*
X148052525Y-63250500D01*
X148052528Y-63250500D01*
X148197472Y-63250500D01*
X148197475Y-63250500D01*
X148337485Y-63212984D01*
X148463015Y-63140509D01*
X148565509Y-63038015D01*
X148637984Y-62912485D01*
X148675500Y-62772475D01*
X148675500Y-62627525D01*
X148637984Y-62487515D01*
X148611867Y-62442280D01*
X148565511Y-62361988D01*
X148565506Y-62361982D01*
X148463017Y-62259493D01*
X148463011Y-62259488D01*
X148337488Y-62187017D01*
X148337489Y-62187017D01*
X148326006Y-62183940D01*
X148197475Y-62149500D01*
X148052525Y-62149500D01*
X147923993Y-62183940D01*
X147912511Y-62187017D01*
X147786988Y-62259488D01*
X147786982Y-62259493D01*
X147684493Y-62361982D01*
X147684488Y-62361988D01*
X147612017Y-62487511D01*
X147612016Y-62487515D01*
X147574500Y-62627525D01*
X124700468Y-62627525D01*
X124700470Y-61145943D01*
X134099500Y-61145943D01*
X134099500Y-61304057D01*
X134121855Y-61387485D01*
X134140423Y-61456783D01*
X134140426Y-61456790D01*
X134219475Y-61593709D01*
X134219479Y-61593714D01*
X134219480Y-61593716D01*
X134331284Y-61705520D01*
X134331286Y-61705521D01*
X134331290Y-61705524D01*
X134468209Y-61784573D01*
X134468216Y-61784577D01*
X134620943Y-61825500D01*
X134620945Y-61825500D01*
X134779055Y-61825500D01*
X134779057Y-61825500D01*
X134931784Y-61784577D01*
X135068716Y-61705520D01*
X135180520Y-61593716D01*
X135259577Y-61456784D01*
X135300500Y-61304057D01*
X135300500Y-61145943D01*
X135288866Y-61102525D01*
X148624500Y-61102525D01*
X148624500Y-61247475D01*
X148662016Y-61387485D01*
X148662017Y-61387488D01*
X148734488Y-61513011D01*
X148734490Y-61513013D01*
X148734491Y-61513015D01*
X148836985Y-61615509D01*
X148836986Y-61615510D01*
X148836988Y-61615511D01*
X148962511Y-61687982D01*
X148962512Y-61687982D01*
X148962515Y-61687984D01*
X149102525Y-61725500D01*
X149102528Y-61725500D01*
X149247472Y-61725500D01*
X149247475Y-61725500D01*
X149387485Y-61687984D01*
X149513015Y-61615509D01*
X149615509Y-61513015D01*
X149687984Y-61387485D01*
X149725500Y-61247475D01*
X149725500Y-61102525D01*
X149687984Y-60962515D01*
X149626651Y-60856284D01*
X149615511Y-60836988D01*
X149615506Y-60836982D01*
X149513017Y-60734493D01*
X149513011Y-60734488D01*
X149387488Y-60662017D01*
X149387489Y-60662017D01*
X149376006Y-60658940D01*
X149247475Y-60624500D01*
X149102525Y-60624500D01*
X148973993Y-60658940D01*
X148962511Y-60662017D01*
X148836988Y-60734488D01*
X148836982Y-60734493D01*
X148734493Y-60836982D01*
X148734488Y-60836988D01*
X148662017Y-60962511D01*
X148662016Y-60962515D01*
X148624500Y-61102525D01*
X135288866Y-61102525D01*
X135259577Y-60993216D01*
X135241850Y-60962511D01*
X135180524Y-60856290D01*
X135180518Y-60856282D01*
X135068717Y-60744481D01*
X135068709Y-60744475D01*
X134931790Y-60665426D01*
X134931786Y-60665424D01*
X134931784Y-60665423D01*
X134779057Y-60624500D01*
X134620943Y-60624500D01*
X134468216Y-60665423D01*
X134468209Y-60665426D01*
X134331290Y-60744475D01*
X134331282Y-60744481D01*
X134219481Y-60856282D01*
X134219475Y-60856290D01*
X134140426Y-60993209D01*
X134140423Y-60993216D01*
X134099500Y-61145943D01*
X124700470Y-61145943D01*
X124700472Y-59446473D01*
X140202209Y-59446473D01*
X140202209Y-59591423D01*
X140239725Y-59731433D01*
X140239726Y-59731436D01*
X140312197Y-59856959D01*
X140312199Y-59856961D01*
X140312200Y-59856963D01*
X140414694Y-59959457D01*
X140414695Y-59959458D01*
X140414697Y-59959459D01*
X140540220Y-60031930D01*
X140540221Y-60031930D01*
X140540224Y-60031932D01*
X140680234Y-60069448D01*
X140680237Y-60069448D01*
X140825181Y-60069448D01*
X140825184Y-60069448D01*
X140965194Y-60031932D01*
X141090724Y-59959457D01*
X141193218Y-59856963D01*
X141265693Y-59731433D01*
X141303209Y-59591423D01*
X141303209Y-59460297D01*
X142333956Y-59460297D01*
X142333956Y-59605247D01*
X142367768Y-59731433D01*
X142371473Y-59745260D01*
X142443944Y-59870783D01*
X142443946Y-59870785D01*
X142443947Y-59870787D01*
X142546441Y-59973281D01*
X142546442Y-59973282D01*
X142546444Y-59973283D01*
X142671967Y-60045754D01*
X142671968Y-60045754D01*
X142671971Y-60045756D01*
X142811981Y-60083272D01*
X142811984Y-60083272D01*
X142956928Y-60083272D01*
X142956931Y-60083272D01*
X143096941Y-60045756D01*
X143222471Y-59973281D01*
X143324965Y-59870787D01*
X143397440Y-59745257D01*
X143428987Y-59627525D01*
X147409500Y-59627525D01*
X147409500Y-59772475D01*
X147447016Y-59912485D01*
X147447017Y-59912488D01*
X147519488Y-60038011D01*
X147519490Y-60038013D01*
X147519491Y-60038015D01*
X147621985Y-60140509D01*
X147621986Y-60140510D01*
X147621988Y-60140511D01*
X147747511Y-60212982D01*
X147747512Y-60212982D01*
X147747515Y-60212984D01*
X147887525Y-60250500D01*
X147887528Y-60250500D01*
X148032472Y-60250500D01*
X148032475Y-60250500D01*
X148172485Y-60212984D01*
X148298015Y-60140509D01*
X148400509Y-60038015D01*
X148472984Y-59912485D01*
X148510500Y-59772475D01*
X148510500Y-59627525D01*
X148472984Y-59487515D01*
X148449289Y-59446475D01*
X148400511Y-59361988D01*
X148400506Y-59361982D01*
X148298017Y-59259493D01*
X148298011Y-59259488D01*
X148172488Y-59187017D01*
X148172489Y-59187017D01*
X148149772Y-59180930D01*
X148032475Y-59149500D01*
X147887525Y-59149500D01*
X147770228Y-59180930D01*
X147747511Y-59187017D01*
X147621988Y-59259488D01*
X147621982Y-59259493D01*
X147519493Y-59361982D01*
X147519488Y-59361988D01*
X147447017Y-59487511D01*
X147447016Y-59487515D01*
X147409500Y-59627525D01*
X143428987Y-59627525D01*
X143434956Y-59605247D01*
X143434956Y-59460297D01*
X143397440Y-59320287D01*
X143389456Y-59306459D01*
X143324967Y-59194760D01*
X143324962Y-59194754D01*
X143222473Y-59092265D01*
X143222467Y-59092260D01*
X143096944Y-59019789D01*
X143096945Y-59019789D01*
X143045353Y-59005965D01*
X142956931Y-58982272D01*
X142811981Y-58982272D01*
X142723559Y-59005965D01*
X142671967Y-59019789D01*
X142546444Y-59092260D01*
X142546438Y-59092265D01*
X142443949Y-59194754D01*
X142443944Y-59194760D01*
X142371473Y-59320283D01*
X142371472Y-59320287D01*
X142333956Y-59460297D01*
X141303209Y-59460297D01*
X141303209Y-59446473D01*
X141265693Y-59306463D01*
X141201199Y-59194757D01*
X141193220Y-59180936D01*
X141193215Y-59180930D01*
X141090726Y-59078441D01*
X141090720Y-59078436D01*
X140965197Y-59005965D01*
X140965198Y-59005965D01*
X140953715Y-59002888D01*
X140825184Y-58968448D01*
X140680234Y-58968448D01*
X140551702Y-59002888D01*
X140540220Y-59005965D01*
X140414697Y-59078436D01*
X140414691Y-59078441D01*
X140312202Y-59180930D01*
X140312197Y-59180936D01*
X140239726Y-59306459D01*
X140239725Y-59306463D01*
X140202209Y-59446473D01*
X124700472Y-59446473D01*
X124700481Y-52243709D01*
X124700482Y-51795943D01*
X142524500Y-51795943D01*
X142524500Y-51954056D01*
X142565423Y-52106783D01*
X142565426Y-52106790D01*
X142644475Y-52243709D01*
X142644479Y-52243714D01*
X142644480Y-52243716D01*
X142756284Y-52355520D01*
X142756286Y-52355521D01*
X142756290Y-52355524D01*
X142893209Y-52434573D01*
X142893216Y-52434577D01*
X143045943Y-52475500D01*
X143045945Y-52475500D01*
X143204055Y-52475500D01*
X143204057Y-52475500D01*
X143356784Y-52434577D01*
X143493716Y-52355520D01*
X143605520Y-52243716D01*
X143684577Y-52106784D01*
X143725500Y-51954057D01*
X143725500Y-51795943D01*
X143684577Y-51643216D01*
X143684573Y-51643209D01*
X143605524Y-51506290D01*
X143605518Y-51506282D01*
X143493717Y-51394481D01*
X143493709Y-51394475D01*
X143356790Y-51315426D01*
X143356786Y-51315424D01*
X143356784Y-51315423D01*
X143204057Y-51274500D01*
X143045943Y-51274500D01*
X142893216Y-51315423D01*
X142893209Y-51315426D01*
X142756290Y-51394475D01*
X142756282Y-51394481D01*
X142644481Y-51506282D01*
X142644475Y-51506290D01*
X142565426Y-51643209D01*
X142565423Y-51643216D01*
X142524500Y-51795943D01*
X124700482Y-51795943D01*
X124700482Y-51787816D01*
X124700483Y-51120943D01*
X150899500Y-51120943D01*
X150899500Y-51279057D01*
X150930428Y-51394480D01*
X150940423Y-51431783D01*
X150940426Y-51431790D01*
X151019475Y-51568709D01*
X151019479Y-51568714D01*
X151019480Y-51568716D01*
X151131284Y-51680520D01*
X151131286Y-51680521D01*
X151131290Y-51680524D01*
X151268209Y-51759573D01*
X151268216Y-51759577D01*
X151420943Y-51800500D01*
X151420945Y-51800500D01*
X151579055Y-51800500D01*
X151579057Y-51800500D01*
X151731784Y-51759577D01*
X151868716Y-51680520D01*
X151980520Y-51568716D01*
X152059577Y-51431784D01*
X152100500Y-51279057D01*
X152100500Y-51120943D01*
X152059577Y-50968216D01*
X152059573Y-50968209D01*
X151980524Y-50831290D01*
X151980518Y-50831282D01*
X151868717Y-50719481D01*
X151868709Y-50719475D01*
X151731790Y-50640426D01*
X151731786Y-50640424D01*
X151731784Y-50640423D01*
X151579057Y-50599500D01*
X151420943Y-50599500D01*
X151268216Y-50640423D01*
X151268209Y-50640426D01*
X151131290Y-50719475D01*
X151131282Y-50719481D01*
X151019481Y-50831282D01*
X151019475Y-50831290D01*
X150940426Y-50968209D01*
X150940423Y-50968216D01*
X150899500Y-51120943D01*
X124700483Y-51120943D01*
X124700483Y-51112816D01*
X124700483Y-50879500D01*
X124720168Y-50812461D01*
X124772972Y-50766706D01*
X124824483Y-50755500D01*
X128975991Y-50755500D01*
X128976000Y-50755500D01*
X129062199Y-50746232D01*
X129113710Y-50735026D01*
X129185360Y-50712310D01*
X129293057Y-50645250D01*
X129345855Y-50599500D01*
X129345856Y-50599500D01*
X129345858Y-50599497D01*
X129345861Y-50599495D01*
X129415042Y-50521923D01*
X129469389Y-50407285D01*
X129489074Y-50340246D01*
X129505500Y-50226000D01*
X129505500Y-45570943D01*
X130424500Y-45570943D01*
X130424500Y-45729057D01*
X130431930Y-45756784D01*
X130465423Y-45881783D01*
X130465426Y-45881790D01*
X130544475Y-46018709D01*
X130544479Y-46018714D01*
X130544480Y-46018716D01*
X130656284Y-46130520D01*
X130656286Y-46130521D01*
X130656290Y-46130524D01*
X130793209Y-46209573D01*
X130793216Y-46209577D01*
X130945943Y-46250500D01*
X130945945Y-46250500D01*
X131104055Y-46250500D01*
X131104057Y-46250500D01*
X131256784Y-46209577D01*
X131393716Y-46130520D01*
X131505520Y-46018716D01*
X131584577Y-45881784D01*
X131625500Y-45729057D01*
X131625500Y-45570943D01*
X131584577Y-45418216D01*
X131584573Y-45418209D01*
X131505524Y-45281290D01*
X131505518Y-45281282D01*
X131393717Y-45169481D01*
X131393709Y-45169475D01*
X131256790Y-45090426D01*
X131256786Y-45090424D01*
X131256784Y-45090423D01*
X131104057Y-45049500D01*
X130945943Y-45049500D01*
X130793216Y-45090423D01*
X130793209Y-45090426D01*
X130656290Y-45169475D01*
X130656282Y-45169481D01*
X130544481Y-45281282D01*
X130544475Y-45281290D01*
X130465426Y-45418209D01*
X130465423Y-45418216D01*
X130424500Y-45570943D01*
X129505500Y-45570943D01*
X129505500Y-44854500D01*
X129525185Y-44787461D01*
X129577989Y-44741706D01*
X129629500Y-44730500D01*
X132913929Y-44730500D01*
X132980968Y-44750185D01*
G37*
%TD.AperFunction*%
%TA.AperFunction,Conductor*%
G36*
X164995956Y-86057382D02*
G01*
X165024406Y-86063040D01*
X165038650Y-86065873D01*
X165061910Y-86072928D01*
X165102140Y-86089592D01*
X165123572Y-86101048D01*
X165123576Y-86101051D01*
X165159773Y-86125237D01*
X165178563Y-86140658D01*
X165201090Y-86163185D01*
X165211485Y-86173217D01*
X165217963Y-86179249D01*
X165218094Y-86179370D01*
X165220102Y-86181227D01*
X165220104Y-86181228D01*
X165220108Y-86181232D01*
X165273265Y-86216477D01*
X165325843Y-86251338D01*
X165343010Y-86259177D01*
X165389402Y-86280364D01*
X165396008Y-86282406D01*
X165454242Y-86321010D01*
X165482361Y-86384972D01*
X165471437Y-86453982D01*
X165424936Y-86506131D01*
X165401057Y-86517662D01*
X165354805Y-86534165D01*
X165354802Y-86534166D01*
X165293488Y-86567646D01*
X165293480Y-86567651D01*
X165201099Y-86636807D01*
X165201085Y-86636819D01*
X165178560Y-86659343D01*
X165159773Y-86674760D01*
X165123572Y-86698949D01*
X165102135Y-86710407D01*
X165061913Y-86727068D01*
X165038660Y-86734122D01*
X164995956Y-86742617D01*
X164971765Y-86745000D01*
X164928235Y-86745000D01*
X164904043Y-86742617D01*
X164875003Y-86736840D01*
X164861344Y-86734123D01*
X164838088Y-86727068D01*
X164797861Y-86710406D01*
X164776421Y-86698946D01*
X164740226Y-86674761D01*
X164740225Y-86674760D01*
X164721436Y-86659340D01*
X164690659Y-86628563D01*
X164675238Y-86609773D01*
X164651050Y-86573573D01*
X164639592Y-86552137D01*
X164628144Y-86524500D01*
X164622928Y-86511908D01*
X164615876Y-86488661D01*
X164607381Y-86445955D01*
X164605000Y-86421772D01*
X164605000Y-86378235D01*
X164607382Y-86354045D01*
X164615876Y-86311340D01*
X164622929Y-86288085D01*
X164639594Y-86247853D01*
X164651045Y-86226429D01*
X164675240Y-86190220D01*
X164690652Y-86171441D01*
X164721439Y-86140654D01*
X164740218Y-86125242D01*
X164776427Y-86101047D01*
X164797860Y-86089592D01*
X164797863Y-86089591D01*
X164838085Y-86072929D01*
X164861347Y-86065873D01*
X164884442Y-86061280D01*
X164904041Y-86057382D01*
X164928230Y-86055000D01*
X164971768Y-86055000D01*
X164995956Y-86057382D01*
G37*
%TD.AperFunction*%
%TA.AperFunction,Conductor*%
G36*
X164995956Y-84057382D02*
G01*
X165024406Y-84063040D01*
X165038650Y-84065873D01*
X165061910Y-84072928D01*
X165102140Y-84089592D01*
X165123572Y-84101048D01*
X165123576Y-84101051D01*
X165159773Y-84125237D01*
X165178563Y-84140658D01*
X165201090Y-84163185D01*
X165211485Y-84173217D01*
X165217963Y-84179249D01*
X165218094Y-84179370D01*
X165220102Y-84181227D01*
X165220104Y-84181228D01*
X165220108Y-84181232D01*
X165273265Y-84216477D01*
X165325843Y-84251338D01*
X165343010Y-84259177D01*
X165389402Y-84280364D01*
X165396008Y-84282406D01*
X165454242Y-84321010D01*
X165482361Y-84384972D01*
X165471437Y-84453982D01*
X165424936Y-84506131D01*
X165401057Y-84517662D01*
X165354805Y-84534165D01*
X165354802Y-84534166D01*
X165293488Y-84567646D01*
X165293480Y-84567651D01*
X165201099Y-84636807D01*
X165201085Y-84636819D01*
X165178560Y-84659343D01*
X165159773Y-84674760D01*
X165123572Y-84698949D01*
X165102135Y-84710407D01*
X165061913Y-84727068D01*
X165038660Y-84734122D01*
X164995956Y-84742617D01*
X164971765Y-84745000D01*
X164928235Y-84745000D01*
X164904043Y-84742617D01*
X164875003Y-84736840D01*
X164861344Y-84734123D01*
X164838088Y-84727068D01*
X164797861Y-84710406D01*
X164776421Y-84698946D01*
X164740226Y-84674761D01*
X164740225Y-84674760D01*
X164721436Y-84659340D01*
X164690659Y-84628563D01*
X164675238Y-84609773D01*
X164651050Y-84573573D01*
X164639592Y-84552137D01*
X164628558Y-84525500D01*
X164622928Y-84511908D01*
X164615876Y-84488661D01*
X164607381Y-84445955D01*
X164605000Y-84421772D01*
X164605000Y-84378235D01*
X164607382Y-84354045D01*
X164614710Y-84317204D01*
X164615876Y-84311338D01*
X164622929Y-84288085D01*
X164639594Y-84247853D01*
X164651045Y-84226429D01*
X164675240Y-84190220D01*
X164690652Y-84171441D01*
X164721439Y-84140654D01*
X164740218Y-84125242D01*
X164776427Y-84101047D01*
X164797860Y-84089592D01*
X164797863Y-84089591D01*
X164838085Y-84072929D01*
X164861347Y-84065873D01*
X164883002Y-84061566D01*
X164904041Y-84057382D01*
X164928230Y-84055000D01*
X164971768Y-84055000D01*
X164995956Y-84057382D01*
G37*
%TD.AperFunction*%
%TA.AperFunction,Conductor*%
G36*
X164995956Y-82057382D02*
G01*
X165024406Y-82063040D01*
X165038650Y-82065873D01*
X165061910Y-82072928D01*
X165102140Y-82089592D01*
X165123572Y-82101048D01*
X165123576Y-82101051D01*
X165159773Y-82125237D01*
X165178563Y-82140658D01*
X165201090Y-82163185D01*
X165211485Y-82173217D01*
X165217963Y-82179249D01*
X165218094Y-82179370D01*
X165220102Y-82181227D01*
X165220104Y-82181228D01*
X165220108Y-82181232D01*
X165273265Y-82216477D01*
X165325843Y-82251338D01*
X165343010Y-82259177D01*
X165389402Y-82280364D01*
X165396008Y-82282406D01*
X165454242Y-82321010D01*
X165482361Y-82384972D01*
X165471437Y-82453982D01*
X165424936Y-82506131D01*
X165401057Y-82517662D01*
X165354805Y-82534165D01*
X165354802Y-82534166D01*
X165293488Y-82567646D01*
X165293480Y-82567651D01*
X165201099Y-82636807D01*
X165201085Y-82636819D01*
X165178560Y-82659343D01*
X165159773Y-82674760D01*
X165123572Y-82698949D01*
X165102135Y-82710407D01*
X165061913Y-82727068D01*
X165038660Y-82734122D01*
X164995956Y-82742617D01*
X164971765Y-82745000D01*
X164928235Y-82745000D01*
X164904043Y-82742617D01*
X164875003Y-82736840D01*
X164861344Y-82734123D01*
X164838088Y-82727068D01*
X164797861Y-82710406D01*
X164776421Y-82698946D01*
X164740226Y-82674761D01*
X164740225Y-82674760D01*
X164721436Y-82659340D01*
X164690659Y-82628563D01*
X164675238Y-82609773D01*
X164651050Y-82573573D01*
X164639592Y-82552137D01*
X164632147Y-82534165D01*
X164622928Y-82511908D01*
X164615876Y-82488661D01*
X164607381Y-82445955D01*
X164605000Y-82421772D01*
X164605000Y-82378235D01*
X164607382Y-82354045D01*
X164615876Y-82311340D01*
X164622929Y-82288085D01*
X164639594Y-82247853D01*
X164651045Y-82226429D01*
X164675240Y-82190220D01*
X164690652Y-82171441D01*
X164721439Y-82140654D01*
X164740218Y-82125242D01*
X164776427Y-82101047D01*
X164797860Y-82089592D01*
X164797863Y-82089591D01*
X164838085Y-82072929D01*
X164861347Y-82065873D01*
X164883002Y-82061566D01*
X164904041Y-82057382D01*
X164928230Y-82055000D01*
X164971768Y-82055000D01*
X164995956Y-82057382D01*
G37*
%TD.AperFunction*%
%TA.AperFunction,Conductor*%
G36*
X164995956Y-80057382D02*
G01*
X165024406Y-80063040D01*
X165038650Y-80065873D01*
X165061910Y-80072928D01*
X165102140Y-80089592D01*
X165123572Y-80101048D01*
X165123576Y-80101051D01*
X165159773Y-80125237D01*
X165178563Y-80140658D01*
X165201090Y-80163185D01*
X165211485Y-80173217D01*
X165217963Y-80179249D01*
X165218094Y-80179370D01*
X165220102Y-80181227D01*
X165220104Y-80181228D01*
X165220108Y-80181232D01*
X165273265Y-80216477D01*
X165325843Y-80251338D01*
X165343010Y-80259177D01*
X165389402Y-80280364D01*
X165396008Y-80282406D01*
X165454242Y-80321010D01*
X165482361Y-80384972D01*
X165471437Y-80453982D01*
X165424936Y-80506131D01*
X165401057Y-80517662D01*
X165354805Y-80534165D01*
X165354802Y-80534166D01*
X165293488Y-80567646D01*
X165293480Y-80567651D01*
X165201099Y-80636807D01*
X165201085Y-80636819D01*
X165178560Y-80659343D01*
X165159773Y-80674760D01*
X165123573Y-80698948D01*
X165102136Y-80710407D01*
X165061916Y-80727067D01*
X165038657Y-80734123D01*
X165017136Y-80738404D01*
X164995957Y-80742617D01*
X164971766Y-80745000D01*
X164928235Y-80745000D01*
X164904043Y-80742617D01*
X164875003Y-80736840D01*
X164861344Y-80734123D01*
X164838088Y-80727068D01*
X164797861Y-80710406D01*
X164776421Y-80698946D01*
X164740226Y-80674761D01*
X164740225Y-80674760D01*
X164721436Y-80659340D01*
X164690659Y-80628563D01*
X164675238Y-80609773D01*
X164673239Y-80606782D01*
X164651050Y-80573573D01*
X164639592Y-80552137D01*
X164632147Y-80534165D01*
X164622928Y-80511908D01*
X164615876Y-80488661D01*
X164607381Y-80445955D01*
X164605000Y-80421772D01*
X164605000Y-80378235D01*
X164607382Y-80354045D01*
X164615876Y-80311340D01*
X164622929Y-80288085D01*
X164639594Y-80247853D01*
X164651045Y-80226429D01*
X164675240Y-80190220D01*
X164690652Y-80171441D01*
X164721439Y-80140654D01*
X164740218Y-80125242D01*
X164776427Y-80101047D01*
X164797860Y-80089592D01*
X164797863Y-80089591D01*
X164838085Y-80072929D01*
X164861347Y-80065873D01*
X164883002Y-80061566D01*
X164904041Y-80057382D01*
X164928230Y-80055000D01*
X164971768Y-80055000D01*
X164995956Y-80057382D01*
G37*
%TD.AperFunction*%
%TA.AperFunction,Conductor*%
G36*
X164995956Y-78057382D02*
G01*
X165024406Y-78063040D01*
X165038650Y-78065873D01*
X165061910Y-78072928D01*
X165102140Y-78089592D01*
X165123572Y-78101048D01*
X165123576Y-78101051D01*
X165159773Y-78125237D01*
X165178563Y-78140658D01*
X165201090Y-78163185D01*
X165211485Y-78173217D01*
X165217963Y-78179249D01*
X165218094Y-78179370D01*
X165220102Y-78181227D01*
X165220104Y-78181228D01*
X165220108Y-78181232D01*
X165273265Y-78216477D01*
X165325843Y-78251338D01*
X165343010Y-78259177D01*
X165389402Y-78280364D01*
X165396008Y-78282406D01*
X165454242Y-78321010D01*
X165482361Y-78384972D01*
X165471437Y-78453982D01*
X165424936Y-78506131D01*
X165401057Y-78517662D01*
X165354805Y-78534165D01*
X165354802Y-78534166D01*
X165293488Y-78567646D01*
X165293480Y-78567651D01*
X165201099Y-78636807D01*
X165201085Y-78636819D01*
X165178560Y-78659343D01*
X165159773Y-78674760D01*
X165123572Y-78698949D01*
X165102135Y-78710407D01*
X165061913Y-78727068D01*
X165038660Y-78734122D01*
X164995956Y-78742617D01*
X164971765Y-78745000D01*
X164928235Y-78745000D01*
X164904043Y-78742617D01*
X164875003Y-78736840D01*
X164861344Y-78734123D01*
X164838088Y-78727068D01*
X164797861Y-78710406D01*
X164776421Y-78698946D01*
X164740226Y-78674761D01*
X164740225Y-78674760D01*
X164721436Y-78659340D01*
X164690659Y-78628563D01*
X164675238Y-78609773D01*
X164651050Y-78573573D01*
X164639592Y-78552137D01*
X164628558Y-78525500D01*
X164622928Y-78511908D01*
X164615876Y-78488661D01*
X164607381Y-78445955D01*
X164605000Y-78421772D01*
X164605000Y-78378235D01*
X164607382Y-78354045D01*
X164615876Y-78311340D01*
X164622929Y-78288085D01*
X164639594Y-78247853D01*
X164651045Y-78226429D01*
X164675240Y-78190220D01*
X164690652Y-78171441D01*
X164721439Y-78140654D01*
X164740218Y-78125242D01*
X164776427Y-78101047D01*
X164797860Y-78089592D01*
X164797863Y-78089591D01*
X164838085Y-78072929D01*
X164861347Y-78065873D01*
X164883002Y-78061566D01*
X164904041Y-78057382D01*
X164928230Y-78055000D01*
X164971768Y-78055000D01*
X164995956Y-78057382D01*
G37*
%TD.AperFunction*%
%TA.AperFunction,Conductor*%
G36*
X164995956Y-76057382D02*
G01*
X165024406Y-76063040D01*
X165038650Y-76065873D01*
X165061910Y-76072928D01*
X165102140Y-76089592D01*
X165123572Y-76101048D01*
X165123576Y-76101051D01*
X165159773Y-76125237D01*
X165178563Y-76140658D01*
X165201090Y-76163185D01*
X165211485Y-76173217D01*
X165217963Y-76179249D01*
X165218094Y-76179370D01*
X165220102Y-76181227D01*
X165220104Y-76181228D01*
X165220108Y-76181232D01*
X165273265Y-76216477D01*
X165325843Y-76251338D01*
X165343010Y-76259177D01*
X165389402Y-76280364D01*
X165396008Y-76282406D01*
X165454242Y-76321010D01*
X165482361Y-76384972D01*
X165471437Y-76453982D01*
X165424936Y-76506131D01*
X165401057Y-76517662D01*
X165354805Y-76534165D01*
X165354802Y-76534166D01*
X165293488Y-76567646D01*
X165293480Y-76567651D01*
X165201099Y-76636807D01*
X165201085Y-76636819D01*
X165178560Y-76659343D01*
X165159773Y-76674760D01*
X165123572Y-76698949D01*
X165102135Y-76710407D01*
X165061913Y-76727068D01*
X165038660Y-76734122D01*
X164995956Y-76742617D01*
X164971765Y-76745000D01*
X164928235Y-76745000D01*
X164904043Y-76742617D01*
X164875003Y-76736840D01*
X164861344Y-76734123D01*
X164838088Y-76727068D01*
X164797861Y-76710406D01*
X164776421Y-76698946D01*
X164740226Y-76674761D01*
X164740225Y-76674760D01*
X164721436Y-76659340D01*
X164690659Y-76628563D01*
X164675238Y-76609773D01*
X164651050Y-76573573D01*
X164639592Y-76552137D01*
X164632147Y-76534165D01*
X164622928Y-76511908D01*
X164615876Y-76488661D01*
X164607381Y-76445955D01*
X164605000Y-76421772D01*
X164605000Y-76378235D01*
X164607382Y-76354045D01*
X164615876Y-76311340D01*
X164622929Y-76288085D01*
X164639594Y-76247853D01*
X164651045Y-76226429D01*
X164675240Y-76190220D01*
X164690652Y-76171441D01*
X164721439Y-76140654D01*
X164740218Y-76125242D01*
X164776427Y-76101047D01*
X164797860Y-76089592D01*
X164797863Y-76089591D01*
X164838085Y-76072929D01*
X164861347Y-76065873D01*
X164883002Y-76061566D01*
X164904041Y-76057382D01*
X164928230Y-76055000D01*
X164971768Y-76055000D01*
X164995956Y-76057382D01*
G37*
%TD.AperFunction*%
%TA.AperFunction,Conductor*%
G36*
X164995956Y-74057382D02*
G01*
X165024406Y-74063040D01*
X165038650Y-74065873D01*
X165061910Y-74072928D01*
X165102140Y-74089592D01*
X165123572Y-74101048D01*
X165123576Y-74101051D01*
X165159773Y-74125237D01*
X165178563Y-74140658D01*
X165201090Y-74163185D01*
X165211485Y-74173217D01*
X165217963Y-74179249D01*
X165218094Y-74179370D01*
X165220102Y-74181227D01*
X165220104Y-74181228D01*
X165220108Y-74181232D01*
X165273265Y-74216477D01*
X165325843Y-74251338D01*
X165343010Y-74259177D01*
X165389402Y-74280364D01*
X165396008Y-74282406D01*
X165454242Y-74321010D01*
X165482361Y-74384972D01*
X165471437Y-74453982D01*
X165424936Y-74506131D01*
X165401057Y-74517662D01*
X165354805Y-74534165D01*
X165354802Y-74534166D01*
X165293488Y-74567646D01*
X165293480Y-74567651D01*
X165201099Y-74636807D01*
X165201085Y-74636819D01*
X165178560Y-74659343D01*
X165159773Y-74674760D01*
X165123572Y-74698949D01*
X165102135Y-74710407D01*
X165061913Y-74727068D01*
X165038660Y-74734122D01*
X164995956Y-74742617D01*
X164971765Y-74745000D01*
X164928235Y-74745000D01*
X164904043Y-74742617D01*
X164875003Y-74736840D01*
X164861344Y-74734123D01*
X164838088Y-74727068D01*
X164797861Y-74710406D01*
X164776421Y-74698946D01*
X164740226Y-74674761D01*
X164740225Y-74674760D01*
X164721436Y-74659340D01*
X164690659Y-74628563D01*
X164675238Y-74609773D01*
X164651050Y-74573573D01*
X164639592Y-74552137D01*
X164632147Y-74534165D01*
X164622928Y-74511908D01*
X164615876Y-74488661D01*
X164607381Y-74445955D01*
X164605000Y-74421772D01*
X164605000Y-74378235D01*
X164607382Y-74354045D01*
X164615876Y-74311340D01*
X164622929Y-74288085D01*
X164639594Y-74247853D01*
X164651045Y-74226429D01*
X164675240Y-74190220D01*
X164690652Y-74171441D01*
X164721439Y-74140654D01*
X164740218Y-74125242D01*
X164776427Y-74101047D01*
X164797860Y-74089592D01*
X164797863Y-74089591D01*
X164838085Y-74072929D01*
X164861347Y-74065873D01*
X164883002Y-74061566D01*
X164904041Y-74057382D01*
X164928230Y-74055000D01*
X164971768Y-74055000D01*
X164995956Y-74057382D01*
G37*
%TD.AperFunction*%
%TA.AperFunction,Conductor*%
G36*
X164995956Y-72057382D02*
G01*
X165024406Y-72063040D01*
X165038650Y-72065873D01*
X165061910Y-72072928D01*
X165102140Y-72089592D01*
X165123572Y-72101048D01*
X165123576Y-72101051D01*
X165159773Y-72125237D01*
X165178563Y-72140658D01*
X165201090Y-72163185D01*
X165211485Y-72173217D01*
X165217963Y-72179249D01*
X165218094Y-72179370D01*
X165220102Y-72181227D01*
X165220104Y-72181228D01*
X165220108Y-72181232D01*
X165273265Y-72216477D01*
X165325843Y-72251338D01*
X165343010Y-72259177D01*
X165389402Y-72280364D01*
X165396008Y-72282406D01*
X165454242Y-72321010D01*
X165482361Y-72384972D01*
X165471437Y-72453982D01*
X165424936Y-72506131D01*
X165401057Y-72517662D01*
X165354805Y-72534165D01*
X165354802Y-72534166D01*
X165293488Y-72567646D01*
X165293480Y-72567651D01*
X165201099Y-72636807D01*
X165201085Y-72636819D01*
X165178560Y-72659343D01*
X165159773Y-72674760D01*
X165123572Y-72698949D01*
X165102135Y-72710407D01*
X165061913Y-72727068D01*
X165038660Y-72734122D01*
X164995956Y-72742617D01*
X164971765Y-72745000D01*
X164928235Y-72745000D01*
X164904043Y-72742617D01*
X164875003Y-72736840D01*
X164861344Y-72734123D01*
X164838088Y-72727068D01*
X164797861Y-72710406D01*
X164776421Y-72698946D01*
X164740226Y-72674761D01*
X164740225Y-72674760D01*
X164721436Y-72659340D01*
X164690659Y-72628563D01*
X164675238Y-72609773D01*
X164651050Y-72573573D01*
X164639592Y-72552137D01*
X164632123Y-72534107D01*
X164622928Y-72511908D01*
X164615876Y-72488661D01*
X164607381Y-72445955D01*
X164605000Y-72421772D01*
X164605000Y-72378235D01*
X164607382Y-72354045D01*
X164610769Y-72337016D01*
X164615876Y-72311338D01*
X164622929Y-72288085D01*
X164639594Y-72247853D01*
X164651045Y-72226429D01*
X164675240Y-72190220D01*
X164690652Y-72171441D01*
X164721439Y-72140654D01*
X164740218Y-72125242D01*
X164776427Y-72101047D01*
X164797860Y-72089592D01*
X164797863Y-72089591D01*
X164838085Y-72072929D01*
X164861347Y-72065873D01*
X164883002Y-72061566D01*
X164904041Y-72057382D01*
X164928230Y-72055000D01*
X164971768Y-72055000D01*
X164995956Y-72057382D01*
G37*
%TD.AperFunction*%
%TA.AperFunction,Conductor*%
G36*
X164995956Y-70057382D02*
G01*
X165024406Y-70063040D01*
X165038650Y-70065873D01*
X165061910Y-70072928D01*
X165102140Y-70089592D01*
X165123572Y-70101048D01*
X165144024Y-70114714D01*
X165159773Y-70125237D01*
X165178563Y-70140658D01*
X165201090Y-70163185D01*
X165211485Y-70173217D01*
X165217963Y-70179249D01*
X165218094Y-70179370D01*
X165220102Y-70181227D01*
X165220104Y-70181228D01*
X165220108Y-70181232D01*
X165249314Y-70200596D01*
X165325843Y-70251338D01*
X165343010Y-70259177D01*
X165389402Y-70280364D01*
X165396008Y-70282406D01*
X165454242Y-70321010D01*
X165482361Y-70384972D01*
X165471437Y-70453982D01*
X165424936Y-70506131D01*
X165401057Y-70517662D01*
X165354805Y-70534165D01*
X165354802Y-70534166D01*
X165293488Y-70567646D01*
X165293480Y-70567651D01*
X165201099Y-70636807D01*
X165201085Y-70636819D01*
X165178560Y-70659343D01*
X165159773Y-70674760D01*
X165123572Y-70698949D01*
X165102135Y-70710407D01*
X165061913Y-70727068D01*
X165038660Y-70734122D01*
X164995956Y-70742617D01*
X164971765Y-70745000D01*
X164928235Y-70745000D01*
X164904043Y-70742617D01*
X164875003Y-70736840D01*
X164861344Y-70734123D01*
X164838088Y-70727068D01*
X164797861Y-70710406D01*
X164776421Y-70698946D01*
X164740226Y-70674761D01*
X164740225Y-70674760D01*
X164721436Y-70659340D01*
X164690659Y-70628563D01*
X164675238Y-70609773D01*
X164651050Y-70573573D01*
X164639592Y-70552137D01*
X164633729Y-70537984D01*
X164622928Y-70511908D01*
X164615876Y-70488661D01*
X164607381Y-70445955D01*
X164605000Y-70421772D01*
X164605000Y-70378235D01*
X164607382Y-70354045D01*
X164615876Y-70311340D01*
X164622929Y-70288085D01*
X164639594Y-70247853D01*
X164651045Y-70226429D01*
X164675240Y-70190220D01*
X164690652Y-70171441D01*
X164721439Y-70140654D01*
X164740218Y-70125242D01*
X164776427Y-70101047D01*
X164797860Y-70089592D01*
X164797863Y-70089591D01*
X164838085Y-70072929D01*
X164861347Y-70065873D01*
X164883002Y-70061566D01*
X164904041Y-70057382D01*
X164928230Y-70055000D01*
X164971768Y-70055000D01*
X164995956Y-70057382D01*
G37*
%TD.AperFunction*%
%TD*%
%TA.AperFunction,Conductor*%
%TO.N,+3V3*%
G36*
X141266581Y-65835582D02*
G01*
X141274012Y-65840578D01*
X141275838Y-65848778D01*
X141185693Y-66452802D01*
X141181082Y-66460479D01*
X141174121Y-66462775D01*
X140694289Y-66462775D01*
X140686016Y-66459348D01*
X140682717Y-66452802D01*
X140592571Y-65848778D01*
X140594739Y-65840090D01*
X140601826Y-65835582D01*
X140931891Y-65768967D01*
X140936519Y-65768967D01*
X141266581Y-65835582D01*
G37*
%TD.AperFunction*%
%TD*%
%TA.AperFunction,Conductor*%
%TO.N,+3V3*%
G36*
X143472542Y-70365055D02*
G01*
X143598670Y-70548696D01*
X143700533Y-70697006D01*
X143702589Y-70703630D01*
X143702589Y-71181116D01*
X143699162Y-71189389D01*
X143690889Y-71192816D01*
X143685680Y-71191593D01*
X142992429Y-70846920D01*
X142986547Y-70840168D01*
X142987161Y-70831234D01*
X142987894Y-70829966D01*
X143074288Y-70700000D01*
X143172701Y-70551953D01*
X143175954Y-70548698D01*
X143456415Y-70361941D01*
X143465200Y-70360208D01*
X143472542Y-70365055D01*
G37*
%TD.AperFunction*%
%TD*%
%TA.AperFunction,Conductor*%
%TO.N,+3V3*%
G36*
X142869661Y-69889003D02*
G01*
X142871189Y-69890134D01*
X143329520Y-70229427D01*
X143360513Y-70252370D01*
X143365124Y-70260047D01*
X143363298Y-70268247D01*
X143177013Y-70548740D01*
X143173740Y-70552013D01*
X142893247Y-70738298D01*
X142884459Y-70740021D01*
X142877370Y-70735513D01*
X142514003Y-70244661D01*
X142511835Y-70235973D01*
X142515132Y-70229429D01*
X142854428Y-69890133D01*
X142862700Y-69886707D01*
X142869661Y-69889003D01*
G37*
%TD.AperFunction*%
%TD*%
%TA.AperFunction,Conductor*%
%TO.N,+3V3*%
G36*
X134951282Y-72387071D02*
G01*
X134954913Y-72389538D01*
X135084722Y-72519347D01*
X135088149Y-72527620D01*
X135086733Y-72533199D01*
X134830538Y-73005432D01*
X134823581Y-73011070D01*
X134814675Y-73010137D01*
X134813786Y-73009602D01*
X134807501Y-73005432D01*
X134578364Y-72853408D01*
X134573366Y-72845982D01*
X134518343Y-72565305D01*
X134520114Y-72556529D01*
X134525510Y-72552181D01*
X134942330Y-72386935D01*
X134951282Y-72387071D01*
G37*
%TD.AperFunction*%
%TD*%
M02*
