%TF.GenerationSoftware,KiCad,Pcbnew,9.0.7*%
%TF.CreationDate,2026-02-13T21:21:15+01:00*%
%TF.ProjectId,ESC_v3,4553435f-7633-42e6-9b69-6361645f7063,rev?*%
%TF.SameCoordinates,Original*%
%TF.FileFunction,Legend,Bot*%
%TF.FilePolarity,Positive*%
%FSLAX46Y46*%
G04 Gerber Fmt 4.6, Leading zero omitted, Abs format (unit mm)*
G04 Created by KiCad (PCBNEW 9.0.7) date 2026-02-13 21:21:15*
%MOMM*%
%LPD*%
G01*
G04 APERTURE LIST*
G04 Aperture macros list*
%AMRoundRect*
0 Rectangle with rounded corners*
0 $1 Rounding radius*
0 $2 $3 $4 $5 $6 $7 $8 $9 X,Y pos of 4 corners*
0 Add a 4 corners polygon primitive as box body*
4,1,4,$2,$3,$4,$5,$6,$7,$8,$9,$2,$3,0*
0 Add four circle primitives for the rounded corners*
1,1,$1+$1,$2,$3*
1,1,$1+$1,$4,$5*
1,1,$1+$1,$6,$7*
1,1,$1+$1,$8,$9*
0 Add four rect primitives between the rounded corners*
20,1,$1+$1,$2,$3,$4,$5,0*
20,1,$1+$1,$4,$5,$6,$7,0*
20,1,$1+$1,$6,$7,$8,$9,0*
20,1,$1+$1,$8,$9,$2,$3,0*%
%AMFreePoly0*
4,1,18,-0.697500,2.280000,2.027500,2.280000,2.502500,2.280000,2.502500,1.530000,2.027500,1.530000,2.027500,-1.530000,2.502500,-1.530000,2.502500,-2.280000,-0.697500,-2.280000,-0.697500,-2.775000,-1.602500,-2.775000,-1.602500,-2.280000,-2.027500,-2.280000,-2.027500,2.280000,-1.602500,2.280000,-1.602500,2.775000,-0.697500,2.775000,-0.697500,2.280000,-0.697500,2.280000,$1*%
G04 Aperture macros list end*
%ADD10C,0.220000*%
%ADD11C,0.400000*%
%ADD12C,0.360000*%
%ADD13C,0.080000*%
%ADD14C,0.120000*%
%ADD15C,0.000000*%
%ADD16R,1.700000X1.700000*%
%ADD17C,3.200000*%
%ADD18C,5.500000*%
%ADD19RoundRect,0.250000X-0.600000X-0.725000X0.600000X-0.725000X0.600000X0.725000X-0.600000X0.725000X0*%
%ADD20O,1.700000X1.950000*%
%ADD21RoundRect,0.200000X-0.275000X0.200000X-0.275000X-0.200000X0.275000X-0.200000X0.275000X0.200000X0*%
%ADD22RoundRect,0.187500X0.187500X-0.312500X0.187500X0.312500X-0.187500X0.312500X-0.187500X-0.312500X0*%
%ADD23FreePoly0,90.000000*%
%ADD24RoundRect,0.250000X-0.250000X-0.475000X0.250000X-0.475000X0.250000X0.475000X-0.250000X0.475000X0*%
%ADD25RoundRect,0.250000X0.350000X-0.275000X0.350000X0.275000X-0.350000X0.275000X-0.350000X-0.275000X0*%
%ADD26RoundRect,0.200000X0.275000X-0.200000X0.275000X0.200000X-0.275000X0.200000X-0.275000X-0.200000X0*%
%ADD27RoundRect,0.125000X0.125000X-0.125000X0.125000X0.125000X-0.125000X0.125000X-0.125000X-0.125000X0*%
%ADD28RoundRect,0.200000X0.200000X0.275000X-0.200000X0.275000X-0.200000X-0.275000X0.200000X-0.275000X0*%
%ADD29RoundRect,0.250000X-0.650000X-2.450000X0.650000X-2.450000X0.650000X2.450000X-0.650000X2.450000X0*%
%ADD30RoundRect,0.150000X0.150000X-0.512500X0.150000X0.512500X-0.150000X0.512500X-0.150000X-0.512500X0*%
%ADD31RoundRect,0.250000X-0.475000X0.250000X-0.475000X-0.250000X0.475000X-0.250000X0.475000X0.250000X0*%
%ADD32RoundRect,0.250000X0.475000X-0.250000X0.475000X0.250000X-0.475000X0.250000X-0.475000X-0.250000X0*%
%ADD33RoundRect,0.250000X0.250000X0.475000X-0.250000X0.475000X-0.250000X-0.475000X0.250000X-0.475000X0*%
%ADD34RoundRect,0.200000X-0.200000X-0.275000X0.200000X-0.275000X0.200000X0.275000X-0.200000X0.275000X0*%
%ADD35RoundRect,0.150000X-0.150000X0.825000X-0.150000X-0.825000X0.150000X-0.825000X0.150000X0.825000X0*%
G04 APERTURE END LIST*
D10*
G36*
X128398101Y-88737516D02*
G01*
X128427982Y-88764077D01*
X128466264Y-88825329D01*
X128489655Y-89012455D01*
X128470487Y-89063570D01*
X128455259Y-89080974D01*
X128408001Y-89106179D01*
X128269614Y-89106179D01*
X128205043Y-89075792D01*
X128175161Y-89049230D01*
X128136881Y-88987981D01*
X128113490Y-88800853D01*
X128132657Y-88749738D01*
X128147885Y-88732336D01*
X128195145Y-88707131D01*
X128333532Y-88707131D01*
X128398101Y-88737516D01*
G37*
G36*
X132207625Y-88356564D02*
G01*
X132237506Y-88383125D01*
X132282806Y-88455605D01*
X132345814Y-88623625D01*
X132372264Y-88835225D01*
X132351766Y-88999209D01*
X132327630Y-89063570D01*
X132312402Y-89080974D01*
X132265144Y-89106179D01*
X132221995Y-89106179D01*
X132157424Y-89075792D01*
X132127542Y-89049230D01*
X132082244Y-88976753D01*
X132019236Y-88808731D01*
X131992786Y-88597130D01*
X132013283Y-88433151D01*
X132037419Y-88368786D01*
X132052647Y-88351384D01*
X132099907Y-88326179D01*
X132143056Y-88326179D01*
X132207625Y-88356564D01*
G37*
G36*
X132703947Y-89675029D02*
G01*
X127359361Y-89675029D01*
X127359361Y-88779694D01*
X127891263Y-88779694D01*
X127891827Y-88801251D01*
X127921589Y-89039346D01*
X127926349Y-89060378D01*
X127927495Y-89062394D01*
X127927879Y-89064683D01*
X127937460Y-89084001D01*
X127996983Y-89179240D01*
X128001425Y-89185002D01*
X128002548Y-89187317D01*
X128006545Y-89191643D01*
X128010149Y-89196317D01*
X128012246Y-89197813D01*
X128017183Y-89203155D01*
X128070754Y-89250775D01*
X128076733Y-89255120D01*
X128078480Y-89257040D01*
X128083483Y-89260025D01*
X128088198Y-89263452D01*
X128090651Y-89264303D01*
X128096997Y-89268090D01*
X128198188Y-89315709D01*
X128218505Y-89322934D01*
X128221133Y-89323058D01*
X128223565Y-89324065D01*
X128245025Y-89326179D01*
X128435502Y-89326179D01*
X128456962Y-89324065D01*
X128461957Y-89321996D01*
X128467337Y-89321471D01*
X128487267Y-89313238D01*
X128576552Y-89265619D01*
X128589903Y-89256714D01*
X128591848Y-89255753D01*
X128593081Y-89254595D01*
X128594493Y-89253654D01*
X128595875Y-89251973D01*
X128607571Y-89240995D01*
X128649238Y-89193375D01*
X128658399Y-89180559D01*
X128659936Y-89178915D01*
X128660730Y-89177298D01*
X128661779Y-89175832D01*
X128662500Y-89173698D01*
X128669450Y-89159563D01*
X128705164Y-89064325D01*
X128710720Y-89043490D01*
X128710549Y-89038464D01*
X128711883Y-89033615D01*
X128711319Y-89012059D01*
X128663700Y-88631106D01*
X128663056Y-88628264D01*
X128663101Y-88626962D01*
X128660860Y-88618559D01*
X128658940Y-88610074D01*
X128658295Y-88608940D01*
X128657545Y-88606126D01*
X128586117Y-88415651D01*
X128581813Y-88406897D01*
X128581028Y-88404134D01*
X128578593Y-88400347D01*
X128577803Y-88398741D01*
X128796025Y-88398741D01*
X128796589Y-88420298D01*
X128808493Y-88515536D01*
X128810521Y-88524500D01*
X128810627Y-88527336D01*
X128812193Y-88531884D01*
X128813253Y-88536568D01*
X128814653Y-88539030D01*
X128817647Y-88547726D01*
X128883124Y-88690583D01*
X128893988Y-88709211D01*
X128894876Y-88710036D01*
X128895406Y-88711128D01*
X128910041Y-88726965D01*
X129336656Y-89106179D01*
X129006930Y-89106179D01*
X128985470Y-89108293D01*
X128945817Y-89124717D01*
X128915468Y-89155066D01*
X128899044Y-89194719D01*
X128899044Y-89237639D01*
X128915468Y-89277292D01*
X128945817Y-89307641D01*
X128985470Y-89324065D01*
X129006930Y-89326179D01*
X129625978Y-89326179D01*
X129647438Y-89324065D01*
X129650464Y-89322811D01*
X129653736Y-89322619D01*
X129670189Y-89314641D01*
X129687091Y-89307641D01*
X129689409Y-89305322D01*
X129692356Y-89303894D01*
X129704497Y-89290234D01*
X129717440Y-89277292D01*
X129718695Y-89274261D01*
X129720870Y-89271815D01*
X129726865Y-89254536D01*
X129733864Y-89237639D01*
X129733864Y-89234365D01*
X129734939Y-89231267D01*
X129733864Y-89212996D01*
X129733864Y-89194719D01*
X129732610Y-89191692D01*
X129732418Y-89188421D01*
X129724440Y-89171967D01*
X129717440Y-89155066D01*
X129715121Y-89152747D01*
X129713693Y-89149801D01*
X129699058Y-89133964D01*
X129073483Y-88577897D01*
X129024695Y-88471451D01*
X129018252Y-88419901D01*
X129037419Y-88368786D01*
X129052647Y-88351384D01*
X129099907Y-88326179D01*
X129285913Y-88326179D01*
X129350482Y-88356564D01*
X129392183Y-88393632D01*
X129409627Y-88406309D01*
X129450175Y-88420378D01*
X129493021Y-88417858D01*
X129531641Y-88399132D01*
X129560155Y-88367054D01*
X129574224Y-88326505D01*
X129571704Y-88283659D01*
X129552978Y-88245040D01*
X129538343Y-88229202D01*
X129484772Y-88181583D01*
X129479037Y-88177415D01*
X129623478Y-88177415D01*
X129635213Y-88218700D01*
X129646876Y-88236837D01*
X130664733Y-89522552D01*
X130679711Y-89538065D01*
X130717201Y-89558960D01*
X130759834Y-89563918D01*
X130801118Y-89552182D01*
X130834769Y-89525542D01*
X130855664Y-89488052D01*
X130860622Y-89445419D01*
X130848886Y-89404135D01*
X130837223Y-89385997D01*
X130055645Y-88398741D01*
X130796025Y-88398741D01*
X130796589Y-88420298D01*
X130808493Y-88515536D01*
X130810521Y-88524500D01*
X130810627Y-88527336D01*
X130812193Y-88531884D01*
X130813253Y-88536568D01*
X130814653Y-88539030D01*
X130817647Y-88547726D01*
X130883124Y-88690583D01*
X130893988Y-88709211D01*
X130894876Y-88710036D01*
X130895406Y-88711128D01*
X130910041Y-88726965D01*
X131336656Y-89106179D01*
X131006930Y-89106179D01*
X130985470Y-89108293D01*
X130945817Y-89124717D01*
X130915468Y-89155066D01*
X130899044Y-89194719D01*
X130899044Y-89237639D01*
X130915468Y-89277292D01*
X130945817Y-89307641D01*
X130985470Y-89324065D01*
X131006930Y-89326179D01*
X131625978Y-89326179D01*
X131647438Y-89324065D01*
X131650464Y-89322811D01*
X131653736Y-89322619D01*
X131670189Y-89314641D01*
X131687091Y-89307641D01*
X131689409Y-89305322D01*
X131692356Y-89303894D01*
X131704497Y-89290234D01*
X131717440Y-89277292D01*
X131718695Y-89274261D01*
X131720870Y-89271815D01*
X131726865Y-89254536D01*
X131733864Y-89237639D01*
X131733864Y-89234365D01*
X131734939Y-89231267D01*
X131733864Y-89212996D01*
X131733864Y-89194719D01*
X131732610Y-89191692D01*
X131732418Y-89188421D01*
X131724440Y-89171967D01*
X131717440Y-89155066D01*
X131715121Y-89152747D01*
X131713693Y-89149801D01*
X131699058Y-89133964D01*
X131086219Y-88589218D01*
X131772215Y-88589218D01*
X131772422Y-88597130D01*
X131772215Y-88605043D01*
X131772672Y-88606707D01*
X131772779Y-88610775D01*
X131802541Y-88848870D01*
X131803184Y-88851711D01*
X131803140Y-88853014D01*
X131805380Y-88861416D01*
X131807301Y-88869902D01*
X131807945Y-88871035D01*
X131808696Y-88873850D01*
X131880125Y-89064326D01*
X131880239Y-89064557D01*
X131880260Y-89064683D01*
X131884983Y-89074207D01*
X131889640Y-89083677D01*
X131889725Y-89083768D01*
X131889841Y-89084001D01*
X131949364Y-89179240D01*
X131953806Y-89185002D01*
X131954929Y-89187317D01*
X131958926Y-89191643D01*
X131962530Y-89196317D01*
X131964627Y-89197813D01*
X131969564Y-89203155D01*
X132023135Y-89250775D01*
X132029114Y-89255120D01*
X132030861Y-89257040D01*
X132035864Y-89260025D01*
X132040579Y-89263452D01*
X132043032Y-89264303D01*
X132049378Y-89268090D01*
X132150569Y-89315709D01*
X132170886Y-89322934D01*
X132173514Y-89323058D01*
X132175946Y-89324065D01*
X132197406Y-89326179D01*
X132292644Y-89326179D01*
X132314104Y-89324065D01*
X132319099Y-89321995D01*
X132324478Y-89321471D01*
X132344409Y-89313238D01*
X132433695Y-89265619D01*
X132447048Y-89256713D01*
X132448991Y-89255753D01*
X132450222Y-89254596D01*
X132451635Y-89253655D01*
X132453017Y-89251973D01*
X132464714Y-89240995D01*
X132506381Y-89193375D01*
X132515542Y-89180559D01*
X132517079Y-89178915D01*
X132517873Y-89177298D01*
X132518922Y-89175832D01*
X132519643Y-89173698D01*
X132526593Y-89159563D01*
X132562307Y-89064325D01*
X132563057Y-89061512D01*
X132563702Y-89060378D01*
X132565623Y-89051889D01*
X132567863Y-89043490D01*
X132567818Y-89042187D01*
X132568462Y-89039346D01*
X132592271Y-88848870D01*
X132592377Y-88844806D01*
X132592836Y-88843139D01*
X132592628Y-88835219D01*
X132592836Y-88827314D01*
X132592378Y-88825649D01*
X132592272Y-88821582D01*
X132562510Y-88583487D01*
X132561866Y-88580645D01*
X132561911Y-88579343D01*
X132559671Y-88570943D01*
X132557750Y-88562455D01*
X132557105Y-88561320D01*
X132556355Y-88558508D01*
X132484926Y-88368031D01*
X132484812Y-88367799D01*
X132484791Y-88367673D01*
X132480013Y-88358039D01*
X132475412Y-88348680D01*
X132475325Y-88348586D01*
X132475210Y-88348355D01*
X132415686Y-88253117D01*
X132411243Y-88247354D01*
X132410121Y-88245040D01*
X132406122Y-88240712D01*
X132402519Y-88236039D01*
X132400421Y-88234542D01*
X132395486Y-88229202D01*
X132341915Y-88181583D01*
X132335938Y-88177240D01*
X132334190Y-88175318D01*
X132329181Y-88172328D01*
X132324471Y-88168906D01*
X132322020Y-88168055D01*
X132315673Y-88164268D01*
X132214481Y-88116649D01*
X132194164Y-88109424D01*
X132191535Y-88109299D01*
X132189104Y-88108293D01*
X132167644Y-88106179D01*
X132072406Y-88106179D01*
X132050946Y-88108293D01*
X132045950Y-88110361D01*
X132040571Y-88110887D01*
X132020641Y-88119120D01*
X131931356Y-88166739D01*
X131918008Y-88175640D01*
X131916060Y-88176604D01*
X131914824Y-88177763D01*
X131913416Y-88178703D01*
X131912036Y-88180380D01*
X131900338Y-88191362D01*
X131858671Y-88238981D01*
X131849507Y-88251798D01*
X131847972Y-88253442D01*
X131847177Y-88255057D01*
X131846130Y-88256523D01*
X131845408Y-88258656D01*
X131838458Y-88272794D01*
X131802744Y-88368032D01*
X131801993Y-88370844D01*
X131801349Y-88371979D01*
X131799426Y-88380471D01*
X131797188Y-88388868D01*
X131797232Y-88390169D01*
X131796589Y-88393011D01*
X131772779Y-88583487D01*
X131772672Y-88587553D01*
X131772215Y-88589218D01*
X131086219Y-88589218D01*
X131073483Y-88577897D01*
X131024695Y-88471451D01*
X131018252Y-88419901D01*
X131037419Y-88368786D01*
X131052647Y-88351384D01*
X131099907Y-88326179D01*
X131285913Y-88326179D01*
X131350482Y-88356564D01*
X131392183Y-88393632D01*
X131409627Y-88406309D01*
X131450175Y-88420378D01*
X131493021Y-88417858D01*
X131531641Y-88399132D01*
X131560155Y-88367054D01*
X131574224Y-88326505D01*
X131571704Y-88283659D01*
X131552978Y-88245040D01*
X131538343Y-88229202D01*
X131484772Y-88181583D01*
X131478793Y-88177238D01*
X131477047Y-88175319D01*
X131472043Y-88172332D01*
X131467328Y-88168906D01*
X131464875Y-88168055D01*
X131458530Y-88164268D01*
X131357340Y-88116649D01*
X131337022Y-88109424D01*
X131334393Y-88109299D01*
X131331962Y-88108293D01*
X131310502Y-88106179D01*
X131072406Y-88106179D01*
X131050946Y-88108293D01*
X131045950Y-88110361D01*
X131040571Y-88110887D01*
X131020641Y-88119120D01*
X130931356Y-88166739D01*
X130918008Y-88175640D01*
X130916060Y-88176604D01*
X130914824Y-88177763D01*
X130913416Y-88178703D01*
X130912036Y-88180380D01*
X130900338Y-88191362D01*
X130858671Y-88238981D01*
X130849507Y-88251798D01*
X130847972Y-88253442D01*
X130847177Y-88255057D01*
X130846130Y-88256523D01*
X130845408Y-88258656D01*
X130838458Y-88272794D01*
X130802744Y-88368032D01*
X130797188Y-88388868D01*
X130797358Y-88393892D01*
X130796025Y-88398741D01*
X130055645Y-88398741D01*
X129819366Y-88100283D01*
X129804388Y-88084769D01*
X129766898Y-88063874D01*
X129724266Y-88058917D01*
X129682981Y-88070652D01*
X129649330Y-88097293D01*
X129628435Y-88134783D01*
X129623478Y-88177415D01*
X129479037Y-88177415D01*
X129478793Y-88177238D01*
X129477047Y-88175319D01*
X129472043Y-88172332D01*
X129467328Y-88168906D01*
X129464875Y-88168055D01*
X129458530Y-88164268D01*
X129357340Y-88116649D01*
X129337022Y-88109424D01*
X129334393Y-88109299D01*
X129331962Y-88108293D01*
X129310502Y-88106179D01*
X129072406Y-88106179D01*
X129050946Y-88108293D01*
X129045950Y-88110361D01*
X129040571Y-88110887D01*
X129020641Y-88119120D01*
X128931356Y-88166739D01*
X128918008Y-88175640D01*
X128916060Y-88176604D01*
X128914824Y-88177763D01*
X128913416Y-88178703D01*
X128912036Y-88180380D01*
X128900338Y-88191362D01*
X128858671Y-88238981D01*
X128849507Y-88251798D01*
X128847972Y-88253442D01*
X128847177Y-88255057D01*
X128846130Y-88256523D01*
X128845408Y-88258656D01*
X128838458Y-88272794D01*
X128802744Y-88368032D01*
X128797188Y-88388868D01*
X128797358Y-88393892D01*
X128796025Y-88398741D01*
X128577803Y-88398741D01*
X128576603Y-88396299D01*
X128574638Y-88394196D01*
X128569366Y-88385996D01*
X128456270Y-88243139D01*
X128449597Y-88236227D01*
X128443105Y-88229202D01*
X128389534Y-88181583D01*
X128383557Y-88177240D01*
X128381809Y-88175318D01*
X128376800Y-88172328D01*
X128372090Y-88168906D01*
X128369639Y-88168055D01*
X128363292Y-88164268D01*
X128262100Y-88116649D01*
X128241783Y-88109424D01*
X128239154Y-88109299D01*
X128236723Y-88108293D01*
X128215263Y-88106179D01*
X128024787Y-88106179D01*
X128003327Y-88108293D01*
X127963674Y-88124717D01*
X127933325Y-88155066D01*
X127916901Y-88194719D01*
X127916901Y-88237639D01*
X127933325Y-88277292D01*
X127963674Y-88307641D01*
X128003327Y-88324065D01*
X128024787Y-88326179D01*
X128190675Y-88326179D01*
X128255244Y-88356564D01*
X128289751Y-88387237D01*
X128369740Y-88488275D01*
X128358121Y-88487131D01*
X128167644Y-88487131D01*
X128146184Y-88489245D01*
X128141188Y-88491313D01*
X128135809Y-88491839D01*
X128115879Y-88500072D01*
X128026594Y-88547691D01*
X128013246Y-88556592D01*
X128011298Y-88557556D01*
X128010062Y-88558715D01*
X128008654Y-88559655D01*
X128007274Y-88561332D01*
X127995576Y-88572314D01*
X127953909Y-88619933D01*
X127944745Y-88632750D01*
X127943210Y-88634394D01*
X127942415Y-88636009D01*
X127941368Y-88637475D01*
X127940646Y-88639608D01*
X127933696Y-88653746D01*
X127897982Y-88748984D01*
X127892426Y-88769820D01*
X127892596Y-88774844D01*
X127891263Y-88779694D01*
X127359361Y-88779694D01*
X127359361Y-87584775D01*
X127470472Y-87584775D01*
X127470472Y-87627695D01*
X127486896Y-87667348D01*
X127517245Y-87697697D01*
X127556898Y-87714121D01*
X127578358Y-87716235D01*
X128149787Y-87716235D01*
X128171247Y-87714121D01*
X128210900Y-87697697D01*
X128241249Y-87667348D01*
X128257673Y-87627695D01*
X128257673Y-87584775D01*
X128241249Y-87545122D01*
X128210900Y-87514773D01*
X128171247Y-87498349D01*
X128149787Y-87496235D01*
X127961179Y-87496235D01*
X127890340Y-86929531D01*
X127892207Y-86930887D01*
X127893956Y-86932810D01*
X127898964Y-86935799D01*
X127903675Y-86939222D01*
X127906125Y-86940072D01*
X127912473Y-86943860D01*
X128013664Y-86991479D01*
X128033981Y-86998704D01*
X128076853Y-87000727D01*
X128117236Y-86986190D01*
X128148981Y-86957304D01*
X128164540Y-86924241D01*
X128290860Y-86924241D01*
X128293287Y-86967092D01*
X128300702Y-86987341D01*
X128622131Y-87654008D01*
X128633356Y-87672420D01*
X128637828Y-87676413D01*
X128641004Y-87681509D01*
X128653718Y-87690600D01*
X128665371Y-87701005D01*
X128671035Y-87702984D01*
X128675916Y-87706474D01*
X128691133Y-87710006D01*
X128705889Y-87715162D01*
X128711880Y-87714822D01*
X128717724Y-87716179D01*
X128733140Y-87713618D01*
X128748740Y-87712735D01*
X128754141Y-87710130D01*
X128760064Y-87709147D01*
X128773334Y-87700876D01*
X128787401Y-87694095D01*
X128791394Y-87689622D01*
X128796490Y-87686447D01*
X128805579Y-87673735D01*
X128815987Y-87662080D01*
X128817966Y-87656412D01*
X128821455Y-87651535D01*
X128828367Y-87631109D01*
X128983128Y-86964442D01*
X128985921Y-86943059D01*
X128978889Y-86900720D01*
X128956189Y-86864294D01*
X128921277Y-86839329D01*
X128879469Y-86829623D01*
X128837129Y-86836655D01*
X128800704Y-86859355D01*
X128775738Y-86894267D01*
X128768826Y-86914693D01*
X128684679Y-87277173D01*
X128498872Y-86891795D01*
X128487647Y-86873383D01*
X128455632Y-86844797D01*
X128415114Y-86830641D01*
X128372263Y-86833068D01*
X128333602Y-86851708D01*
X128305016Y-86883723D01*
X128290860Y-86924241D01*
X128164540Y-86924241D01*
X128167256Y-86918469D01*
X128169280Y-86875597D01*
X128154742Y-86835214D01*
X128125856Y-86803470D01*
X128107339Y-86792419D01*
X128020519Y-86751562D01*
X127948153Y-86687237D01*
X129832379Y-86687237D01*
X129835234Y-86730062D01*
X129854260Y-86768534D01*
X129886560Y-86796797D01*
X129927218Y-86810548D01*
X129970043Y-86807693D01*
X130008515Y-86788667D01*
X130024237Y-86773909D01*
X130046741Y-86748189D01*
X130138610Y-86716235D01*
X130198091Y-86716235D01*
X130308386Y-86751529D01*
X130386316Y-86820800D01*
X130431617Y-86893281D01*
X130494623Y-87061298D01*
X130509168Y-87177663D01*
X130488671Y-87341644D01*
X130464534Y-87406007D01*
X130413546Y-87464280D01*
X130321678Y-87496235D01*
X130262197Y-87496235D01*
X130151903Y-87460941D01*
X130115724Y-87428781D01*
X130098281Y-87416104D01*
X130057732Y-87402035D01*
X130014886Y-87404555D01*
X129976267Y-87423281D01*
X129947752Y-87455359D01*
X129933683Y-87495908D01*
X129936203Y-87538754D01*
X129954929Y-87577373D01*
X129969564Y-87593211D01*
X130023135Y-87640831D01*
X130040579Y-87653508D01*
X130041860Y-87653952D01*
X130042896Y-87654829D01*
X130062691Y-87663383D01*
X130211499Y-87711002D01*
X130220916Y-87713024D01*
X130223565Y-87714121D01*
X130228111Y-87714568D01*
X130232583Y-87715529D01*
X130235443Y-87715291D01*
X130245025Y-87716235D01*
X130340263Y-87716235D01*
X130352608Y-87715018D01*
X130355437Y-87715183D01*
X130358543Y-87714434D01*
X130361723Y-87714121D01*
X130364340Y-87713036D01*
X130376400Y-87710130D01*
X130513305Y-87662511D01*
X130532879Y-87653464D01*
X130538037Y-87648871D01*
X130544230Y-87645809D01*
X130559952Y-87631051D01*
X130643285Y-87535812D01*
X130652443Y-87522999D01*
X130653982Y-87521353D01*
X130654778Y-87519732D01*
X130655825Y-87518269D01*
X130656545Y-87516140D01*
X130663497Y-87502001D01*
X130699212Y-87406764D01*
X130699963Y-87403947D01*
X130700607Y-87402815D01*
X130702526Y-87394335D01*
X130704768Y-87385928D01*
X130704723Y-87384624D01*
X130705367Y-87381783D01*
X130729176Y-87191307D01*
X130729282Y-87187240D01*
X130729740Y-87185576D01*
X130729532Y-87177663D01*
X130729740Y-87169750D01*
X130729282Y-87168085D01*
X130729176Y-87164020D01*
X130711319Y-87021162D01*
X130710675Y-87018320D01*
X130710720Y-87017018D01*
X130708479Y-87008615D01*
X130706559Y-87000130D01*
X130705914Y-86998996D01*
X130705164Y-86996182D01*
X130633736Y-86805707D01*
X130633622Y-86805475D01*
X130633601Y-86805348D01*
X130628852Y-86795772D01*
X130624222Y-86786355D01*
X130624135Y-86786261D01*
X130624020Y-86786030D01*
X130564496Y-86690792D01*
X130560054Y-86685031D01*
X130558931Y-86682714D01*
X130554928Y-86678383D01*
X130551329Y-86673714D01*
X130549232Y-86672218D01*
X130546284Y-86669028D01*
X130826554Y-86669028D01*
X130840654Y-86709566D01*
X130869193Y-86741622D01*
X130907828Y-86760316D01*
X130950676Y-86762802D01*
X130971639Y-86757749D01*
X131090991Y-86716235D01*
X131285913Y-86716235D01*
X131350482Y-86746620D01*
X131380363Y-86773181D01*
X131418645Y-86834433D01*
X131424179Y-86878703D01*
X131405012Y-86929817D01*
X131389783Y-86947220D01*
X131329833Y-86979193D01*
X131158015Y-87023534D01*
X131155059Y-87024615D01*
X131153668Y-87024751D01*
X131145771Y-87028013D01*
X131137764Y-87030943D01*
X131136648Y-87031782D01*
X131133738Y-87032985D01*
X131044451Y-87080604D01*
X131031103Y-87089505D01*
X131029155Y-87090469D01*
X131027919Y-87091628D01*
X131026511Y-87092568D01*
X131025131Y-87094246D01*
X131013433Y-87105227D01*
X130971766Y-87152846D01*
X130962602Y-87165663D01*
X130961067Y-87167307D01*
X130960272Y-87168922D01*
X130959225Y-87170388D01*
X130958503Y-87172521D01*
X130951553Y-87186659D01*
X130915839Y-87281897D01*
X130910283Y-87302733D01*
X130910453Y-87307758D01*
X130909120Y-87312608D01*
X130909684Y-87334164D01*
X130921589Y-87429402D01*
X130926349Y-87450434D01*
X130927495Y-87452450D01*
X130927879Y-87454739D01*
X130937460Y-87474057D01*
X130996983Y-87569296D01*
X131001425Y-87575058D01*
X131002548Y-87577373D01*
X131006545Y-87581699D01*
X131010149Y-87586373D01*
X131012246Y-87587869D01*
X131017183Y-87593211D01*
X131070754Y-87640831D01*
X131076733Y-87645176D01*
X131078480Y-87647096D01*
X131083483Y-87650081D01*
X131088198Y-87653508D01*
X131090651Y-87654359D01*
X131096997Y-87658146D01*
X131198188Y-87705765D01*
X131218505Y-87712990D01*
X131221133Y-87713114D01*
X131223565Y-87714121D01*
X131245025Y-87716235D01*
X131483121Y-87716235D01*
X131495466Y-87715018D01*
X131498295Y-87715183D01*
X131501401Y-87714434D01*
X131504581Y-87714121D01*
X131507198Y-87713036D01*
X131519258Y-87710130D01*
X131656162Y-87662511D01*
X131675737Y-87653464D01*
X131707793Y-87624925D01*
X131726487Y-87586290D01*
X131728973Y-87543442D01*
X131714873Y-87502904D01*
X131686333Y-87470848D01*
X131647699Y-87452154D01*
X131604851Y-87449668D01*
X131583887Y-87454721D01*
X131464536Y-87496235D01*
X131269614Y-87496235D01*
X131205043Y-87465848D01*
X131175161Y-87439286D01*
X131136881Y-87378037D01*
X131131347Y-87333765D01*
X131150514Y-87282651D01*
X131165742Y-87265249D01*
X131225693Y-87233275D01*
X131397511Y-87188936D01*
X131400472Y-87187852D01*
X131401859Y-87187717D01*
X131409745Y-87184459D01*
X131417762Y-87181526D01*
X131418875Y-87180687D01*
X131421790Y-87179484D01*
X131511076Y-87131865D01*
X131524423Y-87122963D01*
X131526372Y-87122000D01*
X131527607Y-87120840D01*
X131529016Y-87119901D01*
X131530395Y-87118222D01*
X131542094Y-87107242D01*
X131583761Y-87059623D01*
X131592921Y-87046808D01*
X131594460Y-87045162D01*
X131595255Y-87043543D01*
X131596302Y-87042080D01*
X131597022Y-87039949D01*
X131603974Y-87025810D01*
X131639688Y-86930572D01*
X131645244Y-86909737D01*
X131645073Y-86904710D01*
X131646407Y-86899861D01*
X131645843Y-86878305D01*
X131633938Y-86783067D01*
X131629178Y-86762035D01*
X131628031Y-86760018D01*
X131627648Y-86757729D01*
X131618067Y-86738411D01*
X131558543Y-86643173D01*
X131554100Y-86637410D01*
X131552978Y-86635096D01*
X131548979Y-86630768D01*
X131545376Y-86626095D01*
X131543278Y-86624598D01*
X131538343Y-86619258D01*
X131499550Y-86584775D01*
X131774044Y-86584775D01*
X131774044Y-86627695D01*
X131790468Y-86667348D01*
X131820817Y-86697697D01*
X131860470Y-86714121D01*
X131881930Y-86716235D01*
X132261014Y-86716235D01*
X132293038Y-86972425D01*
X132084311Y-86972425D01*
X132062851Y-86974539D01*
X132023198Y-86990963D01*
X131992849Y-87021312D01*
X131976425Y-87060965D01*
X131976425Y-87103885D01*
X131992849Y-87143538D01*
X132023198Y-87173887D01*
X132062851Y-87190311D01*
X132084311Y-87192425D01*
X132320538Y-87192425D01*
X132358514Y-87496235D01*
X132006930Y-87496235D01*
X131985470Y-87498349D01*
X131945817Y-87514773D01*
X131915468Y-87545122D01*
X131899044Y-87584775D01*
X131899044Y-87627695D01*
X131915468Y-87667348D01*
X131945817Y-87697697D01*
X131985470Y-87714121D01*
X132006930Y-87716235D01*
X132483121Y-87716235D01*
X132504581Y-87714121D01*
X132510954Y-87711481D01*
X132517797Y-87710626D01*
X132530610Y-87703339D01*
X132544234Y-87697697D01*
X132549111Y-87692819D01*
X132555107Y-87689410D01*
X132564157Y-87677773D01*
X132574583Y-87667348D01*
X132577222Y-87660975D01*
X132581457Y-87655531D01*
X132585366Y-87641313D01*
X132591007Y-87627695D01*
X132591007Y-87620798D01*
X132592836Y-87614147D01*
X132592272Y-87592591D01*
X132467272Y-86592591D01*
X132466007Y-86587001D01*
X132466007Y-86584775D01*
X132464896Y-86582092D01*
X132462512Y-86571559D01*
X132455224Y-86558743D01*
X132449583Y-86545122D01*
X132444706Y-86540245D01*
X132441297Y-86534249D01*
X132429656Y-86525195D01*
X132419234Y-86514773D01*
X132412863Y-86512134D01*
X132407418Y-86507899D01*
X132393197Y-86503989D01*
X132379581Y-86498349D01*
X132368836Y-86497290D01*
X132366034Y-86496520D01*
X132363821Y-86496796D01*
X132358121Y-86496235D01*
X131881930Y-86496235D01*
X131860470Y-86498349D01*
X131820817Y-86514773D01*
X131790468Y-86545122D01*
X131774044Y-86584775D01*
X131499550Y-86584775D01*
X131484772Y-86571639D01*
X131478793Y-86567294D01*
X131477047Y-86565375D01*
X131472043Y-86562388D01*
X131467328Y-86558962D01*
X131464875Y-86558111D01*
X131458530Y-86554324D01*
X131357340Y-86506705D01*
X131337022Y-86499480D01*
X131334393Y-86499355D01*
X131331962Y-86498349D01*
X131310502Y-86496235D01*
X131072406Y-86496235D01*
X131060060Y-86497451D01*
X131057232Y-86497287D01*
X131054125Y-86498035D01*
X131050946Y-86498349D01*
X131048329Y-86499432D01*
X131036268Y-86502340D01*
X130899365Y-86549959D01*
X130879790Y-86559006D01*
X130847734Y-86587545D01*
X130829040Y-86626180D01*
X130826554Y-86669028D01*
X130546284Y-86669028D01*
X130544296Y-86666877D01*
X130437153Y-86571639D01*
X130419709Y-86558962D01*
X130418429Y-86558517D01*
X130417393Y-86557641D01*
X130397598Y-86549087D01*
X130248788Y-86501468D01*
X130239371Y-86499446D01*
X130236723Y-86498349D01*
X130232176Y-86497901D01*
X130227705Y-86496941D01*
X130224844Y-86497178D01*
X130215263Y-86496235D01*
X130120025Y-86496235D01*
X130107679Y-86497451D01*
X130104851Y-86497287D01*
X130101744Y-86498035D01*
X130098565Y-86498349D01*
X130095948Y-86499432D01*
X130083887Y-86502340D01*
X129946984Y-86549959D01*
X129927409Y-86559006D01*
X129922250Y-86563598D01*
X129916060Y-86566660D01*
X129900338Y-86581418D01*
X129858671Y-86629037D01*
X129846130Y-86646579D01*
X129832379Y-86687237D01*
X127948153Y-86687237D01*
X127932441Y-86673271D01*
X127825317Y-86537957D01*
X127822980Y-86535536D01*
X127822248Y-86534249D01*
X127820195Y-86532652D01*
X127810339Y-86522444D01*
X127798803Y-86516014D01*
X127788369Y-86507899D01*
X127780223Y-86505659D01*
X127772849Y-86501549D01*
X127759725Y-86500023D01*
X127746985Y-86496520D01*
X127738605Y-86497567D01*
X127730216Y-86496592D01*
X127717504Y-86500205D01*
X127704396Y-86501844D01*
X127697055Y-86506017D01*
X127688932Y-86508327D01*
X127678576Y-86516525D01*
X127667086Y-86523059D01*
X127661897Y-86529729D01*
X127655281Y-86534968D01*
X127648851Y-86546503D01*
X127640736Y-86556938D01*
X127638496Y-86565083D01*
X127634386Y-86572458D01*
X127632860Y-86585581D01*
X127629357Y-86598322D01*
X127629728Y-86612516D01*
X127629429Y-86615091D01*
X127629832Y-86616511D01*
X127629921Y-86619879D01*
X127739465Y-87496235D01*
X127578358Y-87496235D01*
X127556898Y-87498349D01*
X127517245Y-87514773D01*
X127486896Y-87545122D01*
X127470472Y-87584775D01*
X127359361Y-87584775D01*
X127359361Y-86385124D01*
X132703947Y-86385124D01*
X132703947Y-89675029D01*
G37*
D11*
G36*
X136830283Y-98444755D02*
G01*
X134469716Y-98444755D01*
X134469716Y-97983515D01*
X134691938Y-97983515D01*
X134691938Y-98061551D01*
X134721801Y-98133647D01*
X134776981Y-98188827D01*
X134849077Y-98218690D01*
X134888095Y-98222533D01*
X136411904Y-98222533D01*
X136450922Y-98218690D01*
X136523018Y-98188827D01*
X136578198Y-98133647D01*
X136608061Y-98061551D01*
X136608061Y-97983515D01*
X136578198Y-97911419D01*
X136523018Y-97856239D01*
X136450922Y-97826376D01*
X136411904Y-97822533D01*
X134888095Y-97822533D01*
X134849077Y-97826376D01*
X134776981Y-97856239D01*
X134721801Y-97911419D01*
X134691938Y-97983515D01*
X134469716Y-97983515D01*
X134469716Y-97600311D01*
X136830283Y-97600311D01*
X136830283Y-98444755D01*
G37*
D12*
G36*
X155327142Y-101630994D02*
G01*
X154863920Y-101630994D01*
X154756623Y-101577346D01*
X154712220Y-101532942D01*
X154658571Y-101425644D01*
X154658571Y-101253485D01*
X154712219Y-101146188D01*
X154747231Y-101111177D01*
X154936351Y-101048137D01*
X155327142Y-101048137D01*
X155327142Y-101630994D01*
G37*
G36*
X155327142Y-100688137D02*
G01*
X154949634Y-100688137D01*
X154842338Y-100634488D01*
X154797933Y-100590083D01*
X154744285Y-100482787D01*
X154744285Y-100396342D01*
X154797932Y-100289046D01*
X154842339Y-100244641D01*
X154949634Y-100190994D01*
X155327142Y-100190994D01*
X155327142Y-100688137D01*
G37*
G36*
X153543120Y-101116708D02*
G01*
X153185450Y-101116708D01*
X153364285Y-100580204D01*
X153543120Y-101116708D01*
G37*
G36*
X157685728Y-102190994D02*
G01*
X151016316Y-102190994D01*
X151016316Y-99975878D01*
X151216316Y-99975878D01*
X151216316Y-100046110D01*
X151243192Y-100110997D01*
X151292854Y-100160659D01*
X151357741Y-100187535D01*
X151392857Y-100190994D01*
X151727142Y-100190994D01*
X151727142Y-101810994D01*
X151730601Y-101846110D01*
X151757477Y-101910997D01*
X151807139Y-101960659D01*
X151872026Y-101987535D01*
X151942258Y-101987535D01*
X152007145Y-101960659D01*
X152056807Y-101910997D01*
X152083683Y-101846110D01*
X152087142Y-101810994D01*
X152087142Y-101788481D01*
X152585699Y-101788481D01*
X152590677Y-101858537D01*
X152622086Y-101921355D01*
X152675144Y-101967371D01*
X152741772Y-101989580D01*
X152811828Y-101984602D01*
X152874646Y-101953193D01*
X152920662Y-101900135D01*
X152935048Y-101867915D01*
X153065450Y-101476708D01*
X153663120Y-101476708D01*
X153793522Y-101867915D01*
X153807908Y-101900136D01*
X153853924Y-101953194D01*
X153916742Y-101984603D01*
X153986798Y-101989581D01*
X154053426Y-101967371D01*
X154106485Y-101921355D01*
X154137894Y-101858537D01*
X154142871Y-101788481D01*
X154135048Y-101754073D01*
X153954022Y-101210994D01*
X154298571Y-101210994D01*
X154298571Y-101468137D01*
X154302030Y-101503253D01*
X154304505Y-101509229D01*
X154304964Y-101515680D01*
X154317574Y-101548635D01*
X154403288Y-101720063D01*
X154412800Y-101735174D01*
X154414620Y-101739567D01*
X154418679Y-101744513D01*
X154422086Y-101749925D01*
X154425675Y-101753038D01*
X154437005Y-101766843D01*
X154522719Y-101852559D01*
X154536526Y-101863889D01*
X154539639Y-101867479D01*
X154545050Y-101870885D01*
X154549996Y-101874944D01*
X154554387Y-101876763D01*
X154569501Y-101886277D01*
X154740930Y-101971991D01*
X154773885Y-101984601D01*
X154780335Y-101985059D01*
X154786312Y-101987535D01*
X154821428Y-101990994D01*
X155507142Y-101990994D01*
X155542258Y-101987535D01*
X155607145Y-101960659D01*
X155656807Y-101910997D01*
X155683683Y-101846110D01*
X155687142Y-101810994D01*
X155687142Y-100033507D01*
X155928556Y-100033507D01*
X155936379Y-100067915D01*
X156536379Y-101867915D01*
X156550765Y-101900136D01*
X156559191Y-101909852D01*
X156564943Y-101921355D01*
X156581989Y-101936139D01*
X156596781Y-101953194D01*
X156608288Y-101958947D01*
X156618001Y-101967371D01*
X156639402Y-101974504D01*
X156659599Y-101984603D01*
X156672433Y-101985515D01*
X156684629Y-101989580D01*
X156707134Y-101987980D01*
X156729655Y-101989581D01*
X156741857Y-101985513D01*
X156754685Y-101984602D01*
X156774873Y-101974507D01*
X156796283Y-101967371D01*
X156805998Y-101958945D01*
X156817503Y-101953193D01*
X156832288Y-101936144D01*
X156849342Y-101921355D01*
X156855095Y-101909847D01*
X156863519Y-101900135D01*
X156877905Y-101867915D01*
X157477905Y-100067915D01*
X157485728Y-100033507D01*
X157480751Y-99963451D01*
X157449342Y-99900633D01*
X157396283Y-99854617D01*
X157329655Y-99832407D01*
X157259599Y-99837385D01*
X157196781Y-99868794D01*
X157150765Y-99921852D01*
X157136379Y-99954073D01*
X156707142Y-101241784D01*
X156277905Y-99954073D01*
X156263519Y-99921853D01*
X156217503Y-99868795D01*
X156154685Y-99837386D01*
X156084629Y-99832408D01*
X156018001Y-99854617D01*
X155964943Y-99900633D01*
X155933534Y-99963451D01*
X155928556Y-100033507D01*
X155687142Y-100033507D01*
X155687142Y-100010994D01*
X155683683Y-99975878D01*
X155656807Y-99910991D01*
X155607145Y-99861329D01*
X155542258Y-99834453D01*
X155507142Y-99830994D01*
X154907142Y-99830994D01*
X154872026Y-99834453D01*
X154866049Y-99836928D01*
X154859599Y-99837387D01*
X154826643Y-99849997D01*
X154655216Y-99935711D01*
X154640102Y-99945224D01*
X154635713Y-99947043D01*
X154630769Y-99951100D01*
X154625354Y-99954509D01*
X154622238Y-99958100D01*
X154608436Y-99969428D01*
X154522721Y-100055142D01*
X154511390Y-100068947D01*
X154507800Y-100072062D01*
X154504392Y-100077474D01*
X154500335Y-100082419D01*
X154498515Y-100086810D01*
X154489002Y-100101924D01*
X154403288Y-100273353D01*
X154390677Y-100306309D01*
X154390218Y-100312760D01*
X154387744Y-100318735D01*
X154384285Y-100353851D01*
X154384285Y-100525280D01*
X154387744Y-100560396D01*
X154390219Y-100566372D01*
X154390678Y-100572823D01*
X154403288Y-100605778D01*
X154489002Y-100777206D01*
X154498515Y-100792319D01*
X154500335Y-100796711D01*
X154504392Y-100801655D01*
X154507800Y-100807068D01*
X154511390Y-100810182D01*
X154522721Y-100823988D01*
X154524139Y-100825406D01*
X154522720Y-100826572D01*
X154437006Y-100912286D01*
X154425676Y-100926090D01*
X154422086Y-100929205D01*
X154418678Y-100934617D01*
X154414621Y-100939562D01*
X154412801Y-100943953D01*
X154403288Y-100959067D01*
X154317574Y-101130496D01*
X154304963Y-101163452D01*
X154304504Y-101169903D01*
X154302030Y-101175878D01*
X154298571Y-101210994D01*
X153954022Y-101210994D01*
X153535048Y-99954073D01*
X153520662Y-99921853D01*
X153512238Y-99912140D01*
X153506485Y-99900633D01*
X153489431Y-99885843D01*
X153474646Y-99868795D01*
X153463141Y-99863042D01*
X153453426Y-99854617D01*
X153432016Y-99847480D01*
X153411828Y-99837386D01*
X153399000Y-99836474D01*
X153386798Y-99832407D01*
X153364277Y-99834007D01*
X153341772Y-99832408D01*
X153329576Y-99836472D01*
X153316742Y-99837385D01*
X153296545Y-99847483D01*
X153275144Y-99854617D01*
X153265431Y-99863040D01*
X153253924Y-99868794D01*
X153239132Y-99885848D01*
X153222086Y-99900633D01*
X153216334Y-99912135D01*
X153207908Y-99921852D01*
X153193522Y-99954073D01*
X152593522Y-101754073D01*
X152585699Y-101788481D01*
X152087142Y-101788481D01*
X152087142Y-100190994D01*
X152421428Y-100190994D01*
X152456544Y-100187535D01*
X152521431Y-100160659D01*
X152571093Y-100110997D01*
X152597969Y-100046110D01*
X152597969Y-99975878D01*
X152571093Y-99910991D01*
X152521431Y-99861329D01*
X152456544Y-99834453D01*
X152421428Y-99830994D01*
X151392857Y-99830994D01*
X151357741Y-99834453D01*
X151292854Y-99861329D01*
X151243192Y-99910991D01*
X151216316Y-99975878D01*
X151016316Y-99975878D01*
X151016316Y-99630994D01*
X157685728Y-99630994D01*
X157685728Y-102190994D01*
G37*
G36*
X134073571Y-101755994D02*
G01*
X133854209Y-101755994D01*
X133665089Y-101692954D01*
X133544362Y-101572227D01*
X133480548Y-101444598D01*
X133405000Y-101142405D01*
X133405000Y-100929581D01*
X133480547Y-100627389D01*
X133544362Y-100499760D01*
X133665089Y-100379034D01*
X133854209Y-100315994D01*
X134073571Y-100315994D01*
X134073571Y-101755994D01*
G37*
G36*
X138404999Y-102315994D02*
G01*
X132845000Y-102315994D01*
X132845000Y-100907422D01*
X133045000Y-100907422D01*
X133045000Y-101164565D01*
X133045603Y-101170690D01*
X133045213Y-101173315D01*
X133047157Y-101186463D01*
X133048459Y-101199681D01*
X133049473Y-101202130D01*
X133050374Y-101208221D01*
X133136088Y-101551078D01*
X133137014Y-101553669D01*
X133137106Y-101554964D01*
X133142698Y-101569577D01*
X133147961Y-101584307D01*
X133148733Y-101585349D01*
X133149717Y-101587920D01*
X133235431Y-101759349D01*
X133244944Y-101774462D01*
X133246764Y-101778854D01*
X133250821Y-101783798D01*
X133254229Y-101789211D01*
X133257819Y-101792325D01*
X133269149Y-101806130D01*
X133440578Y-101977559D01*
X133467854Y-101999944D01*
X133473829Y-102002419D01*
X133478716Y-102006657D01*
X133510936Y-102021043D01*
X133768079Y-102106757D01*
X133785492Y-102110716D01*
X133789884Y-102112535D01*
X133796250Y-102113162D01*
X133802487Y-102114580D01*
X133807226Y-102114243D01*
X133825000Y-102115994D01*
X134253571Y-102115994D01*
X134288687Y-102112535D01*
X134353574Y-102085659D01*
X134403236Y-102035997D01*
X134430112Y-101971110D01*
X134433571Y-101935994D01*
X134433571Y-100135994D01*
X134930714Y-100135994D01*
X134930714Y-101935994D01*
X134931603Y-101945023D01*
X134931153Y-101948566D01*
X134932404Y-101953154D01*
X134934173Y-101971110D01*
X134943331Y-101993221D01*
X134949632Y-102016324D01*
X134956658Y-102025396D01*
X134961049Y-102035997D01*
X134977980Y-102052928D01*
X134992636Y-102071852D01*
X135002594Y-102077542D01*
X135010711Y-102085659D01*
X135032832Y-102094821D01*
X135053614Y-102106697D01*
X135064997Y-102108144D01*
X135075598Y-102112535D01*
X135099532Y-102112535D01*
X135123286Y-102115555D01*
X135134360Y-102112535D01*
X135145830Y-102112535D01*
X135167941Y-102103376D01*
X135191044Y-102097076D01*
X135200116Y-102090049D01*
X135210717Y-102085659D01*
X135227648Y-102068727D01*
X135246572Y-102054072D01*
X135257016Y-102039359D01*
X135260379Y-102035997D01*
X135261745Y-102032698D01*
X135266998Y-102025299D01*
X135959285Y-100813796D01*
X135959285Y-101935994D01*
X135962744Y-101971110D01*
X135989620Y-102035997D01*
X136039282Y-102085659D01*
X136104169Y-102112535D01*
X136174401Y-102112535D01*
X136239288Y-102085659D01*
X136288950Y-102035997D01*
X136315826Y-101971110D01*
X136319285Y-101935994D01*
X136319285Y-101164565D01*
X136730714Y-101164565D01*
X136730714Y-101764565D01*
X136734172Y-101799670D01*
X136734172Y-101799680D01*
X136736844Y-101806130D01*
X136761049Y-101864568D01*
X136761053Y-101864572D01*
X136783434Y-101891843D01*
X136869148Y-101977559D01*
X136896425Y-101999944D01*
X136902400Y-102002419D01*
X136907287Y-102006657D01*
X136939507Y-102021043D01*
X137196650Y-102106757D01*
X137214063Y-102110716D01*
X137218455Y-102112535D01*
X137224821Y-102113162D01*
X137231058Y-102114580D01*
X137235797Y-102114243D01*
X137253571Y-102115994D01*
X137424999Y-102115994D01*
X137442772Y-102114243D01*
X137447512Y-102114580D01*
X137453748Y-102113162D01*
X137460115Y-102112535D01*
X137464506Y-102110716D01*
X137481920Y-102106757D01*
X137739062Y-102021043D01*
X137771283Y-102006657D01*
X137776169Y-102002419D01*
X137782145Y-101999944D01*
X137809421Y-101977559D01*
X137980850Y-101806130D01*
X137992179Y-101792325D01*
X137995770Y-101789211D01*
X137999177Y-101783798D01*
X138003235Y-101778854D01*
X138005054Y-101774462D01*
X138014568Y-101759349D01*
X138100282Y-101587920D01*
X138101265Y-101585349D01*
X138102038Y-101584307D01*
X138107305Y-101569563D01*
X138112892Y-101554965D01*
X138112983Y-101553672D01*
X138113911Y-101551078D01*
X138199625Y-101208221D01*
X138200525Y-101202130D01*
X138201540Y-101199681D01*
X138202841Y-101186463D01*
X138204786Y-101173315D01*
X138204395Y-101170690D01*
X138204999Y-101164565D01*
X138204999Y-100907422D01*
X138204395Y-100901296D01*
X138204786Y-100898672D01*
X138202841Y-100885523D01*
X138201540Y-100872306D01*
X138200525Y-100869856D01*
X138199625Y-100863766D01*
X138113911Y-100520909D01*
X138112983Y-100518314D01*
X138112892Y-100517022D01*
X138107303Y-100502416D01*
X138102038Y-100487680D01*
X138101266Y-100486638D01*
X138100282Y-100484066D01*
X138014568Y-100312639D01*
X138005054Y-100297525D01*
X138003235Y-100293134D01*
X137999177Y-100288189D01*
X137995770Y-100282777D01*
X137992179Y-100279662D01*
X137980850Y-100265858D01*
X137809421Y-100094429D01*
X137782145Y-100072044D01*
X137776169Y-100069568D01*
X137771283Y-100065331D01*
X137739062Y-100050945D01*
X137481920Y-99965231D01*
X137464506Y-99961271D01*
X137460115Y-99959453D01*
X137453748Y-99958825D01*
X137447512Y-99957408D01*
X137442772Y-99957744D01*
X137424999Y-99955994D01*
X137167857Y-99955994D01*
X137132741Y-99959453D01*
X137126764Y-99961928D01*
X137120314Y-99962387D01*
X137087359Y-99974997D01*
X136915930Y-100060711D01*
X136886068Y-100079509D01*
X136840051Y-100132566D01*
X136817841Y-100199194D01*
X136822820Y-100269250D01*
X136854229Y-100332068D01*
X136907286Y-100378085D01*
X136973914Y-100400295D01*
X137043970Y-100395316D01*
X137076926Y-100382705D01*
X137210349Y-100315994D01*
X137395789Y-100315994D01*
X137584910Y-100379034D01*
X137705637Y-100499761D01*
X137769450Y-100627388D01*
X137844999Y-100929581D01*
X137844999Y-101142405D01*
X137769450Y-101444598D01*
X137705636Y-101572227D01*
X137584910Y-101692953D01*
X137395789Y-101755994D01*
X137282780Y-101755994D01*
X137093660Y-101692954D01*
X137090714Y-101690007D01*
X137090714Y-101344565D01*
X137253571Y-101344565D01*
X137288687Y-101341106D01*
X137353574Y-101314230D01*
X137403236Y-101264568D01*
X137430112Y-101199681D01*
X137430112Y-101129449D01*
X137403236Y-101064562D01*
X137353574Y-101014900D01*
X137288687Y-100988024D01*
X137253571Y-100984565D01*
X136910714Y-100984565D01*
X136875598Y-100988024D01*
X136810711Y-101014900D01*
X136761049Y-101064562D01*
X136734173Y-101129449D01*
X136730714Y-101164565D01*
X136319285Y-101164565D01*
X136319285Y-100135994D01*
X136318395Y-100126964D01*
X136318846Y-100123421D01*
X136317594Y-100118832D01*
X136315826Y-100100878D01*
X136306667Y-100078767D01*
X136300367Y-100055664D01*
X136293340Y-100046591D01*
X136288950Y-100035991D01*
X136272018Y-100019059D01*
X136257363Y-100000136D01*
X136247404Y-99994445D01*
X136239288Y-99986329D01*
X136217166Y-99977166D01*
X136196385Y-99965291D01*
X136185001Y-99963843D01*
X136174401Y-99959453D01*
X136150467Y-99959453D01*
X136126713Y-99956433D01*
X136115639Y-99959453D01*
X136104169Y-99959453D01*
X136082057Y-99968611D01*
X136058955Y-99974912D01*
X136049882Y-99981938D01*
X136039282Y-99986329D01*
X136022350Y-100003260D01*
X136003427Y-100017916D01*
X135992982Y-100032628D01*
X135989620Y-100035991D01*
X135988253Y-100039289D01*
X135983001Y-100046689D01*
X135290714Y-101258191D01*
X135290714Y-100135994D01*
X135287255Y-100100878D01*
X135260379Y-100035991D01*
X135210717Y-99986329D01*
X135145830Y-99959453D01*
X135075598Y-99959453D01*
X135010711Y-99986329D01*
X134961049Y-100035991D01*
X134934173Y-100100878D01*
X134930714Y-100135994D01*
X134433571Y-100135994D01*
X134430112Y-100100878D01*
X134403236Y-100035991D01*
X134353574Y-99986329D01*
X134288687Y-99959453D01*
X134253571Y-99955994D01*
X133825000Y-99955994D01*
X133807226Y-99957744D01*
X133802487Y-99957408D01*
X133796250Y-99958825D01*
X133789884Y-99959453D01*
X133785492Y-99961271D01*
X133768079Y-99965231D01*
X133510936Y-100050945D01*
X133478716Y-100065331D01*
X133473829Y-100069568D01*
X133467854Y-100072044D01*
X133440578Y-100094429D01*
X133269149Y-100265858D01*
X133257819Y-100279662D01*
X133254229Y-100282777D01*
X133250821Y-100288189D01*
X133246764Y-100293134D01*
X133244944Y-100297525D01*
X133235431Y-100312639D01*
X133149717Y-100484067D01*
X133148733Y-100486637D01*
X133147961Y-100487680D01*
X133142693Y-100502423D01*
X133137107Y-100517022D01*
X133137015Y-100518314D01*
X133136088Y-100520909D01*
X133050374Y-100863766D01*
X133049473Y-100869856D01*
X133048459Y-100872306D01*
X133047157Y-100885523D01*
X133045213Y-100898672D01*
X133045603Y-100901296D01*
X133045000Y-100907422D01*
X132845000Y-100907422D01*
X132845000Y-99755994D01*
X138404999Y-99755994D01*
X138404999Y-102315994D01*
G37*
D11*
G36*
X156130283Y-99202817D02*
G01*
X153769716Y-99202817D01*
X153769716Y-97983515D01*
X153991938Y-97983515D01*
X153991938Y-98061551D01*
X154021801Y-98133647D01*
X154076981Y-98188827D01*
X154149077Y-98218690D01*
X154188095Y-98222533D01*
X154749999Y-98222533D01*
X154749999Y-98784438D01*
X154753842Y-98823456D01*
X154783705Y-98895552D01*
X154838885Y-98950732D01*
X154910981Y-98980595D01*
X154989017Y-98980595D01*
X155061113Y-98950732D01*
X155116293Y-98895552D01*
X155146156Y-98823456D01*
X155149999Y-98784438D01*
X155149999Y-98222533D01*
X155711904Y-98222533D01*
X155750922Y-98218690D01*
X155823018Y-98188827D01*
X155878198Y-98133647D01*
X155908061Y-98061551D01*
X155908061Y-97983515D01*
X155878198Y-97911419D01*
X155823018Y-97856239D01*
X155750922Y-97826376D01*
X155711904Y-97822533D01*
X155149999Y-97822533D01*
X155149999Y-97260628D01*
X155146156Y-97221610D01*
X155116293Y-97149514D01*
X155061113Y-97094334D01*
X154989017Y-97064471D01*
X154910981Y-97064471D01*
X154838885Y-97094334D01*
X154783705Y-97149514D01*
X154753842Y-97221610D01*
X154749999Y-97260628D01*
X154749999Y-97822533D01*
X154188095Y-97822533D01*
X154149077Y-97826376D01*
X154076981Y-97856239D01*
X154021801Y-97911419D01*
X153991938Y-97983515D01*
X153769716Y-97983515D01*
X153769716Y-96842249D01*
X156130283Y-96842249D01*
X156130283Y-99202817D01*
G37*
D13*
X137277149Y-83478571D02*
X137039054Y-83311905D01*
X137277149Y-83192857D02*
X136777149Y-83192857D01*
X136777149Y-83192857D02*
X136777149Y-83383333D01*
X136777149Y-83383333D02*
X136800959Y-83430952D01*
X136800959Y-83430952D02*
X136824768Y-83454762D01*
X136824768Y-83454762D02*
X136872387Y-83478571D01*
X136872387Y-83478571D02*
X136943816Y-83478571D01*
X136943816Y-83478571D02*
X136991435Y-83454762D01*
X136991435Y-83454762D02*
X137015244Y-83430952D01*
X137015244Y-83430952D02*
X137039054Y-83383333D01*
X137039054Y-83383333D02*
X137039054Y-83192857D01*
X136777149Y-83645238D02*
X136777149Y-83954762D01*
X136777149Y-83954762D02*
X136967625Y-83788095D01*
X136967625Y-83788095D02*
X136967625Y-83859524D01*
X136967625Y-83859524D02*
X136991435Y-83907143D01*
X136991435Y-83907143D02*
X137015244Y-83930952D01*
X137015244Y-83930952D02*
X137062863Y-83954762D01*
X137062863Y-83954762D02*
X137181911Y-83954762D01*
X137181911Y-83954762D02*
X137229530Y-83930952D01*
X137229530Y-83930952D02*
X137253340Y-83907143D01*
X137253340Y-83907143D02*
X137277149Y-83859524D01*
X137277149Y-83859524D02*
X137277149Y-83716667D01*
X137277149Y-83716667D02*
X137253340Y-83669048D01*
X137253340Y-83669048D02*
X137229530Y-83645238D01*
X136777149Y-84383333D02*
X136777149Y-84288095D01*
X136777149Y-84288095D02*
X136800959Y-84240476D01*
X136800959Y-84240476D02*
X136824768Y-84216666D01*
X136824768Y-84216666D02*
X136896197Y-84169047D01*
X136896197Y-84169047D02*
X136991435Y-84145238D01*
X136991435Y-84145238D02*
X137181911Y-84145238D01*
X137181911Y-84145238D02*
X137229530Y-84169047D01*
X137229530Y-84169047D02*
X137253340Y-84192857D01*
X137253340Y-84192857D02*
X137277149Y-84240476D01*
X137277149Y-84240476D02*
X137277149Y-84335714D01*
X137277149Y-84335714D02*
X137253340Y-84383333D01*
X137253340Y-84383333D02*
X137229530Y-84407142D01*
X137229530Y-84407142D02*
X137181911Y-84430952D01*
X137181911Y-84430952D02*
X137062863Y-84430952D01*
X137062863Y-84430952D02*
X137015244Y-84407142D01*
X137015244Y-84407142D02*
X136991435Y-84383333D01*
X136991435Y-84383333D02*
X136967625Y-84335714D01*
X136967625Y-84335714D02*
X136967625Y-84240476D01*
X136967625Y-84240476D02*
X136991435Y-84192857D01*
X136991435Y-84192857D02*
X137015244Y-84169047D01*
X137015244Y-84169047D02*
X137062863Y-84145238D01*
X140074530Y-64178571D02*
X140098340Y-64154762D01*
X140098340Y-64154762D02*
X140122149Y-64083333D01*
X140122149Y-64083333D02*
X140122149Y-64035714D01*
X140122149Y-64035714D02*
X140098340Y-63964286D01*
X140098340Y-63964286D02*
X140050720Y-63916667D01*
X140050720Y-63916667D02*
X140003101Y-63892857D01*
X140003101Y-63892857D02*
X139907863Y-63869048D01*
X139907863Y-63869048D02*
X139836435Y-63869048D01*
X139836435Y-63869048D02*
X139741197Y-63892857D01*
X139741197Y-63892857D02*
X139693578Y-63916667D01*
X139693578Y-63916667D02*
X139645959Y-63964286D01*
X139645959Y-63964286D02*
X139622149Y-64035714D01*
X139622149Y-64035714D02*
X139622149Y-64083333D01*
X139622149Y-64083333D02*
X139645959Y-64154762D01*
X139645959Y-64154762D02*
X139669768Y-64178571D01*
X139669768Y-64369048D02*
X139645959Y-64392857D01*
X139645959Y-64392857D02*
X139622149Y-64440476D01*
X139622149Y-64440476D02*
X139622149Y-64559524D01*
X139622149Y-64559524D02*
X139645959Y-64607143D01*
X139645959Y-64607143D02*
X139669768Y-64630952D01*
X139669768Y-64630952D02*
X139717387Y-64654762D01*
X139717387Y-64654762D02*
X139765006Y-64654762D01*
X139765006Y-64654762D02*
X139836435Y-64630952D01*
X139836435Y-64630952D02*
X140122149Y-64345238D01*
X140122149Y-64345238D02*
X140122149Y-64654762D01*
X139622149Y-65107142D02*
X139622149Y-64869047D01*
X139622149Y-64869047D02*
X139860244Y-64845238D01*
X139860244Y-64845238D02*
X139836435Y-64869047D01*
X139836435Y-64869047D02*
X139812625Y-64916666D01*
X139812625Y-64916666D02*
X139812625Y-65035714D01*
X139812625Y-65035714D02*
X139836435Y-65083333D01*
X139836435Y-65083333D02*
X139860244Y-65107142D01*
X139860244Y-65107142D02*
X139907863Y-65130952D01*
X139907863Y-65130952D02*
X140026911Y-65130952D01*
X140026911Y-65130952D02*
X140074530Y-65107142D01*
X140074530Y-65107142D02*
X140098340Y-65083333D01*
X140098340Y-65083333D02*
X140122149Y-65035714D01*
X140122149Y-65035714D02*
X140122149Y-64916666D01*
X140122149Y-64916666D02*
X140098340Y-64869047D01*
X140098340Y-64869047D02*
X140074530Y-64845238D01*
X145379530Y-102428571D02*
X145403340Y-102404762D01*
X145403340Y-102404762D02*
X145427149Y-102333333D01*
X145427149Y-102333333D02*
X145427149Y-102285714D01*
X145427149Y-102285714D02*
X145403340Y-102214286D01*
X145403340Y-102214286D02*
X145355720Y-102166667D01*
X145355720Y-102166667D02*
X145308101Y-102142857D01*
X145308101Y-102142857D02*
X145212863Y-102119048D01*
X145212863Y-102119048D02*
X145141435Y-102119048D01*
X145141435Y-102119048D02*
X145046197Y-102142857D01*
X145046197Y-102142857D02*
X144998578Y-102166667D01*
X144998578Y-102166667D02*
X144950959Y-102214286D01*
X144950959Y-102214286D02*
X144927149Y-102285714D01*
X144927149Y-102285714D02*
X144927149Y-102333333D01*
X144927149Y-102333333D02*
X144950959Y-102404762D01*
X144950959Y-102404762D02*
X144974768Y-102428571D01*
X145093816Y-102857143D02*
X145427149Y-102857143D01*
X144903340Y-102738095D02*
X145260482Y-102619048D01*
X145260482Y-102619048D02*
X145260482Y-102928571D01*
X145427149Y-103142857D02*
X145427149Y-103238095D01*
X145427149Y-103238095D02*
X145403340Y-103285714D01*
X145403340Y-103285714D02*
X145379530Y-103309523D01*
X145379530Y-103309523D02*
X145308101Y-103357142D01*
X145308101Y-103357142D02*
X145212863Y-103380952D01*
X145212863Y-103380952D02*
X145022387Y-103380952D01*
X145022387Y-103380952D02*
X144974768Y-103357142D01*
X144974768Y-103357142D02*
X144950959Y-103333333D01*
X144950959Y-103333333D02*
X144927149Y-103285714D01*
X144927149Y-103285714D02*
X144927149Y-103190476D01*
X144927149Y-103190476D02*
X144950959Y-103142857D01*
X144950959Y-103142857D02*
X144974768Y-103119047D01*
X144974768Y-103119047D02*
X145022387Y-103095238D01*
X145022387Y-103095238D02*
X145141435Y-103095238D01*
X145141435Y-103095238D02*
X145189054Y-103119047D01*
X145189054Y-103119047D02*
X145212863Y-103142857D01*
X145212863Y-103142857D02*
X145236673Y-103190476D01*
X145236673Y-103190476D02*
X145236673Y-103285714D01*
X145236673Y-103285714D02*
X145212863Y-103333333D01*
X145212863Y-103333333D02*
X145189054Y-103357142D01*
X145189054Y-103357142D02*
X145141435Y-103380952D01*
X150777149Y-103841666D02*
X150777149Y-103603571D01*
X150777149Y-103603571D02*
X150277149Y-103603571D01*
X150777149Y-104270238D02*
X150777149Y-103984524D01*
X150777149Y-104127381D02*
X150277149Y-104127381D01*
X150277149Y-104127381D02*
X150348578Y-104079762D01*
X150348578Y-104079762D02*
X150396197Y-104032143D01*
X150396197Y-104032143D02*
X150420006Y-103984524D01*
X141952149Y-71703571D02*
X141714054Y-71536905D01*
X141952149Y-71417857D02*
X141452149Y-71417857D01*
X141452149Y-71417857D02*
X141452149Y-71608333D01*
X141452149Y-71608333D02*
X141475959Y-71655952D01*
X141475959Y-71655952D02*
X141499768Y-71679762D01*
X141499768Y-71679762D02*
X141547387Y-71703571D01*
X141547387Y-71703571D02*
X141618816Y-71703571D01*
X141618816Y-71703571D02*
X141666435Y-71679762D01*
X141666435Y-71679762D02*
X141690244Y-71655952D01*
X141690244Y-71655952D02*
X141714054Y-71608333D01*
X141714054Y-71608333D02*
X141714054Y-71417857D01*
X141452149Y-71870238D02*
X141452149Y-72179762D01*
X141452149Y-72179762D02*
X141642625Y-72013095D01*
X141642625Y-72013095D02*
X141642625Y-72084524D01*
X141642625Y-72084524D02*
X141666435Y-72132143D01*
X141666435Y-72132143D02*
X141690244Y-72155952D01*
X141690244Y-72155952D02*
X141737863Y-72179762D01*
X141737863Y-72179762D02*
X141856911Y-72179762D01*
X141856911Y-72179762D02*
X141904530Y-72155952D01*
X141904530Y-72155952D02*
X141928340Y-72132143D01*
X141928340Y-72132143D02*
X141952149Y-72084524D01*
X141952149Y-72084524D02*
X141952149Y-71941667D01*
X141952149Y-71941667D02*
X141928340Y-71894048D01*
X141928340Y-71894048D02*
X141904530Y-71870238D01*
X141952149Y-72655952D02*
X141952149Y-72370238D01*
X141952149Y-72513095D02*
X141452149Y-72513095D01*
X141452149Y-72513095D02*
X141523578Y-72465476D01*
X141523578Y-72465476D02*
X141571197Y-72417857D01*
X141571197Y-72417857D02*
X141595006Y-72370238D01*
X143702149Y-91353571D02*
X143464054Y-91186905D01*
X143702149Y-91067857D02*
X143202149Y-91067857D01*
X143202149Y-91067857D02*
X143202149Y-91258333D01*
X143202149Y-91258333D02*
X143225959Y-91305952D01*
X143225959Y-91305952D02*
X143249768Y-91329762D01*
X143249768Y-91329762D02*
X143297387Y-91353571D01*
X143297387Y-91353571D02*
X143368816Y-91353571D01*
X143368816Y-91353571D02*
X143416435Y-91329762D01*
X143416435Y-91329762D02*
X143440244Y-91305952D01*
X143440244Y-91305952D02*
X143464054Y-91258333D01*
X143464054Y-91258333D02*
X143464054Y-91067857D01*
X143202149Y-91520238D02*
X143202149Y-91829762D01*
X143202149Y-91829762D02*
X143392625Y-91663095D01*
X143392625Y-91663095D02*
X143392625Y-91734524D01*
X143392625Y-91734524D02*
X143416435Y-91782143D01*
X143416435Y-91782143D02*
X143440244Y-91805952D01*
X143440244Y-91805952D02*
X143487863Y-91829762D01*
X143487863Y-91829762D02*
X143606911Y-91829762D01*
X143606911Y-91829762D02*
X143654530Y-91805952D01*
X143654530Y-91805952D02*
X143678340Y-91782143D01*
X143678340Y-91782143D02*
X143702149Y-91734524D01*
X143702149Y-91734524D02*
X143702149Y-91591667D01*
X143702149Y-91591667D02*
X143678340Y-91544048D01*
X143678340Y-91544048D02*
X143654530Y-91520238D01*
X143202149Y-91996428D02*
X143202149Y-92305952D01*
X143202149Y-92305952D02*
X143392625Y-92139285D01*
X143392625Y-92139285D02*
X143392625Y-92210714D01*
X143392625Y-92210714D02*
X143416435Y-92258333D01*
X143416435Y-92258333D02*
X143440244Y-92282142D01*
X143440244Y-92282142D02*
X143487863Y-92305952D01*
X143487863Y-92305952D02*
X143606911Y-92305952D01*
X143606911Y-92305952D02*
X143654530Y-92282142D01*
X143654530Y-92282142D02*
X143678340Y-92258333D01*
X143678340Y-92258333D02*
X143702149Y-92210714D01*
X143702149Y-92210714D02*
X143702149Y-92067857D01*
X143702149Y-92067857D02*
X143678340Y-92020238D01*
X143678340Y-92020238D02*
X143654530Y-91996428D01*
X142679530Y-82703571D02*
X142703340Y-82679762D01*
X142703340Y-82679762D02*
X142727149Y-82608333D01*
X142727149Y-82608333D02*
X142727149Y-82560714D01*
X142727149Y-82560714D02*
X142703340Y-82489286D01*
X142703340Y-82489286D02*
X142655720Y-82441667D01*
X142655720Y-82441667D02*
X142608101Y-82417857D01*
X142608101Y-82417857D02*
X142512863Y-82394048D01*
X142512863Y-82394048D02*
X142441435Y-82394048D01*
X142441435Y-82394048D02*
X142346197Y-82417857D01*
X142346197Y-82417857D02*
X142298578Y-82441667D01*
X142298578Y-82441667D02*
X142250959Y-82489286D01*
X142250959Y-82489286D02*
X142227149Y-82560714D01*
X142227149Y-82560714D02*
X142227149Y-82608333D01*
X142227149Y-82608333D02*
X142250959Y-82679762D01*
X142250959Y-82679762D02*
X142274768Y-82703571D01*
X142227149Y-82870238D02*
X142227149Y-83179762D01*
X142227149Y-83179762D02*
X142417625Y-83013095D01*
X142417625Y-83013095D02*
X142417625Y-83084524D01*
X142417625Y-83084524D02*
X142441435Y-83132143D01*
X142441435Y-83132143D02*
X142465244Y-83155952D01*
X142465244Y-83155952D02*
X142512863Y-83179762D01*
X142512863Y-83179762D02*
X142631911Y-83179762D01*
X142631911Y-83179762D02*
X142679530Y-83155952D01*
X142679530Y-83155952D02*
X142703340Y-83132143D01*
X142703340Y-83132143D02*
X142727149Y-83084524D01*
X142727149Y-83084524D02*
X142727149Y-82941667D01*
X142727149Y-82941667D02*
X142703340Y-82894048D01*
X142703340Y-82894048D02*
X142679530Y-82870238D01*
X142227149Y-83346428D02*
X142227149Y-83655952D01*
X142227149Y-83655952D02*
X142417625Y-83489285D01*
X142417625Y-83489285D02*
X142417625Y-83560714D01*
X142417625Y-83560714D02*
X142441435Y-83608333D01*
X142441435Y-83608333D02*
X142465244Y-83632142D01*
X142465244Y-83632142D02*
X142512863Y-83655952D01*
X142512863Y-83655952D02*
X142631911Y-83655952D01*
X142631911Y-83655952D02*
X142679530Y-83632142D01*
X142679530Y-83632142D02*
X142703340Y-83608333D01*
X142703340Y-83608333D02*
X142727149Y-83560714D01*
X142727149Y-83560714D02*
X142727149Y-83417857D01*
X142727149Y-83417857D02*
X142703340Y-83370238D01*
X142703340Y-83370238D02*
X142679530Y-83346428D01*
X151307149Y-50850952D02*
X150807149Y-50850952D01*
X150807149Y-50850952D02*
X150807149Y-50970000D01*
X150807149Y-50970000D02*
X150830959Y-51041428D01*
X150830959Y-51041428D02*
X150878578Y-51089047D01*
X150878578Y-51089047D02*
X150926197Y-51112857D01*
X150926197Y-51112857D02*
X151021435Y-51136666D01*
X151021435Y-51136666D02*
X151092863Y-51136666D01*
X151092863Y-51136666D02*
X151188101Y-51112857D01*
X151188101Y-51112857D02*
X151235720Y-51089047D01*
X151235720Y-51089047D02*
X151283340Y-51041428D01*
X151283340Y-51041428D02*
X151307149Y-50970000D01*
X151307149Y-50970000D02*
X151307149Y-50850952D01*
X150854768Y-51327143D02*
X150830959Y-51350952D01*
X150830959Y-51350952D02*
X150807149Y-51398571D01*
X150807149Y-51398571D02*
X150807149Y-51517619D01*
X150807149Y-51517619D02*
X150830959Y-51565238D01*
X150830959Y-51565238D02*
X150854768Y-51589047D01*
X150854768Y-51589047D02*
X150902387Y-51612857D01*
X150902387Y-51612857D02*
X150950006Y-51612857D01*
X150950006Y-51612857D02*
X151021435Y-51589047D01*
X151021435Y-51589047D02*
X151307149Y-51303333D01*
X151307149Y-51303333D02*
X151307149Y-51612857D01*
X139927149Y-91353571D02*
X139689054Y-91186905D01*
X139927149Y-91067857D02*
X139427149Y-91067857D01*
X139427149Y-91067857D02*
X139427149Y-91258333D01*
X139427149Y-91258333D02*
X139450959Y-91305952D01*
X139450959Y-91305952D02*
X139474768Y-91329762D01*
X139474768Y-91329762D02*
X139522387Y-91353571D01*
X139522387Y-91353571D02*
X139593816Y-91353571D01*
X139593816Y-91353571D02*
X139641435Y-91329762D01*
X139641435Y-91329762D02*
X139665244Y-91305952D01*
X139665244Y-91305952D02*
X139689054Y-91258333D01*
X139689054Y-91258333D02*
X139689054Y-91067857D01*
X139427149Y-91520238D02*
X139427149Y-91829762D01*
X139427149Y-91829762D02*
X139617625Y-91663095D01*
X139617625Y-91663095D02*
X139617625Y-91734524D01*
X139617625Y-91734524D02*
X139641435Y-91782143D01*
X139641435Y-91782143D02*
X139665244Y-91805952D01*
X139665244Y-91805952D02*
X139712863Y-91829762D01*
X139712863Y-91829762D02*
X139831911Y-91829762D01*
X139831911Y-91829762D02*
X139879530Y-91805952D01*
X139879530Y-91805952D02*
X139903340Y-91782143D01*
X139903340Y-91782143D02*
X139927149Y-91734524D01*
X139927149Y-91734524D02*
X139927149Y-91591667D01*
X139927149Y-91591667D02*
X139903340Y-91544048D01*
X139903340Y-91544048D02*
X139879530Y-91520238D01*
X139474768Y-92020238D02*
X139450959Y-92044047D01*
X139450959Y-92044047D02*
X139427149Y-92091666D01*
X139427149Y-92091666D02*
X139427149Y-92210714D01*
X139427149Y-92210714D02*
X139450959Y-92258333D01*
X139450959Y-92258333D02*
X139474768Y-92282142D01*
X139474768Y-92282142D02*
X139522387Y-92305952D01*
X139522387Y-92305952D02*
X139570006Y-92305952D01*
X139570006Y-92305952D02*
X139641435Y-92282142D01*
X139641435Y-92282142D02*
X139927149Y-91996428D01*
X139927149Y-91996428D02*
X139927149Y-92305952D01*
X145457149Y-48398571D02*
X145219054Y-48231905D01*
X145457149Y-48112857D02*
X144957149Y-48112857D01*
X144957149Y-48112857D02*
X144957149Y-48303333D01*
X144957149Y-48303333D02*
X144980959Y-48350952D01*
X144980959Y-48350952D02*
X145004768Y-48374762D01*
X145004768Y-48374762D02*
X145052387Y-48398571D01*
X145052387Y-48398571D02*
X145123816Y-48398571D01*
X145123816Y-48398571D02*
X145171435Y-48374762D01*
X145171435Y-48374762D02*
X145195244Y-48350952D01*
X145195244Y-48350952D02*
X145219054Y-48303333D01*
X145219054Y-48303333D02*
X145219054Y-48112857D01*
X145457149Y-48874762D02*
X145457149Y-48589048D01*
X145457149Y-48731905D02*
X144957149Y-48731905D01*
X144957149Y-48731905D02*
X145028578Y-48684286D01*
X145028578Y-48684286D02*
X145076197Y-48636667D01*
X145076197Y-48636667D02*
X145100006Y-48589048D01*
X144957149Y-49041428D02*
X144957149Y-49350952D01*
X144957149Y-49350952D02*
X145147625Y-49184285D01*
X145147625Y-49184285D02*
X145147625Y-49255714D01*
X145147625Y-49255714D02*
X145171435Y-49303333D01*
X145171435Y-49303333D02*
X145195244Y-49327142D01*
X145195244Y-49327142D02*
X145242863Y-49350952D01*
X145242863Y-49350952D02*
X145361911Y-49350952D01*
X145361911Y-49350952D02*
X145409530Y-49327142D01*
X145409530Y-49327142D02*
X145433340Y-49303333D01*
X145433340Y-49303333D02*
X145457149Y-49255714D01*
X145457149Y-49255714D02*
X145457149Y-49112857D01*
X145457149Y-49112857D02*
X145433340Y-49065238D01*
X145433340Y-49065238D02*
X145409530Y-49041428D01*
X137317149Y-64883571D02*
X137079054Y-64716905D01*
X137317149Y-64597857D02*
X136817149Y-64597857D01*
X136817149Y-64597857D02*
X136817149Y-64788333D01*
X136817149Y-64788333D02*
X136840959Y-64835952D01*
X136840959Y-64835952D02*
X136864768Y-64859762D01*
X136864768Y-64859762D02*
X136912387Y-64883571D01*
X136912387Y-64883571D02*
X136983816Y-64883571D01*
X136983816Y-64883571D02*
X137031435Y-64859762D01*
X137031435Y-64859762D02*
X137055244Y-64835952D01*
X137055244Y-64835952D02*
X137079054Y-64788333D01*
X137079054Y-64788333D02*
X137079054Y-64597857D01*
X136864768Y-65074048D02*
X136840959Y-65097857D01*
X136840959Y-65097857D02*
X136817149Y-65145476D01*
X136817149Y-65145476D02*
X136817149Y-65264524D01*
X136817149Y-65264524D02*
X136840959Y-65312143D01*
X136840959Y-65312143D02*
X136864768Y-65335952D01*
X136864768Y-65335952D02*
X136912387Y-65359762D01*
X136912387Y-65359762D02*
X136960006Y-65359762D01*
X136960006Y-65359762D02*
X137031435Y-65335952D01*
X137031435Y-65335952D02*
X137317149Y-65050238D01*
X137317149Y-65050238D02*
X137317149Y-65359762D01*
X137031435Y-65645476D02*
X137007625Y-65597857D01*
X137007625Y-65597857D02*
X136983816Y-65574047D01*
X136983816Y-65574047D02*
X136936197Y-65550238D01*
X136936197Y-65550238D02*
X136912387Y-65550238D01*
X136912387Y-65550238D02*
X136864768Y-65574047D01*
X136864768Y-65574047D02*
X136840959Y-65597857D01*
X136840959Y-65597857D02*
X136817149Y-65645476D01*
X136817149Y-65645476D02*
X136817149Y-65740714D01*
X136817149Y-65740714D02*
X136840959Y-65788333D01*
X136840959Y-65788333D02*
X136864768Y-65812142D01*
X136864768Y-65812142D02*
X136912387Y-65835952D01*
X136912387Y-65835952D02*
X136936197Y-65835952D01*
X136936197Y-65835952D02*
X136983816Y-65812142D01*
X136983816Y-65812142D02*
X137007625Y-65788333D01*
X137007625Y-65788333D02*
X137031435Y-65740714D01*
X137031435Y-65740714D02*
X137031435Y-65645476D01*
X137031435Y-65645476D02*
X137055244Y-65597857D01*
X137055244Y-65597857D02*
X137079054Y-65574047D01*
X137079054Y-65574047D02*
X137126673Y-65550238D01*
X137126673Y-65550238D02*
X137221911Y-65550238D01*
X137221911Y-65550238D02*
X137269530Y-65574047D01*
X137269530Y-65574047D02*
X137293340Y-65597857D01*
X137293340Y-65597857D02*
X137317149Y-65645476D01*
X137317149Y-65645476D02*
X137317149Y-65740714D01*
X137317149Y-65740714D02*
X137293340Y-65788333D01*
X137293340Y-65788333D02*
X137269530Y-65812142D01*
X137269530Y-65812142D02*
X137221911Y-65835952D01*
X137221911Y-65835952D02*
X137126673Y-65835952D01*
X137126673Y-65835952D02*
X137079054Y-65812142D01*
X137079054Y-65812142D02*
X137055244Y-65788333D01*
X137055244Y-65788333D02*
X137031435Y-65740714D01*
X134937149Y-48448571D02*
X134699054Y-48281905D01*
X134937149Y-48162857D02*
X134437149Y-48162857D01*
X134437149Y-48162857D02*
X134437149Y-48353333D01*
X134437149Y-48353333D02*
X134460959Y-48400952D01*
X134460959Y-48400952D02*
X134484768Y-48424762D01*
X134484768Y-48424762D02*
X134532387Y-48448571D01*
X134532387Y-48448571D02*
X134603816Y-48448571D01*
X134603816Y-48448571D02*
X134651435Y-48424762D01*
X134651435Y-48424762D02*
X134675244Y-48400952D01*
X134675244Y-48400952D02*
X134699054Y-48353333D01*
X134699054Y-48353333D02*
X134699054Y-48162857D01*
X134484768Y-48639048D02*
X134460959Y-48662857D01*
X134460959Y-48662857D02*
X134437149Y-48710476D01*
X134437149Y-48710476D02*
X134437149Y-48829524D01*
X134437149Y-48829524D02*
X134460959Y-48877143D01*
X134460959Y-48877143D02*
X134484768Y-48900952D01*
X134484768Y-48900952D02*
X134532387Y-48924762D01*
X134532387Y-48924762D02*
X134580006Y-48924762D01*
X134580006Y-48924762D02*
X134651435Y-48900952D01*
X134651435Y-48900952D02*
X134937149Y-48615238D01*
X134937149Y-48615238D02*
X134937149Y-48924762D01*
X134937149Y-49400952D02*
X134937149Y-49115238D01*
X134937149Y-49258095D02*
X134437149Y-49258095D01*
X134437149Y-49258095D02*
X134508578Y-49210476D01*
X134508578Y-49210476D02*
X134556197Y-49162857D01*
X134556197Y-49162857D02*
X134580006Y-49115238D01*
X156639530Y-77928571D02*
X156663340Y-77904762D01*
X156663340Y-77904762D02*
X156687149Y-77833333D01*
X156687149Y-77833333D02*
X156687149Y-77785714D01*
X156687149Y-77785714D02*
X156663340Y-77714286D01*
X156663340Y-77714286D02*
X156615720Y-77666667D01*
X156615720Y-77666667D02*
X156568101Y-77642857D01*
X156568101Y-77642857D02*
X156472863Y-77619048D01*
X156472863Y-77619048D02*
X156401435Y-77619048D01*
X156401435Y-77619048D02*
X156306197Y-77642857D01*
X156306197Y-77642857D02*
X156258578Y-77666667D01*
X156258578Y-77666667D02*
X156210959Y-77714286D01*
X156210959Y-77714286D02*
X156187149Y-77785714D01*
X156187149Y-77785714D02*
X156187149Y-77833333D01*
X156187149Y-77833333D02*
X156210959Y-77904762D01*
X156210959Y-77904762D02*
X156234768Y-77928571D01*
X156187149Y-78095238D02*
X156187149Y-78404762D01*
X156187149Y-78404762D02*
X156377625Y-78238095D01*
X156377625Y-78238095D02*
X156377625Y-78309524D01*
X156377625Y-78309524D02*
X156401435Y-78357143D01*
X156401435Y-78357143D02*
X156425244Y-78380952D01*
X156425244Y-78380952D02*
X156472863Y-78404762D01*
X156472863Y-78404762D02*
X156591911Y-78404762D01*
X156591911Y-78404762D02*
X156639530Y-78380952D01*
X156639530Y-78380952D02*
X156663340Y-78357143D01*
X156663340Y-78357143D02*
X156687149Y-78309524D01*
X156687149Y-78309524D02*
X156687149Y-78166667D01*
X156687149Y-78166667D02*
X156663340Y-78119048D01*
X156663340Y-78119048D02*
X156639530Y-78095238D01*
X156187149Y-78714285D02*
X156187149Y-78761904D01*
X156187149Y-78761904D02*
X156210959Y-78809523D01*
X156210959Y-78809523D02*
X156234768Y-78833333D01*
X156234768Y-78833333D02*
X156282387Y-78857142D01*
X156282387Y-78857142D02*
X156377625Y-78880952D01*
X156377625Y-78880952D02*
X156496673Y-78880952D01*
X156496673Y-78880952D02*
X156591911Y-78857142D01*
X156591911Y-78857142D02*
X156639530Y-78833333D01*
X156639530Y-78833333D02*
X156663340Y-78809523D01*
X156663340Y-78809523D02*
X156687149Y-78761904D01*
X156687149Y-78761904D02*
X156687149Y-78714285D01*
X156687149Y-78714285D02*
X156663340Y-78666666D01*
X156663340Y-78666666D02*
X156639530Y-78642857D01*
X156639530Y-78642857D02*
X156591911Y-78619047D01*
X156591911Y-78619047D02*
X156496673Y-78595238D01*
X156496673Y-78595238D02*
X156377625Y-78595238D01*
X156377625Y-78595238D02*
X156282387Y-78619047D01*
X156282387Y-78619047D02*
X156234768Y-78642857D01*
X156234768Y-78642857D02*
X156210959Y-78666666D01*
X156210959Y-78666666D02*
X156187149Y-78714285D01*
X142252149Y-103828571D02*
X142014054Y-103661905D01*
X142252149Y-103542857D02*
X141752149Y-103542857D01*
X141752149Y-103542857D02*
X141752149Y-103733333D01*
X141752149Y-103733333D02*
X141775959Y-103780952D01*
X141775959Y-103780952D02*
X141799768Y-103804762D01*
X141799768Y-103804762D02*
X141847387Y-103828571D01*
X141847387Y-103828571D02*
X141918816Y-103828571D01*
X141918816Y-103828571D02*
X141966435Y-103804762D01*
X141966435Y-103804762D02*
X141990244Y-103780952D01*
X141990244Y-103780952D02*
X142014054Y-103733333D01*
X142014054Y-103733333D02*
X142014054Y-103542857D01*
X141752149Y-104280952D02*
X141752149Y-104042857D01*
X141752149Y-104042857D02*
X141990244Y-104019048D01*
X141990244Y-104019048D02*
X141966435Y-104042857D01*
X141966435Y-104042857D02*
X141942625Y-104090476D01*
X141942625Y-104090476D02*
X141942625Y-104209524D01*
X141942625Y-104209524D02*
X141966435Y-104257143D01*
X141966435Y-104257143D02*
X141990244Y-104280952D01*
X141990244Y-104280952D02*
X142037863Y-104304762D01*
X142037863Y-104304762D02*
X142156911Y-104304762D01*
X142156911Y-104304762D02*
X142204530Y-104280952D01*
X142204530Y-104280952D02*
X142228340Y-104257143D01*
X142228340Y-104257143D02*
X142252149Y-104209524D01*
X142252149Y-104209524D02*
X142252149Y-104090476D01*
X142252149Y-104090476D02*
X142228340Y-104042857D01*
X142228340Y-104042857D02*
X142204530Y-104019048D01*
X142252149Y-104780952D02*
X142252149Y-104495238D01*
X142252149Y-104638095D02*
X141752149Y-104638095D01*
X141752149Y-104638095D02*
X141823578Y-104590476D01*
X141823578Y-104590476D02*
X141871197Y-104542857D01*
X141871197Y-104542857D02*
X141895006Y-104495238D01*
X143802149Y-80128571D02*
X143564054Y-79961905D01*
X143802149Y-79842857D02*
X143302149Y-79842857D01*
X143302149Y-79842857D02*
X143302149Y-80033333D01*
X143302149Y-80033333D02*
X143325959Y-80080952D01*
X143325959Y-80080952D02*
X143349768Y-80104762D01*
X143349768Y-80104762D02*
X143397387Y-80128571D01*
X143397387Y-80128571D02*
X143468816Y-80128571D01*
X143468816Y-80128571D02*
X143516435Y-80104762D01*
X143516435Y-80104762D02*
X143540244Y-80080952D01*
X143540244Y-80080952D02*
X143564054Y-80033333D01*
X143564054Y-80033333D02*
X143564054Y-79842857D01*
X143302149Y-80295238D02*
X143302149Y-80604762D01*
X143302149Y-80604762D02*
X143492625Y-80438095D01*
X143492625Y-80438095D02*
X143492625Y-80509524D01*
X143492625Y-80509524D02*
X143516435Y-80557143D01*
X143516435Y-80557143D02*
X143540244Y-80580952D01*
X143540244Y-80580952D02*
X143587863Y-80604762D01*
X143587863Y-80604762D02*
X143706911Y-80604762D01*
X143706911Y-80604762D02*
X143754530Y-80580952D01*
X143754530Y-80580952D02*
X143778340Y-80557143D01*
X143778340Y-80557143D02*
X143802149Y-80509524D01*
X143802149Y-80509524D02*
X143802149Y-80366667D01*
X143802149Y-80366667D02*
X143778340Y-80319048D01*
X143778340Y-80319048D02*
X143754530Y-80295238D01*
X143302149Y-81057142D02*
X143302149Y-80819047D01*
X143302149Y-80819047D02*
X143540244Y-80795238D01*
X143540244Y-80795238D02*
X143516435Y-80819047D01*
X143516435Y-80819047D02*
X143492625Y-80866666D01*
X143492625Y-80866666D02*
X143492625Y-80985714D01*
X143492625Y-80985714D02*
X143516435Y-81033333D01*
X143516435Y-81033333D02*
X143540244Y-81057142D01*
X143540244Y-81057142D02*
X143587863Y-81080952D01*
X143587863Y-81080952D02*
X143706911Y-81080952D01*
X143706911Y-81080952D02*
X143754530Y-81057142D01*
X143754530Y-81057142D02*
X143778340Y-81033333D01*
X143778340Y-81033333D02*
X143802149Y-80985714D01*
X143802149Y-80985714D02*
X143802149Y-80866666D01*
X143802149Y-80866666D02*
X143778340Y-80819047D01*
X143778340Y-80819047D02*
X143754530Y-80795238D01*
X140797149Y-105520952D02*
X140297149Y-105520952D01*
X140297149Y-105520952D02*
X140297149Y-105640000D01*
X140297149Y-105640000D02*
X140320959Y-105711428D01*
X140320959Y-105711428D02*
X140368578Y-105759047D01*
X140368578Y-105759047D02*
X140416197Y-105782857D01*
X140416197Y-105782857D02*
X140511435Y-105806666D01*
X140511435Y-105806666D02*
X140582863Y-105806666D01*
X140582863Y-105806666D02*
X140678101Y-105782857D01*
X140678101Y-105782857D02*
X140725720Y-105759047D01*
X140725720Y-105759047D02*
X140773340Y-105711428D01*
X140773340Y-105711428D02*
X140797149Y-105640000D01*
X140797149Y-105640000D02*
X140797149Y-105520952D01*
X140797149Y-106044762D02*
X140797149Y-106140000D01*
X140797149Y-106140000D02*
X140773340Y-106187619D01*
X140773340Y-106187619D02*
X140749530Y-106211428D01*
X140749530Y-106211428D02*
X140678101Y-106259047D01*
X140678101Y-106259047D02*
X140582863Y-106282857D01*
X140582863Y-106282857D02*
X140392387Y-106282857D01*
X140392387Y-106282857D02*
X140344768Y-106259047D01*
X140344768Y-106259047D02*
X140320959Y-106235238D01*
X140320959Y-106235238D02*
X140297149Y-106187619D01*
X140297149Y-106187619D02*
X140297149Y-106092381D01*
X140297149Y-106092381D02*
X140320959Y-106044762D01*
X140320959Y-106044762D02*
X140344768Y-106020952D01*
X140344768Y-106020952D02*
X140392387Y-105997143D01*
X140392387Y-105997143D02*
X140511435Y-105997143D01*
X140511435Y-105997143D02*
X140559054Y-106020952D01*
X140559054Y-106020952D02*
X140582863Y-106044762D01*
X140582863Y-106044762D02*
X140606673Y-106092381D01*
X140606673Y-106092381D02*
X140606673Y-106187619D01*
X140606673Y-106187619D02*
X140582863Y-106235238D01*
X140582863Y-106235238D02*
X140559054Y-106259047D01*
X140559054Y-106259047D02*
X140511435Y-106282857D01*
X148649530Y-87903571D02*
X148673340Y-87879762D01*
X148673340Y-87879762D02*
X148697149Y-87808333D01*
X148697149Y-87808333D02*
X148697149Y-87760714D01*
X148697149Y-87760714D02*
X148673340Y-87689286D01*
X148673340Y-87689286D02*
X148625720Y-87641667D01*
X148625720Y-87641667D02*
X148578101Y-87617857D01*
X148578101Y-87617857D02*
X148482863Y-87594048D01*
X148482863Y-87594048D02*
X148411435Y-87594048D01*
X148411435Y-87594048D02*
X148316197Y-87617857D01*
X148316197Y-87617857D02*
X148268578Y-87641667D01*
X148268578Y-87641667D02*
X148220959Y-87689286D01*
X148220959Y-87689286D02*
X148197149Y-87760714D01*
X148197149Y-87760714D02*
X148197149Y-87808333D01*
X148197149Y-87808333D02*
X148220959Y-87879762D01*
X148220959Y-87879762D02*
X148244768Y-87903571D01*
X148363816Y-88332143D02*
X148697149Y-88332143D01*
X148173340Y-88213095D02*
X148530482Y-88094048D01*
X148530482Y-88094048D02*
X148530482Y-88403571D01*
X148197149Y-88808333D02*
X148197149Y-88713095D01*
X148197149Y-88713095D02*
X148220959Y-88665476D01*
X148220959Y-88665476D02*
X148244768Y-88641666D01*
X148244768Y-88641666D02*
X148316197Y-88594047D01*
X148316197Y-88594047D02*
X148411435Y-88570238D01*
X148411435Y-88570238D02*
X148601911Y-88570238D01*
X148601911Y-88570238D02*
X148649530Y-88594047D01*
X148649530Y-88594047D02*
X148673340Y-88617857D01*
X148673340Y-88617857D02*
X148697149Y-88665476D01*
X148697149Y-88665476D02*
X148697149Y-88760714D01*
X148697149Y-88760714D02*
X148673340Y-88808333D01*
X148673340Y-88808333D02*
X148649530Y-88832142D01*
X148649530Y-88832142D02*
X148601911Y-88855952D01*
X148601911Y-88855952D02*
X148482863Y-88855952D01*
X148482863Y-88855952D02*
X148435244Y-88832142D01*
X148435244Y-88832142D02*
X148411435Y-88808333D01*
X148411435Y-88808333D02*
X148387625Y-88760714D01*
X148387625Y-88760714D02*
X148387625Y-88665476D01*
X148387625Y-88665476D02*
X148411435Y-88617857D01*
X148411435Y-88617857D02*
X148435244Y-88594047D01*
X148435244Y-88594047D02*
X148482863Y-88570238D01*
X150579530Y-106728571D02*
X150603340Y-106704762D01*
X150603340Y-106704762D02*
X150627149Y-106633333D01*
X150627149Y-106633333D02*
X150627149Y-106585714D01*
X150627149Y-106585714D02*
X150603340Y-106514286D01*
X150603340Y-106514286D02*
X150555720Y-106466667D01*
X150555720Y-106466667D02*
X150508101Y-106442857D01*
X150508101Y-106442857D02*
X150412863Y-106419048D01*
X150412863Y-106419048D02*
X150341435Y-106419048D01*
X150341435Y-106419048D02*
X150246197Y-106442857D01*
X150246197Y-106442857D02*
X150198578Y-106466667D01*
X150198578Y-106466667D02*
X150150959Y-106514286D01*
X150150959Y-106514286D02*
X150127149Y-106585714D01*
X150127149Y-106585714D02*
X150127149Y-106633333D01*
X150127149Y-106633333D02*
X150150959Y-106704762D01*
X150150959Y-106704762D02*
X150174768Y-106728571D01*
X150293816Y-107157143D02*
X150627149Y-107157143D01*
X150103340Y-107038095D02*
X150460482Y-106919048D01*
X150460482Y-106919048D02*
X150460482Y-107228571D01*
X150293816Y-107633333D02*
X150627149Y-107633333D01*
X150103340Y-107514285D02*
X150460482Y-107395238D01*
X150460482Y-107395238D02*
X150460482Y-107704761D01*
X133717149Y-48518571D02*
X133479054Y-48351905D01*
X133717149Y-48232857D02*
X133217149Y-48232857D01*
X133217149Y-48232857D02*
X133217149Y-48423333D01*
X133217149Y-48423333D02*
X133240959Y-48470952D01*
X133240959Y-48470952D02*
X133264768Y-48494762D01*
X133264768Y-48494762D02*
X133312387Y-48518571D01*
X133312387Y-48518571D02*
X133383816Y-48518571D01*
X133383816Y-48518571D02*
X133431435Y-48494762D01*
X133431435Y-48494762D02*
X133455244Y-48470952D01*
X133455244Y-48470952D02*
X133479054Y-48423333D01*
X133479054Y-48423333D02*
X133479054Y-48232857D01*
X133717149Y-48994762D02*
X133717149Y-48709048D01*
X133717149Y-48851905D02*
X133217149Y-48851905D01*
X133217149Y-48851905D02*
X133288578Y-48804286D01*
X133288578Y-48804286D02*
X133336197Y-48756667D01*
X133336197Y-48756667D02*
X133360006Y-48709048D01*
X133217149Y-49161428D02*
X133217149Y-49494761D01*
X133217149Y-49494761D02*
X133717149Y-49280476D01*
X155977149Y-48446666D02*
X155739054Y-48280000D01*
X155977149Y-48160952D02*
X155477149Y-48160952D01*
X155477149Y-48160952D02*
X155477149Y-48351428D01*
X155477149Y-48351428D02*
X155500959Y-48399047D01*
X155500959Y-48399047D02*
X155524768Y-48422857D01*
X155524768Y-48422857D02*
X155572387Y-48446666D01*
X155572387Y-48446666D02*
X155643816Y-48446666D01*
X155643816Y-48446666D02*
X155691435Y-48422857D01*
X155691435Y-48422857D02*
X155715244Y-48399047D01*
X155715244Y-48399047D02*
X155739054Y-48351428D01*
X155739054Y-48351428D02*
X155739054Y-48160952D01*
X155477149Y-48613333D02*
X155477149Y-48922857D01*
X155477149Y-48922857D02*
X155667625Y-48756190D01*
X155667625Y-48756190D02*
X155667625Y-48827619D01*
X155667625Y-48827619D02*
X155691435Y-48875238D01*
X155691435Y-48875238D02*
X155715244Y-48899047D01*
X155715244Y-48899047D02*
X155762863Y-48922857D01*
X155762863Y-48922857D02*
X155881911Y-48922857D01*
X155881911Y-48922857D02*
X155929530Y-48899047D01*
X155929530Y-48899047D02*
X155953340Y-48875238D01*
X155953340Y-48875238D02*
X155977149Y-48827619D01*
X155977149Y-48827619D02*
X155977149Y-48684762D01*
X155977149Y-48684762D02*
X155953340Y-48637143D01*
X155953340Y-48637143D02*
X155929530Y-48613333D01*
X143096428Y-89629530D02*
X143120237Y-89653340D01*
X143120237Y-89653340D02*
X143191666Y-89677149D01*
X143191666Y-89677149D02*
X143239285Y-89677149D01*
X143239285Y-89677149D02*
X143310713Y-89653340D01*
X143310713Y-89653340D02*
X143358332Y-89605720D01*
X143358332Y-89605720D02*
X143382142Y-89558101D01*
X143382142Y-89558101D02*
X143405951Y-89462863D01*
X143405951Y-89462863D02*
X143405951Y-89391435D01*
X143405951Y-89391435D02*
X143382142Y-89296197D01*
X143382142Y-89296197D02*
X143358332Y-89248578D01*
X143358332Y-89248578D02*
X143310713Y-89200959D01*
X143310713Y-89200959D02*
X143239285Y-89177149D01*
X143239285Y-89177149D02*
X143191666Y-89177149D01*
X143191666Y-89177149D02*
X143120237Y-89200959D01*
X143120237Y-89200959D02*
X143096428Y-89224768D01*
X142620237Y-89677149D02*
X142905951Y-89677149D01*
X142763094Y-89677149D02*
X142763094Y-89177149D01*
X142763094Y-89177149D02*
X142810713Y-89248578D01*
X142810713Y-89248578D02*
X142858332Y-89296197D01*
X142858332Y-89296197D02*
X142905951Y-89320006D01*
X142191666Y-89177149D02*
X142286904Y-89177149D01*
X142286904Y-89177149D02*
X142334523Y-89200959D01*
X142334523Y-89200959D02*
X142358333Y-89224768D01*
X142358333Y-89224768D02*
X142405952Y-89296197D01*
X142405952Y-89296197D02*
X142429761Y-89391435D01*
X142429761Y-89391435D02*
X142429761Y-89581911D01*
X142429761Y-89581911D02*
X142405952Y-89629530D01*
X142405952Y-89629530D02*
X142382142Y-89653340D01*
X142382142Y-89653340D02*
X142334523Y-89677149D01*
X142334523Y-89677149D02*
X142239285Y-89677149D01*
X142239285Y-89677149D02*
X142191666Y-89653340D01*
X142191666Y-89653340D02*
X142167857Y-89629530D01*
X142167857Y-89629530D02*
X142144047Y-89581911D01*
X142144047Y-89581911D02*
X142144047Y-89462863D01*
X142144047Y-89462863D02*
X142167857Y-89415244D01*
X142167857Y-89415244D02*
X142191666Y-89391435D01*
X142191666Y-89391435D02*
X142239285Y-89367625D01*
X142239285Y-89367625D02*
X142334523Y-89367625D01*
X142334523Y-89367625D02*
X142382142Y-89391435D01*
X142382142Y-89391435D02*
X142405952Y-89415244D01*
X142405952Y-89415244D02*
X142429761Y-89462863D01*
X147729530Y-96528571D02*
X147753340Y-96504762D01*
X147753340Y-96504762D02*
X147777149Y-96433333D01*
X147777149Y-96433333D02*
X147777149Y-96385714D01*
X147777149Y-96385714D02*
X147753340Y-96314286D01*
X147753340Y-96314286D02*
X147705720Y-96266667D01*
X147705720Y-96266667D02*
X147658101Y-96242857D01*
X147658101Y-96242857D02*
X147562863Y-96219048D01*
X147562863Y-96219048D02*
X147491435Y-96219048D01*
X147491435Y-96219048D02*
X147396197Y-96242857D01*
X147396197Y-96242857D02*
X147348578Y-96266667D01*
X147348578Y-96266667D02*
X147300959Y-96314286D01*
X147300959Y-96314286D02*
X147277149Y-96385714D01*
X147277149Y-96385714D02*
X147277149Y-96433333D01*
X147277149Y-96433333D02*
X147300959Y-96504762D01*
X147300959Y-96504762D02*
X147324768Y-96528571D01*
X147777149Y-97004762D02*
X147777149Y-96719048D01*
X147777149Y-96861905D02*
X147277149Y-96861905D01*
X147277149Y-96861905D02*
X147348578Y-96814286D01*
X147348578Y-96814286D02*
X147396197Y-96766667D01*
X147396197Y-96766667D02*
X147420006Y-96719048D01*
X147277149Y-97171428D02*
X147277149Y-97504761D01*
X147277149Y-97504761D02*
X147777149Y-97290476D01*
X153284530Y-88478571D02*
X153308340Y-88454762D01*
X153308340Y-88454762D02*
X153332149Y-88383333D01*
X153332149Y-88383333D02*
X153332149Y-88335714D01*
X153332149Y-88335714D02*
X153308340Y-88264286D01*
X153308340Y-88264286D02*
X153260720Y-88216667D01*
X153260720Y-88216667D02*
X153213101Y-88192857D01*
X153213101Y-88192857D02*
X153117863Y-88169048D01*
X153117863Y-88169048D02*
X153046435Y-88169048D01*
X153046435Y-88169048D02*
X152951197Y-88192857D01*
X152951197Y-88192857D02*
X152903578Y-88216667D01*
X152903578Y-88216667D02*
X152855959Y-88264286D01*
X152855959Y-88264286D02*
X152832149Y-88335714D01*
X152832149Y-88335714D02*
X152832149Y-88383333D01*
X152832149Y-88383333D02*
X152855959Y-88454762D01*
X152855959Y-88454762D02*
X152879768Y-88478571D01*
X152998816Y-88907143D02*
X153332149Y-88907143D01*
X152808340Y-88788095D02*
X153165482Y-88669048D01*
X153165482Y-88669048D02*
X153165482Y-88978571D01*
X152832149Y-89121428D02*
X152832149Y-89454761D01*
X152832149Y-89454761D02*
X153332149Y-89240476D01*
X140509530Y-40778571D02*
X140533340Y-40754762D01*
X140533340Y-40754762D02*
X140557149Y-40683333D01*
X140557149Y-40683333D02*
X140557149Y-40635714D01*
X140557149Y-40635714D02*
X140533340Y-40564286D01*
X140533340Y-40564286D02*
X140485720Y-40516667D01*
X140485720Y-40516667D02*
X140438101Y-40492857D01*
X140438101Y-40492857D02*
X140342863Y-40469048D01*
X140342863Y-40469048D02*
X140271435Y-40469048D01*
X140271435Y-40469048D02*
X140176197Y-40492857D01*
X140176197Y-40492857D02*
X140128578Y-40516667D01*
X140128578Y-40516667D02*
X140080959Y-40564286D01*
X140080959Y-40564286D02*
X140057149Y-40635714D01*
X140057149Y-40635714D02*
X140057149Y-40683333D01*
X140057149Y-40683333D02*
X140080959Y-40754762D01*
X140080959Y-40754762D02*
X140104768Y-40778571D01*
X140557149Y-41254762D02*
X140557149Y-40969048D01*
X140557149Y-41111905D02*
X140057149Y-41111905D01*
X140057149Y-41111905D02*
X140128578Y-41064286D01*
X140128578Y-41064286D02*
X140176197Y-41016667D01*
X140176197Y-41016667D02*
X140200006Y-40969048D01*
X140057149Y-41707142D02*
X140057149Y-41469047D01*
X140057149Y-41469047D02*
X140295244Y-41445238D01*
X140295244Y-41445238D02*
X140271435Y-41469047D01*
X140271435Y-41469047D02*
X140247625Y-41516666D01*
X140247625Y-41516666D02*
X140247625Y-41635714D01*
X140247625Y-41635714D02*
X140271435Y-41683333D01*
X140271435Y-41683333D02*
X140295244Y-41707142D01*
X140295244Y-41707142D02*
X140342863Y-41730952D01*
X140342863Y-41730952D02*
X140461911Y-41730952D01*
X140461911Y-41730952D02*
X140509530Y-41707142D01*
X140509530Y-41707142D02*
X140533340Y-41683333D01*
X140533340Y-41683333D02*
X140557149Y-41635714D01*
X140557149Y-41635714D02*
X140557149Y-41516666D01*
X140557149Y-41516666D02*
X140533340Y-41469047D01*
X140533340Y-41469047D02*
X140509530Y-41445238D01*
X143777149Y-103853571D02*
X143539054Y-103686905D01*
X143777149Y-103567857D02*
X143277149Y-103567857D01*
X143277149Y-103567857D02*
X143277149Y-103758333D01*
X143277149Y-103758333D02*
X143300959Y-103805952D01*
X143300959Y-103805952D02*
X143324768Y-103829762D01*
X143324768Y-103829762D02*
X143372387Y-103853571D01*
X143372387Y-103853571D02*
X143443816Y-103853571D01*
X143443816Y-103853571D02*
X143491435Y-103829762D01*
X143491435Y-103829762D02*
X143515244Y-103805952D01*
X143515244Y-103805952D02*
X143539054Y-103758333D01*
X143539054Y-103758333D02*
X143539054Y-103567857D01*
X143277149Y-104305952D02*
X143277149Y-104067857D01*
X143277149Y-104067857D02*
X143515244Y-104044048D01*
X143515244Y-104044048D02*
X143491435Y-104067857D01*
X143491435Y-104067857D02*
X143467625Y-104115476D01*
X143467625Y-104115476D02*
X143467625Y-104234524D01*
X143467625Y-104234524D02*
X143491435Y-104282143D01*
X143491435Y-104282143D02*
X143515244Y-104305952D01*
X143515244Y-104305952D02*
X143562863Y-104329762D01*
X143562863Y-104329762D02*
X143681911Y-104329762D01*
X143681911Y-104329762D02*
X143729530Y-104305952D01*
X143729530Y-104305952D02*
X143753340Y-104282143D01*
X143753340Y-104282143D02*
X143777149Y-104234524D01*
X143777149Y-104234524D02*
X143777149Y-104115476D01*
X143777149Y-104115476D02*
X143753340Y-104067857D01*
X143753340Y-104067857D02*
X143729530Y-104044048D01*
X143277149Y-104639285D02*
X143277149Y-104686904D01*
X143277149Y-104686904D02*
X143300959Y-104734523D01*
X143300959Y-104734523D02*
X143324768Y-104758333D01*
X143324768Y-104758333D02*
X143372387Y-104782142D01*
X143372387Y-104782142D02*
X143467625Y-104805952D01*
X143467625Y-104805952D02*
X143586673Y-104805952D01*
X143586673Y-104805952D02*
X143681911Y-104782142D01*
X143681911Y-104782142D02*
X143729530Y-104758333D01*
X143729530Y-104758333D02*
X143753340Y-104734523D01*
X143753340Y-104734523D02*
X143777149Y-104686904D01*
X143777149Y-104686904D02*
X143777149Y-104639285D01*
X143777149Y-104639285D02*
X143753340Y-104591666D01*
X143753340Y-104591666D02*
X143729530Y-104567857D01*
X143729530Y-104567857D02*
X143681911Y-104544047D01*
X143681911Y-104544047D02*
X143586673Y-104520238D01*
X143586673Y-104520238D02*
X143467625Y-104520238D01*
X143467625Y-104520238D02*
X143372387Y-104544047D01*
X143372387Y-104544047D02*
X143324768Y-104567857D01*
X143324768Y-104567857D02*
X143300959Y-104591666D01*
X143300959Y-104591666D02*
X143277149Y-104639285D01*
X159427149Y-51446666D02*
X159189054Y-51280000D01*
X159427149Y-51160952D02*
X158927149Y-51160952D01*
X158927149Y-51160952D02*
X158927149Y-51351428D01*
X158927149Y-51351428D02*
X158950959Y-51399047D01*
X158950959Y-51399047D02*
X158974768Y-51422857D01*
X158974768Y-51422857D02*
X159022387Y-51446666D01*
X159022387Y-51446666D02*
X159093816Y-51446666D01*
X159093816Y-51446666D02*
X159141435Y-51422857D01*
X159141435Y-51422857D02*
X159165244Y-51399047D01*
X159165244Y-51399047D02*
X159189054Y-51351428D01*
X159189054Y-51351428D02*
X159189054Y-51160952D01*
X159427149Y-51922857D02*
X159427149Y-51637143D01*
X159427149Y-51780000D02*
X158927149Y-51780000D01*
X158927149Y-51780000D02*
X158998578Y-51732381D01*
X158998578Y-51732381D02*
X159046197Y-51684762D01*
X159046197Y-51684762D02*
X159070006Y-51637143D01*
X134902149Y-72288571D02*
X134664054Y-72121905D01*
X134902149Y-72002857D02*
X134402149Y-72002857D01*
X134402149Y-72002857D02*
X134402149Y-72193333D01*
X134402149Y-72193333D02*
X134425959Y-72240952D01*
X134425959Y-72240952D02*
X134449768Y-72264762D01*
X134449768Y-72264762D02*
X134497387Y-72288571D01*
X134497387Y-72288571D02*
X134568816Y-72288571D01*
X134568816Y-72288571D02*
X134616435Y-72264762D01*
X134616435Y-72264762D02*
X134640244Y-72240952D01*
X134640244Y-72240952D02*
X134664054Y-72193333D01*
X134664054Y-72193333D02*
X134664054Y-72002857D01*
X134449768Y-72479048D02*
X134425959Y-72502857D01*
X134425959Y-72502857D02*
X134402149Y-72550476D01*
X134402149Y-72550476D02*
X134402149Y-72669524D01*
X134402149Y-72669524D02*
X134425959Y-72717143D01*
X134425959Y-72717143D02*
X134449768Y-72740952D01*
X134449768Y-72740952D02*
X134497387Y-72764762D01*
X134497387Y-72764762D02*
X134545006Y-72764762D01*
X134545006Y-72764762D02*
X134616435Y-72740952D01*
X134616435Y-72740952D02*
X134902149Y-72455238D01*
X134902149Y-72455238D02*
X134902149Y-72764762D01*
X134402149Y-73193333D02*
X134402149Y-73098095D01*
X134402149Y-73098095D02*
X134425959Y-73050476D01*
X134425959Y-73050476D02*
X134449768Y-73026666D01*
X134449768Y-73026666D02*
X134521197Y-72979047D01*
X134521197Y-72979047D02*
X134616435Y-72955238D01*
X134616435Y-72955238D02*
X134806911Y-72955238D01*
X134806911Y-72955238D02*
X134854530Y-72979047D01*
X134854530Y-72979047D02*
X134878340Y-73002857D01*
X134878340Y-73002857D02*
X134902149Y-73050476D01*
X134902149Y-73050476D02*
X134902149Y-73145714D01*
X134902149Y-73145714D02*
X134878340Y-73193333D01*
X134878340Y-73193333D02*
X134854530Y-73217142D01*
X134854530Y-73217142D02*
X134806911Y-73240952D01*
X134806911Y-73240952D02*
X134687863Y-73240952D01*
X134687863Y-73240952D02*
X134640244Y-73217142D01*
X134640244Y-73217142D02*
X134616435Y-73193333D01*
X134616435Y-73193333D02*
X134592625Y-73145714D01*
X134592625Y-73145714D02*
X134592625Y-73050476D01*
X134592625Y-73050476D02*
X134616435Y-73002857D01*
X134616435Y-73002857D02*
X134640244Y-72979047D01*
X134640244Y-72979047D02*
X134687863Y-72955238D01*
X156609530Y-72028571D02*
X156633340Y-72004762D01*
X156633340Y-72004762D02*
X156657149Y-71933333D01*
X156657149Y-71933333D02*
X156657149Y-71885714D01*
X156657149Y-71885714D02*
X156633340Y-71814286D01*
X156633340Y-71814286D02*
X156585720Y-71766667D01*
X156585720Y-71766667D02*
X156538101Y-71742857D01*
X156538101Y-71742857D02*
X156442863Y-71719048D01*
X156442863Y-71719048D02*
X156371435Y-71719048D01*
X156371435Y-71719048D02*
X156276197Y-71742857D01*
X156276197Y-71742857D02*
X156228578Y-71766667D01*
X156228578Y-71766667D02*
X156180959Y-71814286D01*
X156180959Y-71814286D02*
X156157149Y-71885714D01*
X156157149Y-71885714D02*
X156157149Y-71933333D01*
X156157149Y-71933333D02*
X156180959Y-72004762D01*
X156180959Y-72004762D02*
X156204768Y-72028571D01*
X156157149Y-72195238D02*
X156157149Y-72504762D01*
X156157149Y-72504762D02*
X156347625Y-72338095D01*
X156347625Y-72338095D02*
X156347625Y-72409524D01*
X156347625Y-72409524D02*
X156371435Y-72457143D01*
X156371435Y-72457143D02*
X156395244Y-72480952D01*
X156395244Y-72480952D02*
X156442863Y-72504762D01*
X156442863Y-72504762D02*
X156561911Y-72504762D01*
X156561911Y-72504762D02*
X156609530Y-72480952D01*
X156609530Y-72480952D02*
X156633340Y-72457143D01*
X156633340Y-72457143D02*
X156657149Y-72409524D01*
X156657149Y-72409524D02*
X156657149Y-72266667D01*
X156657149Y-72266667D02*
X156633340Y-72219048D01*
X156633340Y-72219048D02*
X156609530Y-72195238D01*
X156657149Y-72980952D02*
X156657149Y-72695238D01*
X156657149Y-72838095D02*
X156157149Y-72838095D01*
X156157149Y-72838095D02*
X156228578Y-72790476D01*
X156228578Y-72790476D02*
X156276197Y-72742857D01*
X156276197Y-72742857D02*
X156300006Y-72695238D01*
X143299530Y-50496666D02*
X143323340Y-50472857D01*
X143323340Y-50472857D02*
X143347149Y-50401428D01*
X143347149Y-50401428D02*
X143347149Y-50353809D01*
X143347149Y-50353809D02*
X143323340Y-50282381D01*
X143323340Y-50282381D02*
X143275720Y-50234762D01*
X143275720Y-50234762D02*
X143228101Y-50210952D01*
X143228101Y-50210952D02*
X143132863Y-50187143D01*
X143132863Y-50187143D02*
X143061435Y-50187143D01*
X143061435Y-50187143D02*
X142966197Y-50210952D01*
X142966197Y-50210952D02*
X142918578Y-50234762D01*
X142918578Y-50234762D02*
X142870959Y-50282381D01*
X142870959Y-50282381D02*
X142847149Y-50353809D01*
X142847149Y-50353809D02*
X142847149Y-50401428D01*
X142847149Y-50401428D02*
X142870959Y-50472857D01*
X142870959Y-50472857D02*
X142894768Y-50496666D01*
X142847149Y-50663333D02*
X142847149Y-50996666D01*
X142847149Y-50996666D02*
X143347149Y-50782381D01*
X130317149Y-50860952D02*
X129817149Y-50860952D01*
X129817149Y-50860952D02*
X129817149Y-50980000D01*
X129817149Y-50980000D02*
X129840959Y-51051428D01*
X129840959Y-51051428D02*
X129888578Y-51099047D01*
X129888578Y-51099047D02*
X129936197Y-51122857D01*
X129936197Y-51122857D02*
X130031435Y-51146666D01*
X130031435Y-51146666D02*
X130102863Y-51146666D01*
X130102863Y-51146666D02*
X130198101Y-51122857D01*
X130198101Y-51122857D02*
X130245720Y-51099047D01*
X130245720Y-51099047D02*
X130293340Y-51051428D01*
X130293340Y-51051428D02*
X130317149Y-50980000D01*
X130317149Y-50980000D02*
X130317149Y-50860952D01*
X129817149Y-51599047D02*
X129817149Y-51360952D01*
X129817149Y-51360952D02*
X130055244Y-51337143D01*
X130055244Y-51337143D02*
X130031435Y-51360952D01*
X130031435Y-51360952D02*
X130007625Y-51408571D01*
X130007625Y-51408571D02*
X130007625Y-51527619D01*
X130007625Y-51527619D02*
X130031435Y-51575238D01*
X130031435Y-51575238D02*
X130055244Y-51599047D01*
X130055244Y-51599047D02*
X130102863Y-51622857D01*
X130102863Y-51622857D02*
X130221911Y-51622857D01*
X130221911Y-51622857D02*
X130269530Y-51599047D01*
X130269530Y-51599047D02*
X130293340Y-51575238D01*
X130293340Y-51575238D02*
X130317149Y-51527619D01*
X130317149Y-51527619D02*
X130317149Y-51408571D01*
X130317149Y-51408571D02*
X130293340Y-51360952D01*
X130293340Y-51360952D02*
X130269530Y-51337143D01*
X138661428Y-65392149D02*
X138828094Y-65154054D01*
X138947142Y-65392149D02*
X138947142Y-64892149D01*
X138947142Y-64892149D02*
X138756666Y-64892149D01*
X138756666Y-64892149D02*
X138709047Y-64915959D01*
X138709047Y-64915959D02*
X138685237Y-64939768D01*
X138685237Y-64939768D02*
X138661428Y-64987387D01*
X138661428Y-64987387D02*
X138661428Y-65058816D01*
X138661428Y-65058816D02*
X138685237Y-65106435D01*
X138685237Y-65106435D02*
X138709047Y-65130244D01*
X138709047Y-65130244D02*
X138756666Y-65154054D01*
X138756666Y-65154054D02*
X138947142Y-65154054D01*
X138470951Y-64939768D02*
X138447142Y-64915959D01*
X138447142Y-64915959D02*
X138399523Y-64892149D01*
X138399523Y-64892149D02*
X138280475Y-64892149D01*
X138280475Y-64892149D02*
X138232856Y-64915959D01*
X138232856Y-64915959D02*
X138209047Y-64939768D01*
X138209047Y-64939768D02*
X138185237Y-64987387D01*
X138185237Y-64987387D02*
X138185237Y-65035006D01*
X138185237Y-65035006D02*
X138209047Y-65106435D01*
X138209047Y-65106435D02*
X138494761Y-65392149D01*
X138494761Y-65392149D02*
X138185237Y-65392149D01*
X138018571Y-64892149D02*
X137685238Y-64892149D01*
X137685238Y-64892149D02*
X137899523Y-65392149D01*
X150629530Y-100403571D02*
X150653340Y-100379762D01*
X150653340Y-100379762D02*
X150677149Y-100308333D01*
X150677149Y-100308333D02*
X150677149Y-100260714D01*
X150677149Y-100260714D02*
X150653340Y-100189286D01*
X150653340Y-100189286D02*
X150605720Y-100141667D01*
X150605720Y-100141667D02*
X150558101Y-100117857D01*
X150558101Y-100117857D02*
X150462863Y-100094048D01*
X150462863Y-100094048D02*
X150391435Y-100094048D01*
X150391435Y-100094048D02*
X150296197Y-100117857D01*
X150296197Y-100117857D02*
X150248578Y-100141667D01*
X150248578Y-100141667D02*
X150200959Y-100189286D01*
X150200959Y-100189286D02*
X150177149Y-100260714D01*
X150177149Y-100260714D02*
X150177149Y-100308333D01*
X150177149Y-100308333D02*
X150200959Y-100379762D01*
X150200959Y-100379762D02*
X150224768Y-100403571D01*
X150177149Y-100855952D02*
X150177149Y-100617857D01*
X150177149Y-100617857D02*
X150415244Y-100594048D01*
X150415244Y-100594048D02*
X150391435Y-100617857D01*
X150391435Y-100617857D02*
X150367625Y-100665476D01*
X150367625Y-100665476D02*
X150367625Y-100784524D01*
X150367625Y-100784524D02*
X150391435Y-100832143D01*
X150391435Y-100832143D02*
X150415244Y-100855952D01*
X150415244Y-100855952D02*
X150462863Y-100879762D01*
X150462863Y-100879762D02*
X150581911Y-100879762D01*
X150581911Y-100879762D02*
X150629530Y-100855952D01*
X150629530Y-100855952D02*
X150653340Y-100832143D01*
X150653340Y-100832143D02*
X150677149Y-100784524D01*
X150677149Y-100784524D02*
X150677149Y-100665476D01*
X150677149Y-100665476D02*
X150653340Y-100617857D01*
X150653340Y-100617857D02*
X150629530Y-100594048D01*
X150177149Y-101189285D02*
X150177149Y-101236904D01*
X150177149Y-101236904D02*
X150200959Y-101284523D01*
X150200959Y-101284523D02*
X150224768Y-101308333D01*
X150224768Y-101308333D02*
X150272387Y-101332142D01*
X150272387Y-101332142D02*
X150367625Y-101355952D01*
X150367625Y-101355952D02*
X150486673Y-101355952D01*
X150486673Y-101355952D02*
X150581911Y-101332142D01*
X150581911Y-101332142D02*
X150629530Y-101308333D01*
X150629530Y-101308333D02*
X150653340Y-101284523D01*
X150653340Y-101284523D02*
X150677149Y-101236904D01*
X150677149Y-101236904D02*
X150677149Y-101189285D01*
X150677149Y-101189285D02*
X150653340Y-101141666D01*
X150653340Y-101141666D02*
X150629530Y-101117857D01*
X150629530Y-101117857D02*
X150581911Y-101094047D01*
X150581911Y-101094047D02*
X150486673Y-101070238D01*
X150486673Y-101070238D02*
X150367625Y-101070238D01*
X150367625Y-101070238D02*
X150272387Y-101094047D01*
X150272387Y-101094047D02*
X150224768Y-101117857D01*
X150224768Y-101117857D02*
X150200959Y-101141666D01*
X150200959Y-101141666D02*
X150177149Y-101189285D01*
X138649530Y-48038571D02*
X138673340Y-48014762D01*
X138673340Y-48014762D02*
X138697149Y-47943333D01*
X138697149Y-47943333D02*
X138697149Y-47895714D01*
X138697149Y-47895714D02*
X138673340Y-47824286D01*
X138673340Y-47824286D02*
X138625720Y-47776667D01*
X138625720Y-47776667D02*
X138578101Y-47752857D01*
X138578101Y-47752857D02*
X138482863Y-47729048D01*
X138482863Y-47729048D02*
X138411435Y-47729048D01*
X138411435Y-47729048D02*
X138316197Y-47752857D01*
X138316197Y-47752857D02*
X138268578Y-47776667D01*
X138268578Y-47776667D02*
X138220959Y-47824286D01*
X138220959Y-47824286D02*
X138197149Y-47895714D01*
X138197149Y-47895714D02*
X138197149Y-47943333D01*
X138197149Y-47943333D02*
X138220959Y-48014762D01*
X138220959Y-48014762D02*
X138244768Y-48038571D01*
X138697149Y-48514762D02*
X138697149Y-48229048D01*
X138697149Y-48371905D02*
X138197149Y-48371905D01*
X138197149Y-48371905D02*
X138268578Y-48324286D01*
X138268578Y-48324286D02*
X138316197Y-48276667D01*
X138316197Y-48276667D02*
X138340006Y-48229048D01*
X138363816Y-48943333D02*
X138697149Y-48943333D01*
X138173340Y-48824285D02*
X138530482Y-48705238D01*
X138530482Y-48705238D02*
X138530482Y-49014761D01*
X153889530Y-50536666D02*
X153913340Y-50512857D01*
X153913340Y-50512857D02*
X153937149Y-50441428D01*
X153937149Y-50441428D02*
X153937149Y-50393809D01*
X153937149Y-50393809D02*
X153913340Y-50322381D01*
X153913340Y-50322381D02*
X153865720Y-50274762D01*
X153865720Y-50274762D02*
X153818101Y-50250952D01*
X153818101Y-50250952D02*
X153722863Y-50227143D01*
X153722863Y-50227143D02*
X153651435Y-50227143D01*
X153651435Y-50227143D02*
X153556197Y-50250952D01*
X153556197Y-50250952D02*
X153508578Y-50274762D01*
X153508578Y-50274762D02*
X153460959Y-50322381D01*
X153460959Y-50322381D02*
X153437149Y-50393809D01*
X153437149Y-50393809D02*
X153437149Y-50441428D01*
X153437149Y-50441428D02*
X153460959Y-50512857D01*
X153460959Y-50512857D02*
X153484768Y-50536666D01*
X153437149Y-50989047D02*
X153437149Y-50750952D01*
X153437149Y-50750952D02*
X153675244Y-50727143D01*
X153675244Y-50727143D02*
X153651435Y-50750952D01*
X153651435Y-50750952D02*
X153627625Y-50798571D01*
X153627625Y-50798571D02*
X153627625Y-50917619D01*
X153627625Y-50917619D02*
X153651435Y-50965238D01*
X153651435Y-50965238D02*
X153675244Y-50989047D01*
X153675244Y-50989047D02*
X153722863Y-51012857D01*
X153722863Y-51012857D02*
X153841911Y-51012857D01*
X153841911Y-51012857D02*
X153889530Y-50989047D01*
X153889530Y-50989047D02*
X153913340Y-50965238D01*
X153913340Y-50965238D02*
X153937149Y-50917619D01*
X153937149Y-50917619D02*
X153937149Y-50798571D01*
X153937149Y-50798571D02*
X153913340Y-50750952D01*
X153913340Y-50750952D02*
X153889530Y-50727143D01*
X156619530Y-83948571D02*
X156643340Y-83924762D01*
X156643340Y-83924762D02*
X156667149Y-83853333D01*
X156667149Y-83853333D02*
X156667149Y-83805714D01*
X156667149Y-83805714D02*
X156643340Y-83734286D01*
X156643340Y-83734286D02*
X156595720Y-83686667D01*
X156595720Y-83686667D02*
X156548101Y-83662857D01*
X156548101Y-83662857D02*
X156452863Y-83639048D01*
X156452863Y-83639048D02*
X156381435Y-83639048D01*
X156381435Y-83639048D02*
X156286197Y-83662857D01*
X156286197Y-83662857D02*
X156238578Y-83686667D01*
X156238578Y-83686667D02*
X156190959Y-83734286D01*
X156190959Y-83734286D02*
X156167149Y-83805714D01*
X156167149Y-83805714D02*
X156167149Y-83853333D01*
X156167149Y-83853333D02*
X156190959Y-83924762D01*
X156190959Y-83924762D02*
X156214768Y-83948571D01*
X156214768Y-84139048D02*
X156190959Y-84162857D01*
X156190959Y-84162857D02*
X156167149Y-84210476D01*
X156167149Y-84210476D02*
X156167149Y-84329524D01*
X156167149Y-84329524D02*
X156190959Y-84377143D01*
X156190959Y-84377143D02*
X156214768Y-84400952D01*
X156214768Y-84400952D02*
X156262387Y-84424762D01*
X156262387Y-84424762D02*
X156310006Y-84424762D01*
X156310006Y-84424762D02*
X156381435Y-84400952D01*
X156381435Y-84400952D02*
X156667149Y-84115238D01*
X156667149Y-84115238D02*
X156667149Y-84424762D01*
X156667149Y-84662857D02*
X156667149Y-84758095D01*
X156667149Y-84758095D02*
X156643340Y-84805714D01*
X156643340Y-84805714D02*
X156619530Y-84829523D01*
X156619530Y-84829523D02*
X156548101Y-84877142D01*
X156548101Y-84877142D02*
X156452863Y-84900952D01*
X156452863Y-84900952D02*
X156262387Y-84900952D01*
X156262387Y-84900952D02*
X156214768Y-84877142D01*
X156214768Y-84877142D02*
X156190959Y-84853333D01*
X156190959Y-84853333D02*
X156167149Y-84805714D01*
X156167149Y-84805714D02*
X156167149Y-84710476D01*
X156167149Y-84710476D02*
X156190959Y-84662857D01*
X156190959Y-84662857D02*
X156214768Y-84639047D01*
X156214768Y-84639047D02*
X156262387Y-84615238D01*
X156262387Y-84615238D02*
X156381435Y-84615238D01*
X156381435Y-84615238D02*
X156429054Y-84639047D01*
X156429054Y-84639047D02*
X156452863Y-84662857D01*
X156452863Y-84662857D02*
X156476673Y-84710476D01*
X156476673Y-84710476D02*
X156476673Y-84805714D01*
X156476673Y-84805714D02*
X156452863Y-84853333D01*
X156452863Y-84853333D02*
X156429054Y-84877142D01*
X156429054Y-84877142D02*
X156381435Y-84900952D01*
X140837149Y-50890952D02*
X140337149Y-50890952D01*
X140337149Y-50890952D02*
X140337149Y-51010000D01*
X140337149Y-51010000D02*
X140360959Y-51081428D01*
X140360959Y-51081428D02*
X140408578Y-51129047D01*
X140408578Y-51129047D02*
X140456197Y-51152857D01*
X140456197Y-51152857D02*
X140551435Y-51176666D01*
X140551435Y-51176666D02*
X140622863Y-51176666D01*
X140622863Y-51176666D02*
X140718101Y-51152857D01*
X140718101Y-51152857D02*
X140765720Y-51129047D01*
X140765720Y-51129047D02*
X140813340Y-51081428D01*
X140813340Y-51081428D02*
X140837149Y-51010000D01*
X140837149Y-51010000D02*
X140837149Y-50890952D01*
X140337149Y-51343333D02*
X140337149Y-51652857D01*
X140337149Y-51652857D02*
X140527625Y-51486190D01*
X140527625Y-51486190D02*
X140527625Y-51557619D01*
X140527625Y-51557619D02*
X140551435Y-51605238D01*
X140551435Y-51605238D02*
X140575244Y-51629047D01*
X140575244Y-51629047D02*
X140622863Y-51652857D01*
X140622863Y-51652857D02*
X140741911Y-51652857D01*
X140741911Y-51652857D02*
X140789530Y-51629047D01*
X140789530Y-51629047D02*
X140813340Y-51605238D01*
X140813340Y-51605238D02*
X140837149Y-51557619D01*
X140837149Y-51557619D02*
X140837149Y-51414762D01*
X140837149Y-51414762D02*
X140813340Y-51367143D01*
X140813340Y-51367143D02*
X140789530Y-51343333D01*
X151277149Y-47808571D02*
X151039054Y-47641905D01*
X151277149Y-47522857D02*
X150777149Y-47522857D01*
X150777149Y-47522857D02*
X150777149Y-47713333D01*
X150777149Y-47713333D02*
X150800959Y-47760952D01*
X150800959Y-47760952D02*
X150824768Y-47784762D01*
X150824768Y-47784762D02*
X150872387Y-47808571D01*
X150872387Y-47808571D02*
X150943816Y-47808571D01*
X150943816Y-47808571D02*
X150991435Y-47784762D01*
X150991435Y-47784762D02*
X151015244Y-47760952D01*
X151015244Y-47760952D02*
X151039054Y-47713333D01*
X151039054Y-47713333D02*
X151039054Y-47522857D01*
X151277149Y-48284762D02*
X151277149Y-47999048D01*
X151277149Y-48141905D02*
X150777149Y-48141905D01*
X150777149Y-48141905D02*
X150848578Y-48094286D01*
X150848578Y-48094286D02*
X150896197Y-48046667D01*
X150896197Y-48046667D02*
X150920006Y-47999048D01*
X151277149Y-48760952D02*
X151277149Y-48475238D01*
X151277149Y-48618095D02*
X150777149Y-48618095D01*
X150777149Y-48618095D02*
X150848578Y-48570476D01*
X150848578Y-48570476D02*
X150896197Y-48522857D01*
X150896197Y-48522857D02*
X150920006Y-48475238D01*
X144247149Y-48686666D02*
X144009054Y-48520000D01*
X144247149Y-48400952D02*
X143747149Y-48400952D01*
X143747149Y-48400952D02*
X143747149Y-48591428D01*
X143747149Y-48591428D02*
X143770959Y-48639047D01*
X143770959Y-48639047D02*
X143794768Y-48662857D01*
X143794768Y-48662857D02*
X143842387Y-48686666D01*
X143842387Y-48686666D02*
X143913816Y-48686666D01*
X143913816Y-48686666D02*
X143961435Y-48662857D01*
X143961435Y-48662857D02*
X143985244Y-48639047D01*
X143985244Y-48639047D02*
X144009054Y-48591428D01*
X144009054Y-48591428D02*
X144009054Y-48400952D01*
X144247149Y-48924762D02*
X144247149Y-49020000D01*
X144247149Y-49020000D02*
X144223340Y-49067619D01*
X144223340Y-49067619D02*
X144199530Y-49091428D01*
X144199530Y-49091428D02*
X144128101Y-49139047D01*
X144128101Y-49139047D02*
X144032863Y-49162857D01*
X144032863Y-49162857D02*
X143842387Y-49162857D01*
X143842387Y-49162857D02*
X143794768Y-49139047D01*
X143794768Y-49139047D02*
X143770959Y-49115238D01*
X143770959Y-49115238D02*
X143747149Y-49067619D01*
X143747149Y-49067619D02*
X143747149Y-48972381D01*
X143747149Y-48972381D02*
X143770959Y-48924762D01*
X143770959Y-48924762D02*
X143794768Y-48900952D01*
X143794768Y-48900952D02*
X143842387Y-48877143D01*
X143842387Y-48877143D02*
X143961435Y-48877143D01*
X143961435Y-48877143D02*
X144009054Y-48900952D01*
X144009054Y-48900952D02*
X144032863Y-48924762D01*
X144032863Y-48924762D02*
X144056673Y-48972381D01*
X144056673Y-48972381D02*
X144056673Y-49067619D01*
X144056673Y-49067619D02*
X144032863Y-49115238D01*
X144032863Y-49115238D02*
X144009054Y-49139047D01*
X144009054Y-49139047D02*
X143961435Y-49162857D01*
X137829530Y-70303571D02*
X137853340Y-70279762D01*
X137853340Y-70279762D02*
X137877149Y-70208333D01*
X137877149Y-70208333D02*
X137877149Y-70160714D01*
X137877149Y-70160714D02*
X137853340Y-70089286D01*
X137853340Y-70089286D02*
X137805720Y-70041667D01*
X137805720Y-70041667D02*
X137758101Y-70017857D01*
X137758101Y-70017857D02*
X137662863Y-69994048D01*
X137662863Y-69994048D02*
X137591435Y-69994048D01*
X137591435Y-69994048D02*
X137496197Y-70017857D01*
X137496197Y-70017857D02*
X137448578Y-70041667D01*
X137448578Y-70041667D02*
X137400959Y-70089286D01*
X137400959Y-70089286D02*
X137377149Y-70160714D01*
X137377149Y-70160714D02*
X137377149Y-70208333D01*
X137377149Y-70208333D02*
X137400959Y-70279762D01*
X137400959Y-70279762D02*
X137424768Y-70303571D01*
X137377149Y-70470238D02*
X137377149Y-70779762D01*
X137377149Y-70779762D02*
X137567625Y-70613095D01*
X137567625Y-70613095D02*
X137567625Y-70684524D01*
X137567625Y-70684524D02*
X137591435Y-70732143D01*
X137591435Y-70732143D02*
X137615244Y-70755952D01*
X137615244Y-70755952D02*
X137662863Y-70779762D01*
X137662863Y-70779762D02*
X137781911Y-70779762D01*
X137781911Y-70779762D02*
X137829530Y-70755952D01*
X137829530Y-70755952D02*
X137853340Y-70732143D01*
X137853340Y-70732143D02*
X137877149Y-70684524D01*
X137877149Y-70684524D02*
X137877149Y-70541667D01*
X137877149Y-70541667D02*
X137853340Y-70494048D01*
X137853340Y-70494048D02*
X137829530Y-70470238D01*
X137543816Y-71208333D02*
X137877149Y-71208333D01*
X137353340Y-71089285D02*
X137710482Y-70970238D01*
X137710482Y-70970238D02*
X137710482Y-71279761D01*
X156599530Y-89828571D02*
X156623340Y-89804762D01*
X156623340Y-89804762D02*
X156647149Y-89733333D01*
X156647149Y-89733333D02*
X156647149Y-89685714D01*
X156647149Y-89685714D02*
X156623340Y-89614286D01*
X156623340Y-89614286D02*
X156575720Y-89566667D01*
X156575720Y-89566667D02*
X156528101Y-89542857D01*
X156528101Y-89542857D02*
X156432863Y-89519048D01*
X156432863Y-89519048D02*
X156361435Y-89519048D01*
X156361435Y-89519048D02*
X156266197Y-89542857D01*
X156266197Y-89542857D02*
X156218578Y-89566667D01*
X156218578Y-89566667D02*
X156170959Y-89614286D01*
X156170959Y-89614286D02*
X156147149Y-89685714D01*
X156147149Y-89685714D02*
X156147149Y-89733333D01*
X156147149Y-89733333D02*
X156170959Y-89804762D01*
X156170959Y-89804762D02*
X156194768Y-89828571D01*
X156194768Y-90019048D02*
X156170959Y-90042857D01*
X156170959Y-90042857D02*
X156147149Y-90090476D01*
X156147149Y-90090476D02*
X156147149Y-90209524D01*
X156147149Y-90209524D02*
X156170959Y-90257143D01*
X156170959Y-90257143D02*
X156194768Y-90280952D01*
X156194768Y-90280952D02*
X156242387Y-90304762D01*
X156242387Y-90304762D02*
X156290006Y-90304762D01*
X156290006Y-90304762D02*
X156361435Y-90280952D01*
X156361435Y-90280952D02*
X156647149Y-89995238D01*
X156647149Y-89995238D02*
X156647149Y-90304762D01*
X156147149Y-90471428D02*
X156147149Y-90804761D01*
X156147149Y-90804761D02*
X156647149Y-90590476D01*
X159659530Y-48266666D02*
X159683340Y-48242857D01*
X159683340Y-48242857D02*
X159707149Y-48171428D01*
X159707149Y-48171428D02*
X159707149Y-48123809D01*
X159707149Y-48123809D02*
X159683340Y-48052381D01*
X159683340Y-48052381D02*
X159635720Y-48004762D01*
X159635720Y-48004762D02*
X159588101Y-47980952D01*
X159588101Y-47980952D02*
X159492863Y-47957143D01*
X159492863Y-47957143D02*
X159421435Y-47957143D01*
X159421435Y-47957143D02*
X159326197Y-47980952D01*
X159326197Y-47980952D02*
X159278578Y-48004762D01*
X159278578Y-48004762D02*
X159230959Y-48052381D01*
X159230959Y-48052381D02*
X159207149Y-48123809D01*
X159207149Y-48123809D02*
X159207149Y-48171428D01*
X159207149Y-48171428D02*
X159230959Y-48242857D01*
X159230959Y-48242857D02*
X159254768Y-48266666D01*
X159254768Y-48457143D02*
X159230959Y-48480952D01*
X159230959Y-48480952D02*
X159207149Y-48528571D01*
X159207149Y-48528571D02*
X159207149Y-48647619D01*
X159207149Y-48647619D02*
X159230959Y-48695238D01*
X159230959Y-48695238D02*
X159254768Y-48719047D01*
X159254768Y-48719047D02*
X159302387Y-48742857D01*
X159302387Y-48742857D02*
X159350006Y-48742857D01*
X159350006Y-48742857D02*
X159421435Y-48719047D01*
X159421435Y-48719047D02*
X159707149Y-48433333D01*
X159707149Y-48433333D02*
X159707149Y-48742857D01*
X148947149Y-51238571D02*
X148709054Y-51071905D01*
X148947149Y-50952857D02*
X148447149Y-50952857D01*
X148447149Y-50952857D02*
X148447149Y-51143333D01*
X148447149Y-51143333D02*
X148470959Y-51190952D01*
X148470959Y-51190952D02*
X148494768Y-51214762D01*
X148494768Y-51214762D02*
X148542387Y-51238571D01*
X148542387Y-51238571D02*
X148613816Y-51238571D01*
X148613816Y-51238571D02*
X148661435Y-51214762D01*
X148661435Y-51214762D02*
X148685244Y-51190952D01*
X148685244Y-51190952D02*
X148709054Y-51143333D01*
X148709054Y-51143333D02*
X148709054Y-50952857D01*
X148947149Y-51714762D02*
X148947149Y-51429048D01*
X148947149Y-51571905D02*
X148447149Y-51571905D01*
X148447149Y-51571905D02*
X148518578Y-51524286D01*
X148518578Y-51524286D02*
X148566197Y-51476667D01*
X148566197Y-51476667D02*
X148590006Y-51429048D01*
X148447149Y-52167142D02*
X148447149Y-51929047D01*
X148447149Y-51929047D02*
X148685244Y-51905238D01*
X148685244Y-51905238D02*
X148661435Y-51929047D01*
X148661435Y-51929047D02*
X148637625Y-51976666D01*
X148637625Y-51976666D02*
X148637625Y-52095714D01*
X148637625Y-52095714D02*
X148661435Y-52143333D01*
X148661435Y-52143333D02*
X148685244Y-52167142D01*
X148685244Y-52167142D02*
X148732863Y-52190952D01*
X148732863Y-52190952D02*
X148851911Y-52190952D01*
X148851911Y-52190952D02*
X148899530Y-52167142D01*
X148899530Y-52167142D02*
X148923340Y-52143333D01*
X148923340Y-52143333D02*
X148947149Y-52095714D01*
X148947149Y-52095714D02*
X148947149Y-51976666D01*
X148947149Y-51976666D02*
X148923340Y-51929047D01*
X148923340Y-51929047D02*
X148899530Y-51905238D01*
X149149530Y-48018571D02*
X149173340Y-47994762D01*
X149173340Y-47994762D02*
X149197149Y-47923333D01*
X149197149Y-47923333D02*
X149197149Y-47875714D01*
X149197149Y-47875714D02*
X149173340Y-47804286D01*
X149173340Y-47804286D02*
X149125720Y-47756667D01*
X149125720Y-47756667D02*
X149078101Y-47732857D01*
X149078101Y-47732857D02*
X148982863Y-47709048D01*
X148982863Y-47709048D02*
X148911435Y-47709048D01*
X148911435Y-47709048D02*
X148816197Y-47732857D01*
X148816197Y-47732857D02*
X148768578Y-47756667D01*
X148768578Y-47756667D02*
X148720959Y-47804286D01*
X148720959Y-47804286D02*
X148697149Y-47875714D01*
X148697149Y-47875714D02*
X148697149Y-47923333D01*
X148697149Y-47923333D02*
X148720959Y-47994762D01*
X148720959Y-47994762D02*
X148744768Y-48018571D01*
X149197149Y-48494762D02*
X149197149Y-48209048D01*
X149197149Y-48351905D02*
X148697149Y-48351905D01*
X148697149Y-48351905D02*
X148768578Y-48304286D01*
X148768578Y-48304286D02*
X148816197Y-48256667D01*
X148816197Y-48256667D02*
X148840006Y-48209048D01*
X148697149Y-48804285D02*
X148697149Y-48851904D01*
X148697149Y-48851904D02*
X148720959Y-48899523D01*
X148720959Y-48899523D02*
X148744768Y-48923333D01*
X148744768Y-48923333D02*
X148792387Y-48947142D01*
X148792387Y-48947142D02*
X148887625Y-48970952D01*
X148887625Y-48970952D02*
X149006673Y-48970952D01*
X149006673Y-48970952D02*
X149101911Y-48947142D01*
X149101911Y-48947142D02*
X149149530Y-48923333D01*
X149149530Y-48923333D02*
X149173340Y-48899523D01*
X149173340Y-48899523D02*
X149197149Y-48851904D01*
X149197149Y-48851904D02*
X149197149Y-48804285D01*
X149197149Y-48804285D02*
X149173340Y-48756666D01*
X149173340Y-48756666D02*
X149149530Y-48732857D01*
X149149530Y-48732857D02*
X149101911Y-48709047D01*
X149101911Y-48709047D02*
X149006673Y-48685238D01*
X149006673Y-48685238D02*
X148887625Y-48685238D01*
X148887625Y-48685238D02*
X148792387Y-48709047D01*
X148792387Y-48709047D02*
X148744768Y-48732857D01*
X148744768Y-48732857D02*
X148720959Y-48756666D01*
X148720959Y-48756666D02*
X148697149Y-48804285D01*
X154727149Y-48546666D02*
X154489054Y-48380000D01*
X154727149Y-48260952D02*
X154227149Y-48260952D01*
X154227149Y-48260952D02*
X154227149Y-48451428D01*
X154227149Y-48451428D02*
X154250959Y-48499047D01*
X154250959Y-48499047D02*
X154274768Y-48522857D01*
X154274768Y-48522857D02*
X154322387Y-48546666D01*
X154322387Y-48546666D02*
X154393816Y-48546666D01*
X154393816Y-48546666D02*
X154441435Y-48522857D01*
X154441435Y-48522857D02*
X154465244Y-48499047D01*
X154465244Y-48499047D02*
X154489054Y-48451428D01*
X154489054Y-48451428D02*
X154489054Y-48260952D01*
X154227149Y-48999047D02*
X154227149Y-48760952D01*
X154227149Y-48760952D02*
X154465244Y-48737143D01*
X154465244Y-48737143D02*
X154441435Y-48760952D01*
X154441435Y-48760952D02*
X154417625Y-48808571D01*
X154417625Y-48808571D02*
X154417625Y-48927619D01*
X154417625Y-48927619D02*
X154441435Y-48975238D01*
X154441435Y-48975238D02*
X154465244Y-48999047D01*
X154465244Y-48999047D02*
X154512863Y-49022857D01*
X154512863Y-49022857D02*
X154631911Y-49022857D01*
X154631911Y-49022857D02*
X154679530Y-48999047D01*
X154679530Y-48999047D02*
X154703340Y-48975238D01*
X154703340Y-48975238D02*
X154727149Y-48927619D01*
X154727149Y-48927619D02*
X154727149Y-48808571D01*
X154727149Y-48808571D02*
X154703340Y-48760952D01*
X154703340Y-48760952D02*
X154679530Y-48737143D01*
X130277149Y-47828571D02*
X130039054Y-47661905D01*
X130277149Y-47542857D02*
X129777149Y-47542857D01*
X129777149Y-47542857D02*
X129777149Y-47733333D01*
X129777149Y-47733333D02*
X129800959Y-47780952D01*
X129800959Y-47780952D02*
X129824768Y-47804762D01*
X129824768Y-47804762D02*
X129872387Y-47828571D01*
X129872387Y-47828571D02*
X129943816Y-47828571D01*
X129943816Y-47828571D02*
X129991435Y-47804762D01*
X129991435Y-47804762D02*
X130015244Y-47780952D01*
X130015244Y-47780952D02*
X130039054Y-47733333D01*
X130039054Y-47733333D02*
X130039054Y-47542857D01*
X130277149Y-48304762D02*
X130277149Y-48019048D01*
X130277149Y-48161905D02*
X129777149Y-48161905D01*
X129777149Y-48161905D02*
X129848578Y-48114286D01*
X129848578Y-48114286D02*
X129896197Y-48066667D01*
X129896197Y-48066667D02*
X129920006Y-48019048D01*
X130277149Y-48542857D02*
X130277149Y-48638095D01*
X130277149Y-48638095D02*
X130253340Y-48685714D01*
X130253340Y-48685714D02*
X130229530Y-48709523D01*
X130229530Y-48709523D02*
X130158101Y-48757142D01*
X130158101Y-48757142D02*
X130062863Y-48780952D01*
X130062863Y-48780952D02*
X129872387Y-48780952D01*
X129872387Y-48780952D02*
X129824768Y-48757142D01*
X129824768Y-48757142D02*
X129800959Y-48733333D01*
X129800959Y-48733333D02*
X129777149Y-48685714D01*
X129777149Y-48685714D02*
X129777149Y-48590476D01*
X129777149Y-48590476D02*
X129800959Y-48542857D01*
X129800959Y-48542857D02*
X129824768Y-48519047D01*
X129824768Y-48519047D02*
X129872387Y-48495238D01*
X129872387Y-48495238D02*
X129991435Y-48495238D01*
X129991435Y-48495238D02*
X130039054Y-48519047D01*
X130039054Y-48519047D02*
X130062863Y-48542857D01*
X130062863Y-48542857D02*
X130086673Y-48590476D01*
X130086673Y-48590476D02*
X130086673Y-48685714D01*
X130086673Y-48685714D02*
X130062863Y-48733333D01*
X130062863Y-48733333D02*
X130039054Y-48757142D01*
X130039054Y-48757142D02*
X129991435Y-48780952D01*
X140787149Y-48026666D02*
X140549054Y-47860000D01*
X140787149Y-47740952D02*
X140287149Y-47740952D01*
X140287149Y-47740952D02*
X140287149Y-47931428D01*
X140287149Y-47931428D02*
X140310959Y-47979047D01*
X140310959Y-47979047D02*
X140334768Y-48002857D01*
X140334768Y-48002857D02*
X140382387Y-48026666D01*
X140382387Y-48026666D02*
X140453816Y-48026666D01*
X140453816Y-48026666D02*
X140501435Y-48002857D01*
X140501435Y-48002857D02*
X140525244Y-47979047D01*
X140525244Y-47979047D02*
X140549054Y-47931428D01*
X140549054Y-47931428D02*
X140549054Y-47740952D01*
X140287149Y-48193333D02*
X140287149Y-48526666D01*
X140287149Y-48526666D02*
X140787149Y-48312381D01*
X145329530Y-104728571D02*
X145353340Y-104704762D01*
X145353340Y-104704762D02*
X145377149Y-104633333D01*
X145377149Y-104633333D02*
X145377149Y-104585714D01*
X145377149Y-104585714D02*
X145353340Y-104514286D01*
X145353340Y-104514286D02*
X145305720Y-104466667D01*
X145305720Y-104466667D02*
X145258101Y-104442857D01*
X145258101Y-104442857D02*
X145162863Y-104419048D01*
X145162863Y-104419048D02*
X145091435Y-104419048D01*
X145091435Y-104419048D02*
X144996197Y-104442857D01*
X144996197Y-104442857D02*
X144948578Y-104466667D01*
X144948578Y-104466667D02*
X144900959Y-104514286D01*
X144900959Y-104514286D02*
X144877149Y-104585714D01*
X144877149Y-104585714D02*
X144877149Y-104633333D01*
X144877149Y-104633333D02*
X144900959Y-104704762D01*
X144900959Y-104704762D02*
X144924768Y-104728571D01*
X145043816Y-105157143D02*
X145377149Y-105157143D01*
X144853340Y-105038095D02*
X145210482Y-104919048D01*
X145210482Y-104919048D02*
X145210482Y-105228571D01*
X144877149Y-105657142D02*
X144877149Y-105419047D01*
X144877149Y-105419047D02*
X145115244Y-105395238D01*
X145115244Y-105395238D02*
X145091435Y-105419047D01*
X145091435Y-105419047D02*
X145067625Y-105466666D01*
X145067625Y-105466666D02*
X145067625Y-105585714D01*
X145067625Y-105585714D02*
X145091435Y-105633333D01*
X145091435Y-105633333D02*
X145115244Y-105657142D01*
X145115244Y-105657142D02*
X145162863Y-105680952D01*
X145162863Y-105680952D02*
X145281911Y-105680952D01*
X145281911Y-105680952D02*
X145329530Y-105657142D01*
X145329530Y-105657142D02*
X145353340Y-105633333D01*
X145353340Y-105633333D02*
X145377149Y-105585714D01*
X145377149Y-105585714D02*
X145377149Y-105466666D01*
X145377149Y-105466666D02*
X145353340Y-105419047D01*
X145353340Y-105419047D02*
X145329530Y-105395238D01*
X129969530Y-40768571D02*
X129993340Y-40744762D01*
X129993340Y-40744762D02*
X130017149Y-40673333D01*
X130017149Y-40673333D02*
X130017149Y-40625714D01*
X130017149Y-40625714D02*
X129993340Y-40554286D01*
X129993340Y-40554286D02*
X129945720Y-40506667D01*
X129945720Y-40506667D02*
X129898101Y-40482857D01*
X129898101Y-40482857D02*
X129802863Y-40459048D01*
X129802863Y-40459048D02*
X129731435Y-40459048D01*
X129731435Y-40459048D02*
X129636197Y-40482857D01*
X129636197Y-40482857D02*
X129588578Y-40506667D01*
X129588578Y-40506667D02*
X129540959Y-40554286D01*
X129540959Y-40554286D02*
X129517149Y-40625714D01*
X129517149Y-40625714D02*
X129517149Y-40673333D01*
X129517149Y-40673333D02*
X129540959Y-40744762D01*
X129540959Y-40744762D02*
X129564768Y-40768571D01*
X130017149Y-41244762D02*
X130017149Y-40959048D01*
X130017149Y-41101905D02*
X129517149Y-41101905D01*
X129517149Y-41101905D02*
X129588578Y-41054286D01*
X129588578Y-41054286D02*
X129636197Y-41006667D01*
X129636197Y-41006667D02*
X129660006Y-40959048D01*
X129731435Y-41530476D02*
X129707625Y-41482857D01*
X129707625Y-41482857D02*
X129683816Y-41459047D01*
X129683816Y-41459047D02*
X129636197Y-41435238D01*
X129636197Y-41435238D02*
X129612387Y-41435238D01*
X129612387Y-41435238D02*
X129564768Y-41459047D01*
X129564768Y-41459047D02*
X129540959Y-41482857D01*
X129540959Y-41482857D02*
X129517149Y-41530476D01*
X129517149Y-41530476D02*
X129517149Y-41625714D01*
X129517149Y-41625714D02*
X129540959Y-41673333D01*
X129540959Y-41673333D02*
X129564768Y-41697142D01*
X129564768Y-41697142D02*
X129612387Y-41720952D01*
X129612387Y-41720952D02*
X129636197Y-41720952D01*
X129636197Y-41720952D02*
X129683816Y-41697142D01*
X129683816Y-41697142D02*
X129707625Y-41673333D01*
X129707625Y-41673333D02*
X129731435Y-41625714D01*
X129731435Y-41625714D02*
X129731435Y-41530476D01*
X129731435Y-41530476D02*
X129755244Y-41482857D01*
X129755244Y-41482857D02*
X129779054Y-41459047D01*
X129779054Y-41459047D02*
X129826673Y-41435238D01*
X129826673Y-41435238D02*
X129921911Y-41435238D01*
X129921911Y-41435238D02*
X129969530Y-41459047D01*
X129969530Y-41459047D02*
X129993340Y-41482857D01*
X129993340Y-41482857D02*
X130017149Y-41530476D01*
X130017149Y-41530476D02*
X130017149Y-41625714D01*
X130017149Y-41625714D02*
X129993340Y-41673333D01*
X129993340Y-41673333D02*
X129969530Y-41697142D01*
X129969530Y-41697142D02*
X129921911Y-41720952D01*
X129921911Y-41720952D02*
X129826673Y-41720952D01*
X129826673Y-41720952D02*
X129779054Y-41697142D01*
X129779054Y-41697142D02*
X129755244Y-41673333D01*
X129755244Y-41673333D02*
X129731435Y-41625714D01*
X140777149Y-103828571D02*
X140539054Y-103661905D01*
X140777149Y-103542857D02*
X140277149Y-103542857D01*
X140277149Y-103542857D02*
X140277149Y-103733333D01*
X140277149Y-103733333D02*
X140300959Y-103780952D01*
X140300959Y-103780952D02*
X140324768Y-103804762D01*
X140324768Y-103804762D02*
X140372387Y-103828571D01*
X140372387Y-103828571D02*
X140443816Y-103828571D01*
X140443816Y-103828571D02*
X140491435Y-103804762D01*
X140491435Y-103804762D02*
X140515244Y-103780952D01*
X140515244Y-103780952D02*
X140539054Y-103733333D01*
X140539054Y-103733333D02*
X140539054Y-103542857D01*
X140443816Y-104257143D02*
X140777149Y-104257143D01*
X140253340Y-104138095D02*
X140610482Y-104019048D01*
X140610482Y-104019048D02*
X140610482Y-104328571D01*
X140777149Y-104542857D02*
X140777149Y-104638095D01*
X140777149Y-104638095D02*
X140753340Y-104685714D01*
X140753340Y-104685714D02*
X140729530Y-104709523D01*
X140729530Y-104709523D02*
X140658101Y-104757142D01*
X140658101Y-104757142D02*
X140562863Y-104780952D01*
X140562863Y-104780952D02*
X140372387Y-104780952D01*
X140372387Y-104780952D02*
X140324768Y-104757142D01*
X140324768Y-104757142D02*
X140300959Y-104733333D01*
X140300959Y-104733333D02*
X140277149Y-104685714D01*
X140277149Y-104685714D02*
X140277149Y-104590476D01*
X140277149Y-104590476D02*
X140300959Y-104542857D01*
X140300959Y-104542857D02*
X140324768Y-104519047D01*
X140324768Y-104519047D02*
X140372387Y-104495238D01*
X140372387Y-104495238D02*
X140491435Y-104495238D01*
X140491435Y-104495238D02*
X140539054Y-104519047D01*
X140539054Y-104519047D02*
X140562863Y-104542857D01*
X140562863Y-104542857D02*
X140586673Y-104590476D01*
X140586673Y-104590476D02*
X140586673Y-104685714D01*
X140586673Y-104685714D02*
X140562863Y-104733333D01*
X140562863Y-104733333D02*
X140539054Y-104757142D01*
X140539054Y-104757142D02*
X140491435Y-104780952D01*
X132759530Y-50318571D02*
X132783340Y-50294762D01*
X132783340Y-50294762D02*
X132807149Y-50223333D01*
X132807149Y-50223333D02*
X132807149Y-50175714D01*
X132807149Y-50175714D02*
X132783340Y-50104286D01*
X132783340Y-50104286D02*
X132735720Y-50056667D01*
X132735720Y-50056667D02*
X132688101Y-50032857D01*
X132688101Y-50032857D02*
X132592863Y-50009048D01*
X132592863Y-50009048D02*
X132521435Y-50009048D01*
X132521435Y-50009048D02*
X132426197Y-50032857D01*
X132426197Y-50032857D02*
X132378578Y-50056667D01*
X132378578Y-50056667D02*
X132330959Y-50104286D01*
X132330959Y-50104286D02*
X132307149Y-50175714D01*
X132307149Y-50175714D02*
X132307149Y-50223333D01*
X132307149Y-50223333D02*
X132330959Y-50294762D01*
X132330959Y-50294762D02*
X132354768Y-50318571D01*
X132807149Y-50794762D02*
X132807149Y-50509048D01*
X132807149Y-50651905D02*
X132307149Y-50651905D01*
X132307149Y-50651905D02*
X132378578Y-50604286D01*
X132378578Y-50604286D02*
X132426197Y-50556667D01*
X132426197Y-50556667D02*
X132450006Y-50509048D01*
X132807149Y-51270952D02*
X132807149Y-50985238D01*
X132807149Y-51128095D02*
X132307149Y-51128095D01*
X132307149Y-51128095D02*
X132378578Y-51080476D01*
X132378578Y-51080476D02*
X132426197Y-51032857D01*
X132426197Y-51032857D02*
X132450006Y-50985238D01*
X144896428Y-72239530D02*
X144920237Y-72263340D01*
X144920237Y-72263340D02*
X144991666Y-72287149D01*
X144991666Y-72287149D02*
X145039285Y-72287149D01*
X145039285Y-72287149D02*
X145110713Y-72263340D01*
X145110713Y-72263340D02*
X145158332Y-72215720D01*
X145158332Y-72215720D02*
X145182142Y-72168101D01*
X145182142Y-72168101D02*
X145205951Y-72072863D01*
X145205951Y-72072863D02*
X145205951Y-72001435D01*
X145205951Y-72001435D02*
X145182142Y-71906197D01*
X145182142Y-71906197D02*
X145158332Y-71858578D01*
X145158332Y-71858578D02*
X145110713Y-71810959D01*
X145110713Y-71810959D02*
X145039285Y-71787149D01*
X145039285Y-71787149D02*
X144991666Y-71787149D01*
X144991666Y-71787149D02*
X144920237Y-71810959D01*
X144920237Y-71810959D02*
X144896428Y-71834768D01*
X144705951Y-71834768D02*
X144682142Y-71810959D01*
X144682142Y-71810959D02*
X144634523Y-71787149D01*
X144634523Y-71787149D02*
X144515475Y-71787149D01*
X144515475Y-71787149D02*
X144467856Y-71810959D01*
X144467856Y-71810959D02*
X144444047Y-71834768D01*
X144444047Y-71834768D02*
X144420237Y-71882387D01*
X144420237Y-71882387D02*
X144420237Y-71930006D01*
X144420237Y-71930006D02*
X144444047Y-72001435D01*
X144444047Y-72001435D02*
X144729761Y-72287149D01*
X144729761Y-72287149D02*
X144420237Y-72287149D01*
X143944047Y-72287149D02*
X144229761Y-72287149D01*
X144086904Y-72287149D02*
X144086904Y-71787149D01*
X144086904Y-71787149D02*
X144134523Y-71858578D01*
X144134523Y-71858578D02*
X144182142Y-71906197D01*
X144182142Y-71906197D02*
X144229761Y-71930006D01*
X151009530Y-41016666D02*
X151033340Y-40992857D01*
X151033340Y-40992857D02*
X151057149Y-40921428D01*
X151057149Y-40921428D02*
X151057149Y-40873809D01*
X151057149Y-40873809D02*
X151033340Y-40802381D01*
X151033340Y-40802381D02*
X150985720Y-40754762D01*
X150985720Y-40754762D02*
X150938101Y-40730952D01*
X150938101Y-40730952D02*
X150842863Y-40707143D01*
X150842863Y-40707143D02*
X150771435Y-40707143D01*
X150771435Y-40707143D02*
X150676197Y-40730952D01*
X150676197Y-40730952D02*
X150628578Y-40754762D01*
X150628578Y-40754762D02*
X150580959Y-40802381D01*
X150580959Y-40802381D02*
X150557149Y-40873809D01*
X150557149Y-40873809D02*
X150557149Y-40921428D01*
X150557149Y-40921428D02*
X150580959Y-40992857D01*
X150580959Y-40992857D02*
X150604768Y-41016666D01*
X150723816Y-41445238D02*
X151057149Y-41445238D01*
X150533340Y-41326190D02*
X150890482Y-41207143D01*
X150890482Y-41207143D02*
X150890482Y-41516666D01*
X138487149Y-51208571D02*
X138249054Y-51041905D01*
X138487149Y-50922857D02*
X137987149Y-50922857D01*
X137987149Y-50922857D02*
X137987149Y-51113333D01*
X137987149Y-51113333D02*
X138010959Y-51160952D01*
X138010959Y-51160952D02*
X138034768Y-51184762D01*
X138034768Y-51184762D02*
X138082387Y-51208571D01*
X138082387Y-51208571D02*
X138153816Y-51208571D01*
X138153816Y-51208571D02*
X138201435Y-51184762D01*
X138201435Y-51184762D02*
X138225244Y-51160952D01*
X138225244Y-51160952D02*
X138249054Y-51113333D01*
X138249054Y-51113333D02*
X138249054Y-50922857D01*
X138034768Y-51399048D02*
X138010959Y-51422857D01*
X138010959Y-51422857D02*
X137987149Y-51470476D01*
X137987149Y-51470476D02*
X137987149Y-51589524D01*
X137987149Y-51589524D02*
X138010959Y-51637143D01*
X138010959Y-51637143D02*
X138034768Y-51660952D01*
X138034768Y-51660952D02*
X138082387Y-51684762D01*
X138082387Y-51684762D02*
X138130006Y-51684762D01*
X138130006Y-51684762D02*
X138201435Y-51660952D01*
X138201435Y-51660952D02*
X138487149Y-51375238D01*
X138487149Y-51375238D02*
X138487149Y-51684762D01*
X137987149Y-51851428D02*
X137987149Y-52160952D01*
X137987149Y-52160952D02*
X138177625Y-51994285D01*
X138177625Y-51994285D02*
X138177625Y-52065714D01*
X138177625Y-52065714D02*
X138201435Y-52113333D01*
X138201435Y-52113333D02*
X138225244Y-52137142D01*
X138225244Y-52137142D02*
X138272863Y-52160952D01*
X138272863Y-52160952D02*
X138391911Y-52160952D01*
X138391911Y-52160952D02*
X138439530Y-52137142D01*
X138439530Y-52137142D02*
X138463340Y-52113333D01*
X138463340Y-52113333D02*
X138487149Y-52065714D01*
X138487149Y-52065714D02*
X138487149Y-51922857D01*
X138487149Y-51922857D02*
X138463340Y-51875238D01*
X138463340Y-51875238D02*
X138439530Y-51851428D01*
D14*
%TO.C,R36*%
X137527500Y-83862742D02*
X137527500Y-84337258D01*
X138572500Y-83862742D02*
X138572500Y-84337258D01*
%TO.C,Q5*%
X132140000Y-40067250D02*
X132140000Y-42837250D01*
X132140000Y-44263250D02*
X132140000Y-45248250D01*
X135970000Y-40037250D02*
X133430000Y-40037250D01*
X137260000Y-40067250D02*
X137260000Y-42837250D01*
X137260000Y-44263250D02*
X137260000Y-45248250D01*
X137580000Y-46135000D02*
X137250000Y-45895000D01*
X137580000Y-45655000D01*
X137580000Y-46135000D01*
G36*
X137580000Y-46135000D02*
G01*
X137250000Y-45895000D01*
X137580000Y-45655000D01*
X137580000Y-46135000D01*
G37*
%TO.C,C25*%
X141563748Y-63765000D02*
X142086252Y-63765000D01*
X141563748Y-65235000D02*
X142086252Y-65235000D01*
%TO.C,C49*%
X146663748Y-102015000D02*
X147186252Y-102015000D01*
X146663748Y-103485000D02*
X147186252Y-103485000D01*
%TO.C,L1*%
X148915000Y-104310242D02*
X148915000Y-103489758D01*
X150035000Y-104310242D02*
X150035000Y-103489758D01*
%TO.C,R31*%
X140152500Y-72237258D02*
X140152500Y-71762742D01*
X141197500Y-72237258D02*
X141197500Y-71762742D01*
%TO.C,R33*%
X143977500Y-91437742D02*
X143977500Y-91912258D01*
X145022500Y-91437742D02*
X145022500Y-91912258D01*
%TO.C,C33*%
X140213748Y-82290000D02*
X140736252Y-82290000D01*
X140213748Y-83760000D02*
X140736252Y-83760000D01*
%TO.C,D2*%
X151424626Y-52835000D02*
X151424626Y-50175000D01*
X153124626Y-52835000D02*
X151424626Y-52835000D01*
X153124626Y-52835000D02*
X153124626Y-50175000D01*
%TO.C,R32*%
X140177500Y-91437742D02*
X140177500Y-91912258D01*
X141222500Y-91437742D02*
X141222500Y-91912258D01*
%TO.C,R13*%
X145462258Y-46857500D02*
X144987742Y-46857500D01*
X145462258Y-47902500D02*
X144987742Y-47902500D01*
%TO.C,R28*%
X135577500Y-65412258D02*
X135577500Y-64937742D01*
X136622500Y-65412258D02*
X136622500Y-64937742D01*
%TO.C,R21*%
X134962258Y-46855665D02*
X134487742Y-46855665D01*
X134962258Y-47900665D02*
X134487742Y-47900665D01*
%TO.C,C30*%
X158959252Y-75690000D02*
X161790748Y-75690000D01*
X158959252Y-80910000D02*
X161790748Y-80910000D01*
%TO.C,R51*%
X142127500Y-102112742D02*
X142127500Y-102587258D01*
X143172500Y-102112742D02*
X143172500Y-102587258D01*
%TO.C,R35*%
X142037258Y-79902500D02*
X141562742Y-79902500D01*
X142037258Y-80947500D02*
X141562742Y-80947500D01*
%TO.C,D9*%
X141090000Y-104990000D02*
X141090000Y-106810000D01*
X141090000Y-106810000D02*
X141140000Y-106810000D01*
X142090000Y-104990000D02*
X141090000Y-104990000D01*
X142260000Y-106810000D02*
X143040000Y-106810000D01*
X144160000Y-106810000D02*
X144210000Y-106810000D01*
X144210000Y-104990000D02*
X143210000Y-104990000D01*
X144210000Y-106810000D02*
X144210000Y-104990000D01*
X143030000Y-107350000D02*
X142700000Y-107590000D01*
X142700000Y-107110000D01*
X143030000Y-107350000D01*
G36*
X143030000Y-107350000D02*
G01*
X142700000Y-107590000D01*
X142700000Y-107110000D01*
X143030000Y-107350000D01*
G37*
%TO.C,Q3*%
X142640000Y-40072250D02*
X142640000Y-42842250D01*
X142640000Y-44268250D02*
X142640000Y-45253250D01*
X146470000Y-40042250D02*
X143930000Y-40042250D01*
X147760000Y-40072250D02*
X147760000Y-42842250D01*
X147760000Y-44268250D02*
X147760000Y-45253250D01*
X148080000Y-46140000D02*
X147750000Y-45900000D01*
X148080000Y-45660000D01*
X148080000Y-46140000D01*
G36*
X148080000Y-46140000D02*
G01*
X147750000Y-45900000D01*
X148080000Y-45660000D01*
X148080000Y-46140000D01*
G37*
%TO.C,C46*%
X148965000Y-87963748D02*
X148965000Y-88486252D01*
X150435000Y-87963748D02*
X150435000Y-88486252D01*
%TO.C,C44*%
X148263748Y-106290000D02*
X148786252Y-106290000D01*
X148263748Y-107760000D02*
X148786252Y-107760000D01*
%TO.C,R17*%
X131977500Y-48390423D02*
X131977500Y-47915907D01*
X133022500Y-48390423D02*
X133022500Y-47915907D01*
%TO.C,R3*%
X155961884Y-46852500D02*
X155487368Y-46852500D01*
X155961884Y-47897500D02*
X155487368Y-47897500D01*
%TO.C,C16*%
X142040000Y-91711252D02*
X142040000Y-91188748D01*
X143510000Y-91711252D02*
X143510000Y-91188748D01*
%TO.C,C17*%
X145565000Y-96588748D02*
X145565000Y-97111252D01*
X147035000Y-96588748D02*
X147035000Y-97111252D01*
%TO.C,C47*%
X151040000Y-88538748D02*
X151040000Y-89061252D01*
X152510000Y-88538748D02*
X152510000Y-89061252D01*
%TO.C,C15*%
X140790000Y-40843748D02*
X140790000Y-41366252D01*
X142260000Y-40843748D02*
X142260000Y-41366252D01*
%TO.C,R50*%
X143602500Y-102112742D02*
X143602500Y-102587258D01*
X144647500Y-102112742D02*
X144647500Y-102587258D01*
%TO.C,R1*%
X157677126Y-51762258D02*
X157677126Y-51287742D01*
X158722126Y-51762258D02*
X158722126Y-51287742D01*
%TO.C,R26*%
X136662258Y-72077500D02*
X136187742Y-72077500D01*
X136662258Y-73122500D02*
X136187742Y-73122500D01*
D15*
%TO.C,G\u002A\u002A\u002A*%
G36*
X128494888Y-80987579D02*
G01*
X128944323Y-81437014D01*
X128822458Y-81560740D01*
X128818221Y-81565033D01*
X128756799Y-81625367D01*
X128709793Y-81668186D01*
X128687079Y-81684465D01*
X128671766Y-81672280D01*
X128625613Y-81629434D01*
X128553591Y-81560188D01*
X128460489Y-81469197D01*
X128351100Y-81361117D01*
X128230213Y-81240600D01*
X127786862Y-80796735D01*
X127916157Y-80667440D01*
X128045453Y-80538144D01*
X128494888Y-80987579D01*
G37*
G36*
X129851223Y-83626663D02*
G01*
X129980518Y-83755958D01*
X129537167Y-84199824D01*
X129433742Y-84302997D01*
X129322329Y-84413234D01*
X129226487Y-84507076D01*
X129151008Y-84579869D01*
X129100682Y-84626958D01*
X129080302Y-84643689D01*
X129079760Y-84643615D01*
X129055175Y-84625345D01*
X129006937Y-84581119D01*
X128944923Y-84519963D01*
X128823058Y-84396238D01*
X129272493Y-83946803D01*
X129721928Y-83497368D01*
X129851223Y-83626663D01*
G37*
G36*
X132810446Y-80667440D02*
G01*
X132939742Y-80796735D01*
X132496390Y-81240600D01*
X132392965Y-81343774D01*
X132281552Y-81454010D01*
X132185710Y-81547852D01*
X132110231Y-81620645D01*
X132059906Y-81667735D01*
X132039525Y-81684465D01*
X132038983Y-81684391D01*
X132014398Y-81666122D01*
X131966160Y-81621896D01*
X131904146Y-81560740D01*
X131782281Y-81437014D01*
X132231716Y-80987579D01*
X132681151Y-80538144D01*
X132810446Y-80667440D01*
G37*
G36*
X129245662Y-79656494D02*
G01*
X129280212Y-79687903D01*
X129370500Y-79772630D01*
X129479231Y-79877160D01*
X129595687Y-79991138D01*
X129709149Y-80104210D01*
X130004413Y-80401589D01*
X129882697Y-80525163D01*
X129879027Y-80528881D01*
X129816701Y-80589406D01*
X129767735Y-80632389D01*
X129742449Y-80648737D01*
X129725297Y-80636205D01*
X129676944Y-80593274D01*
X129602652Y-80524232D01*
X129507306Y-80433679D01*
X129395787Y-80326217D01*
X129272978Y-80206444D01*
X128822040Y-79764151D01*
X128949740Y-79635154D01*
X129077440Y-79506158D01*
X129245662Y-79656494D01*
G37*
G36*
X131169157Y-83676098D02*
G01*
X131196132Y-83700535D01*
X131285076Y-83783680D01*
X131392898Y-83887107D01*
X131508381Y-83999986D01*
X131620306Y-84111492D01*
X131903232Y-84396557D01*
X131781524Y-84520123D01*
X131777846Y-84523849D01*
X131715552Y-84584365D01*
X131666652Y-84627343D01*
X131641452Y-84643689D01*
X131626925Y-84633369D01*
X131580917Y-84592836D01*
X131508694Y-84525945D01*
X131415213Y-84437358D01*
X131305434Y-84331740D01*
X131184312Y-84213751D01*
X130745535Y-83783813D01*
X130873235Y-83654791D01*
X131000935Y-83525769D01*
X131169157Y-83676098D01*
G37*
G36*
X131776864Y-79635179D02*
G01*
X131904564Y-79764201D01*
X131465787Y-80194139D01*
X131369876Y-80287686D01*
X131257244Y-80396353D01*
X131159847Y-80488988D01*
X131082644Y-80560929D01*
X131030591Y-80607513D01*
X131008647Y-80624077D01*
X131008038Y-80624021D01*
X130981237Y-80605942D01*
X130931314Y-80561742D01*
X130868575Y-80500511D01*
X130746867Y-80376946D01*
X131029793Y-80091880D01*
X131072000Y-80049551D01*
X131186634Y-79936229D01*
X131300481Y-79825726D01*
X131402324Y-79728869D01*
X131480942Y-79656486D01*
X131649164Y-79506158D01*
X131776864Y-79635179D01*
G37*
G36*
X133229155Y-81636564D02*
G01*
X133296081Y-81662685D01*
X133403270Y-81737519D01*
X133490461Y-81838312D01*
X133543048Y-81950456D01*
X133555804Y-82047649D01*
X133534611Y-82177511D01*
X133474591Y-82296751D01*
X133381444Y-82395030D01*
X133260875Y-82462013D01*
X133223301Y-82473520D01*
X133091453Y-82483784D01*
X132964704Y-82451688D01*
X132852122Y-82382297D01*
X132762771Y-82280676D01*
X132705718Y-82151888D01*
X132693125Y-82043583D01*
X132717484Y-81920061D01*
X132777634Y-81809168D01*
X132866224Y-81718137D01*
X132975907Y-81654203D01*
X133099334Y-81624600D01*
X133229155Y-81636564D01*
G37*
G36*
X127731735Y-81695890D02*
G01*
X127844292Y-81754888D01*
X127936692Y-81842462D01*
X128001646Y-81951379D01*
X128031862Y-82074406D01*
X128020050Y-82204311D01*
X128009805Y-82235994D01*
X127945013Y-82350611D01*
X127849262Y-82447612D01*
X127736991Y-82511334D01*
X127720865Y-82516789D01*
X127590626Y-82534855D01*
X127466178Y-82511156D01*
X127354743Y-82452364D01*
X127263542Y-82365156D01*
X127199796Y-82256205D01*
X127170727Y-82132187D01*
X127183556Y-81999777D01*
X127209676Y-81932852D01*
X127284511Y-81825663D01*
X127385304Y-81738471D01*
X127497448Y-81685885D01*
X127606313Y-81672699D01*
X127731735Y-81695890D01*
G37*
G36*
X129457948Y-81671229D02*
G01*
X129570505Y-81730228D01*
X129662906Y-81817802D01*
X129727859Y-81926719D01*
X129758076Y-82049746D01*
X129746263Y-82179651D01*
X129736019Y-82211334D01*
X129671227Y-82325951D01*
X129575475Y-82422952D01*
X129463205Y-82486673D01*
X129447078Y-82492128D01*
X129316839Y-82510195D01*
X129192391Y-82486496D01*
X129080956Y-82427704D01*
X128989755Y-82340495D01*
X128926010Y-82231545D01*
X128896941Y-82107527D01*
X128909770Y-81975117D01*
X128935890Y-81908192D01*
X129010725Y-81801002D01*
X129111518Y-81713811D01*
X129223662Y-81661225D01*
X129332527Y-81648039D01*
X129457948Y-81671229D01*
G37*
G36*
X130469016Y-84433171D02*
G01*
X130581573Y-84492170D01*
X130673974Y-84579744D01*
X130738927Y-84688661D01*
X130769144Y-84811688D01*
X130757331Y-84941593D01*
X130747087Y-84973276D01*
X130682295Y-85087893D01*
X130586543Y-85184894D01*
X130474273Y-85248615D01*
X130458146Y-85254070D01*
X130327907Y-85272137D01*
X130203459Y-85248437D01*
X130092024Y-85189646D01*
X130000823Y-85102437D01*
X129937078Y-84993486D01*
X129908009Y-84869469D01*
X129920838Y-84737058D01*
X129946958Y-84670133D01*
X130021793Y-84562944D01*
X130122586Y-84475753D01*
X130234730Y-84423166D01*
X130343595Y-84409980D01*
X130469016Y-84433171D01*
G37*
G36*
X130493677Y-80635501D02*
G01*
X130606233Y-80694500D01*
X130698634Y-80782074D01*
X130763588Y-80890991D01*
X130793804Y-81014018D01*
X130781992Y-81143923D01*
X130771747Y-81175606D01*
X130706955Y-81290223D01*
X130611203Y-81387224D01*
X130498933Y-81450945D01*
X130482806Y-81456400D01*
X130352567Y-81474467D01*
X130228120Y-81450767D01*
X130116685Y-81391976D01*
X130025484Y-81304767D01*
X129961738Y-81195817D01*
X129932669Y-81071799D01*
X129945498Y-80939389D01*
X129971618Y-80872463D01*
X130046453Y-80765274D01*
X130147246Y-80678083D01*
X130259390Y-80625496D01*
X130368255Y-80612311D01*
X130493677Y-80635501D01*
G37*
G36*
X130493677Y-82706958D02*
G01*
X130606233Y-82765956D01*
X130698634Y-82853530D01*
X130763588Y-82962447D01*
X130793804Y-83085474D01*
X130781992Y-83215379D01*
X130771747Y-83247062D01*
X130706955Y-83361679D01*
X130611203Y-83458680D01*
X130498933Y-83522402D01*
X130482806Y-83527856D01*
X130352567Y-83545923D01*
X130228120Y-83522224D01*
X130116685Y-83463432D01*
X130025484Y-83376223D01*
X129961738Y-83267273D01*
X129932669Y-83143255D01*
X129945498Y-83010845D01*
X129971618Y-82943920D01*
X130046453Y-82836730D01*
X130147246Y-82749539D01*
X130259390Y-82696953D01*
X130368255Y-82683767D01*
X130493677Y-82706958D01*
G37*
G36*
X130518337Y-78909288D02*
G01*
X130630893Y-78968286D01*
X130723294Y-79055860D01*
X130788248Y-79164777D01*
X130818464Y-79287804D01*
X130806652Y-79417709D01*
X130796407Y-79449392D01*
X130731615Y-79564009D01*
X130635864Y-79661010D01*
X130523593Y-79724732D01*
X130507467Y-79730187D01*
X130377227Y-79748254D01*
X130252780Y-79724554D01*
X130141345Y-79665762D01*
X130050144Y-79578554D01*
X129986398Y-79469603D01*
X129957329Y-79345585D01*
X129970158Y-79213175D01*
X129996278Y-79146250D01*
X130071113Y-79039061D01*
X130171906Y-78951869D01*
X130284050Y-78899283D01*
X130392915Y-78886097D01*
X130518337Y-78909288D01*
G37*
G36*
X131529405Y-81671229D02*
G01*
X131641961Y-81730228D01*
X131734362Y-81817802D01*
X131799316Y-81926719D01*
X131829532Y-82049746D01*
X131817720Y-82179651D01*
X131807475Y-82211334D01*
X131742683Y-82325951D01*
X131646932Y-82422952D01*
X131534661Y-82486673D01*
X131518535Y-82492128D01*
X131388295Y-82510195D01*
X131263848Y-82486496D01*
X131152413Y-82427704D01*
X131061212Y-82340495D01*
X130997466Y-82231545D01*
X130968397Y-82107527D01*
X130981226Y-81975117D01*
X131007346Y-81908192D01*
X131082181Y-81801002D01*
X131182974Y-81713811D01*
X131295118Y-81661225D01*
X131403983Y-81648039D01*
X131529405Y-81671229D01*
G37*
G36*
X128784785Y-82584302D02*
G01*
X128788534Y-82588003D01*
X128849040Y-82650248D01*
X128892008Y-82699045D01*
X128908350Y-82724111D01*
X128899207Y-82737232D01*
X128860121Y-82781947D01*
X128794592Y-82853099D01*
X128707311Y-82945679D01*
X128602964Y-83054678D01*
X128486240Y-83175086D01*
X128398414Y-83264784D01*
X128288903Y-83375516D01*
X128194197Y-83470004D01*
X128119165Y-83543444D01*
X128068675Y-83591031D01*
X128047595Y-83607961D01*
X128047239Y-83607936D01*
X128021867Y-83590477D01*
X127973052Y-83546820D01*
X127911033Y-83486101D01*
X127791006Y-83364242D01*
X127941047Y-83196344D01*
X127965481Y-83169374D01*
X128048530Y-83080540D01*
X128151869Y-82972816D01*
X128264682Y-82857407D01*
X128376154Y-82745520D01*
X128661219Y-82462594D01*
X128784785Y-82584302D01*
G37*
G36*
X132338120Y-82733182D02*
G01*
X132393348Y-82788318D01*
X132508113Y-82904548D01*
X132618631Y-83018434D01*
X132714557Y-83119268D01*
X132785549Y-83196344D01*
X132935598Y-83364242D01*
X132815571Y-83486101D01*
X132813153Y-83488553D01*
X132751450Y-83548801D01*
X132703344Y-83591648D01*
X132679067Y-83607961D01*
X132677447Y-83607341D01*
X132650167Y-83584377D01*
X132595630Y-83532525D01*
X132519484Y-83457576D01*
X132427377Y-83365326D01*
X132324955Y-83261566D01*
X132217866Y-83152090D01*
X132111758Y-83042692D01*
X132012279Y-82939164D01*
X131925075Y-82847301D01*
X131855795Y-82772895D01*
X131810085Y-82721739D01*
X131793593Y-82699628D01*
X131793649Y-82699019D01*
X131811734Y-82672255D01*
X131855937Y-82622361D01*
X131917167Y-82559633D01*
X132040741Y-82437917D01*
X132338120Y-82733182D01*
G37*
G36*
X128967122Y-84852143D02*
G01*
X129020013Y-84894505D01*
X129098630Y-84969552D01*
X129253818Y-85123361D01*
X129038443Y-85339738D01*
X129032053Y-85346152D01*
X128949433Y-85427927D01*
X128879964Y-85494661D01*
X128830773Y-85539632D01*
X128808991Y-85556116D01*
X128798271Y-85552289D01*
X128765226Y-85526428D01*
X128755097Y-85500510D01*
X128774087Y-85462455D01*
X128827014Y-85403061D01*
X128918489Y-85309381D01*
X128814631Y-85203557D01*
X128799832Y-85188313D01*
X128749203Y-85130226D01*
X128731052Y-85092955D01*
X128740661Y-85067844D01*
X128745332Y-85063775D01*
X128772255Y-85059597D01*
X128813158Y-85084137D01*
X128876678Y-85142111D01*
X128982806Y-85246268D01*
X129049639Y-85179435D01*
X129116472Y-85112602D01*
X128999890Y-84994240D01*
X128969943Y-84963237D01*
X128921505Y-84906485D01*
X128904219Y-84870036D01*
X128913374Y-84845810D01*
X128933259Y-84837991D01*
X128967122Y-84852143D01*
G37*
G36*
X127605414Y-83402892D02*
G01*
X127588948Y-83497373D01*
X127527836Y-83586637D01*
X127481724Y-83627399D01*
X127426117Y-83651410D01*
X127349855Y-83652556D01*
X127292800Y-83645026D01*
X127237400Y-83619073D01*
X127190532Y-83563273D01*
X127135667Y-83481596D01*
X127094851Y-83560527D01*
X127093407Y-83563356D01*
X127070638Y-83650196D01*
X127095719Y-83726828D01*
X127169115Y-83794726D01*
X127188121Y-83807953D01*
X127215282Y-83839543D01*
X127204209Y-83870011D01*
X127193742Y-83882048D01*
X127166828Y-83899888D01*
X127134077Y-83889284D01*
X127080496Y-83847511D01*
X127015574Y-83780062D01*
X126969129Y-83682890D01*
X126970511Y-83578026D01*
X127019802Y-83464354D01*
X127021042Y-83462778D01*
X127235139Y-83462778D01*
X127256383Y-83521970D01*
X127258061Y-83523940D01*
X127314252Y-83555400D01*
X127382767Y-83547430D01*
X127449100Y-83501565D01*
X127491258Y-83437013D01*
X127498867Y-83367509D01*
X127464545Y-83311055D01*
X127442773Y-83297120D01*
X127403520Y-83295394D01*
X127341891Y-83319658D01*
X127307244Y-83340152D01*
X127253936Y-83397810D01*
X127235139Y-83462778D01*
X127021042Y-83462778D01*
X127117082Y-83340759D01*
X127126918Y-83330457D01*
X127235399Y-83238811D01*
X127337092Y-83195476D01*
X127433341Y-83200162D01*
X127525488Y-83252580D01*
X127577304Y-83312793D01*
X127594375Y-83367509D01*
X127605414Y-83402892D01*
G37*
G36*
X128433220Y-84234262D02*
G01*
X128406393Y-84305220D01*
X128352224Y-84363605D01*
X128283242Y-84392560D01*
X128257260Y-84397162D01*
X128225493Y-84420183D01*
X128217865Y-84474602D01*
X128216975Y-84478918D01*
X128205124Y-84536374D01*
X128145781Y-84620925D01*
X128082038Y-84670917D01*
X128001891Y-84691187D01*
X127914156Y-84665463D01*
X127860907Y-84630340D01*
X127801183Y-84557162D01*
X127775036Y-84473984D01*
X127775881Y-84462117D01*
X127877151Y-84462117D01*
X127878499Y-84471250D01*
X127909551Y-84538278D01*
X127964347Y-84572431D01*
X128028694Y-84569473D01*
X128088399Y-84525168D01*
X128112944Y-84478918D01*
X128110167Y-84421601D01*
X128073314Y-84379112D01*
X128011199Y-84360059D01*
X127932636Y-84373049D01*
X127924038Y-84376488D01*
X127882611Y-84408111D01*
X127877151Y-84462117D01*
X127775881Y-84462117D01*
X127780933Y-84391198D01*
X127817342Y-84319197D01*
X127882729Y-84268376D01*
X127975562Y-84249126D01*
X127989022Y-84249077D01*
X128043566Y-84244207D01*
X128054713Y-84233704D01*
X128148737Y-84233704D01*
X128163442Y-84265087D01*
X128209489Y-84291574D01*
X128266767Y-84292061D01*
X128315210Y-84263016D01*
X128333295Y-84228636D01*
X128323831Y-84174210D01*
X128270291Y-84127487D01*
X128247957Y-84119556D01*
X128195511Y-84129405D01*
X128157850Y-84171463D01*
X128148737Y-84233704D01*
X128054713Y-84233704D01*
X128065722Y-84223331D01*
X128069904Y-84175145D01*
X128070749Y-84158870D01*
X128098176Y-84081682D01*
X128154600Y-84024731D01*
X128226832Y-84002524D01*
X128272568Y-84014253D01*
X128338940Y-84059012D01*
X128397034Y-84123635D01*
X128431188Y-84193484D01*
X128432940Y-84228636D01*
X128433220Y-84234262D01*
G37*
D14*
%TO.C,C31*%
X158959252Y-69765000D02*
X161790748Y-69765000D01*
X158959252Y-74985000D02*
X161790748Y-74985000D01*
%TO.C,C7*%
X145286252Y-49895000D02*
X144763748Y-49895000D01*
X145286252Y-51365000D02*
X144763748Y-51365000D01*
%TO.C,D5*%
X130425000Y-52838165D02*
X130425000Y-50178165D01*
X132125000Y-52838165D02*
X130425000Y-52838165D01*
X132125000Y-52838165D02*
X132125000Y-50178165D01*
%TO.C,R27*%
X138112742Y-63602500D02*
X138587258Y-63602500D01*
X138112742Y-64647500D02*
X138587258Y-64647500D01*
%TO.C,C50*%
X148263748Y-100040000D02*
X148786252Y-100040000D01*
X148263748Y-101510000D02*
X148786252Y-101510000D01*
%TO.C,C14*%
X136465000Y-48614417D02*
X136465000Y-48091913D01*
X137935000Y-48614417D02*
X137935000Y-48091913D01*
%TO.C,C5*%
X155785878Y-49890000D02*
X155263374Y-49890000D01*
X155785878Y-51360000D02*
X155263374Y-51360000D01*
%TO.C,C29*%
X158959252Y-81615000D02*
X161790748Y-81615000D01*
X158959252Y-86835000D02*
X161790748Y-86835000D01*
%TO.C,D3*%
X140925000Y-52840000D02*
X140925000Y-50180000D01*
X142625000Y-52840000D02*
X140925000Y-52840000D01*
X142625000Y-52840000D02*
X142625000Y-50180000D01*
%TO.C,U1*%
X140040000Y-94790000D02*
X140040000Y-98910000D01*
X140040000Y-98910000D02*
X140135000Y-98910000D01*
X140135000Y-94790000D02*
X140040000Y-94790000D01*
X145065000Y-98910000D02*
X145160000Y-98910000D01*
X145160000Y-94790000D02*
X145065000Y-94790000D01*
X145160000Y-98910000D02*
X145160000Y-94790000D01*
X140130000Y-94250000D02*
X139800000Y-94490000D01*
X139800000Y-94010000D01*
X140130000Y-94250000D01*
G36*
X140130000Y-94250000D02*
G01*
X139800000Y-94490000D01*
X139800000Y-94010000D01*
X140130000Y-94250000D01*
G37*
%TO.C,R11*%
X151502126Y-48387258D02*
X151502126Y-47912742D01*
X152547126Y-48387258D02*
X152547126Y-47912742D01*
%TO.C,R9*%
X142477500Y-48392258D02*
X142477500Y-47917742D01*
X143522500Y-48392258D02*
X143522500Y-47917742D01*
%TO.C,C34*%
X138165000Y-72163748D02*
X138165000Y-72686252D01*
X139635000Y-72163748D02*
X139635000Y-72686252D01*
%TO.C,C27*%
X158959252Y-87540000D02*
X161790748Y-87540000D01*
X158959252Y-92760000D02*
X161790748Y-92760000D01*
%TO.C,C2*%
X157464626Y-48611252D02*
X157464626Y-48088748D01*
X158934626Y-48611252D02*
X158934626Y-48088748D01*
%TO.C,R15*%
X147177500Y-51767258D02*
X147177500Y-51292742D01*
X148222500Y-51767258D02*
X148222500Y-51292742D01*
%TO.C,C10*%
X146965000Y-48616252D02*
X146965000Y-48093748D01*
X148435000Y-48616252D02*
X148435000Y-48093748D01*
%TO.C,R5*%
X152977126Y-48387258D02*
X152977126Y-47912742D01*
X154022126Y-48387258D02*
X154022126Y-47912742D01*
%TO.C,Q1*%
X153139626Y-40067250D02*
X153139626Y-42837250D01*
X153139626Y-44263250D02*
X153139626Y-45248250D01*
X156969626Y-40037250D02*
X154429626Y-40037250D01*
X158259626Y-40067250D02*
X158259626Y-42837250D01*
X158259626Y-44263250D02*
X158259626Y-45248250D01*
X158579626Y-46135000D02*
X158249626Y-45895000D01*
X158579626Y-45655000D01*
X158579626Y-46135000D01*
G36*
X158579626Y-46135000D02*
G01*
X158249626Y-45895000D01*
X158579626Y-45655000D01*
X158579626Y-46135000D01*
G37*
%TO.C,R19*%
X130502500Y-48390423D02*
X130502500Y-47915907D01*
X131547500Y-48390423D02*
X131547500Y-47915907D01*
%TO.C,R7*%
X141002500Y-48392258D02*
X141002500Y-47917742D01*
X142047500Y-48392258D02*
X142047500Y-47917742D01*
%TO.C,C45*%
X146663748Y-104315000D02*
X147186252Y-104315000D01*
X146663748Y-105785000D02*
X147186252Y-105785000D01*
%TO.C,C18*%
X130290000Y-40841913D02*
X130290000Y-41364417D01*
X131760000Y-40841913D02*
X131760000Y-41364417D01*
%TO.C,R49*%
X140674500Y-102112742D02*
X140674500Y-102587258D01*
X141719500Y-102112742D02*
X141719500Y-102587258D01*
%TO.C,C11*%
X134786252Y-49893165D02*
X134263748Y-49893165D01*
X134786252Y-51363165D02*
X134263748Y-51363165D01*
%TO.C,C21*%
X143840000Y-70411252D02*
X143840000Y-69888748D01*
X145310000Y-70411252D02*
X145310000Y-69888748D01*
%TO.C,C4*%
X151289626Y-40838748D02*
X151289626Y-41361252D01*
X152759626Y-40838748D02*
X152759626Y-41361252D01*
%TO.C,R23*%
X136677500Y-51765423D02*
X136677500Y-51290907D01*
X137722500Y-51765423D02*
X137722500Y-51290907D01*
%TD*%
%LPC*%
D16*
%TO.C,J6*%
X153465000Y-107715000D03*
%TD*%
%TO.C,J4*%
X157440000Y-110315000D03*
%TD*%
%TO.C,J9*%
X136900000Y-105600000D03*
%TD*%
D17*
%TO.C,J2*%
X126440000Y-98015000D03*
X126440000Y-103885000D03*
X132310000Y-98015000D03*
X132310000Y-103885000D03*
%TD*%
D16*
%TO.C,J7*%
X157440000Y-107690000D03*
%TD*%
D18*
%TO.C,H4*%
X162700000Y-109950000D03*
%TD*%
D16*
%TO.C,J8*%
X136900000Y-110840000D03*
%TD*%
%TO.C,J10*%
X136900000Y-108225000D03*
%TD*%
%TO.C,J3*%
X153465000Y-105090000D03*
%TD*%
D17*
%TO.C,J11*%
X158090000Y-97990000D03*
X158090000Y-103860000D03*
X163960000Y-97990000D03*
X163960000Y-103860000D03*
%TD*%
D18*
%TO.C,H2*%
X162700000Y-37400000D03*
%TD*%
D19*
%TO.C,J1*%
X141450000Y-109130000D03*
D20*
X143950000Y-109130000D03*
X146450000Y-109130000D03*
X148950000Y-109130000D03*
%TD*%
D18*
%TO.C,H1*%
X127700000Y-37400000D03*
%TD*%
D16*
%TO.C,J5*%
X153465000Y-110340000D03*
%TD*%
D18*
%TO.C,H3*%
X127700000Y-109950000D03*
%TD*%
D21*
%TO.C,R36*%
X138050000Y-83275000D03*
X138050000Y-84925000D03*
%TD*%
D22*
%TO.C,Q5*%
X136605000Y-45892250D03*
X135335000Y-45892250D03*
X134065000Y-45892250D03*
X132795000Y-45892250D03*
D23*
X134700000Y-42400000D03*
%TD*%
D24*
%TO.C,C25*%
X140875000Y-64500000D03*
X142775000Y-64500000D03*
%TD*%
%TO.C,C49*%
X145975000Y-102750000D03*
X147875000Y-102750000D03*
%TD*%
D25*
%TO.C,L1*%
X149475000Y-105050000D03*
X149475000Y-102750000D03*
%TD*%
D26*
%TO.C,R31*%
X140675000Y-72825000D03*
X140675000Y-71175000D03*
%TD*%
D21*
%TO.C,R33*%
X144500000Y-90850000D03*
X144500000Y-92500000D03*
%TD*%
D24*
%TO.C,C33*%
X139525000Y-83025000D03*
X141425000Y-83025000D03*
%TD*%
D27*
%TO.C,D2*%
X152274626Y-52325000D03*
X152274626Y-50125000D03*
%TD*%
D21*
%TO.C,R32*%
X140700000Y-90850000D03*
X140700000Y-92500000D03*
%TD*%
D28*
%TO.C,R13*%
X146050000Y-47380000D03*
X144400000Y-47380000D03*
%TD*%
D26*
%TO.C,R28*%
X136100000Y-66000000D03*
X136100000Y-64350000D03*
%TD*%
D28*
%TO.C,R21*%
X135550000Y-47378165D03*
X133900000Y-47378165D03*
%TD*%
D29*
%TO.C,C30*%
X157825000Y-78300000D03*
X162925000Y-78300000D03*
%TD*%
D21*
%TO.C,R51*%
X142650000Y-101525000D03*
X142650000Y-103175000D03*
%TD*%
D28*
%TO.C,R35*%
X142625000Y-80425000D03*
X140975000Y-80425000D03*
%TD*%
D30*
%TO.C,D9*%
X143600000Y-107037500D03*
X141700000Y-107037500D03*
X142650000Y-104762500D03*
%TD*%
D22*
%TO.C,Q3*%
X147105000Y-45897250D03*
X145835000Y-45897250D03*
X144565000Y-45897250D03*
X143295000Y-45897250D03*
D23*
X145200000Y-42405000D03*
%TD*%
D31*
%TO.C,C46*%
X149700000Y-87275000D03*
X149700000Y-89175000D03*
%TD*%
D24*
%TO.C,C44*%
X147575000Y-107025000D03*
X149475000Y-107025000D03*
%TD*%
D26*
%TO.C,R17*%
X132500000Y-48978165D03*
X132500000Y-47328165D03*
%TD*%
D28*
%TO.C,R3*%
X156549626Y-47375000D03*
X154899626Y-47375000D03*
%TD*%
D32*
%TO.C,C16*%
X142775000Y-92400000D03*
X142775000Y-90500000D03*
%TD*%
D31*
%TO.C,C17*%
X146300000Y-95900000D03*
X146300000Y-97800000D03*
%TD*%
%TO.C,C47*%
X151775000Y-87850000D03*
X151775000Y-89750000D03*
%TD*%
%TO.C,C15*%
X141525000Y-40155000D03*
X141525000Y-42055000D03*
%TD*%
D21*
%TO.C,R50*%
X144125000Y-101525000D03*
X144125000Y-103175000D03*
%TD*%
D26*
%TO.C,R1*%
X158199626Y-52350000D03*
X158199626Y-50700000D03*
%TD*%
D28*
%TO.C,R26*%
X137250000Y-72600000D03*
X135600000Y-72600000D03*
%TD*%
D29*
%TO.C,C31*%
X157825000Y-72375000D03*
X162925000Y-72375000D03*
%TD*%
D33*
%TO.C,C7*%
X145975000Y-50630000D03*
X144075000Y-50630000D03*
%TD*%
D27*
%TO.C,D5*%
X131275000Y-52328165D03*
X131275000Y-50128165D03*
%TD*%
D34*
%TO.C,R27*%
X137525000Y-64125000D03*
X139175000Y-64125000D03*
%TD*%
D24*
%TO.C,C50*%
X147575000Y-100775000D03*
X149475000Y-100775000D03*
%TD*%
D32*
%TO.C,C14*%
X137200000Y-49303165D03*
X137200000Y-47403165D03*
%TD*%
D33*
%TO.C,C5*%
X156474626Y-50625000D03*
X154574626Y-50625000D03*
%TD*%
D29*
%TO.C,C29*%
X157825000Y-84225000D03*
X162925000Y-84225000D03*
%TD*%
D27*
%TO.C,D3*%
X141775000Y-52330000D03*
X141775000Y-50130000D03*
%TD*%
D35*
%TO.C,U1*%
X140695000Y-94375000D03*
X141965000Y-94375000D03*
X143235000Y-94375000D03*
X144505000Y-94375000D03*
X144505000Y-99325000D03*
X143235000Y-99325000D03*
X141965000Y-99325000D03*
X140695000Y-99325000D03*
%TD*%
D26*
%TO.C,R11*%
X152024626Y-48975000D03*
X152024626Y-47325000D03*
%TD*%
%TO.C,R9*%
X143000000Y-48980000D03*
X143000000Y-47330000D03*
%TD*%
D31*
%TO.C,C34*%
X138900000Y-71475000D03*
X138900000Y-73375000D03*
%TD*%
D29*
%TO.C,C27*%
X157825000Y-90150000D03*
X162925000Y-90150000D03*
%TD*%
D32*
%TO.C,C2*%
X158199626Y-49300000D03*
X158199626Y-47400000D03*
%TD*%
D26*
%TO.C,R15*%
X147700000Y-52355000D03*
X147700000Y-50705000D03*
%TD*%
D32*
%TO.C,C10*%
X147700000Y-49305000D03*
X147700000Y-47405000D03*
%TD*%
D26*
%TO.C,R5*%
X153499626Y-48975000D03*
X153499626Y-47325000D03*
%TD*%
D22*
%TO.C,Q1*%
X157604626Y-45892250D03*
X156334626Y-45892250D03*
X155064626Y-45892250D03*
X153794626Y-45892250D03*
D23*
X155699626Y-42400000D03*
%TD*%
D26*
%TO.C,R19*%
X131025000Y-48978165D03*
X131025000Y-47328165D03*
%TD*%
%TO.C,R7*%
X141525000Y-48980000D03*
X141525000Y-47330000D03*
%TD*%
D24*
%TO.C,C45*%
X145975000Y-105050000D03*
X147875000Y-105050000D03*
%TD*%
D31*
%TO.C,C18*%
X131025000Y-40153165D03*
X131025000Y-42053165D03*
%TD*%
D21*
%TO.C,R49*%
X141197000Y-101525000D03*
X141197000Y-103175000D03*
%TD*%
D33*
%TO.C,C11*%
X135475000Y-50628165D03*
X133575000Y-50628165D03*
%TD*%
D32*
%TO.C,C21*%
X144575000Y-71100000D03*
X144575000Y-69200000D03*
%TD*%
D31*
%TO.C,C4*%
X152024626Y-40150000D03*
X152024626Y-42050000D03*
%TD*%
D26*
%TO.C,R23*%
X137200000Y-52353165D03*
X137200000Y-50703165D03*
%TD*%
%LPD*%
M02*
