M48
; DRILL file {KiCad 9.0.7} date 2026-02-13T21:21:15+0100
; FORMAT={-:-/ absolute / inch / decimal}
; #@! TF.CreationDate,2026-02-13T21:21:15+01:00
; #@! TF.GenerationSoftware,Kicad,Pcbnew,9.0.7
; #@! TF.FileFunction,Plated,1,4,PTH
FMAT,2
INCH
; #@! TA.AperFunction,Plated,PTH,ViaDrill
T1C0.0118
; #@! TA.AperFunction,Plated,PTH,ViaDrill
T2C0.0157
; #@! TA.AperFunction,Plated,PTH,ViaDrill
T3C0.0315
; #@! TA.AperFunction,Plated,PTH,ComponentDrill
T4C0.0374
; #@! TA.AperFunction,Plated,PTH,ComponentDrill
T5C0.0394
; #@! TA.AperFunction,Plated,PTH,ComponentDrill
T6C0.0728
; #@! TA.AperFunction,Plated,PTH,ComponentDrill
T7C0.1260
%
G90
G05
T1
X4.9606Y-1.6142
X4.9606Y-1.7717
X4.9606Y-1.9291
X4.9606Y-2.0866
X4.9606Y-2.2441
X4.9606Y-2.4016
X4.9606Y-2.5591
X4.9606Y-2.7165
X4.9606Y-3.5039
X4.9606Y-3.6614
X5.0Y-1.6929
X5.0Y-1.8504
X5.0Y-2.1654
X5.0Y-2.3228
X5.0Y-2.4803
X5.0Y-2.6378
X5.0Y-3.5827
X5.0Y-3.7402
X5.0394Y-1.6142
X5.0394Y-1.7717
X5.0394Y-1.9291
X5.0394Y-2.0866
X5.0394Y-2.2441
X5.0394Y-2.4016
X5.0394Y-2.5591
X5.0394Y-3.6614
X5.0522Y-2.8553
X5.0787Y-1.6929
X5.0787Y-2.3228
X5.0787Y-2.4803
X5.0787Y-3.7402
X5.0984Y-2.25
X5.1063Y-2.9281
X5.1083Y-2.8947
X5.1172Y-1.795
X5.1181Y-2.4016
X5.1181Y-3.6614
X5.1335Y-2.1424
X5.1484Y-2.8777
X5.1526Y-2.8445
X5.1575Y-2.3228
X5.1575Y-3.7402
X5.1585Y-1.7972
X5.1594Y-3.1654
X5.1594Y-3.2008
X5.1614Y-3.1289
X5.1614Y-3.2402
X5.1654Y-2.25
X5.1782Y-3.6142
X5.1841Y-3.2717
X5.1841Y-3.3051
X5.185Y-1.2992
X5.1919Y-3.3406
X5.1969Y-2.4016
X5.2004Y-2.1423
X5.2096Y-3.1161
X5.2116Y-3.6132
X5.2244Y-1.2201
X5.2244Y-1.378
X5.2264Y-3.3553
X5.2323Y-2.2499
X5.2362Y-2.3228
X5.2377Y-2.7071
X5.253Y-3.1083
X5.2608Y-1.7717
X5.2638Y-1.2992
X5.2664Y-3.3602
X5.2673Y-2.1422
X5.2687Y-2.7126
X5.2702Y-3.6522
X5.2717Y-3.5779
X5.2779Y-2.7524
X5.2884Y-2.812
X5.2943Y-1.7717
X5.2953Y-3.1083
X5.2982Y-2.8681
X5.3031Y-1.2201
X5.3031Y-1.378
X5.3031Y-2.4104
X5.3036Y-3.6511
X5.3041Y-3.3602
X5.3051Y-3.5768
X5.3091Y-2.7569
X5.3204Y-2.6796
X5.3278Y-1.7717
X5.3314Y-2.429
X5.3406Y-3.2746
X5.3425Y-1.2992
X5.3425Y-3.1161
X5.3435Y-3.3602
X5.3511Y-2.6864
X5.3533Y-3.4972
X5.3612Y-1.7717
X5.3799Y-3.3484
X5.3819Y-1.2202
X5.3819Y-1.378
X5.3858Y-3.1211
X5.3947Y-1.7717
X5.3986Y-2.625
X5.4213Y-1.2992
X5.4411Y-3.1111
X5.4537Y-2.8533
X5.4607Y-2.7816
X5.4724Y-1.5945
X5.4724Y-1.6535
X5.4724Y-1.7126
X5.4744Y-3.1949
X5.4813Y-2.5984
X5.503Y-3.001
X5.5098Y-3.8445
X5.5115Y-2.353
X5.5118Y-1.4764
X5.5118Y-1.5354
X5.5153Y-3.3445
X5.5153Y-2.5856
X5.5165Y-2.7635
X5.5226Y-2.251
X5.5256Y-3.1152
X5.5335Y-3.4055
X5.5401Y-1.8237
X5.5414Y-2.3433
X5.5486Y-2.5894
X5.5491Y-3.2151
X5.5669Y-3.3671
X5.5699Y-2.3297
X5.5719Y-1.7972
X5.5748Y-2.1467
X5.5748Y-2.251
X5.5886Y-3.2156
X5.5906Y-3.3914
X5.5906Y-3.6003
X5.5962Y-2.3557
X5.5984Y-1.2992
X5.6094Y-3.326
X5.6122Y-3.8425
X5.6161Y-4.1663
X5.6211Y-3.4301
X5.6254Y-2.3438
X5.6344Y-3.3037
X5.6348Y-2.0423
X5.6348Y-2.0758
X5.6368Y-2.7776
X5.6378Y-1.2204
X5.6378Y-1.378
X5.6476Y-3.4543
X5.6496Y-2.1467
X5.6496Y-2.251
X5.6526Y-2.7037
X5.6535Y-2.3297
X5.6565Y-2.6457
X5.6575Y-2.5984
X5.6642Y-3.319
X5.6746Y-1.772
X5.6752Y-3.2874
X5.6772Y-1.2992
X5.689Y-3.4311
X5.7008Y-2.5541
X5.7008Y-2.69
X5.7018Y-2.1467
X5.7018Y-2.251
X5.7081Y-1.772
X5.7165Y-1.2205
X5.7165Y-1.378
X5.7244Y-3.4527
X5.7274Y-3.6959
X5.7415Y-1.772
X5.748Y-2.5541
X5.748Y-2.69
X5.748Y-3.7264
X5.7539Y-3.0207
X5.7559Y-1.2992
X5.775Y-1.772
X5.7756Y-3.8986
X5.7785Y-3.501
X5.7923Y-2.5984
X5.7923Y-2.6457
X5.7933Y-2.9321
X5.7953Y-1.2205
X5.7953Y-1.378
X5.8022Y-3.7254
X5.8085Y-1.772
X5.8252Y-2.3504
X5.8317Y-2.4685
X5.8346Y-1.2992
X5.8465Y-3.875
X5.8484Y-2.4418
X5.8484Y-3.2461
X5.85Y-2.3719
X5.8514Y-3.7451
X5.8524Y-3.8022
X5.867Y-3.4764
X5.8671Y-3.1191
X5.873Y-2.4085
X5.873Y-3.1644
X5.8858Y-1.5945
X5.8858Y-1.6535
X5.8858Y-1.7126
X5.8947Y-3.4045
X5.8976Y-2.4349
X5.9241Y-3.3932
X5.9252Y-1.4764
X5.9252Y-1.5354
X5.931Y-2.0131
X5.935Y-2.1476
X5.935Y-2.251
X5.935Y-3.498
X5.9439Y-1.7907
X5.9646Y-2.0157
X5.9646Y-3.4262
X5.9715Y-2.7559
X5.9754Y-3.502
X5.9852Y-1.7923
X5.9872Y-2.1467
X5.9872Y-2.251
X5.9921Y-3.3061
X5.9927Y-3.4121
X5.997Y-3.7717
X6.003Y-3.6181
X6.0118Y-1.2992
X6.0247Y-2.541
X6.0364Y-3.6929
X6.0364Y-3.8504
X6.0384Y-2.1467
X6.0384Y-2.251
X6.0394Y-2.7618
X6.0512Y-1.2207
X6.0512Y-1.378
X6.0557Y-2.5239
X6.0758Y-3.7717
X6.0827Y-2.6575
X6.0827Y-2.815
X6.0827Y-2.9724
X6.0827Y-3.1299
X6.0827Y-3.2874
X6.0906Y-1.2992
X6.0906Y-2.251
X6.122Y-2.5787
X6.122Y-2.7362
X6.122Y-2.8937
X6.122Y-3.0512
X6.122Y-3.2087
X6.122Y-3.3661
X6.122Y-3.9961
X6.1299Y-1.2208
X6.1299Y-1.378
X6.1614Y-2.5
X6.1614Y-2.6575
X6.1614Y-3.4449
X6.1614Y-3.9173
X6.1693Y-1.2992
X6.2008Y-2.5787
X6.2008Y-3.9961
X6.2087Y-1.2209
X6.2087Y-1.378
X6.2402Y-2.5
X6.2402Y-2.6575
X6.2402Y-3.6024
X6.2402Y-3.7598
X6.248Y-1.2992
X6.2795Y-1.6339
X6.2795Y-2.4213
X6.2795Y-2.5787
X6.2795Y-2.7362
X6.2795Y-2.8937
X6.2795Y-3.0512
X6.2795Y-3.2087
X6.2795Y-3.3661
X6.2795Y-3.5236
X6.2795Y-3.6811
X6.2795Y-3.9961
X6.2795Y-4.1535
X6.3189Y-2.3425
X6.3189Y-2.5
X6.3189Y-2.6575
X6.3189Y-3.7598
X6.3189Y-3.9173
X6.3189Y-4.0748
X6.3583Y-1.6339
X6.3583Y-2.2638
X6.3583Y-2.4213
X6.3583Y-2.5787
X6.3583Y-3.8386
X6.3583Y-3.9961
X6.3583Y-4.1535
X6.3976Y-1.7126
X6.3976Y-1.8701
X6.3976Y-2.0276
X6.3976Y-2.185
X6.3976Y-2.3425
X6.3976Y-2.5
X6.3976Y-2.6575
X6.3976Y-3.7598
X6.3976Y-3.9173
X6.437Y-1.6339
X6.437Y-1.7913
X6.437Y-1.9488
X6.437Y-2.1063
X6.437Y-2.2638
X6.437Y-2.4213
X6.437Y-2.5787
X6.437Y-3.9961
X6.4764Y-1.7126
X6.4764Y-1.8701
X6.4764Y-2.0276
X6.4764Y-2.185
X6.4764Y-2.3425
X6.4764Y-2.5
X6.4764Y-2.6575
X6.4764Y-3.7598
X6.4941Y-2.7717
X6.4941Y-2.8504
X6.4941Y-2.9291
X6.4941Y-3.0079
X6.4941Y-3.0866
X6.4941Y-3.1654
X6.4941Y-3.2441
X6.4941Y-3.3228
X6.4941Y-3.4016
T2
X6.088Y-1.772
X6.1215Y-1.772
X6.1549Y-1.772
X6.1884Y-1.772
X6.2219Y-1.772
T3
X4.973Y-3.9744
X5.0906Y-3.8569
X5.0906Y-3.9744
X5.0906Y-4.0919
X5.2081Y-3.9744
T4
X5.5689Y-4.2965
X5.6673Y-4.2965
X5.7657Y-4.2965
X5.8642Y-4.2965
T5
X5.3898Y-4.1575
X5.3898Y-4.2608
X5.3898Y-4.3638
X6.0419Y-4.1374
X6.0419Y-4.2407
X6.0419Y-4.3441
X6.1984Y-4.2398
X6.1984Y-4.3431
T6
X4.978Y-3.8589
X4.978Y-4.09
X5.2091Y-3.8589
X5.2091Y-4.09
X6.224Y-3.8579
X6.224Y-4.089
X6.4551Y-3.8579
X6.4551Y-4.089
T7
X5.0276Y-1.4724
X5.0276Y-4.3287
X6.4055Y-1.4724
X6.4055Y-4.3287
M30
