%TF.GenerationSoftware,KiCad,Pcbnew,9.0.7*%
%TF.CreationDate,2026-02-13T21:21:15+01:00*%
%TF.ProjectId,ESC_v3,4553435f-7633-42e6-9b69-6361645f7063,rev?*%
%TF.SameCoordinates,Original*%
%TF.FileFunction,Paste,Top*%
%TF.FilePolarity,Positive*%
%FSLAX46Y46*%
G04 Gerber Fmt 4.6, Leading zero omitted, Abs format (unit mm)*
G04 Created by KiCad (PCBNEW 9.0.7) date 2026-02-13 21:21:15*
%MOMM*%
%LPD*%
G01*
G04 APERTURE LIST*
G04 Aperture macros list*
%AMRoundRect*
0 Rectangle with rounded corners*
0 $1 Rounding radius*
0 $2 $3 $4 $5 $6 $7 $8 $9 X,Y pos of 4 corners*
0 Add a 4 corners polygon primitive as box body*
4,1,4,$2,$3,$4,$5,$6,$7,$8,$9,$2,$3,0*
0 Add four circle primitives for the rounded corners*
1,1,$1+$1,$2,$3*
1,1,$1+$1,$4,$5*
1,1,$1+$1,$6,$7*
1,1,$1+$1,$8,$9*
0 Add four rect primitives between the rounded corners*
20,1,$1+$1,$2,$3,$4,$5,0*
20,1,$1+$1,$4,$5,$6,$7,0*
20,1,$1+$1,$6,$7,$8,$9,0*
20,1,$1+$1,$8,$9,$2,$3,0*%
%AMFreePoly0*
4,1,18,-0.697500,2.280000,2.027500,2.280000,2.502500,2.280000,2.502500,1.530000,2.027500,1.530000,2.027500,-1.530000,2.502500,-1.530000,2.502500,-2.280000,-0.697500,-2.280000,-0.697500,-2.775000,-1.602500,-2.775000,-1.602500,-2.280000,-2.027500,-2.280000,-2.027500,2.280000,-1.602500,2.280000,-1.602500,2.775000,-0.697500,2.775000,-0.697500,2.280000,-0.697500,2.280000,$1*%
G04 Aperture macros list end*
%ADD10RoundRect,0.200000X-0.200000X-0.275000X0.200000X-0.275000X0.200000X0.275000X-0.200000X0.275000X0*%
%ADD11RoundRect,0.200000X0.275000X-0.200000X0.275000X0.200000X-0.275000X0.200000X-0.275000X-0.200000X0*%
%ADD12RoundRect,0.200000X-0.275000X0.200000X-0.275000X-0.200000X0.275000X-0.200000X0.275000X0.200000X0*%
%ADD13RoundRect,0.250000X0.450000X0.350000X-0.450000X0.350000X-0.450000X-0.350000X0.450000X-0.350000X0*%
%ADD14RoundRect,0.250000X-0.350000X0.275000X-0.350000X-0.275000X0.350000X-0.275000X0.350000X0.275000X0*%
%ADD15RoundRect,0.250000X0.250000X0.475000X-0.250000X0.475000X-0.250000X-0.475000X0.250000X-0.475000X0*%
%ADD16RoundRect,0.187500X0.187500X-0.312500X0.187500X0.312500X-0.187500X0.312500X-0.187500X-0.312500X0*%
%ADD17FreePoly0,90.000000*%
%ADD18RoundRect,0.125000X0.125000X-0.125000X0.125000X0.125000X-0.125000X0.125000X-0.125000X-0.125000X0*%
%ADD19RoundRect,0.250000X-1.425000X0.362500X-1.425000X-0.362500X1.425000X-0.362500X1.425000X0.362500X0*%
%ADD20RoundRect,0.200000X0.200000X0.275000X-0.200000X0.275000X-0.200000X-0.275000X0.200000X-0.275000X0*%
%ADD21RoundRect,0.250000X0.475000X-0.250000X0.475000X0.250000X-0.475000X0.250000X-0.475000X-0.250000X0*%
%ADD22C,3.100000*%
%ADD23RoundRect,0.075000X-0.662500X-0.075000X0.662500X-0.075000X0.662500X0.075000X-0.662500X0.075000X0*%
%ADD24RoundRect,0.075000X-0.075000X-0.662500X0.075000X-0.662500X0.075000X0.662500X-0.075000X0.662500X0*%
%ADD25RoundRect,0.250000X-0.475000X0.250000X-0.475000X-0.250000X0.475000X-0.250000X0.475000X0.250000X0*%
%ADD26RoundRect,0.166000X-0.664000X1.483437X-0.664000X-1.483437X0.664000X-1.483437X0.664000X1.483437X0*%
%ADD27RoundRect,0.165988X-0.663953X1.483220X-0.663953X-1.483220X0.663953X-1.483220X0.663953X1.483220X0*%
%ADD28RoundRect,0.018200X0.421800X0.111800X-0.421800X0.111800X-0.421800X-0.111800X0.421800X-0.111800X0*%
%ADD29RoundRect,0.018200X0.111800X0.421800X-0.111800X0.421800X-0.111800X-0.421800X0.111800X-0.421800X0*%
%ADD30R,4.150000X4.150000*%
%ADD31RoundRect,0.225000X-0.250000X0.225000X-0.250000X-0.225000X0.250000X-0.225000X0.250000X0.225000X0*%
%ADD32RoundRect,0.250000X-0.650000X-2.450000X0.650000X-2.450000X0.650000X2.450000X-0.650000X2.450000X0*%
%ADD33RoundRect,0.225000X0.225000X0.250000X-0.225000X0.250000X-0.225000X-0.250000X0.225000X-0.250000X0*%
G04 APERTURE END LIST*
D10*
%TO.C,R2*%
X152024626Y-40675000D03*
X153674626Y-40675000D03*
%TD*%
%TO.C,R24*%
X131025000Y-40675000D03*
X132675000Y-40675000D03*
%TD*%
D11*
%TO.C,R10*%
X146750000Y-54375000D03*
X146750000Y-52725000D03*
%TD*%
D12*
%TO.C,R44*%
X150626000Y-80525000D03*
X150626000Y-82175000D03*
%TD*%
D10*
%TO.C,R46*%
X132575000Y-63550000D03*
X134225000Y-63550000D03*
%TD*%
D13*
%TO.C,Y2*%
X134525000Y-80150000D03*
X132325000Y-80150000D03*
X132325000Y-81850000D03*
X134525000Y-81850000D03*
%TD*%
D14*
%TO.C,L2*%
X147025000Y-91075000D03*
X147025000Y-93375000D03*
%TD*%
D12*
%TO.C,R45*%
X152100000Y-80525000D03*
X152100000Y-82175000D03*
%TD*%
%TO.C,R53*%
X143250000Y-96475000D03*
X143250000Y-98125000D03*
%TD*%
D15*
%TO.C,C39*%
X150725000Y-91525000D03*
X148825000Y-91525000D03*
%TD*%
D16*
%TO.C,Q4*%
X143295000Y-47854750D03*
X144565000Y-47854750D03*
X145835000Y-47854750D03*
X147105000Y-47854750D03*
D17*
X145200000Y-44362500D03*
%TD*%
D18*
%TO.C,D8*%
X158924626Y-53275000D03*
X158924626Y-51075000D03*
%TD*%
D15*
%TO.C,C42*%
X150700000Y-93500000D03*
X148800000Y-93500000D03*
%TD*%
D19*
%TO.C,R29*%
X142575000Y-49912500D03*
X142575000Y-55837500D03*
%TD*%
%TO.C,R25*%
X153074626Y-49912500D03*
X153074626Y-55837500D03*
%TD*%
D20*
%TO.C,R37*%
X137700000Y-90850000D03*
X136050000Y-90850000D03*
%TD*%
D21*
%TO.C,C35*%
X145200000Y-92550000D03*
X145200000Y-90650000D03*
%TD*%
D10*
%TO.C,R38*%
X136200000Y-67000000D03*
X137850000Y-67000000D03*
%TD*%
D22*
%TO.C,J2*%
X126440000Y-98015000D03*
X126440000Y-103885000D03*
X132310000Y-98015000D03*
X132310000Y-103885000D03*
%TD*%
D12*
%TO.C,R41*%
X130100000Y-83150000D03*
X130100000Y-84800000D03*
%TD*%
%TO.C,R43*%
X144300000Y-75175000D03*
X144300000Y-76825000D03*
%TD*%
%TO.C,R54*%
X139800000Y-94825000D03*
X139800000Y-96475000D03*
%TD*%
D23*
%TO.C,U5*%
X139037500Y-81950000D03*
X139037500Y-82450000D03*
X139037500Y-82950000D03*
X139037500Y-83450000D03*
X139037500Y-83950000D03*
X139037500Y-84450000D03*
X139037500Y-84950000D03*
X139037500Y-85450000D03*
X139037500Y-85950000D03*
X139037500Y-86450000D03*
X139037500Y-86950000D03*
X139037500Y-87450000D03*
D24*
X140450000Y-88862500D03*
X140950000Y-88862500D03*
X141450000Y-88862500D03*
X141950000Y-88862500D03*
X142450000Y-88862500D03*
X142950000Y-88862500D03*
X143450000Y-88862500D03*
X143950000Y-88862500D03*
X144450000Y-88862500D03*
X144950000Y-88862500D03*
X145450000Y-88862500D03*
X145950000Y-88862500D03*
D23*
X147362500Y-87450000D03*
X147362500Y-86950000D03*
X147362500Y-86450000D03*
X147362500Y-85950000D03*
X147362500Y-85450000D03*
X147362500Y-84950000D03*
X147362500Y-84450000D03*
X147362500Y-83950000D03*
X147362500Y-83450000D03*
X147362500Y-82950000D03*
X147362500Y-82450000D03*
X147362500Y-81950000D03*
D24*
X145950000Y-80537500D03*
X145450000Y-80537500D03*
X144950000Y-80537500D03*
X144450000Y-80537500D03*
X143950000Y-80537500D03*
X143450000Y-80537500D03*
X142950000Y-80537500D03*
X142450000Y-80537500D03*
X141950000Y-80537500D03*
X141450000Y-80537500D03*
X140950000Y-80537500D03*
X140450000Y-80537500D03*
%TD*%
D15*
%TO.C,C6*%
X157649626Y-49600000D03*
X155749626Y-49600000D03*
%TD*%
D10*
%TO.C,R16*%
X141525000Y-40675000D03*
X143175000Y-40675000D03*
%TD*%
D25*
%TO.C,C40*%
X136500000Y-80375000D03*
X136500000Y-82275000D03*
%TD*%
D18*
%TO.C,D4*%
X148425000Y-53275000D03*
X148425000Y-51075000D03*
%TD*%
D25*
%TO.C,C28*%
X153400000Y-67400000D03*
X153400000Y-69300000D03*
%TD*%
D12*
%TO.C,R42*%
X142800000Y-75175000D03*
X142800000Y-76825000D03*
%TD*%
D11*
%TO.C,R12*%
X159124626Y-49925000D03*
X159124626Y-48275000D03*
%TD*%
D26*
%TO.C,D1*%
X161555000Y-92500557D03*
D27*
X154786061Y-92499688D03*
%TD*%
D28*
%TO.C,U2*%
X148335000Y-68850000D03*
X148335000Y-68350000D03*
X148335000Y-67850000D03*
X148335000Y-67350000D03*
X148335000Y-66850000D03*
X148335000Y-66350000D03*
X148335000Y-65850000D03*
X148335000Y-65350000D03*
X148335000Y-64850000D03*
X148335000Y-64350000D03*
D29*
X147650000Y-63665000D03*
X147150000Y-63665000D03*
X146650000Y-63665000D03*
X146150000Y-63665000D03*
X145650000Y-63665000D03*
X145150000Y-63665000D03*
X144650000Y-63665000D03*
X144150000Y-63665000D03*
X143650000Y-63665000D03*
X143150000Y-63665000D03*
D28*
X142465000Y-64350000D03*
X142465000Y-64850000D03*
X142465000Y-65350000D03*
X142465000Y-65850000D03*
X142465000Y-66350000D03*
X142465000Y-66850000D03*
X142465000Y-67350000D03*
X142465000Y-67850000D03*
X142465000Y-68350000D03*
X142465000Y-68850000D03*
D29*
X143150000Y-69535000D03*
X143650000Y-69535000D03*
X144150000Y-69535000D03*
X144650000Y-69535000D03*
X145150000Y-69535000D03*
X145650000Y-69535000D03*
X146150000Y-69535000D03*
X146650000Y-69535000D03*
X147150000Y-69535000D03*
X147650000Y-69535000D03*
D30*
X145400000Y-66600000D03*
%TD*%
D15*
%TO.C,C41*%
X134675000Y-83725000D03*
X132775000Y-83725000D03*
%TD*%
D11*
%TO.C,R52*%
X144725000Y-98125000D03*
X144725000Y-96475000D03*
%TD*%
D21*
%TO.C,C43*%
X143225000Y-93125000D03*
X143225000Y-91225000D03*
%TD*%
D11*
%TO.C,R18*%
X138125000Y-49925000D03*
X138125000Y-48275000D03*
%TD*%
D25*
%TO.C,C38*%
X140875000Y-76225000D03*
X140875000Y-78125000D03*
%TD*%
%TO.C,C37*%
X148000000Y-78650000D03*
X148000000Y-80550000D03*
%TD*%
D15*
%TO.C,C36*%
X149875000Y-88850000D03*
X147975000Y-88850000D03*
%TD*%
D31*
%TO.C,C23*%
X151675000Y-67650000D03*
X151675000Y-69200000D03*
%TD*%
D10*
%TO.C,R48*%
X132575000Y-66650000D03*
X134225000Y-66650000D03*
%TD*%
D19*
%TO.C,R30*%
X132075000Y-49912500D03*
X132075000Y-55837500D03*
%TD*%
D11*
%TO.C,R8*%
X148625000Y-49925000D03*
X148625000Y-48275000D03*
%TD*%
D20*
%TO.C,R39*%
X137700000Y-92725000D03*
X136050000Y-92725000D03*
%TD*%
D15*
%TO.C,C8*%
X147150000Y-49600000D03*
X145250000Y-49600000D03*
%TD*%
D32*
%TO.C,C19*%
X157825000Y-78300000D03*
X162925000Y-78300000D03*
%TD*%
D22*
%TO.C,J11*%
X158090000Y-97990000D03*
X158090000Y-103860000D03*
X163960000Y-97990000D03*
X163960000Y-103860000D03*
%TD*%
D33*
%TO.C,C20*%
X150425000Y-71000000D03*
X148875000Y-71000000D03*
%TD*%
D18*
%TO.C,D6*%
X137925000Y-53275000D03*
X137925000Y-51075000D03*
%TD*%
D16*
%TO.C,Q2*%
X153794626Y-47854750D03*
X155064626Y-47854750D03*
X156334626Y-47854750D03*
X157604626Y-47854750D03*
D17*
X155699626Y-44362500D03*
%TD*%
D25*
%TO.C,C32*%
X141525000Y-96500000D03*
X141525000Y-98400000D03*
%TD*%
D15*
%TO.C,C12*%
X136650000Y-49600000D03*
X134750000Y-49600000D03*
%TD*%
D25*
%TO.C,C9*%
X141525000Y-42150000D03*
X141525000Y-44050000D03*
%TD*%
%TO.C,C13*%
X131025000Y-42150000D03*
X131025000Y-44050000D03*
%TD*%
D16*
%TO.C,Q6*%
X132795000Y-47851585D03*
X134065000Y-47851585D03*
X135335000Y-47851585D03*
X136605000Y-47851585D03*
D17*
X134700000Y-44359335D03*
%TD*%
D20*
%TO.C,R22*%
X136325000Y-51325000D03*
X134675000Y-51325000D03*
%TD*%
D11*
%TO.C,R20*%
X136250000Y-54375000D03*
X136250000Y-52725000D03*
%TD*%
D15*
%TO.C,C48*%
X137050000Y-88825000D03*
X135150000Y-88825000D03*
%TD*%
D12*
%TO.C,R40*%
X128625000Y-83150000D03*
X128625000Y-84800000D03*
%TD*%
D11*
%TO.C,R4*%
X157249626Y-54375000D03*
X157249626Y-52725000D03*
%TD*%
D20*
%TO.C,R34*%
X137700000Y-94200000D03*
X136050000Y-94200000D03*
%TD*%
%TO.C,R6*%
X157324626Y-51325000D03*
X155674626Y-51325000D03*
%TD*%
D10*
%TO.C,R47*%
X132575000Y-65100000D03*
X134225000Y-65100000D03*
%TD*%
D32*
%TO.C,C26*%
X157825000Y-84225000D03*
X162925000Y-84225000D03*
%TD*%
%TO.C,C1*%
X157825000Y-72375000D03*
X162925000Y-72375000D03*
%TD*%
D25*
%TO.C,C3*%
X152024626Y-42150000D03*
X152024626Y-44050000D03*
%TD*%
D31*
%TO.C,C22*%
X150200000Y-67650000D03*
X150200000Y-69200000D03*
%TD*%
D20*
%TO.C,R14*%
X146825000Y-51325000D03*
X145175000Y-51325000D03*
%TD*%
D25*
%TO.C,C24*%
X138875000Y-78150000D03*
X138875000Y-80050000D03*
%TD*%
M02*
