%TF.GenerationSoftware,KiCad,Pcbnew,9.0.7*%
%TF.CreationDate,2026-02-13T21:21:15+01:00*%
%TF.ProjectId,ESC_v3,4553435f-7633-42e6-9b69-6361645f7063,rev?*%
%TF.SameCoordinates,Original*%
%TF.FileFunction,Soldermask,Bot*%
%TF.FilePolarity,Negative*%
%FSLAX46Y46*%
G04 Gerber Fmt 4.6, Leading zero omitted, Abs format (unit mm)*
G04 Created by KiCad (PCBNEW 9.0.7) date 2026-02-13 21:21:15*
%MOMM*%
%LPD*%
G01*
G04 APERTURE LIST*
G04 Aperture macros list*
%AMRoundRect*
0 Rectangle with rounded corners*
0 $1 Rounding radius*
0 $2 $3 $4 $5 $6 $7 $8 $9 X,Y pos of 4 corners*
0 Add a 4 corners polygon primitive as box body*
4,1,4,$2,$3,$4,$5,$6,$7,$8,$9,$2,$3,0*
0 Add four circle primitives for the rounded corners*
1,1,$1+$1,$2,$3*
1,1,$1+$1,$4,$5*
1,1,$1+$1,$6,$7*
1,1,$1+$1,$8,$9*
0 Add four rect primitives between the rounded corners*
20,1,$1+$1,$2,$3,$4,$5,0*
20,1,$1+$1,$4,$5,$6,$7,0*
20,1,$1+$1,$6,$7,$8,$9,0*
20,1,$1+$1,$8,$9,$2,$3,0*%
%AMFreePoly0*
4,1,18,-0.697500,2.280000,2.027500,2.280000,2.502500,2.280000,2.502500,1.530000,2.027500,1.530000,2.027500,-1.530000,2.502500,-1.530000,2.502500,-2.280000,-0.697500,-2.280000,-0.697500,-2.775000,-1.602500,-2.775000,-1.602500,-2.280000,-2.027500,-2.280000,-2.027500,2.280000,-1.602500,2.280000,-1.602500,2.775000,-0.697500,2.775000,-0.697500,2.280000,-0.697500,2.280000,$1*%
G04 Aperture macros list end*
%ADD10R,1.700000X1.700000*%
%ADD11C,3.200000*%
%ADD12C,5.500000*%
%ADD13RoundRect,0.250000X-0.600000X-0.725000X0.600000X-0.725000X0.600000X0.725000X-0.600000X0.725000X0*%
%ADD14O,1.700000X1.950000*%
%ADD15RoundRect,0.200000X-0.275000X0.200000X-0.275000X-0.200000X0.275000X-0.200000X0.275000X0.200000X0*%
%ADD16RoundRect,0.187500X0.187500X-0.312500X0.187500X0.312500X-0.187500X0.312500X-0.187500X-0.312500X0*%
%ADD17FreePoly0,90.000000*%
%ADD18RoundRect,0.250000X-0.250000X-0.475000X0.250000X-0.475000X0.250000X0.475000X-0.250000X0.475000X0*%
%ADD19RoundRect,0.250000X0.350000X-0.275000X0.350000X0.275000X-0.350000X0.275000X-0.350000X-0.275000X0*%
%ADD20RoundRect,0.200000X0.275000X-0.200000X0.275000X0.200000X-0.275000X0.200000X-0.275000X-0.200000X0*%
%ADD21RoundRect,0.125000X0.125000X-0.125000X0.125000X0.125000X-0.125000X0.125000X-0.125000X-0.125000X0*%
%ADD22RoundRect,0.200000X0.200000X0.275000X-0.200000X0.275000X-0.200000X-0.275000X0.200000X-0.275000X0*%
%ADD23RoundRect,0.250000X-0.650000X-2.450000X0.650000X-2.450000X0.650000X2.450000X-0.650000X2.450000X0*%
%ADD24RoundRect,0.150000X0.150000X-0.512500X0.150000X0.512500X-0.150000X0.512500X-0.150000X-0.512500X0*%
%ADD25RoundRect,0.250000X-0.475000X0.250000X-0.475000X-0.250000X0.475000X-0.250000X0.475000X0.250000X0*%
%ADD26RoundRect,0.250000X0.475000X-0.250000X0.475000X0.250000X-0.475000X0.250000X-0.475000X-0.250000X0*%
%ADD27RoundRect,0.250000X0.250000X0.475000X-0.250000X0.475000X-0.250000X-0.475000X0.250000X-0.475000X0*%
%ADD28RoundRect,0.200000X-0.200000X-0.275000X0.200000X-0.275000X0.200000X0.275000X-0.200000X0.275000X0*%
%ADD29RoundRect,0.150000X-0.150000X0.825000X-0.150000X-0.825000X0.150000X-0.825000X0.150000X0.825000X0*%
G04 APERTURE END LIST*
D10*
%TO.C,J6*%
X153465000Y-107715000D03*
%TD*%
%TO.C,J4*%
X157440000Y-110315000D03*
%TD*%
%TO.C,J9*%
X136900000Y-105600000D03*
%TD*%
D11*
%TO.C,J2*%
X126440000Y-98015000D03*
X126440000Y-103885000D03*
X132310000Y-98015000D03*
X132310000Y-103885000D03*
%TD*%
D10*
%TO.C,J7*%
X157440000Y-107690000D03*
%TD*%
D12*
%TO.C,H4*%
X162700000Y-109950000D03*
%TD*%
D10*
%TO.C,J8*%
X136900000Y-110840000D03*
%TD*%
%TO.C,J10*%
X136900000Y-108225000D03*
%TD*%
%TO.C,J3*%
X153465000Y-105090000D03*
%TD*%
D11*
%TO.C,J11*%
X158090000Y-97990000D03*
X158090000Y-103860000D03*
X163960000Y-97990000D03*
X163960000Y-103860000D03*
%TD*%
D12*
%TO.C,H2*%
X162700000Y-37400000D03*
%TD*%
D13*
%TO.C,J1*%
X141450000Y-109130000D03*
D14*
X143950000Y-109130000D03*
X146450000Y-109130000D03*
X148950000Y-109130000D03*
%TD*%
D12*
%TO.C,H1*%
X127700000Y-37400000D03*
%TD*%
D10*
%TO.C,J5*%
X153465000Y-110340000D03*
%TD*%
D12*
%TO.C,H3*%
X127700000Y-109950000D03*
%TD*%
D15*
%TO.C,R36*%
X138050000Y-83275000D03*
X138050000Y-84925000D03*
%TD*%
D16*
%TO.C,Q5*%
X136605000Y-45892250D03*
X135335000Y-45892250D03*
X134065000Y-45892250D03*
X132795000Y-45892250D03*
D17*
X134700000Y-42400000D03*
%TD*%
D18*
%TO.C,C25*%
X140875000Y-64500000D03*
X142775000Y-64500000D03*
%TD*%
%TO.C,C49*%
X145975000Y-102750000D03*
X147875000Y-102750000D03*
%TD*%
D19*
%TO.C,L1*%
X149475000Y-105050000D03*
X149475000Y-102750000D03*
%TD*%
D20*
%TO.C,R31*%
X140675000Y-72825000D03*
X140675000Y-71175000D03*
%TD*%
D15*
%TO.C,R33*%
X144500000Y-90850000D03*
X144500000Y-92500000D03*
%TD*%
D18*
%TO.C,C33*%
X139525000Y-83025000D03*
X141425000Y-83025000D03*
%TD*%
D21*
%TO.C,D2*%
X152274626Y-52325000D03*
X152274626Y-50125000D03*
%TD*%
D15*
%TO.C,R32*%
X140700000Y-90850000D03*
X140700000Y-92500000D03*
%TD*%
D22*
%TO.C,R13*%
X146050000Y-47380000D03*
X144400000Y-47380000D03*
%TD*%
D20*
%TO.C,R28*%
X136100000Y-66000000D03*
X136100000Y-64350000D03*
%TD*%
D22*
%TO.C,R21*%
X135550000Y-47378165D03*
X133900000Y-47378165D03*
%TD*%
D23*
%TO.C,C30*%
X157825000Y-78300000D03*
X162925000Y-78300000D03*
%TD*%
D15*
%TO.C,R51*%
X142650000Y-101525000D03*
X142650000Y-103175000D03*
%TD*%
D22*
%TO.C,R35*%
X142625000Y-80425000D03*
X140975000Y-80425000D03*
%TD*%
D24*
%TO.C,D9*%
X143600000Y-107037500D03*
X141700000Y-107037500D03*
X142650000Y-104762500D03*
%TD*%
D16*
%TO.C,Q3*%
X147105000Y-45897250D03*
X145835000Y-45897250D03*
X144565000Y-45897250D03*
X143295000Y-45897250D03*
D17*
X145200000Y-42405000D03*
%TD*%
D25*
%TO.C,C46*%
X149700000Y-87275000D03*
X149700000Y-89175000D03*
%TD*%
D18*
%TO.C,C44*%
X147575000Y-107025000D03*
X149475000Y-107025000D03*
%TD*%
D20*
%TO.C,R17*%
X132500000Y-48978165D03*
X132500000Y-47328165D03*
%TD*%
D22*
%TO.C,R3*%
X156549626Y-47375000D03*
X154899626Y-47375000D03*
%TD*%
D26*
%TO.C,C16*%
X142775000Y-92400000D03*
X142775000Y-90500000D03*
%TD*%
D25*
%TO.C,C17*%
X146300000Y-95900000D03*
X146300000Y-97800000D03*
%TD*%
%TO.C,C47*%
X151775000Y-87850000D03*
X151775000Y-89750000D03*
%TD*%
%TO.C,C15*%
X141525000Y-40155000D03*
X141525000Y-42055000D03*
%TD*%
D15*
%TO.C,R50*%
X144125000Y-101525000D03*
X144125000Y-103175000D03*
%TD*%
D20*
%TO.C,R1*%
X158199626Y-52350000D03*
X158199626Y-50700000D03*
%TD*%
D22*
%TO.C,R26*%
X137250000Y-72600000D03*
X135600000Y-72600000D03*
%TD*%
D23*
%TO.C,C31*%
X157825000Y-72375000D03*
X162925000Y-72375000D03*
%TD*%
D27*
%TO.C,C7*%
X145975000Y-50630000D03*
X144075000Y-50630000D03*
%TD*%
D21*
%TO.C,D5*%
X131275000Y-52328165D03*
X131275000Y-50128165D03*
%TD*%
D28*
%TO.C,R27*%
X137525000Y-64125000D03*
X139175000Y-64125000D03*
%TD*%
D18*
%TO.C,C50*%
X147575000Y-100775000D03*
X149475000Y-100775000D03*
%TD*%
D26*
%TO.C,C14*%
X137200000Y-49303165D03*
X137200000Y-47403165D03*
%TD*%
D27*
%TO.C,C5*%
X156474626Y-50625000D03*
X154574626Y-50625000D03*
%TD*%
D23*
%TO.C,C29*%
X157825000Y-84225000D03*
X162925000Y-84225000D03*
%TD*%
D21*
%TO.C,D3*%
X141775000Y-52330000D03*
X141775000Y-50130000D03*
%TD*%
D29*
%TO.C,U1*%
X140695000Y-94375000D03*
X141965000Y-94375000D03*
X143235000Y-94375000D03*
X144505000Y-94375000D03*
X144505000Y-99325000D03*
X143235000Y-99325000D03*
X141965000Y-99325000D03*
X140695000Y-99325000D03*
%TD*%
D20*
%TO.C,R11*%
X152024626Y-48975000D03*
X152024626Y-47325000D03*
%TD*%
%TO.C,R9*%
X143000000Y-48980000D03*
X143000000Y-47330000D03*
%TD*%
D25*
%TO.C,C34*%
X138900000Y-71475000D03*
X138900000Y-73375000D03*
%TD*%
D23*
%TO.C,C27*%
X157825000Y-90150000D03*
X162925000Y-90150000D03*
%TD*%
D26*
%TO.C,C2*%
X158199626Y-49300000D03*
X158199626Y-47400000D03*
%TD*%
D20*
%TO.C,R15*%
X147700000Y-52355000D03*
X147700000Y-50705000D03*
%TD*%
D26*
%TO.C,C10*%
X147700000Y-49305000D03*
X147700000Y-47405000D03*
%TD*%
D20*
%TO.C,R5*%
X153499626Y-48975000D03*
X153499626Y-47325000D03*
%TD*%
D16*
%TO.C,Q1*%
X157604626Y-45892250D03*
X156334626Y-45892250D03*
X155064626Y-45892250D03*
X153794626Y-45892250D03*
D17*
X155699626Y-42400000D03*
%TD*%
D20*
%TO.C,R19*%
X131025000Y-48978165D03*
X131025000Y-47328165D03*
%TD*%
%TO.C,R7*%
X141525000Y-48980000D03*
X141525000Y-47330000D03*
%TD*%
D18*
%TO.C,C45*%
X145975000Y-105050000D03*
X147875000Y-105050000D03*
%TD*%
D25*
%TO.C,C18*%
X131025000Y-40153165D03*
X131025000Y-42053165D03*
%TD*%
D15*
%TO.C,R49*%
X141197000Y-101525000D03*
X141197000Y-103175000D03*
%TD*%
D27*
%TO.C,C11*%
X135475000Y-50628165D03*
X133575000Y-50628165D03*
%TD*%
D26*
%TO.C,C21*%
X144575000Y-71100000D03*
X144575000Y-69200000D03*
%TD*%
D25*
%TO.C,C4*%
X152024626Y-40150000D03*
X152024626Y-42050000D03*
%TD*%
D20*
%TO.C,R23*%
X137200000Y-52353165D03*
X137200000Y-50703165D03*
%TD*%
M02*
